  0
SECTION
  2
HEADER
  9
$ACADVER
  1
AC1009
  9
$FILLMODE
 70
0
  9
$EXTMIN
 10
-6.9418
 20
-7.0150
 30
0.0000
  9
$EXTMAX
 10
108.0150
 20
53.1318
 30
0.0000
  0
ENDSEC
  0
SECTION
  2
TABLES
  0
TABLE
  2
LTYPE
 70
1
  0
LTYPE
  2
CONTINUOUS
 70
64
  3
Solid line
 72
65
 73
0
 40
0
  0
ENDTAB
  0
TABLE
  2
LAYER
 70
255
  0
LAYER
  2
1
 70
64
 62
12
  6
CONTINUOUS
  0
LAYER
  2
16
 70
64
 62
132
  6
CONTINUOUS
  0
LAYER
  2
17
 70
64
 62
110
  6
CONTINUOUS
  0
LAYER
  2
18
 70
64
 62
110
  6
CONTINUOUS
  0
LAYER
  2
19
 70
64
 62
53
  6
CONTINUOUS
  0
LAYER
  2
20
 70
64
 62
31
  6
CONTINUOUS
  0
LAYER
  2
21
 70
64
 62
253
  6
CONTINUOUS
  0
LAYER
  2
22
 70
64
 62
253
  6
CONTINUOUS
  0
LAYER
  2
23
 70
64
 62
53
  6
CONTINUOUS
  0
LAYER
  2
24
 70
64
 62
53
  6
CONTINUOUS
  0
LAYER
  2
25
 70
64
 62
253
  6
CONTINUOUS
  0
LAYER
  2
26
 70
64
 62
253
  6
CONTINUOUS
  0
LAYER
  2
27
 70
64
 62
253
  6
CONTINUOUS
  0
LAYER
  2
28
 70
64
 62
253
  6
CONTINUOUS
  0
LAYER
  2
39
 70
64
 62
12
  6
CONTINUOUS
  0
LAYER
  2
40
 70
64
 62
132
  6
CONTINUOUS
  0
LAYER
  2
41
 70
64
 62
12
  6
CONTINUOUS
  0
LAYER
  2
42
 70
64
 62
132
  6
CONTINUOUS
  0
LAYER
  2
43
 70
64
 62
110
  6
CONTINUOUS
  0
LAYER
  2
45
 70
64
 62
253
  6
CONTINUOUS
  0
LAYER
  2
48
 70
64
 62
253
  6
CONTINUOUS
  0
LAYER
  2
49
 70
64
 62
253
  6
CONTINUOUS
  0
LAYER
  2
52
 70
64
 62
253
  6
CONTINUOUS
  0
ENDTAB
  0
ENDSEC
  0
SECTION
  2
BLOCKS
  0
BLOCK
  8
0
  2
RECT
 70
64
 10
0.0000
 20
0.0000
 30
0.0000
  3
RECT
  0
SOLID
  8
0
 10
-0.5000
 20
-0.5000
 30
0.0000
 11
0.5000
 21
-0.5000
 31
0.0000
 12
-0.5000
 22
0.5000
 32
0.0000
 13
0.5000
 23
0.5000
 33
0.0000
  0
ENDBLK
  8
0
  0
BLOCK
  8
0
  2
PIE
 70
64
 10
0.0000
 20
0.0000
 30
0.0000
  3
PIE
  0
CIRCLE
  8
0
 10
0.0000
 20
0.0000
 30
0.0000
 40
0.5000
  0
ENDBLK
  8
0
  0
BLOCK
  8
0
  2
OCTAGONP
 70
64
 10
0.0000
 20
0.0000
 30
0.0000
  3
OCTAGONP
  0
POLYLINE
  8
0
 66
1
 10
0.0000
 20
0.0000
 30
0.0000
 40
0.0000
 41
0.0000
 70
1
  0
VERTEX
  8
0
 10
-0.5000
 20
-0.2071
 30
0.0000
  0
VERTEX
  8
0
 10
-0.5000
 20
0.2071
 30
0.0000
  0
VERTEX
  8
0
 10
-0.2071
 20
0.5000
 30
0.0000
  0
VERTEX
  8
0
 10
0.2071
 20
0.5000
 30
0.0000
  0
VERTEX
  8
0
 10
0.5000
 20
0.2071
 30
0.0000
  0
VERTEX
  8
0
 10
0.5000
 20
-0.2071
 30
0.0000
  0
VERTEX
  8
0
 10
0.2071
 20
-0.5000
 30
0.0000
  0
VERTEX
  8
0
 10
-0.2071
 20
-0.5000
 30
0.0000
  0
SEQEND
  8
0
  0
ENDBLK
  8
0
  0
BLOCK
  8
0
  2
SQUAREP
 70
64
 10
0.0000
 20
0.0000
 30
0.0000
  3
SQUAREP
  0
SOLID
  8
0
 10
-0.5000
 20
-0.5000
 30
0.0000
 11
0.5000
 21
-0.5000
 31
0.0000
 12
-0.5000
 22
0.5000
 32
0.0000
 13
0.5000
 23
0.5000
 33
0.0000
  0
ENDBLK
  8
0
  0
BLOCK
  8
0
  2
ROUNDP
 70
64
 10
0.0000
 20
0.0000
 30
0.0000
  3
ROUNDP
  0
CIRCLE
  8
0
 10
0.0000
 20
0.0000
 30
0.0000
 40
0.5000
  0
ENDBLK
  8
0
  0
BLOCK
  8
0
  2
ANNULUSP
 70
64
 10
0.0000
 20
0.0000
 30
0.0000
  3
ANNULUSP
  0
CIRCLE
  8
0
 10
0.0000
 20
0.0000
 30
0.0000
 40
0.5000
  0
ENDBLK
  8
0
  0
BLOCK
  8
0
  2
THERMALP
 70
64
 10
0.0000
 20
0.0000
 30
0.0000
  3
THERMALP
  0
LINE
  8
0
 10
-0.2379
 20
0.4500
 30
0.0000
 11
0.2379
 21
0.4500
 31
0.0000
  0
LINE
  8
0
 10
0.4500
 20
0.2379
 30
0.0000
 11
0.4500
 21
-0.2379
 31
0.0000
  0
LINE
  8
0
 10
0.2379
 20
-0.4500
 30
0.0000
 11
-0.2379
 21
-0.4500
 31
0.0000
  0
LINE
  8
0
 10
-0.4500
 20
-0.2379
 30
0.0000
 11
-0.4500
 21
0.2379
 31
0.0000
  0
ENDBLK
  8
0
  0
BLOCK
  8
0
  2
OCTAGONV
 70
64
 10
0.0000
 20
0.0000
 30
0.0000
  3
OCTAGONV
  0
POLYLINE
  8
0
 66
1
 10
0.0000
 20
0.0000
 30
0.0000
 40
0.0000
 41
0.0000
 70
1
  0
VERTEX
  8
0
 10
-0.5000
 20
-0.2071
 30
0.0000
  0
VERTEX
  8
0
 10
-0.5000
 20
0.2071
 30
0.0000
  0
VERTEX
  8
0
 10
-0.2071
 20
0.5000
 30
0.0000
  0
VERTEX
  8
0
 10
0.2071
 20
0.5000
 30
0.0000
  0
VERTEX
  8
0
 10
0.5000
 20
0.2071
 30
0.0000
  0
VERTEX
  8
0
 10
0.5000
 20
-0.2071
 30
0.0000
  0
VERTEX
  8
0
 10
0.2071
 20
-0.5000
 30
0.0000
  0
VERTEX
  8
0
 10
-0.2071
 20
-0.5000
 30
0.0000
  0
SEQEND
  8
0
  0
ENDBLK
  8
0
  0
BLOCK
  8
0
  2
SQUAREV
 70
64
 10
0.0000
 20
0.0000
 30
0.0000
  3
SQUAREV
  0
SOLID
  8
0
 10
-0.5000
 20
-0.5000
 30
0.0000
 11
0.5000
 21
-0.5000
 31
0.0000
 12
-0.5000
 22
0.5000
 32
0.0000
 13
0.5000
 23
0.5000
 33
0.0000
  0
ENDBLK
  8
0
  0
BLOCK
  8
0
  2
ROUNDV
 70
64
 10
0.0000
 20
0.0000
 30
0.0000
  3
ROUNDV
  0
CIRCLE
  8
0
 10
0.0000
 20
0.0000
 30
0.0000
 40
0.5000
  0
ENDBLK
  8
0
  0
BLOCK
  8
0
  2
ANNULUSV
 70
64
 10
0.0000
 20
0.0000
 30
0.0000
  3
ANNULUSV
  0
CIRCLE
  8
0
 10
0.0000
 20
0.0000
 30
0.0000
 40
0.5000
  0
ENDBLK
  8
0
  0
BLOCK
  8
0
  2
THERMALV
 70
64
 10
0.0000
 20
0.0000
 30
0.0000
  3
THERMALV
  0
LINE
  8
0
 10
-0.2379
 20
0.4500
 30
0.0000
 11
0.2379
 21
0.4500
 31
0.0000
  0
LINE
  8
0
 10
0.4500
 20
0.2379
 30
0.0000
 11
0.4500
 21
-0.2379
 31
0.0000
  0
LINE
  8
0
 10
0.2379
 20
-0.4500
 30
0.0000
 11
-0.2379
 21
-0.4500
 31
0.0000
  0
LINE
  8
0
 10
-0.4500
 20
-0.2379
 30
0.0000
 11
-0.4500
 21
0.2379
 31
0.0000
  0
ENDBLK
  8
0
  0
ENDSEC
  0
SECTION
  2
ENTITIES
  0
LINE
  8
20
 10
0.0000
 20
0.0000
 30
0.0000
 11
95.0000
 21
0.0000
 31
0.0000
  0
LINE
  8
20
 10
95.0000
 20
0.0000
 30
0.0000
 11
95.0000
 21
47.0000
 31
0.0000
  0
LINE
  8
20
 10
95.0000
 20
47.0000
 30
0.0000
 11
0.0000
 21
47.0000
 31
0.0000
  0
LINE
  8
20
 10
0.0000
 20
47.0000
 30
0.0000
 11
0.0000
 21
0.0000
 31
0.0000
  0
LINE
  8
20
 10
0.0000
 20
46.9900
 30
0.0000
 11
-5.7150
 21
46.9900
 31
0.0000
  0
LINE
  8
20
 10
0.0000
 20
0.0000
 30
0.0000
 11
-5.7150
 21
0.0000
 31
0.0000
  0
LINE
  8
20
 10
-3.8100
 20
46.9265
 30
0.0000
 11
-3.8100
 21
0.0635
 31
0.0000
  0
LINE
  8
20
 10
-3.8100
 20
46.9265
 30
0.0000
 11
-4.1219
 21
44.4500
 31
0.0000
  0
LINE
  8
20
 10
-4.1219
 20
44.4500
 30
0.0000
 11
-3.4981
 21
44.4500
 31
0.0000
  0
LINE
  8
20
 10
-3.4981
 20
44.4500
 30
0.0000
 11
-3.8100
 21
46.9265
 31
0.0000
  0
LINE
  8
20
 10
-3.8100
 20
46.9265
 30
0.0000
 11
-3.9370
 21
44.4500
 31
0.0000
  0
LINE
  8
20
 10
-3.6830
 20
44.4500
 30
0.0000
 11
-3.8100
 21
46.9265
 31
0.0000
  0
LINE
  8
20
 10
-3.8100
 20
46.9265
 30
0.0000
 11
-4.0640
 21
44.4500
 31
0.0000
  0
LINE
  8
20
 10
-3.5560
 20
44.4500
 30
0.0000
 11
-3.8100
 21
46.9265
 31
0.0000
  0
LINE
  8
20
 10
-3.8100
 20
0.0635
 30
0.0000
 11
-4.1219
 21
2.5400
 31
0.0000
  0
LINE
  8
20
 10
-4.1219
 20
2.5400
 30
0.0000
 11
-3.4981
 21
2.5400
 31
0.0000
  0
LINE
  8
20
 10
-3.4981
 20
2.5400
 30
0.0000
 11
-3.8100
 21
0.0635
 31
0.0000
  0
LINE
  8
20
 10
-3.8100
 20
0.0635
 30
0.0000
 11
-3.9370
 21
2.5400
 31
0.0000
  0
LINE
  8
20
 10
-3.6830
 20
2.5400
 30
0.0000
 11
-3.8100
 21
0.0635
 31
0.0000
  0
LINE
  8
20
 10
-3.8100
 20
0.0635
 30
0.0000
 11
-4.0640
 21
2.5400
 31
0.0000
  0
LINE
  8
20
 10
-3.5560
 20
2.5400
 30
0.0000
 11
-3.8100
 21
0.0635
 31
0.0000
  0
LINE
  8
20
 10
-6.0833
 20
21.4555
 30
0.0000
 11
-4.8189
 21
21.0943
 31
0.0000
  0
LINE
  8
20
 10
-4.8189
 20
21.0943
 30
0.0000
 11
-4.8189
 21
21.9974
 31
0.0000
  0
LINE
  8
20
 10
-5.1802
 20
21.7264
 30
0.0000
 11
-4.4577
 21
21.7264
 31
0.0000
  0
LINE
  8
20
 10
-5.9027
 20
22.6574
 30
0.0000
 11
-6.0833
 21
22.6574
 31
0.0000
  0
LINE
  8
20
 10
-6.0833
 20
22.6574
 30
0.0000
 11
-6.0833
 21
23.5605
 31
0.0000
  0
LINE
  8
20
 10
-6.0833
 20
23.5605
 30
0.0000
 11
-4.4577
 21
23.1089
 31
0.0000
  0
LINE
  8
20
 10
-4.4577
 20
24.1580
 30
0.0000
 11
-4.5480
 21
24.1580
 31
0.0000
  0
LINE
  8
20
 10
-4.5480
 20
24.1580
 30
0.0000
 11
-4.5480
 21
24.2483
 31
0.0000
  0
LINE
  8
20
 10
-4.5480
 20
24.2483
 30
0.0000
 11
-4.4577
 21
24.2483
 31
0.0000
  0
LINE
  8
20
 10
-4.4577
 20
24.2483
 30
0.0000
 11
-4.4577
 21
24.1580
 31
0.0000
  0
ARC
  8
20
 10
-5.2705
 20
26.1854
 30
0.0000
 40
1.3396
 50
244.0109
 51
270.0001
  0
ARC
  8
20
 10
-5.7492
 20
25.2973
 30
0.0000
 40
0.3342
 50
180.0001
 51
251.0756
  0
ARC
  8
20
 10
-5.7491
 20
25.2973
 30
0.0000
 40
0.3342
 50
108.9248
 51
180.0000
  0
ARC
  8
20
 10
-5.2705
 20
24.4093
 30
0.0000
 40
1.3396
 50
90.0000
 51
115.9891
  0
ARC
  8
20
 10
-5.2705
 20
26.1854
 30
0.0000
 40
1.3396
 50
270.0000
 51
295.9889
  0
ARC
  8
20
 10
-4.7919
 20
25.2973
 30
0.0000
 40
0.3342
 50
288.9250
 51
0.0000
  0
ARC
  8
20
 10
-5.2705
 20
24.4092
 30
0.0000
 40
1.3396
 50
64.0111
 51
90.0000
  0
ARC
  8
20
 10
-4.7919
 20
25.2973
 30
0.0000
 40
0.3342
 50
359.9999
 51
71.0745
  0
LINE
  8
20
 10
-4.8189
 20
24.9361
 30
0.0000
 11
-5.7221
 21
25.6586
 31
0.0000
  0
LINE
  8
20
 10
0.0000
 20
47.0000
 30
0.0000
 11
0.0000
 21
51.9050
 31
0.0000
  0
LINE
  8
20
 10
95.0000
 20
47.0000
 30
0.0000
 11
95.0000
 21
51.9050
 31
0.0000
  0
LINE
  8
20
 10
0.0635
 20
50.0000
 30
0.0000
 11
94.9365
 21
50.0000
 31
0.0000
  0
LINE
  8
20
 10
0.0635
 20
50.0000
 30
0.0000
 11
2.5400
 21
50.3119
 31
0.0000
  0
LINE
  8
20
 10
2.5400
 20
50.3119
 30
0.0000
 11
2.5400
 21
49.6881
 31
0.0000
  0
LINE
  8
20
 10
2.5400
 20
49.6881
 30
0.0000
 11
0.0635
 21
50.0000
 31
0.0000
  0
LINE
  8
20
 10
0.0635
 20
50.0000
 30
0.0000
 11
2.5400
 21
50.1270
 31
0.0000
  0
LINE
  8
20
 10
2.5400
 20
49.8730
 30
0.0000
 11
0.0635
 21
50.0000
 31
0.0000
  0
LINE
  8
20
 10
0.0635
 20
50.0000
 30
0.0000
 11
2.5400
 21
50.2540
 31
0.0000
  0
LINE
  8
20
 10
2.5400
 20
49.7460
 30
0.0000
 11
0.0635
 21
50.0000
 31
0.0000
  0
LINE
  8
20
 10
94.9365
 20
50.0000
 30
0.0000
 11
92.4600
 21
50.3119
 31
0.0000
  0
LINE
  8
20
 10
92.4600
 20
50.3119
 30
0.0000
 11
92.4600
 21
49.6881
 31
0.0000
  0
LINE
  8
20
 10
92.4600
 20
49.6881
 30
0.0000
 11
94.9365
 21
50.0000
 31
0.0000
  0
LINE
  8
20
 10
94.9365
 20
50.0000
 30
0.0000
 11
92.4600
 21
50.1270
 31
0.0000
  0
LINE
  8
20
 10
92.4600
 20
49.8730
 30
0.0000
 11
94.9365
 21
50.0000
 31
0.0000
  0
LINE
  8
20
 10
94.9365
 20
50.0000
 30
0.0000
 11
92.4600
 21
50.2540
 31
0.0000
  0
LINE
  8
20
 10
92.4600
 20
49.7460
 30
0.0000
 11
94.9365
 21
50.0000
 31
0.0000
  0
LINE
  8
20
 10
46.0024
 20
51.3702
 30
0.0000
 11
45.4605
 21
51.3702
 31
0.0000
  0
ARC
  8
20
 10
45.4605
 20
51.7314
 30
0.0000
 40
0.3612
 50
180.0000
 51
270.0000
  0
LINE
  8
20
 10
45.0993
 20
51.7314
 30
0.0000
 11
45.0993
 21
51.8217
 31
0.0000
  0
ARC
  8
20
 10
45.5508
 20
51.8217
 30
0.0000
 40
0.4516
 50
0.0000
 51
180.0000
  0
LINE
  8
20
 10
46.0024
 20
51.8217
 30
0.0000
 11
46.0024
 21
51.3702
 31
0.0000
  0
ARC
  8
20
 10
45.2799
 20
51.3702
 30
0.0000
 40
0.7225
 50
270.0000
 51
0.0000
  0
LINE
  8
20
 10
46.6624
 20
50.6477
 30
0.0000
 11
47.2043
 21
50.6477
 31
0.0000
  0
ARC
  8
20
 10
47.2043
 20
51.0089
 30
0.0000
 40
0.3612
 50
270.0000
 51
0.0000
  0
LINE
  8
20
 10
47.5655
 20
51.0089
 30
0.0000
 11
47.5655
 21
51.1896
 31
0.0000
  0
ARC
  8
20
 10
47.2043
 20
51.1896
 30
0.0000
 40
0.3612
 50
0.0000
 51
90.0000
  0
LINE
  8
20
 10
47.2043
 20
51.5508
 30
0.0000
 11
46.6624
 21
51.5508
 31
0.0000
  0
LINE
  8
20
 10
46.6624
 20
51.5508
 30
0.0000
 11
46.6624
 21
52.2733
 31
0.0000
  0
LINE
  8
20
 10
46.6624
 20
52.2733
 30
0.0000
 11
47.5655
 21
52.2733
 31
0.0000
  0
LINE
  8
20
 10
48.1630
 20
50.6477
 30
0.0000
 11
48.1630
 21
50.7380
 31
0.0000
  0
LINE
  8
20
 10
48.1630
 20
50.7380
 30
0.0000
 11
48.2533
 21
50.7380
 31
0.0000
  0
LINE
  8
20
 10
48.2533
 20
50.7380
 30
0.0000
 11
48.2533
 21
50.6477
 31
0.0000
  0
LINE
  8
20
 10
48.2533
 20
50.6477
 30
0.0000
 11
48.1630
 21
50.6477
 31
0.0000
  0
ARC
  8
20
 10
50.1904
 20
51.4605
 30
0.0000
 40
1.3396
 50
154.0109
 51
180.0001
  0
ARC
  8
20
 10
49.3023
 20
51.9392
 30
0.0000
 40
0.3342
 50
90.0001
 51
161.0756
  0
ARC
  8
20
 10
49.3023
 20
51.9391
 30
0.0000
 40
0.3342
 50
18.9248
 51
90.0000
  0
ARC
  8
20
 10
48.4143
 20
51.4605
 30
0.0000
 40
1.3396
 50
360.0000
 51
25.9891
  0
ARC
  8
20
 10
50.1904
 20
51.4605
 30
0.0000
 40
1.3396
 50
180.0000
 51
205.9889
  0
ARC
  8
20
 10
49.3023
 20
50.9819
 30
0.0000
 40
0.3342
 50
198.9250
 51
270.0000
  0
ARC
  8
20
 10
48.4142
 20
51.4605
 30
0.0000
 40
1.3396
 50
334.0111
 51
360.0000
  0
ARC
  8
20
 10
49.3023
 20
50.9819
 30
0.0000
 40
0.3342
 50
269.9999
 51
341.0745
  0
LINE
  8
20
 10
48.9411
 20
51.0089
 30
0.0000
 11
49.6636
 21
51.9121
 31
0.0000
  0
LINE
  8
20
 10
92.5000
 20
3.0000
 30
0.0000
 11
99.4500
 21
3.0000
 31
0.0000
  0
LINE
  8
20
 10
92.5000
 20
2.0000
 30
0.0000
 11
99.4500
 21
2.0000
 31
0.0000
  0
LINE
  8
20
 10
97.5000
 20
1.9350
 30
0.0000
 11
97.5000
 21
-3.2000
 31
0.0000
  0
LINE
  8
20
 10
97.5000
 20
3.0650
 30
0.0000
 11
97.5000
 21
10.5539
 31
0.0000
  0
LINE
  8
20
 10
97.5000
 20
3.0650
 30
0.0000
 11
97.1808
 21
5.6000
 31
0.0000
  0
LINE
  8
20
 10
97.1808
 20
5.6000
 30
0.0000
 11
97.8192
 21
5.6000
 31
0.0000
  0
LINE
  8
20
 10
97.8192
 20
5.6000
 30
0.0000
 11
97.5000
 21
3.0650
 31
0.0000
  0
LINE
  8
20
 10
97.5000
 20
3.0650
 30
0.0000
 11
97.3700
 21
5.6000
 31
0.0000
  0
LINE
  8
20
 10
97.6300
 20
5.6000
 30
0.0000
 11
97.5000
 21
3.0650
 31
0.0000
  0
LINE
  8
20
 10
97.5000
 20
3.0650
 30
0.0000
 11
97.2400
 21
5.6000
 31
0.0000
  0
LINE
  8
20
 10
97.7600
 20
5.6000
 30
0.0000
 11
97.5000
 21
3.0650
 31
0.0000
  0
LINE
  8
20
 10
97.5000
 20
1.9350
 30
0.0000
 11
97.1808
 21
-0.6000
 31
0.0000
  0
LINE
  8
20
 10
97.1808
 20
-0.6000
 30
0.0000
 11
97.8192
 21
-0.6000
 31
0.0000
  0
LINE
  8
20
 10
97.8192
 20
-0.6000
 30
0.0000
 11
97.5000
 21
1.9350
 31
0.0000
  0
LINE
  8
20
 10
97.5000
 20
1.9350
 30
0.0000
 11
97.3700
 21
-0.6000
 31
0.0000
  0
LINE
  8
20
 10
97.6300
 20
-0.6000
 30
0.0000
 11
97.5000
 21
1.9350
 31
0.0000
  0
LINE
  8
20
 10
97.5000
 20
1.9350
 30
0.0000
 11
97.2400
 21
-0.6000
 31
0.0000
  0
LINE
  8
20
 10
97.7600
 20
-0.6000
 30
0.0000
 11
97.5000
 21
1.9350
 31
0.0000
  0
LINE
  8
20
 10
92.5000
 20
2.1808
 30
0.0000
 11
92.5000
 21
2.8192
 31
0.0000
  0
LINE
  8
20
 10
92.1808
 20
2.5000
 30
0.0000
 11
92.8192
 21
2.5000
 31
0.0000
  0
LINE
  8
20
 10
95.5849
 20
5.6762
 30
0.0000
 11
95.2237
 21
6.1278
 31
0.0000
  0
LINE
  8
20
 10
95.2237
 20
6.1278
 30
0.0000
 11
96.8493
 21
6.1278
 31
0.0000
  0
LINE
  8
20
 10
96.8493
 20
5.6762
 30
0.0000
 11
96.8493
 21
6.5793
 31
0.0000
  0
LINE
  8
20
 10
96.8493
 20
7.1768
 30
0.0000
 11
96.7590
 21
7.1768
 31
0.0000
  0
LINE
  8
20
 10
96.7590
 20
7.1768
 30
0.0000
 11
96.7590
 21
7.2671
 31
0.0000
  0
LINE
  8
20
 10
96.7590
 20
7.2671
 30
0.0000
 11
96.8493
 21
7.2671
 31
0.0000
  0
LINE
  8
20
 10
96.8493
 20
7.2671
 30
0.0000
 11
96.8493
 21
7.1768
 31
0.0000
  0
ARC
  8
20
 10
96.0365
 20
9.2042
 30
0.0000
 40
1.3396
 50
244.0110
 51
269.9999
  0
ARC
  8
20
 10
95.5578
 20
8.3161
 30
0.0000
 40
0.3341
 50
179.9998
 51
251.0758
  0
ARC
  8
20
 10
95.5579
 20
8.3161
 30
0.0000
 40
0.3342
 50
108.9243
 51
180.0000
  0
ARC
  8
20
 10
96.0365
 20
7.4280
 30
0.0000
 40
1.3396
 50
90.0001
 51
115.9890
  0
ARC
  8
20
 10
96.0365
 20
9.2042
 30
0.0000
 40
1.3396
 50
270.0000
 51
295.9889
  0
ARC
  8
20
 10
96.5152
 20
8.3161
 30
0.0000
 40
0.3342
 50
288.9250
 51
0.0000
  0
ARC
  8
20
 10
96.0365
 20
7.4280
 30
0.0000
 40
1.3396
 50
64.0111
 51
90.0000
  0
ARC
  8
20
 10
96.5151
 20
8.3161
 30
0.0000
 40
0.3342
 50
359.9999
 51
71.0745
  0
LINE
  8
20
 10
96.4881
 20
7.9549
 30
0.0000
 11
95.5849
 21
8.6774
 31
0.0000
  0
ARC
  8
20
 10
96.0365
 20
10.7673
 30
0.0000
 40
1.3396
 50
244.0110
 51
269.9999
  0
ARC
  8
20
 10
95.5578
 20
9.8792
 30
0.0000
 40
0.3341
 50
179.9998
 51
251.0758
  0
ARC
  8
20
 10
95.5579
 20
9.8792
 30
0.0000
 40
0.3342
 50
108.9243
 51
180.0000
  0
ARC
  8
20
 10
96.0365
 20
8.9912
 30
0.0000
 40
1.3396
 50
90.0001
 51
115.9890
  0
ARC
  8
20
 10
96.0365
 20
10.7673
 30
0.0000
 40
1.3396
 50
270.0000
 51
295.9889
  0
ARC
  8
20
 10
96.5152
 20
9.8792
 30
0.0000
 40
0.3342
 50
288.9250
 51
0.0000
  0
ARC
  8
20
 10
96.0365
 20
8.9912
 30
0.0000
 40
1.3396
 50
64.0111
 51
90.0000
  0
ARC
  8
20
 10
96.5151
 20
9.8792
 30
0.0000
 40
0.3342
 50
359.9999
 51
71.0745
  0
LINE
  8
20
 10
96.4881
 20
9.5180
 30
0.0000
 11
95.5849
 21
10.2405
 31
0.0000
  0
LINE
  8
20
 10
95.0000
 20
0.0000
 30
0.0000
 11
95.0000
 21
-6.9500
 31
0.0000
  0
LINE
  8
20
 10
92.5000
 20
2.5000
 30
0.0000
 11
92.5000
 21
-6.9500
 31
0.0000
  0
LINE
  8
20
 10
92.4350
 20
-5.0000
 30
0.0000
 11
87.3000
 21
-5.0000
 31
0.0000
  0
LINE
  8
20
 10
95.0650
 20
-5.0000
 30
0.0000
 11
102.5539
 21
-5.0000
 31
0.0000
  0
LINE
  8
20
 10
95.0650
 20
-5.0000
 30
0.0000
 11
97.6000
 21
-4.6808
 31
0.0000
  0
LINE
  8
20
 10
97.6000
 20
-4.6808
 30
0.0000
 11
97.6000
 21
-5.3192
 31
0.0000
  0
LINE
  8
20
 10
97.6000
 20
-5.3192
 30
0.0000
 11
95.0650
 21
-5.0000
 31
0.0000
  0
LINE
  8
20
 10
95.0650
 20
-5.0000
 30
0.0000
 11
97.6000
 21
-4.8700
 31
0.0000
  0
LINE
  8
20
 10
97.6000
 20
-5.1300
 30
0.0000
 11
95.0650
 21
-5.0000
 31
0.0000
  0
LINE
  8
20
 10
95.0650
 20
-5.0000
 30
0.0000
 11
97.6000
 21
-4.7400
 31
0.0000
  0
LINE
  8
20
 10
97.6000
 20
-5.2600
 30
0.0000
 11
95.0650
 21
-5.0000
 31
0.0000
  0
LINE
  8
20
 10
92.4350
 20
-5.0000
 30
0.0000
 11
89.9000
 21
-4.6808
 31
0.0000
  0
LINE
  8
20
 10
89.9000
 20
-4.6808
 30
0.0000
 11
89.9000
 21
-5.3192
 31
0.0000
  0
LINE
  8
20
 10
89.9000
 20
-5.3192
 30
0.0000
 11
92.4350
 21
-5.0000
 31
0.0000
  0
LINE
  8
20
 10
92.4350
 20
-5.0000
 30
0.0000
 11
89.9000
 21
-4.8700
 31
0.0000
  0
LINE
  8
20
 10
89.9000
 20
-5.1300
 30
0.0000
 11
92.4350
 21
-5.0000
 31
0.0000
  0
LINE
  8
20
 10
92.4350
 20
-5.0000
 30
0.0000
 11
89.9000
 21
-4.7400
 31
0.0000
  0
LINE
  8
20
 10
89.9000
 20
-5.2600
 30
0.0000
 11
92.4350
 21
-5.0000
 31
0.0000
  0
ARC
  8
20
 10
98.1729
 20
-3.1301
 30
0.0000
 40
0.4064
 50
0.0000
 51
90.0000
  0
ARC
  8
20
 10
98.1729
 20
-3.2458
 30
0.0000
 40
0.5221
 50
90.0001
 51
162.0552
  0
ARC
  8
20
 10
98.1428
 20
-3.1301
 30
0.0000
 40
0.4365
 50
313.6033
 51
0.0000
  0
LINE
  8
20
 10
98.4438
 20
-3.4462
 30
0.0000
 11
97.6762
 21
-4.3493
 31
0.0000
  0
LINE
  8
20
 10
97.6762
 20
-4.3493
 30
0.0000
 11
98.5793
 21
-4.3493
 31
0.0000
  0
LINE
  8
20
 10
99.1768
 20
-4.3493
 30
0.0000
 11
99.1768
 21
-4.2590
 31
0.0000
  0
LINE
  8
20
 10
99.1768
 20
-4.2590
 30
0.0000
 11
99.2671
 21
-4.2590
 31
0.0000
  0
LINE
  8
20
 10
99.2671
 20
-4.2590
 30
0.0000
 11
99.2671
 21
-4.3493
 31
0.0000
  0
LINE
  8
20
 10
99.2671
 20
-4.3493
 30
0.0000
 11
99.1768
 21
-4.3493
 31
0.0000
  0
LINE
  8
20
 10
99.8646
 20
-4.3493
 30
0.0000
 11
100.4064
 21
-4.3493
 31
0.0000
  0
ARC
  8
20
 10
100.4064
 20
-3.9881
 30
0.0000
 40
0.3612
 50
270.0000
 51
0.0000
  0
LINE
  8
20
 10
100.7677
 20
-3.9881
 30
0.0000
 11
100.7677
 21
-3.8074
 31
0.0000
  0
ARC
  8
20
 10
100.4064
 20
-3.8074
 30
0.0000
 40
0.3612
 50
0.0000
 51
90.0000
  0
LINE
  8
20
 10
100.4064
 20
-3.4462
 30
0.0000
 11
99.8646
 21
-3.4462
 31
0.0000
  0
LINE
  8
20
 10
99.8646
 20
-3.4462
 30
0.0000
 11
99.8646
 21
-2.7237
 31
0.0000
  0
LINE
  8
20
 10
99.8646
 20
-2.7237
 30
0.0000
 11
100.7677
 21
-2.7237
 31
0.0000
  0
ARC
  8
20
 10
102.7673
 20
-3.5365
 30
0.0000
 40
1.3396
 50
154.0110
 51
179.9999
  0
ARC
  8
20
 10
101.8792
 20
-3.0578
 30
0.0000
 40
0.3341
 50
89.9998
 51
161.0758
  0
ARC
  8
20
 10
101.8792
 20
-3.0579
 30
0.0000
 40
0.3342
 50
18.9243
 51
90.0000
  0
ARC
  8
20
 10
100.9912
 20
-3.5365
 30
0.0000
 40
1.3396
 50
0.0001
 51
25.9890
  0
ARC
  8
20
 10
102.7673
 20
-3.5365
 30
0.0000
 40
1.3396
 50
180.0000
 51
205.9889
  0
ARC
  8
20
 10
101.8792
 20
-4.0152
 30
0.0000
 40
0.3342
 50
198.9250
 51
270.0000
  0
ARC
  8
20
 10
100.9912
 20
-3.5365
 30
0.0000
 40
1.3396
 50
334.0111
 51
360.0000
  0
ARC
  8
20
 10
101.8792
 20
-4.0151
 30
0.0000
 40
0.3342
 50
269.9999
 51
341.0745
  0
LINE
  8
20
 10
101.5180
 20
-3.9881
 30
0.0000
 11
102.2405
 21
-3.0849
 31
0.0000
  0
LINE
  8
20
 10
95.0000
 20
0.0000
 30
0.0000
 11
107.9500
 21
0.0000
 31
0.0000
  0
LINE
  8
20
 10
92.5000
 20
2.5000
 30
0.0000
 11
107.9500
 21
2.5000
 31
0.0000
  0
LINE
  8
20
 10
106.0000
 20
-0.0650
 30
0.0000
 11
106.0000
 21
-5.2000
 31
0.0000
  0
LINE
  8
20
 10
106.0000
 20
2.5650
 30
0.0000
 11
106.0000
 21
10.0539
 31
0.0000
  0
LINE
  8
20
 10
106.0000
 20
-0.0650
 30
0.0000
 11
105.6808
 21
-2.6000
 31
0.0000
  0
LINE
  8
20
 10
105.6808
 20
-2.6000
 30
0.0000
 11
106.3192
 21
-2.6000
 31
0.0000
  0
LINE
  8
20
 10
106.3192
 20
-2.6000
 30
0.0000
 11
106.0000
 21
-0.0650
 31
0.0000
  0
LINE
  8
20
 10
106.0000
 20
-0.0650
 30
0.0000
 11
105.8700
 21
-2.6000
 31
0.0000
  0
LINE
  8
20
 10
106.1300
 20
-2.6000
 30
0.0000
 11
106.0000
 21
-0.0650
 31
0.0000
  0
LINE
  8
20
 10
106.0000
 20
-0.0650
 30
0.0000
 11
105.7400
 21
-2.6000
 31
0.0000
  0
LINE
  8
20
 10
106.2600
 20
-2.6000
 30
0.0000
 11
106.0000
 21
-0.0650
 31
0.0000
  0
LINE
  8
20
 10
106.0000
 20
2.5650
 30
0.0000
 11
105.6808
 21
5.1000
 31
0.0000
  0
LINE
  8
20
 10
105.6808
 20
5.1000
 30
0.0000
 11
106.3192
 21
5.1000
 31
0.0000
  0
LINE
  8
20
 10
106.3192
 20
5.1000
 30
0.0000
 11
106.0000
 21
2.5650
 31
0.0000
  0
LINE
  8
20
 10
106.0000
 20
2.5650
 30
0.0000
 11
105.8700
 21
5.1000
 31
0.0000
  0
LINE
  8
20
 10
106.1300
 20
5.1000
 30
0.0000
 11
106.0000
 21
2.5650
 31
0.0000
  0
LINE
  8
20
 10
106.0000
 20
2.5650
 30
0.0000
 11
105.7400
 21
5.1000
 31
0.0000
  0
LINE
  8
20
 10
106.2600
 20
5.1000
 30
0.0000
 11
106.0000
 21
2.5650
 31
0.0000
  0
ARC
  8
20
 10
104.1301
 20
5.6729
 30
0.0000
 40
0.4064
 50
90.0000
 51
180.0000
  0
ARC
  8
20
 10
104.2458
 20
5.6729
 30
0.0000
 40
0.5221
 50
180.0001
 51
252.0552
  0
ARC
  8
20
 10
104.1301
 20
5.6428
 30
0.0000
 40
0.4365
 50
43.6033
 51
90.0000
  0
LINE
  8
20
 10
104.4462
 20
5.9438
 30
0.0000
 11
105.3493
 21
5.1762
 31
0.0000
  0
LINE
  8
20
 10
105.3493
 20
5.1762
 30
0.0000
 11
105.3493
 21
6.0793
 31
0.0000
  0
LINE
  8
20
 10
105.3493
 20
6.6768
 30
0.0000
 11
105.2590
 21
6.6768
 31
0.0000
  0
LINE
  8
20
 10
105.2590
 20
6.6768
 30
0.0000
 11
105.2590
 21
6.7671
 31
0.0000
  0
LINE
  8
20
 10
105.2590
 20
6.7671
 30
0.0000
 11
105.3493
 21
6.7671
 31
0.0000
  0
LINE
  8
20
 10
105.3493
 20
6.7671
 30
0.0000
 11
105.3493
 21
6.6768
 31
0.0000
  0
LINE
  8
20
 10
105.3493
 20
7.3646
 30
0.0000
 11
105.3493
 21
7.9064
 31
0.0000
  0
ARC
  8
20
 10
104.9881
 20
7.9064
 30
0.0000
 40
0.3612
 50
0.0000
 51
90.0000
  0
LINE
  8
20
 10
104.9881
 20
8.2677
 30
0.0000
 11
104.8074
 21
8.2677
 31
0.0000
  0
ARC
  8
20
 10
104.8074
 20
7.9064
 30
0.0000
 40
0.3612
 50
90.0000
 51
180.0000
  0
LINE
  8
20
 10
104.4462
 20
7.9064
 30
0.0000
 11
104.4462
 21
7.3646
 31
0.0000
  0
LINE
  8
20
 10
104.4462
 20
7.3646
 30
0.0000
 11
103.7237
 21
7.3646
 31
0.0000
  0
LINE
  8
20
 10
103.7237
 20
7.3646
 30
0.0000
 11
103.7237
 21
8.2677
 31
0.0000
  0
ARC
  8
20
 10
104.5365
 20
10.2673
 30
0.0000
 40
1.3396
 50
244.0110
 51
269.9999
  0
ARC
  8
20
 10
104.0578
 20
9.3792
 30
0.0000
 40
0.3341
 50
179.9998
 51
251.0758
  0
ARC
  8
20
 10
104.0579
 20
9.3792
 30
0.0000
 40
0.3342
 50
108.9243
 51
180.0000
  0
ARC
  8
20
 10
104.5365
 20
8.4912
 30
0.0000
 40
1.3396
 50
90.0001
 51
115.9890
  0
ARC
  8
20
 10
104.5365
 20
10.2673
 30
0.0000
 40
1.3396
 50
270.0000
 51
295.9889
  0
ARC
  8
20
 10
105.0152
 20
9.3792
 30
0.0000
 40
0.3342
 50
288.9250
 51
0.0000
  0
ARC
  8
20
 10
104.5365
 20
8.4912
 30
0.0000
 40
1.3396
 50
64.0111
 51
90.0000
  0
ARC
  8
20
 10
105.0151
 20
9.3792
 30
0.0000
 40
0.3342
 50
359.9999
 51
71.0745
  0
LINE
  8
20
 10
104.9881
 20
9.0180
 30
0.0000
 11
104.0849
 21
9.7405
 31
0.0000
  0
CIRCLE
  8
20
 10
2.5000
 20
44.5000
 30
0.0000
 40
0.5000
  0
CIRCLE
  8
20
 10
2.5000
 20
2.5000
 30
0.0000
 40
0.5000
  0
CIRCLE
  8
20
 10
92.5000
 20
44.5000
 30
0.0000
 40
0.5000
  0
CIRCLE
  8
20
 10
92.5000
 20
2.5000
 30
0.0000
 40
0.5000
  0
POINT
  8
23
 10
2.5400
 20
30.4800
 30
0.0000
  0
LINE
  8
21
 10
3.6830
 20
29.3370
 30
0.0000
 11
3.6830
 21
29.8450
 31
0.0000
  0
LINE
  8
21
 10
3.6830
 20
29.3370
 30
0.0000
 11
3.1750
 21
29.3370
 31
0.0000
  0
LINE
  8
21
 10
3.6830
 20
31.1150
 30
0.0000
 11
3.6830
 21
31.6230
 31
0.0000
  0
LINE
  8
21
 10
3.6830
 20
31.6230
 30
0.0000
 11
3.1750
 21
31.6230
 31
0.0000
  0
LINE
  8
21
 10
1.9050
 20
31.6230
 30
0.0000
 11
1.3970
 21
31.6230
 31
0.0000
  0
LINE
  8
21
 10
1.3970
 20
31.6230
 30
0.0000
 11
1.3970
 21
31.1150
 31
0.0000
  0
LINE
  8
21
 10
1.3970
 20
29.8450
 30
0.0000
 11
1.3970
 21
29.3370
 31
0.0000
  0
LINE
  8
21
 10
1.3970
 20
29.3370
 30
0.0000
 11
1.9050
 21
29.3370
 31
0.0000
  0
INSERT
  8
17
  2
OCTAGONP
 10
2.5400
 20
30.4800
 30
0.0000
 41
2.1590
 42
2.1590
 43
1.0000
 50
0.0000
  0
INSERT
  8
17
  2
OCTAGONP
 10
2.5400
 20
30.4800
 30
0.0000
 41
2.1590
 42
2.1590
 43
1.0000
 50
0.0000
  0
LINE
  8
25
 10
4.4831
 20
29.8831
 30
0.0000
 11
4.6877
 21
29.8831
 31
0.0000
  0
ARC
  8
25
 10
4.6877
 20
30.0877
 30
0.0000
 40
0.2046
 50
270.0000
 51
90.0000
  0
LINE
  8
25
 10
4.4831
 20
30.6197
 30
0.0000
 11
4.7286
 21
30.6197
 31
0.0000
  0
ARC
  8
25
 10
4.7286
 20
30.4560
 30
0.0000
 40
0.1637
 50
270.0000
 51
90.0000
  0
LINE
  8
25
 10
4.7286
 20
30.2923
 30
0.0000
 11
4.5649
 21
30.2923
 31
0.0000
  0
LINE
  8
25
 10
5.1737
 20
30.6197
 30
0.0000
 11
5.4192
 21
29.8831
 31
0.0000
  0
LINE
  8
25
 10
5.4192
 20
29.8831
 30
0.0000
 11
5.6648
 21
30.6197
 31
0.0000
  0
LINE
  8
25
 10
5.9461
 20
30.0877
 30
0.0000
 11
5.9461
 21
30.4151
 31
0.0000
  0
ARC
  8
25
 10
6.1507
 20
30.4151
 30
0.0000
 40
0.2046
 50
0.0000
 51
180.0000
  0
LINE
  8
25
 10
6.3554
 20
30.4151
 30
0.0000
 11
6.3554
 21
30.0877
 31
0.0000
  0
ARC
  8
25
 10
6.1507
 20
30.0877
 30
0.0000
 40
0.2046
 50
180.0000
 51
0.0000
  0
LINE
  8
25
 10
6.7020
 20
30.6197
 30
0.0000
 11
6.7020
 21
30.0877
 31
0.0000
  0
ARC
  8
25
 10
6.9066
 20
30.0877
 30
0.0000
 40
0.2046
 50
180.0000
 51
0.0000
  0
LINE
  8
25
 10
7.1113
 20
30.0877
 30
0.0000
 11
7.1113
 21
30.6197
 31
0.0000
  0
LINE
  8
25
 10
7.6138
 20
29.8831
 30
0.0000
 11
7.6138
 21
30.6197
 31
0.0000
  0
LINE
  8
25
 10
7.4092
 20
30.6197
 30
0.0000
 11
7.8184
 21
30.6197
 31
0.0000
  0
POINT
  8
23
 10
2.5400
 20
20.3200
 30
0.0000
  0
LINE
  8
21
 10
3.6830
 20
19.1770
 30
0.0000
 11
3.6830
 21
19.6850
 31
0.0000
  0
LINE
  8
21
 10
3.6830
 20
19.1770
 30
0.0000
 11
3.1750
 21
19.1770
 31
0.0000
  0
LINE
  8
21
 10
3.6830
 20
20.9550
 30
0.0000
 11
3.6830
 21
21.4630
 31
0.0000
  0
LINE
  8
21
 10
3.6830
 20
21.4630
 30
0.0000
 11
3.1750
 21
21.4630
 31
0.0000
  0
LINE
  8
21
 10
1.9050
 20
21.4630
 30
0.0000
 11
1.3970
 21
21.4630
 31
0.0000
  0
LINE
  8
21
 10
1.3970
 20
21.4630
 30
0.0000
 11
1.3970
 21
20.9550
 31
0.0000
  0
LINE
  8
21
 10
1.3970
 20
19.6850
 30
0.0000
 11
1.3970
 21
19.1770
 31
0.0000
  0
LINE
  8
21
 10
1.3970
 20
19.1770
 30
0.0000
 11
1.9050
 21
19.1770
 31
0.0000
  0
INSERT
  8
17
  2
OCTAGONP
 10
2.5400
 20
20.3200
 30
0.0000
 41
2.1590
 42
2.1590
 43
1.0000
 50
0.0000
  0
INSERT
  8
17
  2
OCTAGONP
 10
2.5400
 20
20.3200
 30
0.0000
 41
2.1590
 42
2.1590
 43
1.0000
 50
0.0000
  0
LINE
  8
25
 10
1.3815
 20
14.1268
 30
0.0000
 11
1.3815
 21
14.3314
 31
0.0000
  0
ARC
  8
25
 10
1.5861
 20
14.3314
 30
0.0000
 40
0.2046
 50
0.0000
 51
180.0000
  0
LINE
  8
25
 10
1.7907
 20
14.3314
 30
0.0000
 11
1.7907
 21
14.1268
 31
0.0000
  0
LINE
  8
25
 10
1.7907
 20
14.1268
 30
0.0000
 11
1.0541
 21
14.1268
 31
0.0000
  0
LINE
  8
25
 10
1.0541
 20
14.1268
 30
0.0000
 11
1.0541
 21
14.3314
 31
0.0000
  0
ARC
  8
25
 10
1.2178
 20
14.3314
 30
0.0000
 40
0.1637
 50
0.0000
 51
180.0000
  0
LINE
  8
25
 10
1.7907
 20
14.7812
 30
0.0000
 11
1.0541
 21
15.0268
 31
0.0000
  0
LINE
  8
25
 10
1.0541
 20
15.0268
 30
0.0000
 11
1.7907
 21
15.2723
 31
0.0000
  0
LINE
  8
25
 10
1.6066
 20
15.2109
 30
0.0000
 11
1.6066
 21
14.8426
 31
0.0000
  0
LINE
  8
25
 10
1.7907
 20
15.7095
 30
0.0000
 11
1.0541
 21
15.7095
 31
0.0000
  0
LINE
  8
25
 10
1.0541
 20
15.5049
 30
0.0000
 11
1.0541
 21
15.9141
 31
0.0000
  0
LINE
  8
25
 10
1.8725
 20
16.1554
 30
0.0000
 11
1.8725
 21
16.4828
 31
0.0000
  0
LINE
  8
25
 10
1.0541
 20
16.7319
 30
0.0000
 11
1.7907
 21
16.9775
 31
0.0000
  0
LINE
  8
25
 10
1.7907
 20
16.9775
 30
0.0000
 11
1.0541
 21
17.2230
 31
0.0000
  0
LINE
  8
25
 10
1.0541
 20
17.5627
 30
0.0000
 11
1.7907
 21
17.5627
 31
0.0000
  0
LINE
  8
25
 10
1.7907
 20
17.4808
 30
0.0000
 11
1.7907
 21
17.6445
 31
0.0000
  0
LINE
  8
25
 10
1.0541
 20
17.4808
 30
0.0000
 11
1.0541
 21
17.6445
 31
0.0000
  0
LINE
  8
25
 10
1.7907
 20
17.9677
 30
0.0000
 11
1.0541
 21
17.9677
 31
0.0000
  0
LINE
  8
25
 10
1.0541
 20
17.9677
 30
0.0000
 11
1.7907
 21
18.3769
 31
0.0000
  0
LINE
  8
25
 10
1.7907
 20
18.3769
 30
0.0000
 11
1.0541
 21
18.3769
 31
0.0000
  0
POINT
  8
23
 10
2.5400
 20
26.6700
 30
0.0000
  0
LINE
  8
21
 10
3.6830
 20
25.5270
 30
0.0000
 11
3.6830
 21
26.0350
 31
0.0000
  0
LINE
  8
21
 10
3.6830
 20
25.5270
 30
0.0000
 11
3.1750
 21
25.5270
 31
0.0000
  0
LINE
  8
21
 10
3.6830
 20
27.3050
 30
0.0000
 11
3.6830
 21
27.8130
 31
0.0000
  0
LINE
  8
21
 10
3.6830
 20
27.8130
 30
0.0000
 11
3.1750
 21
27.8130
 31
0.0000
  0
LINE
  8
21
 10
1.9050
 20
27.8130
 30
0.0000
 11
1.3970
 21
27.8130
 31
0.0000
  0
LINE
  8
21
 10
1.3970
 20
27.8130
 30
0.0000
 11
1.3970
 21
27.3050
 31
0.0000
  0
LINE
  8
21
 10
1.3970
 20
26.0350
 30
0.0000
 11
1.3970
 21
25.5270
 31
0.0000
  0
LINE
  8
21
 10
1.3970
 20
25.5270
 30
0.0000
 11
1.9050
 21
25.5270
 31
0.0000
  0
INSERT
  8
17
  2
OCTAGONP
 10
2.5400
 20
26.6700
 30
0.0000
 41
2.1590
 42
2.1590
 43
1.0000
 50
0.0000
  0
INSERT
  8
17
  2
OCTAGONP
 10
2.5400
 20
26.6700
 30
0.0000
 41
2.1590
 42
2.1590
 43
1.0000
 50
0.0000
  0
LINE
  8
25
 10
4.7696
 20
26.8633
 30
0.0000
 11
4.8923
 21
26.8633
 31
0.0000
  0
LINE
  8
25
 10
4.8923
 20
26.8633
 30
0.0000
 11
4.8923
 21
26.4541
 31
0.0000
  0
LINE
  8
25
 10
4.8923
 20
26.4541
 30
0.0000
 11
4.6468
 21
26.4541
 31
0.0000
  0
ARC
  8
25
 10
4.6468
 20
26.6178
 30
0.0000
 40
0.1637
 50
180.0000
 51
270.0000
  0
LINE
  8
25
 10
4.4831
 20
26.6178
 30
0.0000
 11
4.4831
 21
27.0270
 31
0.0000
  0
ARC
  8
25
 10
4.6468
 20
27.0270
 30
0.0000
 40
0.1637
 50
90.0011
 51
180.0000
  0
LINE
  8
25
 10
4.6468
 20
27.1907
 30
0.0000
 11
4.8923
 21
27.1907
 31
0.0000
  0
LINE
  8
25
 10
5.2634
 20
26.4541
 30
0.0000
 11
5.2634
 21
27.1907
 31
0.0000
  0
LINE
  8
25
 10
5.2634
 20
27.1907
 30
0.0000
 11
5.6726
 21
26.4541
 31
0.0000
  0
LINE
  8
25
 10
5.6726
 20
26.4541
 30
0.0000
 11
5.6726
 21
27.1907
 31
0.0000
  0
LINE
  8
25
 10
6.0437
 20
26.4541
 30
0.0000
 11
6.0437
 21
27.1907
 31
0.0000
  0
LINE
  8
25
 10
6.0437
 20
27.1907
 30
0.0000
 11
6.2483
 21
27.1907
 31
0.0000
  0
ARC
  8
25
 10
6.2483
 20
26.9861
 30
0.0000
 40
0.2046
 50
0.0000
 51
90.0000
  0
LINE
  8
25
 10
6.4529
 20
26.9861
 30
0.0000
 11
6.4529
 21
26.6587
 31
0.0000
  0
ARC
  8
25
 10
6.2483
 20
26.6587
 30
0.0000
 40
0.2046
 50
269.9991
 51
360.0000
  0
LINE
  8
25
 10
6.2483
 20
26.4541
 30
0.0000
 11
6.0437
 21
26.4541
 31
0.0000
  0
POINT
  8
23
 10
20.3200
 20
12.7000
 30
0.0000
  0
LINE
  8
21
 10
7.6200
 20
24.1300
 30
0.0000
 11
53.3400
 21
24.1300
 31
0.0000
  0
ARC
  8
21
 10
53.3400
 20
21.5900
 30
0.0000
 40
2.5400
 50
0.0000
 51
90.0000
  0
LINE
  8
21
 10
55.8800
 20
21.5900
 30
0.0000
 11
55.8800
 21
3.8100
 31
0.0000
  0
ARC
  8
21
 10
53.3400
 20
3.8100
 30
0.0000
 40
2.5400
 50
270.0000
 51
0.0000
  0
LINE
  8
21
 10
53.3400
 20
1.2700
 30
0.0000
 11
7.6200
 21
1.2700
 31
0.0000
  0
ARC
  8
21
 10
7.6200
 20
3.8100
 30
0.0000
 40
2.5400
 50
180.0000
 51
270.0000
  0
LINE
  8
21
 10
5.0800
 20
3.8100
 30
0.0000
 11
5.0800
 21
21.5900
 31
0.0000
  0
ARC
  8
21
 10
7.6200
 20
21.5900
 30
0.0000
 40
2.5400
 50
90.0000
 51
180.0000
  0
LINE
  8
21
 10
12.7762
 20
11.5062
 30
0.0000
 11
12.7762
 21
13.1318
 31
0.0000
  0
LINE
  8
21
 10
12.7762
 20
13.1318
 30
0.0000
 11
13.4987
 21
13.1318
 31
0.0000
  0
LINE
  8
21
 10
12.7762
 20
12.4093
 30
0.0000
 11
13.4987
 21
12.4093
 31
0.0000
  0
LINE
  8
21
 10
14.7844
 20
11.5062
 30
0.0000
 11
14.3329
 21
11.5062
 31
0.0000
  0
ARC
  8
21
 10
14.3329
 20
11.7771
 30
0.0000
 40
0.2709
 50
180.0000
 51
270.0000
  0
LINE
  8
21
 10
14.0619
 20
11.7771
 30
0.0000
 11
14.0619
 21
12.2287
 31
0.0000
  0
ARC
  8
21
 10
14.4232
 20
12.2287
 30
0.0000
 40
0.3612
 50
0.0000
 51
180.0000
  0
LINE
  8
21
 10
14.7844
 20
12.2287
 30
0.0000
 11
14.7844
 21
12.0481
 31
0.0000
  0
LINE
  8
21
 10
14.7844
 20
12.0481
 30
0.0000
 11
14.0619
 21
12.0481
 31
0.0000
  0
LINE
  8
21
 10
16.1318
 20
12.1384
 30
0.0000
 11
15.7254
 21
12.1384
 31
0.0000
  0
ARC
  8
21
 10
15.7254
 20
11.8223
 30
0.0000
 40
0.3161
 50
90.0000
 51
270.0000
  0
LINE
  8
21
 10
15.7254
 20
11.5062
 30
0.0000
 11
16.1318
 21
11.5062
 31
0.0000
  0
LINE
  8
21
 10
16.1318
 20
11.5062
 30
0.0000
 11
16.1318
 21
12.3190
 31
0.0000
  0
ARC
  8
21
 10
15.8609
 20
12.3190
 30
0.0000
 40
0.2709
 50
0.0000
 51
90.0000
  0
LINE
  8
21
 10
15.8609
 20
12.5899
 30
0.0000
 11
15.4996
 21
12.5899
 31
0.0000
  0
LINE
  8
21
 10
16.6937
 20
12.5899
 30
0.0000
 11
17.2356
 21
12.5899
 31
0.0000
  0
LINE
  8
21
 10
16.8743
 20
13.1318
 30
0.0000
 11
16.8743
 21
11.7771
 31
0.0000
  0
ARC
  8
21
 10
17.1453
 20
11.7771
 30
0.0000
 40
0.2709
 50
180.0000
 51
270.0000
  0
LINE
  8
21
 10
17.1453
 20
11.5062
 30
0.0000
 11
17.2356
 21
11.5062
 31
0.0000
  0
LINE
  8
21
 10
17.8655
 20
11.5062
 30
0.0000
 11
17.8655
 21
13.1318
 31
0.0000
  0
LINE
  8
21
 10
17.8655
 20
12.5899
 30
0.0000
 11
18.3171
 21
12.5899
 31
0.0000
  0
ARC
  8
21
 10
18.3171
 20
12.3190
 30
0.0000
 40
0.2709
 50
0.0007
 51
90.0000
  0
LINE
  8
21
 10
18.5880
 20
12.3190
 30
0.0000
 11
18.5880
 21
11.5062
 31
0.0000
  0
LINE
  8
21
 10
19.9948
 20
11.5062
 30
0.0000
 11
19.5433
 21
11.5062
 31
0.0000
  0
ARC
  8
21
 10
19.5433
 20
11.7771
 30
0.0000
 40
0.2709
 50
180.0000
 51
270.0000
  0
LINE
  8
21
 10
19.2723
 20
11.7771
 30
0.0000
 11
19.2723
 21
12.2287
 31
0.0000
  0
ARC
  8
21
 10
19.6336
 20
12.2287
 30
0.0000
 40
0.3612
 50
0.0000
 51
180.0000
  0
LINE
  8
21
 10
19.9948
 20
12.2287
 30
0.0000
 11
19.9948
 21
12.0481
 31
0.0000
  0
LINE
  8
21
 10
19.9948
 20
12.0481
 30
0.0000
 11
19.2723
 21
12.0481
 31
0.0000
  0
LINE
  8
21
 10
20.6876
 20
11.5062
 30
0.0000
 11
20.6876
 21
12.5899
 31
0.0000
  0
LINE
  8
21
 10
20.6876
 20
12.5899
 30
0.0000
 11
21.2295
 21
12.5899
 31
0.0000
  0
LINE
  8
21
 10
21.2295
 20
12.5899
 30
0.0000
 11
21.2295
 21
12.4093
 31
0.0000
  0
LINE
  8
21
 10
22.6348
 20
11.5062
 30
0.0000
 11
22.6348
 21
13.1318
 31
0.0000
  0
LINE
  8
21
 10
22.6348
 20
13.1318
 30
0.0000
 11
23.1766
 21
12.2287
 31
0.0000
  0
LINE
  8
21
 10
23.1766
 20
12.2287
 30
0.0000
 11
23.7185
 21
13.1318
 31
0.0000
  0
LINE
  8
21
 10
23.7185
 20
13.1318
 30
0.0000
 11
23.7185
 21
11.5062
 31
0.0000
  0
ARC
  8
21
 10
25.7841
 20
12.3190
 30
0.0000
 40
1.3396
 50
154.0109
 51
180.0001
  0
ARC
  8
21
 10
24.8961
 20
12.7977
 30
0.0000
 40
0.3342
 50
90.0001
 51
161.0756
  0
ARC
  8
21
 10
24.8961
 20
12.7976
 30
0.0000
 40
0.3342
 50
18.9248
 51
90.0000
  0
ARC
  8
21
 10
24.0080
 20
12.3190
 30
0.0000
 40
1.3396
 50
360.0000
 51
25.9891
  0
ARC
  8
21
 10
25.7842
 20
12.3190
 30
0.0000
 40
1.3396
 50
180.0000
 51
205.9889
  0
ARC
  8
21
 10
24.8961
 20
11.8404
 30
0.0000
 40
0.3342
 50
198.9250
 51
270.0000
  0
ARC
  8
21
 10
24.0080
 20
12.3190
 30
0.0000
 40
1.3396
 50
334.0111
 51
360.0000
  0
ARC
  8
21
 10
24.8961
 20
11.8404
 30
0.0000
 40
0.3342
 50
269.9999
 51
341.0745
  0
LINE
  8
21
 10
24.5348
 20
11.8674
 30
0.0000
 11
25.2573
 21
12.7706
 31
0.0000
  0
CIRCLE
  8
20
 10
53.3400
 20
21.5900
 30
0.0000
 40
1.2700
  0
CIRCLE
  8
20
 10
53.3400
 20
3.8100
 30
0.0000
 40
1.2700
  0
INSERT
  8
17
  2
ROUNDP
 10
13.9700
 20
2.5400
 30
0.0000
 41
1.4080
 42
1.4080
 43
1.0000
 50
0.0000
  0
INSERT
  8
17
  2
ROUNDP
 10
13.9700
 20
2.5400
 30
0.0000
 41
1.4080
 42
1.4080
 43
1.0000
 50
0.0000
  0
INSERT
  8
17
  2
ROUNDP
 10
44.4500
 20
22.8600
 30
0.0000
 41
1.4080
 42
1.4080
 43
1.0000
 50
0.0000
  0
INSERT
  8
17
  2
ROUNDP
 10
44.4500
 20
22.8600
 30
0.0000
 41
1.4080
 42
1.4080
 43
1.0000
 50
0.0000
  0
INSERT
  8
17
  2
ROUNDP
 10
41.9100
 20
22.8600
 30
0.0000
 41
1.4080
 42
1.4080
 43
1.0000
 50
0.0000
  0
INSERT
  8
17
  2
ROUNDP
 10
41.9100
 20
22.8600
 30
0.0000
 41
1.4080
 42
1.4080
 43
1.0000
 50
0.0000
  0
INSERT
  8
17
  2
ROUNDP
 10
39.3700
 20
22.8600
 30
0.0000
 41
1.4080
 42
1.4080
 43
1.0000
 50
0.0000
  0
INSERT
  8
17
  2
ROUNDP
 10
39.3700
 20
22.8600
 30
0.0000
 41
1.4080
 42
1.4080
 43
1.0000
 50
0.0000
  0
INSERT
  8
17
  2
ROUNDP
 10
36.8300
 20
22.8600
 30
0.0000
 41
1.4080
 42
1.4080
 43
1.0000
 50
0.0000
  0
INSERT
  8
17
  2
ROUNDP
 10
36.8300
 20
22.8600
 30
0.0000
 41
1.4080
 42
1.4080
 43
1.0000
 50
0.0000
  0
INSERT
  8
17
  2
ROUNDP
 10
34.2900
 20
22.8600
 30
0.0000
 41
1.4080
 42
1.4080
 43
1.0000
 50
0.0000
  0
INSERT
  8
17
  2
ROUNDP
 10
34.2900
 20
22.8600
 30
0.0000
 41
1.4080
 42
1.4080
 43
1.0000
 50
0.0000
  0
INSERT
  8
17
  2
ROUNDP
 10
31.7500
 20
22.8600
 30
0.0000
 41
1.4080
 42
1.4080
 43
1.0000
 50
0.0000
  0
INSERT
  8
17
  2
ROUNDP
 10
31.7500
 20
22.8600
 30
0.0000
 41
1.4080
 42
1.4080
 43
1.0000
 50
0.0000
  0
INSERT
  8
17
  2
ROUNDP
 10
29.2100
 20
22.8600
 30
0.0000
 41
1.4080
 42
1.4080
 43
1.0000
 50
0.0000
  0
INSERT
  8
17
  2
ROUNDP
 10
29.2100
 20
22.8600
 30
0.0000
 41
1.4080
 42
1.4080
 43
1.0000
 50
0.0000
  0
INSERT
  8
17
  2
ROUNDP
 10
21.5900
 20
2.5400
 30
0.0000
 41
1.4080
 42
1.4080
 43
1.0000
 50
0.0000
  0
INSERT
  8
17
  2
ROUNDP
 10
21.5900
 20
2.5400
 30
0.0000
 41
1.4080
 42
1.4080
 43
1.0000
 50
0.0000
  0
INSERT
  8
17
  2
ROUNDP
 10
24.1300
 20
2.5400
 30
0.0000
 41
1.4080
 42
1.4080
 43
1.0000
 50
0.0000
  0
INSERT
  8
17
  2
ROUNDP
 10
24.1300
 20
2.5400
 30
0.0000
 41
1.4080
 42
1.4080
 43
1.0000
 50
0.0000
  0
INSERT
  8
17
  2
ROUNDP
 10
26.6700
 20
2.5400
 30
0.0000
 41
1.4080
 42
1.4080
 43
1.0000
 50
0.0000
  0
INSERT
  8
17
  2
ROUNDP
 10
26.6700
 20
2.5400
 30
0.0000
 41
1.4080
 42
1.4080
 43
1.0000
 50
0.0000
  0
INSERT
  8
17
  2
ROUNDP
 10
29.2100
 20
2.5400
 30
0.0000
 41
1.4080
 42
1.4080
 43
1.0000
 50
0.0000
  0
INSERT
  8
17
  2
ROUNDP
 10
29.2100
 20
2.5400
 30
0.0000
 41
1.4080
 42
1.4080
 43
1.0000
 50
0.0000
  0
INSERT
  8
17
  2
ROUNDP
 10
31.7500
 20
2.5400
 30
0.0000
 41
1.4080
 42
1.4080
 43
1.0000
 50
0.0000
  0
INSERT
  8
17
  2
ROUNDP
 10
31.7500
 20
2.5400
 30
0.0000
 41
1.4080
 42
1.4080
 43
1.0000
 50
0.0000
  0
INSERT
  8
17
  2
ROUNDP
 10
34.2900
 20
2.5400
 30
0.0000
 41
1.4080
 42
1.4080
 43
1.0000
 50
0.0000
  0
INSERT
  8
17
  2
ROUNDP
 10
34.2900
 20
2.5400
 30
0.0000
 41
1.4080
 42
1.4080
 43
1.0000
 50
0.0000
  0
INSERT
  8
17
  2
ROUNDP
 10
7.6200
 20
21.5900
 30
0.0000
 41
3.5560
 42
3.5560
 43
1.0000
 50
0.0000
  0
INSERT
  8
17
  2
ROUNDP
 10
7.6200
 20
21.5900
 30
0.0000
 41
3.5560
 42
3.5560
 43
1.0000
 50
0.0000
  0
INSERT
  8
17
  2
ROUNDP
 10
7.6200
 20
3.8100
 30
0.0000
 41
3.5560
 42
3.5560
 43
1.0000
 50
0.0000
  0
INSERT
  8
17
  2
ROUNDP
 10
7.6200
 20
3.8100
 30
0.0000
 41
3.5560
 42
3.5560
 43
1.0000
 50
0.0000
  0
INSERT
  8
17
  2
ROUNDP
 10
16.5100
 20
2.5400
 30
0.0000
 41
1.4080
 42
1.4080
 43
1.0000
 50
0.0000
  0
INSERT
  8
17
  2
ROUNDP
 10
16.5100
 20
2.5400
 30
0.0000
 41
1.4080
 42
1.4080
 43
1.0000
 50
0.0000
  0
INSERT
  8
17
  2
ROUNDP
 10
21.5900
 20
22.8600
 30
0.0000
 41
1.4080
 42
1.4080
 43
1.0000
 50
0.0000
  0
INSERT
  8
17
  2
ROUNDP
 10
21.5900
 20
22.8600
 30
0.0000
 41
1.4080
 42
1.4080
 43
1.0000
 50
0.0000
  0
INSERT
  8
17
  2
ROUNDP
 10
24.1300
 20
22.8600
 30
0.0000
 41
1.4080
 42
1.4080
 43
1.0000
 50
0.0000
  0
INSERT
  8
17
  2
ROUNDP
 10
24.1300
 20
22.8600
 30
0.0000
 41
1.4080
 42
1.4080
 43
1.0000
 50
0.0000
  0
INSERT
  8
17
  2
ROUNDP
 10
19.0500
 20
2.5400
 30
0.0000
 41
1.4080
 42
1.4080
 43
1.0000
 50
0.0000
  0
INSERT
  8
17
  2
ROUNDP
 10
19.0500
 20
2.5400
 30
0.0000
 41
1.4080
 42
1.4080
 43
1.0000
 50
0.0000
  0
INSERT
  8
17
  2
ROUNDP
 10
49.5300
 20
2.5400
 30
0.0000
 41
1.4080
 42
1.4080
 43
1.0000
 50
0.0000
  0
INSERT
  8
17
  2
ROUNDP
 10
49.5300
 20
2.5400
 30
0.0000
 41
1.4080
 42
1.4080
 43
1.0000
 50
0.0000
  0
INSERT
  8
17
  2
ROUNDP
 10
39.3700
 20
2.5400
 30
0.0000
 41
1.4080
 42
1.4080
 43
1.0000
 50
0.0000
  0
INSERT
  8
17
  2
ROUNDP
 10
39.3700
 20
2.5400
 30
0.0000
 41
1.4080
 42
1.4080
 43
1.0000
 50
0.0000
  0
INSERT
  8
17
  2
ROUNDP
 10
41.9100
 20
2.5400
 30
0.0000
 41
1.4080
 42
1.4080
 43
1.0000
 50
0.0000
  0
INSERT
  8
17
  2
ROUNDP
 10
41.9100
 20
2.5400
 30
0.0000
 41
1.4080
 42
1.4080
 43
1.0000
 50
0.0000
  0
INSERT
  8
17
  2
ROUNDP
 10
11.4300
 20
2.5400
 30
0.0000
 41
1.4080
 42
1.4080
 43
1.0000
 50
0.0000
  0
INSERT
  8
17
  2
ROUNDP
 10
11.4300
 20
2.5400
 30
0.0000
 41
1.4080
 42
1.4080
 43
1.0000
 50
0.0000
  0
INSERT
  8
17
  2
ROUNDP
 10
44.4500
 20
2.5400
 30
0.0000
 41
1.4080
 42
1.4080
 43
1.0000
 50
0.0000
  0
INSERT
  8
17
  2
ROUNDP
 10
44.4500
 20
2.5400
 30
0.0000
 41
1.4080
 42
1.4080
 43
1.0000
 50
0.0000
  0
INSERT
  8
17
  2
ROUNDP
 10
36.8300
 20
2.5400
 30
0.0000
 41
1.4080
 42
1.4080
 43
1.0000
 50
0.0000
  0
INSERT
  8
17
  2
ROUNDP
 10
36.8300
 20
2.5400
 30
0.0000
 41
1.4080
 42
1.4080
 43
1.0000
 50
0.0000
  0
INSERT
  8
17
  2
ROUNDP
 10
46.9900
 20
22.8600
 30
0.0000
 41
1.4080
 42
1.4080
 43
1.0000
 50
0.0000
  0
INSERT
  8
17
  2
ROUNDP
 10
46.9900
 20
22.8600
 30
0.0000
 41
1.4080
 42
1.4080
 43
1.0000
 50
0.0000
  0
INSERT
  8
17
  2
ROUNDP
 10
49.5300
 20
22.8600
 30
0.0000
 41
1.4080
 42
1.4080
 43
1.0000
 50
0.0000
  0
INSERT
  8
17
  2
ROUNDP
 10
49.5300
 20
22.8600
 30
0.0000
 41
1.4080
 42
1.4080
 43
1.0000
 50
0.0000
  0
INSERT
  8
17
  2
ROUNDP
 10
46.9900
 20
2.5400
 30
0.0000
 41
1.4080
 42
1.4080
 43
1.0000
 50
0.0000
  0
INSERT
  8
17
  2
ROUNDP
 10
46.9900
 20
2.5400
 30
0.0000
 41
1.4080
 42
1.4080
 43
1.0000
 50
0.0000
  0
INSERT
  8
17
  2
ROUNDP
 10
26.6700
 20
22.8600
 30
0.0000
 41
1.4080
 42
1.4080
 43
1.0000
 50
0.0000
  0
INSERT
  8
17
  2
ROUNDP
 10
26.6700
 20
22.8600
 30
0.0000
 41
1.4080
 42
1.4080
 43
1.0000
 50
0.0000
  0
POINT
  8
23
 10
69.8500
 20
45.7200
 30
0.0000
  0
LINE
  8
21
 10
69.8500
 20
43.1800
 30
0.0000
 11
69.8500
 21
30.4800
 31
0.0000
  0
ARC
  8
21
 10
72.3900
 20
30.4800
 30
0.0000
 40
2.5400
 50
180.0000
 51
270.0000
  0
LINE
  8
21
 10
72.3900
 20
27.9400
 30
0.0000
 11
86.3600
 21
27.9400
 31
0.0000
  0
ARC
  8
21
 10
86.3600
 20
30.4800
 30
0.0000
 40
2.5400
 50
270.0000
 51
0.0000
  0
LINE
  8
21
 10
88.9000
 20
30.4800
 30
0.0000
 11
88.9000
 21
43.1800
 31
0.0000
  0
ARC
  8
21
 10
86.3600
 20
43.1800
 30
0.0000
 40
2.5400
 50
0.0000
 51
90.0000
  0
LINE
  8
21
 10
86.3600
 20
45.7200
 30
0.0000
 11
72.3900
 21
45.7200
 31
0.0000
  0
ARC
  8
21
 10
72.3900
 20
43.1800
 30
0.0000
 40
2.5400
 50
90.0000
 51
180.0000
  0
LINE
  8
21
 10
87.5651
 20
33.5612
 30
0.0000
 11
87.5651
 21
33.8857
 31
0.0000
  0
ARC
  8
21
 10
87.8896
 20
33.8857
 30
0.0000
 40
0.3246
 50
0.0000
 51
180.0000
  0
LINE
  8
21
 10
88.2142
 20
33.8857
 30
0.0000
 11
88.2142
 21
33.5612
 31
0.0000
  0
LINE
  8
21
 10
88.2142
 20
33.5612
 30
0.0000
 11
87.0458
 21
33.5612
 31
0.0000
  0
LINE
  8
21
 10
87.0458
 20
33.5612
 30
0.0000
 11
87.0458
 21
33.8857
 31
0.0000
  0
ARC
  8
21
 10
87.3054
 20
33.8857
 30
0.0000
 40
0.2596
 50
0.0000
 51
180.0000
  0
LINE
  8
21
 10
88.2142
 20
34.6985
 30
0.0000
 11
87.0458
 21
34.6985
 31
0.0000
  0
LINE
  8
21
 10
87.0458
 20
34.6985
 30
0.0000
 11
87.6949
 21
35.0880
 31
0.0000
  0
LINE
  8
21
 10
87.6949
 20
35.0880
 30
0.0000
 11
87.0458
 21
35.4775
 31
0.0000
  0
LINE
  8
21
 10
87.0458
 20
35.4775
 30
0.0000
 11
88.2142
 21
35.4775
 31
0.0000
  0
LINE
  8
21
 10
88.2142
 20
36.0758
 30
0.0000
 11
87.0458
 21
36.0758
 31
0.0000
  0
LINE
  8
21
 10
87.0458
 20
36.0758
 30
0.0000
 11
87.0458
 21
36.4003
 31
0.0000
  0
ARC
  8
21
 10
87.3704
 20
36.4003
 30
0.0000
 40
0.3246
 50
0.0000
 51
180.0000
  0
LINE
  8
21
 10
87.6949
 20
36.4003
 30
0.0000
 11
87.6949
 21
36.0758
 31
0.0000
  0
ARC
  8
21
 10
87.3379
 20
37.5207
 30
0.0000
 40
0.2921
 50
90.0000
 51
180.0000
  0
ARC
  8
21
 10
87.4211
 20
37.5207
 30
0.0000
 40
0.3753
 50
180.0001
 51
252.0554
  0
ARC
  8
21
 10
87.3379
 20
37.4991
 30
0.0000
 40
0.3137
 50
43.6034
 51
90.0002
  0
LINE
  8
21
 10
87.5651
 20
37.7155
 30
0.0000
 11
88.2142
 21
37.1637
 31
0.0000
  0
LINE
  8
21
 10
88.2142
 20
37.1637
 30
0.0000
 11
88.2142
 21
37.8128
 31
0.0000
  0
ARC
  8
21
 10
87.8896
 20
38.6313
 30
0.0000
 40
0.3246
 50
90.0000
 51
270.0000
  0
ARC
  8
21
 10
87.8896
 20
38.6313
 30
0.0000
 40
0.3246
 50
270.0000
 51
90.0000
  0
ARC
  8
21
 10
87.3054
 20
38.6313
 30
0.0000
 40
0.2596
 50
90.0000
 51
270.0000
  0
ARC
  8
21
 10
87.3054
 20
38.6313
 30
0.0000
 40
0.2596
 50
270.0000
 51
90.0000
  0
ARC
  8
21
 10
87.6300
 20
40.4126
 30
0.0000
 40
0.9629
 50
244.0111
 51
269.9999
  0
ARC
  8
21
 10
87.2860
 20
39.7743
 30
0.0000
 40
0.2402
 50
180.0000
 51
251.0758
  0
ARC
  8
21
 10
87.2860
 20
39.7743
 30
0.0000
 40
0.2402
 50
108.9240
 51
180.0001
  0
ARC
  8
21
 10
87.6300
 20
39.1360
 30
0.0000
 40
0.9629
 50
90.0001
 51
115.9889
  0
ARC
  8
21
 10
87.6300
 20
40.4126
 30
0.0000
 40
0.9629
 50
270.0000
 51
295.9888
  0
ARC
  8
21
 10
87.9740
 20
39.7743
 30
0.0000
 40
0.2402
 50
288.9254
 51
359.9998
  0
ARC
  8
21
 10
87.6300
 20
39.1360
 30
0.0000
 40
0.9629
 50
64.0112
 51
90.0000
  0
ARC
  8
21
 10
87.9740
 20
39.7743
 30
0.0000
 40
0.2402
 50
0.0000
 51
71.0747
  0
LINE
  8
21
 10
87.9546
 20
39.5146
 30
0.0000
 11
87.3054
 21
40.0339
 31
0.0000
  0
INSERT
  8
17
  2
ROUNDP
 10
72.3900
 20
41.9100
 30
0.0000
 41
1.4080
 42
1.4080
 43
1.0000
 50
270.0000
  0
INSERT
  8
17
  2
ROUNDP
 10
72.3900
 20
41.9100
 30
0.0000
 41
1.4080
 42
1.4080
 43
1.0000
 50
270.0000
  0
INSERT
  8
17
  2
ROUNDP
 10
86.3600
 20
43.1800
 30
0.0000
 41
3.0480
 42
3.0480
 43
1.0000
 50
270.0000
  0
INSERT
  8
17
  2
ROUNDP
 10
86.3600
 20
43.1800
 30
0.0000
 41
3.0480
 42
3.0480
 43
1.0000
 50
270.0000
  0
INSERT
  8
17
  2
ROUNDP
 10
86.3600
 20
30.4800
 30
0.0000
 41
3.0480
 42
3.0480
 43
1.0000
 50
270.0000
  0
INSERT
  8
17
  2
ROUNDP
 10
86.3600
 20
30.4800
 30
0.0000
 41
3.0480
 42
3.0480
 43
1.0000
 50
270.0000
  0
INSERT
  8
17
  2
ROUNDP
 10
72.3900
 20
29.2100
 30
0.0000
 41
1.4080
 42
1.4080
 43
1.0000
 50
270.0000
  0
INSERT
  8
17
  2
ROUNDP
 10
72.3900
 20
29.2100
 30
0.0000
 41
1.4080
 42
1.4080
 43
1.0000
 50
270.0000
  0
INSERT
  8
17
  2
ROUNDP
 10
72.3900
 20
39.3700
 30
0.0000
 41
1.4080
 42
1.4080
 43
1.0000
 50
270.0000
  0
INSERT
  8
17
  2
ROUNDP
 10
72.3900
 20
39.3700
 30
0.0000
 41
1.4080
 42
1.4080
 43
1.0000
 50
270.0000
  0
INSERT
  8
17
  2
ROUNDP
 10
72.3900
 20
36.8300
 30
0.0000
 41
1.4080
 42
1.4080
 43
1.0000
 50
270.0000
  0
INSERT
  8
17
  2
ROUNDP
 10
72.3900
 20
36.8300
 30
0.0000
 41
1.4080
 42
1.4080
 43
1.0000
 50
270.0000
  0
INSERT
  8
17
  2
ROUNDP
 10
72.3900
 20
31.7500
 30
0.0000
 41
1.4080
 42
1.4080
 43
1.0000
 50
270.0000
  0
INSERT
  8
17
  2
ROUNDP
 10
72.3900
 20
31.7500
 30
0.0000
 41
1.4080
 42
1.4080
 43
1.0000
 50
270.0000
  0
INSERT
  8
17
  2
ROUNDP
 10
72.3900
 20
34.2900
 30
0.0000
 41
1.4080
 42
1.4080
 43
1.0000
 50
270.0000
  0
INSERT
  8
17
  2
ROUNDP
 10
72.3900
 20
34.2900
 30
0.0000
 41
1.4080
 42
1.4080
 43
1.0000
 50
270.0000
  0
INSERT
  8
17
  2
ROUNDP
 10
72.3900
 20
44.4500
 30
0.0000
 41
1.4080
 42
1.4080
 43
1.0000
 50
270.0000
  0
INSERT
  8
17
  2
ROUNDP
 10
72.3900
 20
44.4500
 30
0.0000
 41
1.4080
 42
1.4080
 43
1.0000
 50
270.0000
  0
POINT
  8
23
 10
8.8900
 20
25.4000
 30
0.0000
  0
ARC
  8
21
 10
11.4300
 20
27.9400
 30
0.0000
 40
2.5400
 50
180.0000
 51
270.0000
  0
LINE
  8
21
 10
8.8900
 20
27.9400
 30
0.0000
 11
8.8900
 21
41.9100
 31
0.0000
  0
ARC
  8
21
 10
11.4300
 20
41.9100
 30
0.0000
 40
2.5400
 50
90.0000
 51
180.0000
  0
LINE
  8
21
 10
11.4300
 20
44.4500
 30
0.0000
 11
25.4000
 21
44.4500
 31
0.0000
  0
ARC
  8
21
 10
25.4000
 20
41.9100
 30
0.0000
 40
2.5400
 50
0.0000
 51
90.0000
  0
LINE
  8
21
 10
27.9400
 20
41.9100
 30
0.0000
 11
27.9400
 21
27.9400
 31
0.0000
  0
ARC
  8
21
 10
25.4000
 20
27.9400
 30
0.0000
 40
2.5400
 50
270.0000
 51
0.0000
  0
LINE
  8
21
 10
25.4000
 20
25.4000
 30
0.0000
 11
11.4300
 21
25.4000
 31
0.0000
  0
LINE
  8
21
 10
14.6558
 20
42.3418
 30
0.0000
 11
15.0453
 21
43.5102
 31
0.0000
  0
LINE
  8
21
 10
15.0453
 20
43.5102
 30
0.0000
 11
15.4347
 21
42.3418
 31
0.0000
  0
LINE
  8
21
 10
15.3374
 20
42.6339
 30
0.0000
 11
14.7532
 21
42.6339
 31
0.0000
  0
LINE
  8
21
 10
15.9018
 20
42.3418
 30
0.0000
 11
15.9018
 21
43.5102
 31
0.0000
  0
LINE
  8
21
 10
15.9018
 20
43.5102
 30
0.0000
 11
16.2264
 21
43.5102
 31
0.0000
  0
ARC
  8
21
 10
16.2264
 20
43.1856
 30
0.0000
 40
0.3246
 50
0.0000
 51
90.0000
  0
LINE
  8
21
 10
16.5509
 20
43.1856
 30
0.0000
 11
16.5509
 21
42.6664
 31
0.0000
  0
ARC
  8
21
 10
16.2264
 20
42.6664
 30
0.0000
 40
0.3246
 50
269.9994
 51
0.0000
  0
LINE
  8
21
 10
16.2264
 20
42.3418
 30
0.0000
 11
15.9018
 21
42.3418
 31
0.0000
  0
LINE
  8
21
 10
17.0180
 20
42.3418
 30
0.0000
 11
17.7969
 21
43.5102
 31
0.0000
  0
LINE
  8
21
 10
17.0180
 20
43.5102
 30
0.0000
 11
17.7969
 21
42.3418
 31
0.0000
  0
LINE
  8
21
 10
18.2663
 20
43.5102
 30
0.0000
 11
18.2663
 21
42.3418
 31
0.0000
  0
LINE
  8
21
 10
18.2663
 20
42.3418
 30
0.0000
 11
18.7856
 21
42.3418
 31
0.0000
  0
LINE
  8
21
 10
19.2165
 20
42.3418
 30
0.0000
 11
19.5411
 21
42.3418
 31
0.0000
  0
ARC
  8
21
 10
19.5411
 20
42.6664
 30
0.0000
 40
0.3246
 50
270.0000
 51
90.0000
  0
LINE
  8
21
 10
19.2165
 20
43.5102
 30
0.0000
 11
19.6060
 21
43.5102
 31
0.0000
  0
ARC
  8
21
 10
19.6060
 20
43.2506
 30
0.0000
 40
0.2596
 50
270.0000
 51
90.0000
  0
LINE
  8
21
 10
19.6060
 20
42.9909
 30
0.0000
 11
19.3463
 21
42.9909
 31
0.0000
  0
LINE
  8
21
 10
20.3595
 20
43.3804
 30
0.0000
 11
20.3595
 21
43.5102
 31
0.0000
  0
LINE
  8
21
 10
20.3595
 20
43.5102
 30
0.0000
 11
21.0086
 21
43.5102
 31
0.0000
  0
LINE
  8
21
 10
21.0086
 20
43.5102
 30
0.0000
 11
20.6841
 21
42.3418
 31
0.0000
  0
LINE
  8
21
 10
21.5025
 20
43.3804
 30
0.0000
 11
21.5025
 21
43.5102
 31
0.0000
  0
LINE
  8
21
 10
21.5025
 20
43.5102
 30
0.0000
 11
22.1516
 21
43.5102
 31
0.0000
  0
LINE
  8
21
 10
22.1516
 20
43.5102
 30
0.0000
 11
21.8271
 21
42.3418
 31
0.0000
  0
INSERT
  8
17
  2
ROUNDP
 10
13.3350
 20
27.4320
 30
0.0000
 41
1.4080
 42
1.4080
 43
1.0000
 50
0.0000
  0
INSERT
  8
17
  2
ROUNDP
 10
13.3350
 20
27.4320
 30
0.0000
 41
1.4080
 42
1.4080
 43
1.0000
 50
0.0000
  0
INSERT
  8
17
  2
ROUNDP
 10
15.8750
 20
27.4320
 30
0.0000
 41
1.4080
 42
1.4080
 43
1.0000
 50
0.0000
  0
INSERT
  8
17
  2
ROUNDP
 10
15.8750
 20
27.4320
 30
0.0000
 41
1.4080
 42
1.4080
 43
1.0000
 50
0.0000
  0
INSERT
  8
17
  2
ROUNDP
 10
11.4300
 20
41.9100
 30
0.0000
 41
3.8100
 42
3.8100
 43
1.0000
 50
0.0000
  0
INSERT
  8
17
  2
ROUNDP
 10
11.4300
 20
41.9100
 30
0.0000
 41
3.8100
 42
3.8100
 43
1.0000
 50
0.0000
  0
INSERT
  8
17
  2
ROUNDP
 10
25.4000
 20
41.9100
 30
0.0000
 41
3.8100
 42
3.8100
 43
1.0000
 50
0.0000
  0
INSERT
  8
17
  2
ROUNDP
 10
25.4000
 20
41.9100
 30
0.0000
 41
3.8100
 42
3.8100
 43
1.0000
 50
0.0000
  0
INSERT
  8
17
  2
ROUNDP
 10
11.4300
 20
31.7500
 30
0.0000
 41
3.8100
 42
3.8100
 43
1.0000
 50
0.0000
  0
INSERT
  8
17
  2
ROUNDP
 10
11.4300
 20
31.7500
 30
0.0000
 41
3.8100
 42
3.8100
 43
1.0000
 50
0.0000
  0
INSERT
  8
17
  2
ROUNDP
 10
25.4000
 20
31.7500
 30
0.0000
 41
3.8100
 42
3.8100
 43
1.0000
 50
0.0000
  0
INSERT
  8
17
  2
ROUNDP
 10
25.4000
 20
31.7500
 30
0.0000
 41
3.8100
 42
3.8100
 43
1.0000
 50
0.0000
  0
INSERT
  8
17
  2
ROUNDP
 10
18.4150
 20
27.4320
 30
0.0000
 41
1.4080
 42
1.4080
 43
1.0000
 50
0.0000
  0
INSERT
  8
17
  2
ROUNDP
 10
18.4150
 20
27.4320
 30
0.0000
 41
1.4080
 42
1.4080
 43
1.0000
 50
0.0000
  0
INSERT
  8
17
  2
ROUNDP
 10
10.7950
 20
27.4320
 30
0.0000
 41
1.4080
 42
1.4080
 43
1.0000
 50
0.0000
  0
INSERT
  8
17
  2
ROUNDP
 10
10.7950
 20
27.4320
 30
0.0000
 41
1.4080
 42
1.4080
 43
1.0000
 50
0.0000
  0
INSERT
  8
17
  2
ROUNDP
 10
26.0350
 20
27.4320
 30
0.0000
 41
1.4080
 42
1.4080
 43
1.0000
 50
0.0000
  0
INSERT
  8
17
  2
ROUNDP
 10
26.0350
 20
27.4320
 30
0.0000
 41
1.4080
 42
1.4080
 43
1.0000
 50
0.0000
  0
INSERT
  8
17
  2
ROUNDP
 10
23.4950
 20
27.4320
 30
0.0000
 41
1.4080
 42
1.4080
 43
1.0000
 50
0.0000
  0
INSERT
  8
17
  2
ROUNDP
 10
23.4950
 20
27.4320
 30
0.0000
 41
1.4080
 42
1.4080
 43
1.0000
 50
0.0000
  0
INSERT
  8
17
  2
ROUNDP
 10
20.9550
 20
27.4320
 30
0.0000
 41
1.4080
 42
1.4080
 43
1.0000
 50
0.0000
  0
INSERT
  8
17
  2
ROUNDP
 10
20.9550
 20
27.4320
 30
0.0000
 41
1.4080
 42
1.4080
 43
1.0000
 50
0.0000
  0
POINT
  8
23
 10
73.6600
 20
13.9700
 30
0.0000
  0
ARC
  8
21
 10
59.1820
 20
24.1300
 30
0.0000
 40
2.5400
 50
90.0000
 51
180.0000
  0
ARC
  8
21
 10
59.1820
 20
3.8100
 30
0.0000
 40
2.5400
 50
180.0000
 51
270.0000
  0
LINE
  8
21
 10
59.1820
 20
1.2700
 30
0.0000
 11
59.6900
 21
1.2700
 31
0.0000
  0
ARC
  8
21
 10
88.1380
 20
24.1300
 30
0.0000
 40
2.5400
 50
0.0000
 51
90.0000
  0
LINE
  8
21
 10
90.6780
 20
24.1300
 30
0.0000
 11
90.6780
 21
23.6220
 31
0.0000
  0
LINE
  8
21
 10
90.6780
 20
23.6220
 30
0.0000
 11
90.6780
 21
23.1140
 31
0.0000
  0
ARC
  8
21
 10
88.1380
 20
3.8100
 30
0.0000
 40
2.5400
 50
270.0000
 51
0.0000
  0
LINE
  8
21
 10
88.1380
 20
1.2700
 30
0.0000
 11
87.3760
 21
1.2700
 31
0.0000
  0
LINE
  8
21
 10
90.6780
 20
3.8100
 30
0.0000
 11
90.6780
 21
23.1140
 31
0.0000
  0
LINE
  8
21
 10
59.1820
 20
26.6700
 30
0.0000
 11
88.1380
 21
26.6700
 31
0.0000
  0
LINE
  8
21
 10
59.6900
 20
1.2700
 30
0.0000
 11
87.3760
 21
1.2700
 31
0.0000
  0
LINE
  8
21
 10
56.6420
 20
24.1300
 30
0.0000
 11
56.6420
 21
3.8100
 31
0.0000
  0
LINE
  8
21
 10
67.8914
 20
23.9268
 30
0.0000
 11
68.2809
 21
25.0952
 31
0.0000
  0
LINE
  8
21
 10
68.2809
 20
25.0952
 30
0.0000
 11
68.6703
 21
23.9268
 31
0.0000
  0
LINE
  8
21
 10
68.5730
 20
24.2189
 30
0.0000
 11
67.9888
 21
24.2189
 31
0.0000
  0
LINE
  8
21
 10
69.6014
 20
25.0952
 30
0.0000
 11
69.6014
 21
23.9268
 31
0.0000
  0
LINE
  8
21
 10
69.6014
 20
23.9268
 30
0.0000
 11
69.2769
 21
23.9268
 31
0.0000
  0
ARC
  8
21
 10
69.2769
 20
24.1215
 30
0.0000
 40
0.1947
 50
180.0000
 51
270.0000
  0
LINE
  8
21
 10
69.0821
 20
24.1215
 30
0.0000
 11
69.0821
 21
24.5110
 31
0.0000
  0
ARC
  8
21
 10
69.2769
 20
24.5110
 30
0.0000
 40
0.1947
 50
90.0000
 51
180.0000
  0
LINE
  8
21
 10
69.2769
 20
24.7057
 30
0.0000
 11
69.6014
 21
24.7057
 31
0.0000
  0
LINE
  8
21
 10
70.6301
 20
24.3812
 30
0.0000
 11
70.3380
 21
24.3812
 31
0.0000
  0
ARC
  8
21
 10
70.3380
 20
24.1540
 30
0.0000
 40
0.2272
 50
90.0000
 51
270.0000
  0
LINE
  8
21
 10
70.3380
 20
23.9268
 30
0.0000
 11
70.6301
 21
23.9268
 31
0.0000
  0
LINE
  8
21
 10
70.6301
 20
23.9268
 30
0.0000
 11
70.6301
 21
24.5110
 31
0.0000
  0
ARC
  8
21
 10
70.4354
 20
24.5110
 30
0.0000
 40
0.1947
 50
0.0000
 51
90.0000
  0
LINE
  8
21
 10
70.4354
 20
24.7057
 30
0.0000
 11
70.1757
 21
24.7057
 31
0.0000
  0
LINE
  8
21
 10
71.2081
 20
23.9268
 30
0.0000
 11
71.2081
 21
24.9005
 31
0.0000
  0
ARC
  8
21
 10
71.4028
 20
24.9005
 30
0.0000
 40
0.1947
 50
90.0009
 51
180.0000
  0
LINE
  8
21
 10
71.4028
 20
25.0952
 30
0.0000
 11
71.4677
 21
25.0952
 31
0.0000
  0
LINE
  8
21
 10
71.0782
 20
24.7057
 30
0.0000
 11
71.4677
 21
24.7057
 31
0.0000
  0
LINE
  8
21
 10
71.8379
 20
23.9268
 30
0.0000
 11
71.8379
 21
24.7057
 31
0.0000
  0
LINE
  8
21
 10
71.8379
 20
24.7057
 30
0.0000
 11
72.2273
 21
24.7057
 31
0.0000
  0
LINE
  8
21
 10
72.2273
 20
24.7057
 30
0.0000
 11
72.2273
 21
24.5759
 31
0.0000
  0
LINE
  8
21
 10
72.6313
 20
24.7057
 30
0.0000
 11
72.6313
 21
24.1215
 31
0.0000
  0
ARC
  8
21
 10
72.8260
 20
24.1215
 30
0.0000
 40
0.1947
 50
180.0000
 51
270.0000
  0
LINE
  8
21
 10
72.8260
 20
23.9268
 30
0.0000
 11
73.1506
 21
23.9268
 31
0.0000
  0
LINE
  8
21
 10
73.1506
 20
23.9268
 30
0.0000
 11
73.1506
 21
24.7057
 31
0.0000
  0
LINE
  8
21
 10
73.6530
 20
23.9268
 30
0.0000
 11
73.6530
 21
24.7057
 31
0.0000
  0
LINE
  8
21
 10
73.6205
 20
25.0303
 30
0.0000
 11
73.6205
 21
25.0952
 31
0.0000
  0
LINE
  8
21
 10
73.6205
 20
25.0952
 30
0.0000
 11
73.6854
 21
25.0952
 31
0.0000
  0
LINE
  8
21
 10
73.6854
 20
25.0952
 30
0.0000
 11
73.6854
 21
25.0303
 31
0.0000
  0
LINE
  8
21
 10
73.6854
 20
25.0303
 30
0.0000
 11
73.6205
 21
25.0303
 31
0.0000
  0
LINE
  8
21
 10
74.0205
 20
24.7057
 30
0.0000
 11
74.4100
 21
24.7057
 31
0.0000
  0
LINE
  8
21
 10
74.1503
 20
25.0952
 30
0.0000
 11
74.1503
 21
24.1215
 31
0.0000
  0
ARC
  8
21
 10
74.3450
 20
24.1215
 30
0.0000
 40
0.1947
 50
180.0000
 51
270.0000
  0
LINE
  8
21
 10
74.3450
 20
23.9268
 30
0.0000
 11
74.4100
 21
23.9268
 31
0.0000
  0
LINE
  8
21
 10
75.9545
 20
24.5759
 30
0.0000
 11
76.1492
 21
24.5759
 31
0.0000
  0
LINE
  8
21
 10
76.1492
 20
24.5759
 30
0.0000
 11
76.1492
 21
23.9268
 31
0.0000
  0
LINE
  8
21
 10
76.1492
 20
23.9268
 30
0.0000
 11
75.7597
 21
23.9268
 31
0.0000
  0
ARC
  8
21
 10
75.7597
 20
24.1864
 30
0.0000
 40
0.2596
 50
180.0000
 51
270.0000
  0
LINE
  8
21
 10
75.5001
 20
24.1864
 30
0.0000
 11
75.5001
 21
24.8356
 31
0.0000
  0
ARC
  8
21
 10
75.7597
 20
24.8356
 30
0.0000
 40
0.2596
 50
90.0007
 51
180.0000
  0
LINE
  8
21
 10
75.7597
 20
25.0952
 30
0.0000
 11
76.1492
 21
25.0952
 31
0.0000
  0
LINE
  8
21
 10
76.7362
 20
23.9268
 30
0.0000
 11
76.7362
 21
25.0952
 31
0.0000
  0
LINE
  8
21
 10
76.7362
 20
25.0952
 30
0.0000
 11
77.0608
 21
25.0952
 31
0.0000
  0
ARC
  8
21
 10
77.0608
 20
24.7706
 30
0.0000
 40
0.3246
 50
270.0000
 51
90.0000
  0
LINE
  8
21
 10
77.0608
 20
24.4461
 30
0.0000
 11
76.7362
 21
24.4461
 31
0.0000
  0
ARC
  8
21
 10
78.1756
 20
24.1864
 30
0.0000
 40
0.2596
 50
270.0000
 51
0.0000
  0
ARC
  8
21
 10
78.1756
 20
24.4753
 30
0.0000
 40
0.5485
 50
224.7610
 51
269.9999
  0
ARC
  8
21
 10
78.0782
 20
24.8356
 30
0.0000
 40
0.2596
 50
89.9993
 51
180.0000
  0
ARC
  8
21
 10
78.0782
 20
24.6084
 30
0.0000
 40
0.4868
 50
53.1301
 51
89.9993
  0
ARC
  8
21
 10
78.0822
 20
24.8356
 30
0.0000
 40
0.2637
 50
179.9998
 51
239.4902
  0
ARC
  8
21
 10
78.1715
 20
24.1864
 30
0.0000
 40
0.2637
 50
0.0001
 51
59.4899
  0
LINE
  8
21
 10
78.3054
 20
24.4136
 30
0.0000
 11
77.9484
 21
24.6084
 31
0.0000
  0
INSERT
  8
17
  2
ROUNDP
 10
58.6740
 20
24.1300
 30
0.0000
 41
1.4080
 42
1.4080
 43
1.0000
 50
270.0000
  0
INSERT
  8
17
  2
ROUNDP
 10
58.6740
 20
24.1300
 30
0.0000
 41
1.4080
 42
1.4080
 43
1.0000
 50
270.0000
  0
INSERT
  8
17
  2
ROUNDP
 10
58.6740
 20
21.5900
 30
0.0000
 41
1.4080
 42
1.4080
 43
1.0000
 50
270.0000
  0
INSERT
  8
17
  2
ROUNDP
 10
58.6740
 20
21.5900
 30
0.0000
 41
1.4080
 42
1.4080
 43
1.0000
 50
270.0000
  0
INSERT
  8
17
  2
ROUNDP
 10
58.6740
 20
16.5100
 30
0.0000
 41
1.4080
 42
1.4080
 43
1.0000
 50
270.0000
  0
INSERT
  8
17
  2
ROUNDP
 10
58.6740
 20
16.5100
 30
0.0000
 41
1.4080
 42
1.4080
 43
1.0000
 50
270.0000
  0
INSERT
  8
17
  2
ROUNDP
 10
58.6740
 20
8.8900
 30
0.0000
 41
1.4080
 42
1.4080
 43
1.0000
 50
270.0000
  0
INSERT
  8
17
  2
ROUNDP
 10
58.6740
 20
8.8900
 30
0.0000
 41
1.4080
 42
1.4080
 43
1.0000
 50
270.0000
  0
INSERT
  8
17
  2
ROUNDP
 10
88.1380
 20
24.1300
 30
0.0000
 41
3.5560
 42
3.5560
 43
1.0000
 50
270.0000
  0
INSERT
  8
17
  2
ROUNDP
 10
88.1380
 20
24.1300
 30
0.0000
 41
3.5560
 42
3.5560
 43
1.0000
 50
270.0000
  0
INSERT
  8
17
  2
ROUNDP
 10
87.8840
 20
4.0640
 30
0.0000
 41
3.5560
 42
3.5560
 43
1.0000
 50
270.0000
  0
INSERT
  8
17
  2
ROUNDP
 10
87.8840
 20
4.0640
 30
0.0000
 41
3.5560
 42
3.5560
 43
1.0000
 50
270.0000
  0
INSERT
  8
17
  2
ROUNDP
 10
58.6740
 20
3.8100
 30
0.0000
 41
1.4080
 42
1.4080
 43
1.0000
 50
270.0000
  0
INSERT
  8
17
  2
ROUNDP
 10
58.6740
 20
3.8100
 30
0.0000
 41
1.4080
 42
1.4080
 43
1.0000
 50
270.0000
  0
INSERT
  8
17
  2
ROUNDP
 10
58.6740
 20
11.4300
 30
0.0000
 41
1.4080
 42
1.4080
 43
1.0000
 50
270.0000
  0
INSERT
  8
17
  2
ROUNDP
 10
58.6740
 20
11.4300
 30
0.0000
 41
1.4080
 42
1.4080
 43
1.0000
 50
270.0000
  0
INSERT
  8
17
  2
ROUNDP
 10
58.6740
 20
13.9700
 30
0.0000
 41
1.4080
 42
1.4080
 43
1.0000
 50
270.0000
  0
INSERT
  8
17
  2
ROUNDP
 10
58.6740
 20
13.9700
 30
0.0000
 41
1.4080
 42
1.4080
 43
1.0000
 50
270.0000
  0
INSERT
  8
17
  2
ROUNDP
 10
58.6740
 20
19.0500
 30
0.0000
 41
1.4080
 42
1.4080
 43
1.0000
 50
270.0000
  0
INSERT
  8
17
  2
ROUNDP
 10
58.6740
 20
19.0500
 30
0.0000
 41
1.4080
 42
1.4080
 43
1.0000
 50
270.0000
  0
INSERT
  8
17
  2
ROUNDP
 10
58.6740
 20
6.3500
 30
0.0000
 41
1.4080
 42
1.4080
 43
1.0000
 50
270.0000
  0
INSERT
  8
17
  2
ROUNDP
 10
58.6740
 20
6.3500
 30
0.0000
 41
1.4080
 42
1.4080
 43
1.0000
 50
270.0000
  0
POINT
  8
23
 10
43.1800
 20
35.5600
 30
0.0000
  0
LINE
  8
21
 10
53.9750
 20
25.4000
 30
0.0000
 11
32.3850
 21
25.4000
 31
0.0000
  0
LINE
  8
21
 10
29.8450
 20
27.9400
 30
0.0000
 11
29.8450
 21
43.1800
 31
0.0000
  0
LINE
  8
21
 10
32.3850
 20
45.7200
 30
0.0000
 11
53.9750
 21
45.7200
 31
0.0000
  0
ARC
  8
21
 10
32.3850
 20
43.1800
 30
0.0000
 40
2.5400
 50
90.0000
 51
180.0000
  0
ARC
  8
21
 10
53.9750
 20
27.9400
 30
0.0000
 40
2.5400
 50
270.0000
 51
0.0000
  0
LINE
  8
21
 10
56.5150
 20
27.9400
 30
0.0000
 11
56.5150
 21
43.1800
 31
0.0000
  0
ARC
  8
21
 10
53.9750
 20
43.1800
 30
0.0000
 40
2.5400
 50
0.0000
 51
90.0000
  0
ARC
  8
21
 10
32.3850
 20
27.9400
 30
0.0000
 40
2.5400
 50
180.0000
 51
270.0000
  0
LINE
  8
21
 10
31.0501
 20
32.4358
 30
0.0000
 11
31.0501
 21
32.7604
 31
0.0000
  0
ARC
  8
21
 10
31.3746
 20
32.7604
 30
0.0000
 40
0.3246
 50
0.0000
 51
180.0000
  0
LINE
  8
21
 10
31.6992
 20
32.7604
 30
0.0000
 11
31.6992
 21
32.4358
 31
0.0000
  0
LINE
  8
21
 10
31.6992
 20
32.4358
 30
0.0000
 11
30.5308
 21
32.4358
 31
0.0000
  0
LINE
  8
21
 10
30.5308
 20
32.4358
 30
0.0000
 11
30.5308
 21
32.7604
 31
0.0000
  0
ARC
  8
21
 10
30.7904
 20
32.7604
 30
0.0000
 40
0.2596
 50
0.0000
 51
180.0000
  0
LINE
  8
21
 10
31.6992
 20
33.5619
 30
0.0000
 11
30.5308
 21
33.5619
 31
0.0000
  0
LINE
  8
21
 10
30.5308
 20
33.5619
 30
0.0000
 11
31.6992
 21
34.2110
 31
0.0000
  0
LINE
  8
21
 10
31.6992
 20
34.2110
 30
0.0000
 11
30.5308
 21
34.2110
 31
0.0000
  0
LINE
  8
21
 10
31.3746
 20
34.7430
 30
0.0000
 11
30.8554
 21
34.7430
 31
0.0000
  0
ARC
  8
21
 10
30.8554
 20
35.0675
 30
0.0000
 40
0.3246
 50
90.0000
 51
270.0000
  0
LINE
  8
21
 10
30.8554
 20
35.3921
 30
0.0000
 11
31.3746
 21
35.3921
 31
0.0000
  0
ARC
  8
21
 10
31.3746
 20
35.0675
 30
0.0000
 40
0.3246
 50
270.0000
 51
90.0000
  0
ARC
  8
21
 10
31.1150
 20
36.8488
 30
0.0000
 40
0.9629
 50
244.0111
 51
269.9999
  0
ARC
  8
21
 10
30.7710
 20
36.2105
 30
0.0000
 40
0.2402
 50
180.0000
 51
251.0758
  0
ARC
  8
21
 10
30.7710
 20
36.2105
 30
0.0000
 40
0.2402
 50
108.9240
 51
180.0001
  0
ARC
  8
21
 10
31.1150
 20
35.5722
 30
0.0000
 40
0.9629
 50
90.0001
 51
115.9889
  0
ARC
  8
21
 10
31.1150
 20
36.8488
 30
0.0000
 40
0.9629
 50
270.0000
 51
295.9888
  0
ARC
  8
21
 10
31.4590
 20
36.2105
 30
0.0000
 40
0.2402
 50
288.9254
 51
359.9998
  0
ARC
  8
21
 10
31.1150
 20
35.5722
 30
0.0000
 40
0.9629
 50
64.0112
 51
90.0000
  0
ARC
  8
21
 10
31.4590
 20
36.2105
 30
0.0000
 40
0.2402
 50
0.0000
 51
71.0747
  0
LINE
  8
21
 10
31.4396
 20
35.9509
 30
0.0000
 11
30.7904
 21
36.4702
 31
0.0000
  0
LINE
  8
21
 10
31.6992
 20
37.0290
 30
0.0000
 11
31.6992
 21
37.4184
 31
0.0000
  0
ARC
  8
21
 10
31.4396
 20
37.4184
 30
0.0000
 40
0.2596
 50
0.0000
 51
90.0000
  0
LINE
  8
21
 10
31.4396
 20
37.6781
 30
0.0000
 11
31.3097
 21
37.6781
 31
0.0000
  0
ARC
  8
21
 10
31.3097
 20
37.4184
 30
0.0000
 40
0.2596
 50
90.0000
 51
180.0000
  0
LINE
  8
21
 10
31.0501
 20
37.4184
 30
0.0000
 11
31.0501
 21
37.0290
 31
0.0000
  0
LINE
  8
21
 10
31.0501
 20
37.0290
 30
0.0000
 11
30.5308
 21
37.0290
 31
0.0000
  0
LINE
  8
21
 10
30.5308
 20
37.0290
 30
0.0000
 11
30.5308
 21
37.6781
 31
0.0000
  0
LINE
  8
21
 10
31.6992
 20
38.1720
 30
0.0000
 11
31.6992
 21
38.5614
 31
0.0000
  0
ARC
  8
21
 10
31.4396
 20
38.5614
 30
0.0000
 40
0.2596
 50
0.0000
 51
90.0000
  0
LINE
  8
21
 10
31.4396
 20
38.8211
 30
0.0000
 11
31.3097
 21
38.8211
 31
0.0000
  0
ARC
  8
21
 10
31.3097
 20
38.5614
 30
0.0000
 40
0.2596
 50
90.0000
 51
180.0000
  0
LINE
  8
21
 10
31.0501
 20
38.5614
 30
0.0000
 11
31.0501
 21
38.1720
 31
0.0000
  0
LINE
  8
21
 10
31.0501
 20
38.1720
 30
0.0000
 11
30.5308
 21
38.1720
 31
0.0000
  0
LINE
  8
21
 10
30.5308
 20
38.1720
 30
0.0000
 11
30.5308
 21
38.8211
 31
0.0000
  0
INSERT
  8
17
  2
ROUNDP
 10
39.3700
 20
26.6700
 30
0.0000
 41
1.4080
 42
1.4080
 43
1.0000
 50
0.0000
  0
INSERT
  8
17
  2
ROUNDP
 10
39.3700
 20
26.6700
 30
0.0000
 41
1.4080
 42
1.4080
 43
1.0000
 50
0.0000
  0
INSERT
  8
17
  2
ROUNDP
 10
46.9900
 20
44.4500
 30
0.0000
 41
1.4080
 42
1.4080
 43
1.0000
 50
0.0000
  0
INSERT
  8
17
  2
ROUNDP
 10
46.9900
 20
44.4500
 30
0.0000
 41
1.4080
 42
1.4080
 43
1.0000
 50
0.0000
  0
INSERT
  8
17
  2
ROUNDP
 10
41.9100
 20
26.6700
 30
0.0000
 41
1.4080
 42
1.4080
 43
1.0000
 50
0.0000
  0
INSERT
  8
17
  2
ROUNDP
 10
41.9100
 20
26.6700
 30
0.0000
 41
1.4080
 42
1.4080
 43
1.0000
 50
0.0000
  0
INSERT
  8
17
  2
ROUNDP
 10
44.4500
 20
44.4500
 30
0.0000
 41
1.4080
 42
1.4080
 43
1.0000
 50
0.0000
  0
INSERT
  8
17
  2
ROUNDP
 10
44.4500
 20
44.4500
 30
0.0000
 41
1.4080
 42
1.4080
 43
1.0000
 50
0.0000
  0
INSERT
  8
17
  2
ROUNDP
 10
32.3850
 20
43.1800
 30
0.0000
 41
4.5720
 42
4.5720
 43
1.0000
 50
0.0000
  0
INSERT
  8
17
  2
ROUNDP
 10
32.3850
 20
43.1800
 30
0.0000
 41
4.5720
 42
4.5720
 43
1.0000
 50
0.0000
  0
INSERT
  8
17
  2
ROUNDP
 10
32.3850
 20
27.9400
 30
0.0000
 41
4.5720
 42
4.5720
 43
1.0000
 50
0.0000
  0
INSERT
  8
17
  2
ROUNDP
 10
32.3850
 20
27.9400
 30
0.0000
 41
4.5720
 42
4.5720
 43
1.0000
 50
0.0000
  0
INSERT
  8
17
  2
ROUNDP
 10
53.9750
 20
43.1800
 30
0.0000
 41
4.5720
 42
4.5720
 43
1.0000
 50
0.0000
  0
INSERT
  8
17
  2
ROUNDP
 10
53.9750
 20
43.1800
 30
0.0000
 41
4.5720
 42
4.5720
 43
1.0000
 50
0.0000
  0
INSERT
  8
17
  2
ROUNDP
 10
53.9750
 20
27.9400
 30
0.0000
 41
4.5720
 42
4.5720
 43
1.0000
 50
0.0000
  0
INSERT
  8
17
  2
ROUNDP
 10
53.9750
 20
27.9400
 30
0.0000
 41
4.5720
 42
4.5720
 43
1.0000
 50
0.0000
  0
INSERT
  8
17
  2
ROUNDP
 10
39.3700
 20
44.4500
 30
0.0000
 41
1.4080
 42
1.4080
 43
1.0000
 50
0.0000
  0
INSERT
  8
17
  2
ROUNDP
 10
39.3700
 20
44.4500
 30
0.0000
 41
1.4080
 42
1.4080
 43
1.0000
 50
0.0000
  0
INSERT
  8
17
  2
ROUNDP
 10
41.9100
 20
44.4500
 30
0.0000
 41
1.4080
 42
1.4080
 43
1.0000
 50
0.0000
  0
INSERT
  8
17
  2
ROUNDP
 10
41.9100
 20
44.4500
 30
0.0000
 41
1.4080
 42
1.4080
 43
1.0000
 50
0.0000
  0
INSERT
  8
17
  2
ROUNDP
 10
49.5300
 20
26.6700
 30
0.0000
 41
1.4080
 42
1.4080
 43
1.0000
 50
0.0000
  0
INSERT
  8
17
  2
ROUNDP
 10
49.5300
 20
26.6700
 30
0.0000
 41
1.4080
 42
1.4080
 43
1.0000
 50
0.0000
  0
INSERT
  8
17
  2
ROUNDP
 10
46.9900
 20
26.6700
 30
0.0000
 41
1.4080
 42
1.4080
 43
1.0000
 50
0.0000
  0
INSERT
  8
17
  2
ROUNDP
 10
46.9900
 20
26.6700
 30
0.0000
 41
1.4080
 42
1.4080
 43
1.0000
 50
0.0000
  0
INSERT
  8
17
  2
ROUNDP
 10
44.4500
 20
26.6700
 30
0.0000
 41
1.4080
 42
1.4080
 43
1.0000
 50
0.0000
  0
INSERT
  8
17
  2
ROUNDP
 10
44.4500
 20
26.6700
 30
0.0000
 41
1.4080
 42
1.4080
 43
1.0000
 50
0.0000
  0
INSERT
  8
17
  2
ROUNDP
 10
36.8300
 20
26.6700
 30
0.0000
 41
1.4080
 42
1.4080
 43
1.0000
 50
0.0000
  0
INSERT
  8
17
  2
ROUNDP
 10
36.8300
 20
26.6700
 30
0.0000
 41
1.4080
 42
1.4080
 43
1.0000
 50
0.0000
  0
LINE
  8
1
 10
26.0350
 20
27.4320
 30
0.0000
 11
25.7374
 21
27.1344
 31
0.0000
  0
LINE
  8
1
 10
25.7374
 20
27.1344
 30
0.0000
 11
25.7374
 21
3.4726
 31
0.0000
  0
LINE
  8
1
 10
25.7374
 20
3.4726
 30
0.0000
 11
26.6700
 21
2.5400
 31
0.0000
  0
LINE
  8
1
 10
24.1300
 20
2.5400
 30
0.0000
 11
23.1974
 21
3.4726
 31
0.0000
  0
LINE
  8
1
 10
23.1974
 20
3.4726
 30
0.0000
 11
23.1974
 21
27.1344
 31
0.0000
  0
LINE
  8
1
 10
23.1974
 20
27.1344
 30
0.0000
 11
23.4950
 21
27.4320
 31
0.0000
  0
LINE
  8
1
 10
21.5900
 20
2.5400
 30
0.0000
 11
20.6574
 21
3.4726
 31
0.0000
  0
LINE
  8
1
 10
20.6574
 20
3.4726
 30
0.0000
 11
20.6574
 21
27.1344
 31
0.0000
  0
LINE
  8
1
 10
20.6574
 20
27.1344
 30
0.0000
 11
20.9550
 21
27.4320
 31
0.0000
  0
LINE
  8
1
 10
72.3900
 20
36.8300
 30
0.0000
 11
57.1500
 21
36.8300
 31
0.0000
  0
LINE
  8
1
 10
57.1500
 20
36.8300
 30
0.0000
 11
46.9900
 21
26.6700
 31
0.0000
  0
LINE
  8
1
 10
46.9900
 20
22.8600
 30
0.0000
 11
46.9900
 21
26.6700
 31
0.0000
  0
LINE
  8
1
 10
72.3900
 20
34.2900
 30
0.0000
 11
56.7688
 21
34.2900
 31
0.0000
  0
LINE
  8
1
 10
56.7688
 20
34.2900
 30
0.0000
 11
51.2970
 21
28.8182
 31
0.0000
  0
LINE
  8
1
 10
51.2970
 20
28.8182
 30
0.0000
 11
51.2970
 21
24.6270
 31
0.0000
  0
LINE
  8
1
 10
51.2970
 20
24.6270
 30
0.0000
 11
49.5300
 21
22.8600
 31
0.0000
  0
LINE
  8
16
 10
49.5300
 20
22.8600
 30
0.0000
 11
47.6250
 21
24.7650
 31
0.0000
  0
LINE
  8
16
 10
47.6250
 20
24.7650
 30
0.0000
 11
46.3550
 21
24.7650
 31
0.0000
  0
LINE
  8
16
 10
46.3550
 20
24.7650
 30
0.0000
 11
44.4500
 21
26.6700
 31
0.0000
  0
LINE
  8
16
 10
0.0000
 20
38.1000
 30
0.0000
 11
63.5000
 21
38.1000
 31
0.0000
  0
LINE
  8
16
 10
63.5000
 20
38.1000
 30
0.0000
 11
71.1200
 21
45.7200
 31
0.0000
  0
LINE
  8
16
 10
71.1200
 20
45.7200
 30
0.0000
 11
73.6600
 21
45.7200
 31
0.0000
  0
LINE
  8
16
 10
73.6600
 20
45.7200
 30
0.0000
 11
78.7400
 21
40.6400
 31
0.0000
  0
LINE
  8
16
 10
78.7400
 20
40.6400
 30
0.0000
 11
78.7400
 21
22.8600
 31
0.0000
  0
LINE
  8
16
 10
78.7400
 20
22.8600
 30
0.0000
 11
55.8800
 21
0.0000
 31
0.0000
  0
LINE
  8
16
 10
55.8800
 20
0.0000
 30
0.0000
 11
12.7000
 21
0.0000
 31
0.0000
  0
LINE
  8
16
 10
12.7000
 20
0.0000
 30
0.0000
 11
0.0000
 21
12.7000
 31
0.0000
  0
LINE
  8
16
 10
0.0000
 20
12.7000
 30
0.0000
 11
0.0000
 21
38.1000
 31
0.0000
  0
LINE
  8
16
 10
44.4500
 20
2.5400
 30
0.0000
 11
53.3400
 21
11.4300
 31
0.0000
  0
LINE
  8
16
 10
53.3400
 20
11.4300
 30
0.0000
 11
58.6740
 21
11.4300
 31
0.0000
  0
LINE
  8
1
 10
46.9900
 20
2.5400
 30
0.0000
 11
47.2440
 21
2.5400
 31
0.0000
  0
LINE
  8
1
 10
47.2440
 20
2.5400
 30
0.0000
 11
58.6740
 21
13.9700
 31
0.0000
  0
LINE
  8
1
 10
0.0000
 20
22.8600
 30
0.0000
 11
0.0000
 21
35.5600
 31
0.0000
  0
LINE
  8
1
 10
0.0000
 20
35.5600
 30
0.0000
 11
49.5300
 21
35.5600
 31
0.0000
  0
LINE
  8
1
 10
49.5300
 20
35.5600
 30
0.0000
 11
60.9600
 21
46.9900
 31
0.0000
  0
LINE
  8
1
 10
60.9600
 20
46.9900
 30
0.0000
 11
74.9300
 21
46.9900
 31
0.0000
  0
LINE
  8
1
 10
74.9300
 20
46.9900
 30
0.0000
 11
78.7400
 21
43.1800
 31
0.0000
  0
LINE
  8
1
 10
78.7400
 20
43.1800
 30
0.0000
 11
78.7400
 21
22.8600
 31
0.0000
  0
LINE
  8
1
 10
78.7400
 20
22.8600
 30
0.0000
 11
55.8800
 21
0.0000
 31
0.0000
  0
LINE
  8
1
 10
55.8800
 20
0.0000
 30
0.0000
 11
12.7000
 21
0.0000
 31
0.0000
  0
LINE
  8
1
 10
12.7000
 20
0.0000
 30
0.0000
 11
0.0000
 21
12.7000
 31
0.0000
  0
LINE
  8
1
 10
0.0000
 20
12.7000
 30
0.0000
 11
0.0000
 21
22.8600
 31
0.0000
  0
LINE
  8
16
 10
2.5400
 20
20.3200
 30
0.0000
 11
5.8166
 21
23.5966
 31
0.0000
  0
LINE
  8
16
 10
5.8166
 20
23.5966
 30
0.0000
 11
20.8534
 21
23.5966
 31
0.0000
  0
LINE
  8
16
 10
20.8534
 20
23.5966
 30
0.0000
 11
21.5900
 21
22.8600
 31
0.0000
  0
ENDSEC
  0
EOF
