G04 EAGLE Gerber RS-274X export*
G75*
%MOMM*%
%FSLAX34Y34*%
%LPD*%
%INBottom Copper*%
%IPPOS*%
%AMOC8*
5,1,8,0,0,1.08239X$1,22.5*%
G01*
%ADD10C,1.408000*%
%ADD11C,3.556000*%
%ADD12C,3.048000*%
%ADD13C,3.810000*%
%ADD14C,4.572000*%
%ADD15C,1.676400*%
%ADD16C,1.600000*%
%ADD17P,1.429621X8X22.500000*%
%ADD18P,1.732040X8X22.500000*%
%ADD19C,0.152400*%

G36*
X1005607Y10168D02*
X1005607Y10168D01*
X1005689Y10166D01*
X1005830Y10188D01*
X1005973Y10201D01*
X1006053Y10222D01*
X1006134Y10235D01*
X1006269Y10281D01*
X1006407Y10319D01*
X1006482Y10355D01*
X1006560Y10381D01*
X1006685Y10451D01*
X1006814Y10513D01*
X1006881Y10560D01*
X1006953Y10601D01*
X1007064Y10691D01*
X1007180Y10775D01*
X1007238Y10834D01*
X1007301Y10886D01*
X1007394Y10995D01*
X1007494Y11097D01*
X1007540Y11166D01*
X1007594Y11228D01*
X1007666Y11352D01*
X1007746Y11470D01*
X1007780Y11546D01*
X1007821Y11617D01*
X1007871Y11751D01*
X1007929Y11882D01*
X1007948Y11962D01*
X1007976Y12040D01*
X1008001Y12181D01*
X1008035Y12320D01*
X1008040Y12402D01*
X1008055Y12483D01*
X1008054Y12626D01*
X1008063Y12769D01*
X1008053Y12851D01*
X1008053Y12933D01*
X1008027Y13074D01*
X1008011Y13216D01*
X1007987Y13295D01*
X1007972Y13376D01*
X1007892Y13610D01*
X1007881Y13647D01*
X1007876Y13657D01*
X1007871Y13672D01*
X1004839Y20990D01*
X1004839Y29010D01*
X1007909Y36420D01*
X1013580Y42091D01*
X1020990Y45161D01*
X1029010Y45161D01*
X1036328Y42129D01*
X1036407Y42105D01*
X1036482Y42071D01*
X1036621Y42038D01*
X1036758Y41995D01*
X1036840Y41984D01*
X1036920Y41965D01*
X1037062Y41956D01*
X1037205Y41938D01*
X1037287Y41942D01*
X1037369Y41937D01*
X1037511Y41954D01*
X1037654Y41961D01*
X1037734Y41980D01*
X1037816Y41989D01*
X1037954Y42031D01*
X1038093Y42063D01*
X1038168Y42096D01*
X1038247Y42119D01*
X1038375Y42184D01*
X1038506Y42241D01*
X1038575Y42287D01*
X1038649Y42324D01*
X1038763Y42410D01*
X1038882Y42489D01*
X1038942Y42546D01*
X1039007Y42596D01*
X1039104Y42701D01*
X1039208Y42800D01*
X1039257Y42866D01*
X1039313Y42927D01*
X1039390Y43048D01*
X1039474Y43163D01*
X1039510Y43237D01*
X1039554Y43307D01*
X1039609Y43439D01*
X1039672Y43568D01*
X1039694Y43647D01*
X1039725Y43723D01*
X1039755Y43863D01*
X1039795Y44001D01*
X1039803Y44083D01*
X1039820Y44164D01*
X1039835Y44409D01*
X1039839Y44449D01*
X1039838Y44460D01*
X1039839Y44475D01*
X1039839Y188316D01*
X1039832Y188398D01*
X1039834Y188481D01*
X1039812Y188622D01*
X1039799Y188765D01*
X1039778Y188844D01*
X1039765Y188926D01*
X1039719Y189061D01*
X1039681Y189199D01*
X1039645Y189273D01*
X1039619Y189351D01*
X1039549Y189477D01*
X1039487Y189606D01*
X1039440Y189673D01*
X1039399Y189745D01*
X1039309Y189855D01*
X1039225Y189972D01*
X1039166Y190029D01*
X1039114Y190093D01*
X1039005Y190186D01*
X1038903Y190286D01*
X1038834Y190332D01*
X1038772Y190386D01*
X1038648Y190458D01*
X1038530Y190538D01*
X1038454Y190571D01*
X1038383Y190613D01*
X1038249Y190662D01*
X1038118Y190720D01*
X1038038Y190740D01*
X1037960Y190768D01*
X1037819Y190793D01*
X1037680Y190827D01*
X1037598Y190832D01*
X1037517Y190846D01*
X1037374Y190846D01*
X1037231Y190855D01*
X1037149Y190845D01*
X1037067Y190845D01*
X1036926Y190819D01*
X1036784Y190802D01*
X1036705Y190779D01*
X1036624Y190764D01*
X1036390Y190684D01*
X1036353Y190672D01*
X1036343Y190667D01*
X1036328Y190662D01*
X1032198Y188951D01*
X1027802Y188951D01*
X1023741Y190633D01*
X1020633Y193741D01*
X1018951Y197802D01*
X1018951Y202198D01*
X1020633Y206259D01*
X1022938Y208564D01*
X1022961Y208590D01*
X1022987Y208613D01*
X1023105Y208763D01*
X1023227Y208909D01*
X1023244Y208939D01*
X1023266Y208966D01*
X1023356Y209135D01*
X1023451Y209300D01*
X1023462Y209333D01*
X1023479Y209363D01*
X1023538Y209544D01*
X1023602Y209724D01*
X1023607Y209758D01*
X1023618Y209791D01*
X1023644Y209981D01*
X1023675Y210168D01*
X1023675Y210203D01*
X1023679Y210237D01*
X1023671Y210428D01*
X1023669Y210619D01*
X1023662Y210653D01*
X1023661Y210687D01*
X1023620Y210874D01*
X1023583Y211061D01*
X1023571Y211093D01*
X1023563Y211127D01*
X1023490Y211303D01*
X1023421Y211481D01*
X1023403Y211510D01*
X1023390Y211542D01*
X1023286Y211703D01*
X1023187Y211866D01*
X1023164Y211892D01*
X1023145Y211921D01*
X1022938Y212155D01*
X1021960Y213133D01*
X1020985Y214475D01*
X1020232Y215954D01*
X1019742Y217461D01*
X1030000Y217461D01*
X1030034Y217464D01*
X1030069Y217462D01*
X1030258Y217484D01*
X1030448Y217500D01*
X1030482Y217510D01*
X1030516Y217514D01*
X1030699Y217569D01*
X1030883Y217619D01*
X1030914Y217634D01*
X1030947Y217644D01*
X1031118Y217731D01*
X1031289Y217812D01*
X1031317Y217833D01*
X1031348Y217848D01*
X1031500Y217963D01*
X1031655Y218075D01*
X1031679Y218099D01*
X1031707Y218120D01*
X1031707Y218121D01*
X1031836Y218260D01*
X1031969Y218397D01*
X1031970Y218398D01*
X1031989Y218426D01*
X1032013Y218452D01*
X1032115Y218613D01*
X1032222Y218771D01*
X1032236Y218802D01*
X1032254Y218832D01*
X1032327Y219008D01*
X1032404Y219183D01*
X1032412Y219216D01*
X1032425Y219248D01*
X1032466Y219435D01*
X1032511Y219620D01*
X1032513Y219654D01*
X1032520Y219688D01*
X1032539Y220000D01*
X1032539Y230258D01*
X1034046Y229768D01*
X1035524Y229015D01*
X1035807Y228810D01*
X1035941Y228730D01*
X1036070Y228642D01*
X1036134Y228614D01*
X1036194Y228578D01*
X1036339Y228523D01*
X1036482Y228460D01*
X1036550Y228444D01*
X1036615Y228419D01*
X1036768Y228390D01*
X1036920Y228353D01*
X1036989Y228349D01*
X1037057Y228336D01*
X1037213Y228335D01*
X1037369Y228326D01*
X1037438Y228334D01*
X1037508Y228333D01*
X1037661Y228360D01*
X1037816Y228378D01*
X1037883Y228398D01*
X1037951Y228410D01*
X1038098Y228463D01*
X1038247Y228508D01*
X1038309Y228540D01*
X1038375Y228563D01*
X1038510Y228642D01*
X1038649Y228712D01*
X1038704Y228754D01*
X1038764Y228789D01*
X1038883Y228890D01*
X1039007Y228984D01*
X1039054Y229035D01*
X1039107Y229080D01*
X1039207Y229201D01*
X1039313Y229316D01*
X1039350Y229374D01*
X1039394Y229428D01*
X1039470Y229564D01*
X1039554Y229695D01*
X1039581Y229760D01*
X1039615Y229820D01*
X1039666Y229967D01*
X1039725Y230112D01*
X1039740Y230180D01*
X1039763Y230245D01*
X1039787Y230399D01*
X1039820Y230552D01*
X1039826Y230641D01*
X1039833Y230690D01*
X1039832Y230748D01*
X1039839Y230864D01*
X1039839Y268316D01*
X1039832Y268398D01*
X1039834Y268481D01*
X1039812Y268622D01*
X1039799Y268765D01*
X1039778Y268844D01*
X1039765Y268926D01*
X1039719Y269061D01*
X1039681Y269199D01*
X1039645Y269273D01*
X1039619Y269351D01*
X1039549Y269477D01*
X1039487Y269606D01*
X1039440Y269673D01*
X1039399Y269745D01*
X1039309Y269855D01*
X1039225Y269972D01*
X1039166Y270029D01*
X1039114Y270093D01*
X1039005Y270186D01*
X1038903Y270286D01*
X1038834Y270332D01*
X1038772Y270386D01*
X1038648Y270458D01*
X1038530Y270538D01*
X1038454Y270571D01*
X1038383Y270613D01*
X1038249Y270662D01*
X1038118Y270720D01*
X1038038Y270740D01*
X1037960Y270768D01*
X1037819Y270793D01*
X1037680Y270827D01*
X1037598Y270832D01*
X1037517Y270846D01*
X1037374Y270846D01*
X1037231Y270855D01*
X1037149Y270845D01*
X1037067Y270845D01*
X1036926Y270819D01*
X1036784Y270802D01*
X1036705Y270779D01*
X1036624Y270764D01*
X1036390Y270684D01*
X1036353Y270672D01*
X1036343Y270667D01*
X1036328Y270662D01*
X1032198Y268951D01*
X1027802Y268951D01*
X1023741Y270633D01*
X1020633Y273741D01*
X1018951Y277802D01*
X1018951Y282198D01*
X1020633Y286259D01*
X1022938Y288564D01*
X1022961Y288590D01*
X1022987Y288613D01*
X1023105Y288763D01*
X1023227Y288909D01*
X1023244Y288939D01*
X1023266Y288966D01*
X1023356Y289135D01*
X1023451Y289300D01*
X1023462Y289333D01*
X1023479Y289363D01*
X1023538Y289544D01*
X1023602Y289724D01*
X1023607Y289758D01*
X1023618Y289791D01*
X1023644Y289981D01*
X1023675Y290168D01*
X1023675Y290203D01*
X1023679Y290237D01*
X1023671Y290428D01*
X1023669Y290619D01*
X1023662Y290653D01*
X1023661Y290687D01*
X1023620Y290874D01*
X1023583Y291061D01*
X1023571Y291093D01*
X1023563Y291127D01*
X1023490Y291303D01*
X1023421Y291481D01*
X1023403Y291510D01*
X1023390Y291542D01*
X1023286Y291703D01*
X1023187Y291866D01*
X1023164Y291892D01*
X1023145Y291921D01*
X1022938Y292155D01*
X1021960Y293133D01*
X1020985Y294475D01*
X1020232Y295954D01*
X1019742Y297461D01*
X1030000Y297461D01*
X1030034Y297464D01*
X1030069Y297462D01*
X1030258Y297484D01*
X1030448Y297500D01*
X1030482Y297510D01*
X1030516Y297514D01*
X1030699Y297569D01*
X1030883Y297619D01*
X1030914Y297634D01*
X1030947Y297644D01*
X1031118Y297731D01*
X1031289Y297812D01*
X1031317Y297833D01*
X1031348Y297848D01*
X1031500Y297963D01*
X1031655Y298075D01*
X1031679Y298099D01*
X1031707Y298120D01*
X1031707Y298121D01*
X1031836Y298260D01*
X1031969Y298397D01*
X1031970Y298398D01*
X1031989Y298426D01*
X1032013Y298452D01*
X1032115Y298613D01*
X1032222Y298771D01*
X1032236Y298802D01*
X1032254Y298832D01*
X1032327Y299008D01*
X1032404Y299183D01*
X1032412Y299216D01*
X1032425Y299248D01*
X1032466Y299435D01*
X1032511Y299620D01*
X1032513Y299654D01*
X1032520Y299688D01*
X1032539Y300000D01*
X1032539Y310258D01*
X1034046Y309768D01*
X1035525Y309015D01*
X1035807Y308810D01*
X1035941Y308730D01*
X1036070Y308642D01*
X1036134Y308614D01*
X1036194Y308578D01*
X1036340Y308523D01*
X1036482Y308460D01*
X1036550Y308444D01*
X1036615Y308419D01*
X1036768Y308390D01*
X1036920Y308353D01*
X1036989Y308349D01*
X1037057Y308336D01*
X1037213Y308335D01*
X1037369Y308326D01*
X1037438Y308334D01*
X1037508Y308333D01*
X1037661Y308360D01*
X1037816Y308378D01*
X1037883Y308398D01*
X1037951Y308410D01*
X1038098Y308463D01*
X1038247Y308508D01*
X1038309Y308540D01*
X1038375Y308563D01*
X1038510Y308642D01*
X1038649Y308712D01*
X1038704Y308754D01*
X1038764Y308789D01*
X1038883Y308890D01*
X1039007Y308984D01*
X1039054Y309036D01*
X1039108Y309081D01*
X1039207Y309201D01*
X1039313Y309316D01*
X1039350Y309374D01*
X1039394Y309428D01*
X1039470Y309564D01*
X1039554Y309695D01*
X1039581Y309760D01*
X1039615Y309820D01*
X1039666Y309968D01*
X1039725Y310112D01*
X1039740Y310180D01*
X1039763Y310246D01*
X1039787Y310399D01*
X1039820Y310552D01*
X1039826Y310641D01*
X1039833Y310690D01*
X1039832Y310748D01*
X1039839Y310864D01*
X1039839Y348316D01*
X1039832Y348398D01*
X1039834Y348481D01*
X1039812Y348622D01*
X1039799Y348765D01*
X1039778Y348844D01*
X1039765Y348926D01*
X1039719Y349061D01*
X1039681Y349199D01*
X1039645Y349273D01*
X1039619Y349351D01*
X1039549Y349477D01*
X1039487Y349606D01*
X1039440Y349673D01*
X1039399Y349745D01*
X1039309Y349855D01*
X1039225Y349972D01*
X1039166Y350029D01*
X1039114Y350093D01*
X1039005Y350186D01*
X1038903Y350286D01*
X1038834Y350332D01*
X1038772Y350386D01*
X1038648Y350458D01*
X1038530Y350538D01*
X1038454Y350571D01*
X1038383Y350613D01*
X1038249Y350662D01*
X1038118Y350720D01*
X1038038Y350740D01*
X1037960Y350768D01*
X1037819Y350793D01*
X1037680Y350827D01*
X1037598Y350832D01*
X1037517Y350846D01*
X1037374Y350846D01*
X1037231Y350855D01*
X1037149Y350845D01*
X1037067Y350845D01*
X1036926Y350819D01*
X1036784Y350802D01*
X1036705Y350779D01*
X1036624Y350764D01*
X1036390Y350684D01*
X1036353Y350672D01*
X1036343Y350667D01*
X1036328Y350662D01*
X1032198Y348951D01*
X1027802Y348951D01*
X1023741Y350633D01*
X1020633Y353741D01*
X1019347Y356848D01*
X1019249Y357035D01*
X1019152Y357225D01*
X1019144Y357235D01*
X1019138Y357247D01*
X1019008Y357414D01*
X1018880Y357583D01*
X1018870Y357592D01*
X1018862Y357603D01*
X1018705Y357745D01*
X1018549Y357889D01*
X1018538Y357896D01*
X1018528Y357905D01*
X1018348Y358016D01*
X1018169Y358130D01*
X1018157Y358135D01*
X1018146Y358142D01*
X1017949Y358221D01*
X1017753Y358301D01*
X1017740Y358304D01*
X1017728Y358309D01*
X1017520Y358351D01*
X1017313Y358396D01*
X1017297Y358397D01*
X1017286Y358399D01*
X1017247Y358400D01*
X1017001Y358415D01*
X616336Y358415D01*
X616254Y358408D01*
X616171Y358410D01*
X616030Y358388D01*
X615887Y358375D01*
X615808Y358354D01*
X615726Y358341D01*
X615591Y358295D01*
X615453Y358257D01*
X615379Y358222D01*
X615300Y358195D01*
X615175Y358125D01*
X615046Y358063D01*
X614979Y358016D01*
X614907Y357975D01*
X614797Y357885D01*
X614680Y357801D01*
X614623Y357742D01*
X614559Y357690D01*
X614466Y357581D01*
X614366Y357479D01*
X614320Y357410D01*
X614266Y357348D01*
X614194Y357224D01*
X614114Y357106D01*
X614081Y357030D01*
X614039Y356959D01*
X613990Y356825D01*
X613932Y356694D01*
X613912Y356614D01*
X613884Y356536D01*
X613859Y356395D01*
X613825Y356256D01*
X613820Y356174D01*
X613806Y356093D01*
X613806Y355950D01*
X613797Y355807D01*
X613807Y355725D01*
X613807Y355643D01*
X613833Y355502D01*
X613849Y355360D01*
X613873Y355281D01*
X613888Y355200D01*
X613968Y354967D01*
X613980Y354929D01*
X613985Y354919D01*
X613989Y354907D01*
X613989Y350893D01*
X612453Y347185D01*
X609615Y344347D01*
X605907Y342811D01*
X601893Y342811D01*
X598185Y344347D01*
X595347Y347186D01*
X595310Y347256D01*
X595280Y347333D01*
X595206Y347455D01*
X595140Y347582D01*
X595089Y347647D01*
X595046Y347717D01*
X594952Y347825D01*
X594864Y347938D01*
X594803Y347993D01*
X594748Y348055D01*
X594636Y348143D01*
X594530Y348239D01*
X594460Y348283D01*
X594395Y348334D01*
X594269Y348402D01*
X594147Y348477D01*
X594071Y348508D01*
X593998Y348547D01*
X593862Y348591D01*
X593729Y348644D01*
X593648Y348661D01*
X593570Y348686D01*
X593428Y348706D01*
X593288Y348734D01*
X593206Y348736D01*
X593124Y348747D01*
X592981Y348742D01*
X592838Y348745D01*
X592756Y348732D01*
X592674Y348729D01*
X592534Y348698D01*
X592393Y348676D01*
X592315Y348649D01*
X592235Y348631D01*
X592102Y348576D01*
X591967Y348530D01*
X591895Y348490D01*
X591819Y348458D01*
X591699Y348380D01*
X591574Y348310D01*
X591510Y348258D01*
X591441Y348214D01*
X591256Y348050D01*
X591226Y348025D01*
X591219Y348017D01*
X591207Y348007D01*
X578155Y334954D01*
X578049Y334828D01*
X577938Y334707D01*
X577905Y334656D01*
X577866Y334609D01*
X577784Y334466D01*
X577696Y334328D01*
X577673Y334271D01*
X577642Y334218D01*
X577587Y334063D01*
X577525Y333911D01*
X577512Y333851D01*
X577492Y333794D01*
X577465Y333632D01*
X577430Y333471D01*
X577425Y333394D01*
X577418Y333350D01*
X577419Y333289D01*
X577411Y333159D01*
X577411Y292953D01*
X576831Y291553D01*
X575402Y290123D01*
X528374Y243096D01*
X528290Y242996D01*
X528200Y242903D01*
X528146Y242823D01*
X528085Y242750D01*
X528020Y242637D01*
X527948Y242530D01*
X527909Y242442D01*
X527861Y242359D01*
X527818Y242237D01*
X527765Y242118D01*
X527743Y242025D01*
X527711Y241935D01*
X527689Y241806D01*
X527659Y241680D01*
X527653Y241585D01*
X527637Y241491D01*
X527639Y241360D01*
X527631Y241231D01*
X527642Y241136D01*
X527643Y241040D01*
X527668Y240913D01*
X527683Y240784D01*
X527711Y240692D01*
X527729Y240598D01*
X527776Y240477D01*
X527813Y240353D01*
X527857Y240268D01*
X527891Y240178D01*
X527959Y240067D01*
X528018Y239951D01*
X528075Y239875D01*
X528125Y239794D01*
X528211Y239696D01*
X528290Y239593D01*
X528360Y239528D01*
X528423Y239456D01*
X528525Y239376D01*
X528621Y239287D01*
X528702Y239236D01*
X528776Y239177D01*
X528891Y239116D01*
X529001Y239046D01*
X529089Y239009D01*
X529173Y238964D01*
X529297Y238924D01*
X529417Y238875D01*
X529511Y238855D01*
X529601Y238825D01*
X529730Y238807D01*
X529857Y238780D01*
X529987Y238772D01*
X530048Y238764D01*
X530092Y238765D01*
X530169Y238761D01*
X537947Y238761D01*
X546350Y235280D01*
X552780Y228850D01*
X556261Y220447D01*
X556261Y211353D01*
X552780Y202950D01*
X546350Y196520D01*
X537947Y193039D01*
X528853Y193039D01*
X520450Y196520D01*
X514020Y202950D01*
X510539Y211353D01*
X510539Y219131D01*
X510528Y219260D01*
X510526Y219390D01*
X510508Y219484D01*
X510499Y219579D01*
X510465Y219705D01*
X510440Y219832D01*
X510406Y219922D01*
X510381Y220014D01*
X510325Y220131D01*
X510278Y220252D01*
X510228Y220334D01*
X510187Y220420D01*
X510112Y220526D01*
X510044Y220637D01*
X509981Y220709D01*
X509925Y220786D01*
X509832Y220877D01*
X509746Y220974D01*
X509671Y221034D01*
X509603Y221100D01*
X509495Y221173D01*
X509393Y221254D01*
X509309Y221299D01*
X509230Y221352D01*
X509111Y221405D01*
X508996Y221466D01*
X508905Y221496D01*
X508818Y221535D01*
X508691Y221566D01*
X508568Y221606D01*
X508473Y221619D01*
X508380Y221641D01*
X508251Y221649D01*
X508122Y221667D01*
X508026Y221663D01*
X507931Y221669D01*
X507802Y221654D01*
X507672Y221649D01*
X507579Y221628D01*
X507484Y221617D01*
X507359Y221579D01*
X507232Y221551D01*
X507144Y221514D01*
X507053Y221487D01*
X506937Y221428D01*
X506817Y221377D01*
X506737Y221326D01*
X506651Y221282D01*
X506548Y221204D01*
X506439Y221133D01*
X506341Y221047D01*
X506293Y221010D01*
X506262Y220977D01*
X506204Y220926D01*
X501322Y216043D01*
X499921Y215463D01*
X453068Y215463D01*
X451667Y216043D01*
X450238Y217473D01*
X449611Y218100D01*
X449449Y218236D01*
X449287Y218374D01*
X449275Y218381D01*
X449265Y218389D01*
X449082Y218494D01*
X448898Y218601D01*
X448886Y218606D01*
X448874Y218612D01*
X448674Y218684D01*
X448475Y218757D01*
X448462Y218759D01*
X448450Y218763D01*
X448241Y218798D01*
X448032Y218835D01*
X448019Y218835D01*
X448006Y218837D01*
X447794Y218834D01*
X447582Y218833D01*
X447569Y218831D01*
X447556Y218831D01*
X447345Y218790D01*
X447139Y218752D01*
X447124Y218747D01*
X447114Y218745D01*
X447076Y218731D01*
X446843Y218651D01*
X446507Y218511D01*
X442493Y218511D01*
X438785Y220047D01*
X435947Y222885D01*
X434411Y226593D01*
X434411Y230607D01*
X435947Y234315D01*
X438785Y237153D01*
X442493Y238689D01*
X446507Y238689D01*
X450215Y237153D01*
X453053Y234315D01*
X454589Y230607D01*
X454589Y226593D01*
X454565Y226517D01*
X454532Y226442D01*
X454498Y226303D01*
X454455Y226166D01*
X454445Y226084D01*
X454425Y226004D01*
X454416Y225861D01*
X454398Y225720D01*
X454402Y225637D01*
X454397Y225555D01*
X454414Y225413D01*
X454421Y225270D01*
X454440Y225190D01*
X454449Y225108D01*
X454491Y224970D01*
X454523Y224831D01*
X454556Y224756D01*
X454580Y224677D01*
X454645Y224549D01*
X454701Y224418D01*
X454747Y224349D01*
X454784Y224275D01*
X454871Y224161D01*
X454949Y224042D01*
X455006Y223982D01*
X455056Y223917D01*
X455161Y223820D01*
X455260Y223716D01*
X455327Y223667D01*
X455387Y223611D01*
X455508Y223535D01*
X455623Y223450D01*
X455698Y223414D01*
X455767Y223370D01*
X455899Y223315D01*
X456028Y223252D01*
X456107Y223230D01*
X456184Y223199D01*
X456323Y223169D01*
X456461Y223129D01*
X456543Y223121D01*
X456624Y223104D01*
X456870Y223089D01*
X456909Y223085D01*
X456920Y223086D01*
X456936Y223085D01*
X457464Y223085D01*
X457547Y223092D01*
X457629Y223090D01*
X457770Y223112D01*
X457913Y223125D01*
X457992Y223146D01*
X458074Y223159D01*
X458209Y223206D01*
X458347Y223243D01*
X458421Y223278D01*
X458500Y223305D01*
X458625Y223375D01*
X458754Y223437D01*
X458821Y223484D01*
X458893Y223525D01*
X459004Y223615D01*
X459120Y223699D01*
X459177Y223758D01*
X459241Y223810D01*
X459334Y223919D01*
X459434Y224021D01*
X459480Y224090D01*
X459534Y224152D01*
X459606Y224276D01*
X459686Y224394D01*
X459719Y224470D01*
X459761Y224541D01*
X459810Y224675D01*
X459868Y224806D01*
X459888Y224886D01*
X459916Y224964D01*
X459941Y225105D01*
X459975Y225244D01*
X459980Y225326D01*
X459994Y225407D01*
X459994Y225550D01*
X460003Y225693D01*
X459993Y225775D01*
X459993Y225857D01*
X459967Y225998D01*
X459951Y226140D01*
X459927Y226219D01*
X459912Y226300D01*
X459832Y226533D01*
X459820Y226571D01*
X459815Y226581D01*
X459811Y226593D01*
X459811Y230607D01*
X461347Y234315D01*
X464185Y237153D01*
X467893Y238689D01*
X471907Y238689D01*
X473625Y237977D01*
X473794Y237924D01*
X473962Y237864D01*
X474009Y237856D01*
X474055Y237842D01*
X474230Y237820D01*
X474406Y237791D01*
X474454Y237791D01*
X474501Y237785D01*
X474679Y237795D01*
X474856Y237797D01*
X474903Y237806D01*
X474951Y237808D01*
X475124Y237849D01*
X475298Y237882D01*
X475343Y237900D01*
X475390Y237911D01*
X475552Y237981D01*
X475718Y238045D01*
X475759Y238070D01*
X475803Y238089D01*
X475951Y238186D01*
X476103Y238279D01*
X476139Y238310D01*
X476179Y238337D01*
X476308Y238460D01*
X476441Y238577D01*
X476470Y238614D01*
X476505Y238647D01*
X476610Y238791D01*
X476720Y238930D01*
X476742Y238972D01*
X476771Y239011D01*
X476849Y239170D01*
X476933Y239327D01*
X476947Y239372D01*
X476968Y239415D01*
X477017Y239586D01*
X477072Y239755D01*
X477078Y239802D01*
X477091Y239848D01*
X477109Y240025D01*
X477133Y240201D01*
X477131Y240249D01*
X477136Y240296D01*
X477122Y240473D01*
X477115Y240651D01*
X477104Y240698D01*
X477101Y240745D01*
X477056Y240917D01*
X477017Y241091D01*
X476999Y241135D01*
X476987Y241181D01*
X476912Y241342D01*
X476844Y241506D01*
X476818Y241546D01*
X476798Y241590D01*
X476696Y241735D01*
X476599Y241884D01*
X476560Y241929D01*
X476539Y241958D01*
X476495Y242003D01*
X476392Y242118D01*
X470415Y248096D01*
X470289Y248201D01*
X470168Y248313D01*
X470117Y248345D01*
X470070Y248384D01*
X469927Y248466D01*
X469788Y248554D01*
X469732Y248578D01*
X469679Y248608D01*
X469524Y248663D01*
X469372Y248725D01*
X469312Y248738D01*
X469255Y248759D01*
X469092Y248785D01*
X468932Y248820D01*
X468855Y248825D01*
X468810Y248832D01*
X468749Y248831D01*
X468620Y248839D01*
X457792Y248839D01*
X456391Y249419D01*
X439611Y266200D01*
X439447Y266337D01*
X439287Y266474D01*
X439275Y266481D01*
X439265Y266489D01*
X439081Y266594D01*
X438898Y266701D01*
X438886Y266706D01*
X438874Y266713D01*
X438674Y266784D01*
X438475Y266857D01*
X438462Y266859D01*
X438450Y266863D01*
X438239Y266898D01*
X438032Y266935D01*
X438019Y266935D01*
X438006Y266937D01*
X437792Y266934D01*
X437582Y266933D01*
X437569Y266931D01*
X437556Y266931D01*
X437346Y266890D01*
X437139Y266852D01*
X437124Y266847D01*
X437113Y266845D01*
X437076Y266831D01*
X436843Y266751D01*
X436507Y266611D01*
X432493Y266611D01*
X428785Y268147D01*
X425947Y270985D01*
X424411Y274693D01*
X424411Y278707D01*
X425947Y282415D01*
X428785Y285253D01*
X432493Y286789D01*
X436507Y286789D01*
X440215Y285253D01*
X443053Y282415D01*
X444589Y278707D01*
X444589Y274693D01*
X444449Y274357D01*
X444386Y274154D01*
X444320Y273953D01*
X444319Y273940D01*
X444315Y273927D01*
X444288Y273716D01*
X444259Y273507D01*
X444259Y273494D01*
X444258Y273480D01*
X444269Y273269D01*
X444277Y273057D01*
X444280Y273044D01*
X444281Y273031D01*
X444329Y272824D01*
X444375Y272617D01*
X444380Y272605D01*
X444383Y272592D01*
X444467Y272398D01*
X444548Y272202D01*
X444556Y272191D01*
X444561Y272179D01*
X444677Y272002D01*
X444793Y271824D01*
X444803Y271812D01*
X444809Y271803D01*
X444836Y271774D01*
X445000Y271589D01*
X446382Y270208D01*
X446518Y270094D01*
X446650Y269975D01*
X446690Y269949D01*
X446727Y269919D01*
X446881Y269831D01*
X447032Y269737D01*
X447076Y269719D01*
X447118Y269695D01*
X447285Y269636D01*
X447450Y269570D01*
X447497Y269561D01*
X447542Y269545D01*
X447718Y269516D01*
X447891Y269480D01*
X447939Y269479D01*
X447986Y269471D01*
X448165Y269473D01*
X448341Y269469D01*
X448389Y269477D01*
X448437Y269477D01*
X448612Y269511D01*
X448786Y269538D01*
X448832Y269554D01*
X448879Y269563D01*
X449045Y269627D01*
X449212Y269684D01*
X449254Y269708D01*
X449299Y269725D01*
X449451Y269817D01*
X449606Y269904D01*
X449643Y269934D01*
X449683Y269959D01*
X449816Y270076D01*
X449954Y270189D01*
X449985Y270226D01*
X450021Y270257D01*
X450131Y270396D01*
X450246Y270531D01*
X450271Y270573D01*
X450300Y270610D01*
X450384Y270767D01*
X450474Y270920D01*
X450490Y270965D01*
X450513Y271007D01*
X450568Y271176D01*
X450629Y271343D01*
X450637Y271390D01*
X450652Y271435D01*
X450676Y271611D01*
X450707Y271786D01*
X450707Y271834D01*
X450713Y271881D01*
X450706Y272059D01*
X450706Y272236D01*
X450697Y272283D01*
X450695Y272331D01*
X450657Y272505D01*
X450625Y272679D01*
X450605Y272736D01*
X450597Y272771D01*
X450573Y272829D01*
X450523Y272975D01*
X449811Y274693D01*
X449811Y278707D01*
X451347Y282415D01*
X454185Y285253D01*
X457893Y286789D01*
X461907Y286789D01*
X465615Y285253D01*
X468453Y282415D01*
X469989Y278707D01*
X469989Y274693D01*
X468453Y270985D01*
X465615Y268147D01*
X461907Y266611D01*
X457893Y266611D01*
X456175Y267323D01*
X456005Y267376D01*
X455838Y267436D01*
X455791Y267443D01*
X455745Y267458D01*
X455569Y267480D01*
X455394Y267509D01*
X455346Y267509D01*
X455299Y267515D01*
X455121Y267505D01*
X454944Y267503D01*
X454897Y267494D01*
X454849Y267491D01*
X454676Y267451D01*
X454502Y267417D01*
X454457Y267400D01*
X454410Y267389D01*
X454247Y267319D01*
X454082Y267255D01*
X454041Y267230D01*
X453997Y267211D01*
X453848Y267113D01*
X453697Y267021D01*
X453661Y266990D01*
X453621Y266963D01*
X453493Y266841D01*
X453359Y266723D01*
X453330Y266686D01*
X453295Y266653D01*
X453190Y266509D01*
X453080Y266370D01*
X453057Y266328D01*
X453029Y266289D01*
X452951Y266130D01*
X452867Y265973D01*
X452853Y265928D01*
X452832Y265885D01*
X452783Y265714D01*
X452728Y265545D01*
X452722Y265498D01*
X452709Y265451D01*
X452691Y265275D01*
X452667Y265099D01*
X452669Y265051D01*
X452664Y265003D01*
X452678Y264827D01*
X452685Y264649D01*
X452696Y264602D01*
X452699Y264555D01*
X452744Y264383D01*
X452783Y264209D01*
X452801Y264165D01*
X452813Y264119D01*
X452888Y263957D01*
X452956Y263794D01*
X452982Y263754D01*
X453002Y263710D01*
X453104Y263565D01*
X453201Y263416D01*
X453240Y263371D01*
X453261Y263342D01*
X453305Y263297D01*
X453408Y263182D01*
X459385Y257204D01*
X459511Y257099D01*
X459632Y256987D01*
X459683Y256955D01*
X459730Y256916D01*
X459873Y256834D01*
X460012Y256746D01*
X460068Y256722D01*
X460121Y256692D01*
X460276Y256637D01*
X460428Y256575D01*
X460488Y256562D01*
X460545Y256541D01*
X460708Y256515D01*
X460868Y256480D01*
X460945Y256475D01*
X460990Y256468D01*
X461051Y256469D01*
X461180Y256461D01*
X472008Y256461D01*
X473409Y255881D01*
X474838Y254451D01*
X490189Y239100D01*
X490353Y238963D01*
X490513Y238826D01*
X490525Y238819D01*
X490535Y238811D01*
X490719Y238706D01*
X490902Y238599D01*
X490914Y238594D01*
X490926Y238587D01*
X491126Y238516D01*
X491325Y238443D01*
X491338Y238441D01*
X491350Y238437D01*
X491561Y238402D01*
X491768Y238365D01*
X491781Y238365D01*
X491794Y238363D01*
X492008Y238366D01*
X492218Y238367D01*
X492231Y238369D01*
X492244Y238369D01*
X492454Y238410D01*
X492661Y238448D01*
X492676Y238453D01*
X492687Y238455D01*
X492724Y238469D01*
X492957Y238549D01*
X493293Y238689D01*
X497307Y238689D01*
X501015Y237153D01*
X503853Y234314D01*
X503890Y234244D01*
X503920Y234167D01*
X503994Y234045D01*
X504060Y233918D01*
X504111Y233853D01*
X504154Y233783D01*
X504248Y233675D01*
X504336Y233562D01*
X504397Y233507D01*
X504452Y233445D01*
X504564Y233357D01*
X504670Y233261D01*
X504740Y233217D01*
X504805Y233166D01*
X504931Y233098D01*
X505053Y233023D01*
X505129Y232992D01*
X505202Y232953D01*
X505338Y232909D01*
X505471Y232856D01*
X505552Y232839D01*
X505630Y232814D01*
X505772Y232794D01*
X505912Y232766D01*
X505994Y232764D01*
X506076Y232753D01*
X506219Y232758D01*
X506362Y232755D01*
X506444Y232768D01*
X506526Y232771D01*
X506666Y232802D01*
X506807Y232824D01*
X506885Y232851D01*
X506965Y232869D01*
X507098Y232924D01*
X507233Y232970D01*
X507305Y233010D01*
X507381Y233042D01*
X507501Y233120D01*
X507626Y233190D01*
X507690Y233242D01*
X507759Y233286D01*
X507944Y233450D01*
X507974Y233475D01*
X507981Y233483D01*
X507993Y233493D01*
X533656Y259156D01*
X533740Y259256D01*
X533830Y259349D01*
X533884Y259429D01*
X533945Y259502D01*
X534010Y259615D01*
X534083Y259722D01*
X534121Y259810D01*
X534169Y259893D01*
X534212Y260015D01*
X534265Y260134D01*
X534287Y260227D01*
X534319Y260317D01*
X534341Y260446D01*
X534371Y260572D01*
X534377Y260667D01*
X534393Y260761D01*
X534391Y260892D01*
X534399Y261021D01*
X534388Y261116D01*
X534387Y261212D01*
X534362Y261339D01*
X534347Y261468D01*
X534319Y261560D01*
X534301Y261654D01*
X534254Y261775D01*
X534217Y261899D01*
X534173Y261984D01*
X534139Y262074D01*
X534071Y262185D01*
X534012Y262301D01*
X533955Y262377D01*
X533905Y262458D01*
X533819Y262556D01*
X533740Y262659D01*
X533670Y262724D01*
X533607Y262796D01*
X533505Y262876D01*
X533409Y262965D01*
X533329Y263016D01*
X533254Y263075D01*
X533139Y263136D01*
X533030Y263206D01*
X532941Y263243D01*
X532857Y263288D01*
X532733Y263328D01*
X532613Y263377D01*
X532519Y263397D01*
X532429Y263427D01*
X532300Y263445D01*
X532173Y263472D01*
X532043Y263480D01*
X531983Y263488D01*
X531938Y263487D01*
X531861Y263491D01*
X526339Y263491D01*
X519750Y265257D01*
X513842Y268668D01*
X509018Y273492D01*
X505607Y279400D01*
X503841Y285989D01*
X503841Y292811D01*
X505607Y299400D01*
X509018Y305308D01*
X513842Y310132D01*
X519750Y313543D01*
X526339Y315309D01*
X533161Y315309D01*
X539750Y313543D01*
X545658Y310132D01*
X550482Y305308D01*
X553893Y299400D01*
X555659Y292811D01*
X555659Y287289D01*
X555670Y287160D01*
X555672Y287030D01*
X555690Y286936D01*
X555699Y286841D01*
X555733Y286715D01*
X555758Y286588D01*
X555792Y286498D01*
X555817Y286406D01*
X555873Y286289D01*
X555920Y286168D01*
X555970Y286086D01*
X556011Y286000D01*
X556086Y285894D01*
X556154Y285783D01*
X556217Y285711D01*
X556273Y285634D01*
X556366Y285543D01*
X556452Y285445D01*
X556527Y285386D01*
X556595Y285320D01*
X556703Y285247D01*
X556805Y285166D01*
X556889Y285121D01*
X556968Y285067D01*
X557087Y285015D01*
X557202Y284953D01*
X557293Y284924D01*
X557380Y284885D01*
X557507Y284854D01*
X557630Y284814D01*
X557725Y284801D01*
X557818Y284779D01*
X557947Y284771D01*
X558076Y284753D01*
X558172Y284757D01*
X558267Y284751D01*
X558396Y284766D01*
X558526Y284771D01*
X558619Y284792D01*
X558714Y284803D01*
X558839Y284841D01*
X558966Y284869D01*
X559054Y284906D01*
X559145Y284933D01*
X559261Y284992D01*
X559381Y285042D01*
X559462Y285094D01*
X559547Y285138D01*
X559650Y285216D01*
X559759Y285287D01*
X559857Y285373D01*
X559905Y285410D01*
X559936Y285442D01*
X559994Y285494D01*
X569046Y294546D01*
X569151Y294672D01*
X569263Y294793D01*
X569295Y294844D01*
X569335Y294891D01*
X569416Y295034D01*
X569505Y295173D01*
X569528Y295229D01*
X569558Y295282D01*
X569613Y295437D01*
X569675Y295589D01*
X569688Y295649D01*
X569709Y295706D01*
X569736Y295869D01*
X569770Y296029D01*
X569775Y296106D01*
X569782Y296151D01*
X569781Y296212D01*
X569789Y296341D01*
X569789Y336547D01*
X570370Y337948D01*
X597937Y365516D01*
X598017Y365557D01*
X598082Y365608D01*
X598153Y365651D01*
X598260Y365745D01*
X598373Y365833D01*
X598429Y365894D01*
X598490Y365949D01*
X598579Y366061D01*
X598675Y366167D01*
X598718Y366237D01*
X598770Y366302D01*
X598837Y366428D01*
X598913Y366549D01*
X598943Y366626D01*
X598982Y366699D01*
X599026Y366835D01*
X599079Y366968D01*
X599096Y367049D01*
X599121Y367127D01*
X599141Y367269D01*
X599170Y367409D01*
X599172Y367491D01*
X599183Y367573D01*
X599177Y367716D01*
X599180Y367859D01*
X599168Y367941D01*
X599164Y368023D01*
X599133Y368163D01*
X599112Y368304D01*
X599085Y368382D01*
X599067Y368463D01*
X599012Y368595D01*
X598965Y368730D01*
X598925Y368802D01*
X598893Y368878D01*
X598816Y368998D01*
X598746Y369123D01*
X598694Y369187D01*
X598649Y369256D01*
X598486Y369441D01*
X598461Y369471D01*
X598453Y369478D01*
X598442Y369490D01*
X595347Y372585D01*
X593811Y376293D01*
X593811Y380307D01*
X595347Y384015D01*
X598185Y386853D01*
X601893Y388389D01*
X605907Y388389D01*
X609615Y386853D01*
X612453Y384015D01*
X613989Y380307D01*
X613989Y376293D01*
X612453Y372585D01*
X610239Y370372D01*
X610156Y370272D01*
X610065Y370179D01*
X610011Y370099D01*
X609950Y370026D01*
X609886Y369913D01*
X609813Y369806D01*
X609774Y369718D01*
X609727Y369635D01*
X609683Y369513D01*
X609631Y369394D01*
X609608Y369301D01*
X609576Y369211D01*
X609555Y369083D01*
X609524Y368956D01*
X609518Y368861D01*
X609503Y368767D01*
X609504Y368637D01*
X609496Y368507D01*
X609507Y368412D01*
X609509Y368317D01*
X609533Y368189D01*
X609548Y368060D01*
X609576Y367968D01*
X609594Y367874D01*
X609641Y367753D01*
X609679Y367629D01*
X609722Y367543D01*
X609757Y367454D01*
X609824Y367343D01*
X609883Y367227D01*
X609941Y367151D01*
X609990Y367070D01*
X610077Y366972D01*
X610155Y366869D01*
X610225Y366804D01*
X610289Y366732D01*
X610391Y366652D01*
X610486Y366564D01*
X610567Y366512D01*
X610642Y366453D01*
X610756Y366392D01*
X610866Y366322D01*
X610954Y366285D01*
X611039Y366240D01*
X611162Y366200D01*
X611283Y366151D01*
X611376Y366131D01*
X611467Y366101D01*
X611596Y366083D01*
X611723Y366056D01*
X611852Y366048D01*
X611913Y366040D01*
X611958Y366042D01*
X612035Y366037D01*
X849506Y366037D01*
X849636Y366048D01*
X849766Y366050D01*
X849859Y366068D01*
X849955Y366077D01*
X850080Y366111D01*
X850208Y366136D01*
X850297Y366170D01*
X850389Y366195D01*
X850506Y366251D01*
X850628Y366298D01*
X850710Y366348D01*
X850796Y366389D01*
X850901Y366464D01*
X851013Y366532D01*
X851084Y366595D01*
X851162Y366651D01*
X851253Y366744D01*
X851350Y366830D01*
X851409Y366905D01*
X851476Y366973D01*
X851549Y367081D01*
X851629Y367183D01*
X851674Y367267D01*
X851728Y367346D01*
X851781Y367465D01*
X851842Y367580D01*
X851872Y367671D01*
X851910Y367758D01*
X851941Y367885D01*
X851981Y368008D01*
X851994Y368103D01*
X852017Y368196D01*
X852025Y368325D01*
X852043Y368454D01*
X852039Y368550D01*
X852045Y368645D01*
X852030Y368774D01*
X852024Y368904D01*
X852004Y368997D01*
X851993Y369092D01*
X851955Y369217D01*
X851927Y369344D01*
X851890Y369432D01*
X851862Y369523D01*
X851803Y369639D01*
X851753Y369759D01*
X851701Y369839D01*
X851658Y369925D01*
X851579Y370028D01*
X851509Y370137D01*
X851423Y370235D01*
X851386Y370283D01*
X851353Y370314D01*
X851302Y370372D01*
X846250Y375423D01*
X846250Y384577D01*
X852723Y391050D01*
X861877Y391050D01*
X868564Y384363D01*
X868590Y384341D01*
X868613Y384315D01*
X868762Y384197D01*
X868909Y384074D01*
X868939Y384057D01*
X868966Y384035D01*
X869134Y383946D01*
X869300Y383851D01*
X869333Y383839D01*
X869363Y383823D01*
X869544Y383764D01*
X869724Y383700D01*
X869759Y383694D01*
X869791Y383684D01*
X869980Y383658D01*
X870168Y383626D01*
X870203Y383627D01*
X870237Y383622D01*
X870428Y383630D01*
X870619Y383633D01*
X870653Y383639D01*
X870687Y383641D01*
X870873Y383682D01*
X871061Y383718D01*
X871093Y383731D01*
X871127Y383738D01*
X871303Y383812D01*
X871481Y383880D01*
X871510Y383898D01*
X871542Y383912D01*
X871702Y384015D01*
X871866Y384114D01*
X871892Y384137D01*
X871921Y384156D01*
X872155Y384363D01*
X878333Y390542D01*
X880161Y390542D01*
X880161Y380000D01*
X880164Y379966D01*
X880162Y379931D01*
X880184Y379742D01*
X880200Y379552D01*
X880210Y379518D01*
X880214Y379484D01*
X880269Y379301D01*
X880319Y379117D01*
X880334Y379086D01*
X880344Y379053D01*
X880431Y378882D01*
X880512Y378711D01*
X880533Y378683D01*
X880548Y378652D01*
X880663Y378500D01*
X880775Y378345D01*
X880775Y378344D01*
X880799Y378320D01*
X880820Y378293D01*
X880821Y378293D01*
X880821Y378292D01*
X880961Y378163D01*
X881098Y378030D01*
X881126Y378011D01*
X881152Y377987D01*
X881313Y377885D01*
X881471Y377778D01*
X881502Y377764D01*
X881532Y377745D01*
X881708Y377673D01*
X881883Y377596D01*
X881916Y377588D01*
X881948Y377575D01*
X882135Y377534D01*
X882320Y377489D01*
X882354Y377487D01*
X882388Y377480D01*
X882700Y377461D01*
X893242Y377461D01*
X893242Y375633D01*
X887980Y370372D01*
X887896Y370272D01*
X887806Y370179D01*
X887752Y370099D01*
X887691Y370026D01*
X887626Y369913D01*
X887554Y369806D01*
X887515Y369718D01*
X887468Y369635D01*
X887424Y369513D01*
X887371Y369394D01*
X887349Y369301D01*
X887317Y369211D01*
X887295Y369083D01*
X887265Y368956D01*
X887259Y368861D01*
X887243Y368767D01*
X887245Y368637D01*
X887237Y368507D01*
X887248Y368412D01*
X887249Y368317D01*
X887274Y368189D01*
X887289Y368060D01*
X887317Y367968D01*
X887335Y367874D01*
X887382Y367753D01*
X887419Y367629D01*
X887463Y367544D01*
X887497Y367454D01*
X887565Y367343D01*
X887624Y367227D01*
X887681Y367151D01*
X887731Y367070D01*
X887817Y366972D01*
X887896Y366869D01*
X887966Y366804D01*
X888029Y366732D01*
X888131Y366652D01*
X888227Y366564D01*
X888307Y366512D01*
X888382Y366453D01*
X888497Y366392D01*
X888607Y366322D01*
X888695Y366285D01*
X888779Y366240D01*
X888903Y366200D01*
X889023Y366151D01*
X889117Y366131D01*
X889207Y366101D01*
X889336Y366083D01*
X889463Y366056D01*
X889593Y366048D01*
X889654Y366040D01*
X889698Y366042D01*
X889775Y366037D01*
X1019360Y366037D01*
X1019523Y366051D01*
X1019688Y366058D01*
X1019747Y366071D01*
X1019808Y366077D01*
X1019967Y366120D01*
X1020127Y366156D01*
X1020184Y366179D01*
X1020243Y366195D01*
X1020391Y366266D01*
X1020543Y366329D01*
X1020594Y366362D01*
X1020649Y366389D01*
X1020783Y366484D01*
X1020921Y366574D01*
X1020979Y366625D01*
X1021015Y366651D01*
X1021058Y366694D01*
X1021155Y366780D01*
X1022938Y368564D01*
X1022961Y368590D01*
X1022987Y368613D01*
X1023105Y368763D01*
X1023227Y368909D01*
X1023245Y368939D01*
X1023266Y368966D01*
X1023356Y369135D01*
X1023451Y369300D01*
X1023462Y369333D01*
X1023479Y369363D01*
X1023538Y369545D01*
X1023602Y369724D01*
X1023607Y369758D01*
X1023618Y369791D01*
X1023644Y369980D01*
X1023675Y370168D01*
X1023675Y370203D01*
X1023679Y370237D01*
X1023671Y370428D01*
X1023669Y370619D01*
X1023662Y370653D01*
X1023661Y370687D01*
X1023620Y370873D01*
X1023583Y371061D01*
X1023571Y371093D01*
X1023563Y371127D01*
X1023490Y371303D01*
X1023421Y371481D01*
X1023403Y371510D01*
X1023390Y371542D01*
X1023286Y371702D01*
X1023187Y371866D01*
X1023164Y371892D01*
X1023145Y371921D01*
X1022938Y372155D01*
X1021960Y373133D01*
X1020985Y374475D01*
X1020232Y375954D01*
X1019742Y377461D01*
X1030000Y377461D01*
X1030034Y377464D01*
X1030069Y377462D01*
X1030258Y377484D01*
X1030448Y377500D01*
X1030482Y377510D01*
X1030516Y377514D01*
X1030699Y377569D01*
X1030883Y377619D01*
X1030914Y377634D01*
X1030947Y377644D01*
X1031118Y377731D01*
X1031289Y377812D01*
X1031317Y377833D01*
X1031348Y377848D01*
X1031500Y377963D01*
X1031655Y378075D01*
X1031679Y378099D01*
X1031707Y378120D01*
X1031836Y378260D01*
X1031969Y378397D01*
X1031989Y378426D01*
X1032012Y378451D01*
X1032115Y378612D01*
X1032221Y378770D01*
X1032235Y378802D01*
X1032254Y378831D01*
X1032326Y379008D01*
X1032404Y379182D01*
X1032412Y379216D01*
X1032425Y379248D01*
X1032465Y379434D01*
X1032510Y379619D01*
X1032512Y379654D01*
X1032520Y379688D01*
X1032539Y380000D01*
X1032536Y380035D01*
X1032538Y380069D01*
X1032516Y380259D01*
X1032499Y380449D01*
X1032490Y380482D01*
X1032486Y380516D01*
X1032431Y380699D01*
X1032380Y380883D01*
X1032366Y380914D01*
X1032356Y380947D01*
X1032269Y381118D01*
X1032187Y381290D01*
X1032167Y381318D01*
X1032151Y381349D01*
X1032036Y381501D01*
X1031925Y381656D01*
X1031900Y381680D01*
X1031879Y381707D01*
X1031739Y381837D01*
X1031602Y381970D01*
X1031574Y381989D01*
X1031548Y382013D01*
X1031387Y382115D01*
X1031229Y382222D01*
X1031198Y382236D01*
X1031168Y382254D01*
X1030992Y382327D01*
X1030817Y382404D01*
X1030784Y382412D01*
X1030752Y382425D01*
X1030565Y382466D01*
X1030380Y382511D01*
X1030346Y382513D01*
X1030312Y382520D01*
X1030000Y382539D01*
X1019742Y382539D01*
X1020232Y384046D01*
X1020985Y385525D01*
X1021960Y386867D01*
X1022938Y387845D01*
X1022961Y387872D01*
X1022987Y387895D01*
X1023105Y388045D01*
X1023227Y388191D01*
X1023244Y388221D01*
X1023266Y388248D01*
X1023356Y388416D01*
X1023451Y388582D01*
X1023462Y388614D01*
X1023479Y388645D01*
X1023538Y388826D01*
X1023601Y389006D01*
X1023607Y389040D01*
X1023618Y389073D01*
X1023644Y389262D01*
X1023675Y389450D01*
X1023675Y389485D01*
X1023679Y389519D01*
X1023671Y389710D01*
X1023669Y389900D01*
X1023662Y389934D01*
X1023661Y389969D01*
X1023620Y390155D01*
X1023583Y390342D01*
X1023571Y390375D01*
X1023563Y390409D01*
X1023490Y390584D01*
X1023421Y390762D01*
X1023403Y390792D01*
X1023390Y390824D01*
X1023286Y390984D01*
X1023187Y391147D01*
X1023164Y391173D01*
X1023145Y391202D01*
X1022938Y391436D01*
X1020633Y393741D01*
X1018951Y397802D01*
X1018951Y402198D01*
X1020633Y406259D01*
X1023741Y409367D01*
X1027802Y411049D01*
X1032198Y411049D01*
X1036328Y409338D01*
X1036407Y409313D01*
X1036482Y409280D01*
X1036621Y409246D01*
X1036758Y409203D01*
X1036840Y409193D01*
X1036920Y409173D01*
X1037062Y409164D01*
X1037205Y409146D01*
X1037287Y409150D01*
X1037369Y409145D01*
X1037511Y409162D01*
X1037654Y409169D01*
X1037734Y409188D01*
X1037816Y409198D01*
X1037954Y409239D01*
X1038093Y409271D01*
X1038168Y409304D01*
X1038247Y409328D01*
X1038375Y409393D01*
X1038506Y409449D01*
X1038575Y409495D01*
X1038649Y409532D01*
X1038763Y409619D01*
X1038882Y409698D01*
X1038942Y409754D01*
X1039007Y409804D01*
X1039104Y409910D01*
X1039208Y410008D01*
X1039257Y410075D01*
X1039313Y410135D01*
X1039390Y410256D01*
X1039474Y410372D01*
X1039510Y410446D01*
X1039554Y410515D01*
X1039609Y410648D01*
X1039672Y410776D01*
X1039694Y410855D01*
X1039725Y410932D01*
X1039755Y411072D01*
X1039795Y411209D01*
X1039803Y411291D01*
X1039820Y411372D01*
X1039835Y411618D01*
X1039839Y411657D01*
X1039838Y411668D01*
X1039839Y411684D01*
X1039839Y435525D01*
X1039832Y435607D01*
X1039834Y435689D01*
X1039812Y435830D01*
X1039799Y435973D01*
X1039778Y436053D01*
X1039765Y436134D01*
X1039719Y436269D01*
X1039681Y436407D01*
X1039645Y436482D01*
X1039619Y436560D01*
X1039549Y436685D01*
X1039487Y436814D01*
X1039440Y436881D01*
X1039399Y436953D01*
X1039309Y437064D01*
X1039225Y437180D01*
X1039166Y437238D01*
X1039114Y437301D01*
X1039005Y437394D01*
X1038903Y437494D01*
X1038834Y437540D01*
X1038772Y437594D01*
X1038648Y437666D01*
X1038530Y437746D01*
X1038454Y437780D01*
X1038383Y437821D01*
X1038249Y437871D01*
X1038118Y437929D01*
X1038038Y437948D01*
X1037960Y437976D01*
X1037819Y438001D01*
X1037680Y438035D01*
X1037598Y438040D01*
X1037517Y438055D01*
X1037374Y438054D01*
X1037231Y438063D01*
X1037149Y438053D01*
X1037067Y438053D01*
X1036926Y438027D01*
X1036784Y438011D01*
X1036705Y437987D01*
X1036624Y437972D01*
X1036390Y437892D01*
X1036353Y437881D01*
X1036343Y437876D01*
X1036328Y437871D01*
X1029010Y434839D01*
X1020990Y434839D01*
X1013580Y437909D01*
X1007909Y443580D01*
X1004839Y450990D01*
X1004839Y459010D01*
X1007871Y466328D01*
X1007890Y466390D01*
X1007898Y466408D01*
X1007900Y466419D01*
X1007929Y466482D01*
X1007962Y466621D01*
X1008005Y466758D01*
X1008016Y466840D01*
X1008035Y466920D01*
X1008044Y467062D01*
X1008062Y467205D01*
X1008058Y467287D01*
X1008063Y467369D01*
X1008046Y467511D01*
X1008039Y467654D01*
X1008020Y467734D01*
X1008011Y467816D01*
X1007969Y467954D01*
X1007937Y468093D01*
X1007904Y468168D01*
X1007881Y468247D01*
X1007816Y468375D01*
X1007759Y468506D01*
X1007713Y468575D01*
X1007676Y468649D01*
X1007590Y468763D01*
X1007511Y468882D01*
X1007454Y468942D01*
X1007404Y469007D01*
X1007299Y469104D01*
X1007200Y469208D01*
X1007134Y469257D01*
X1007073Y469313D01*
X1006952Y469390D01*
X1006837Y469474D01*
X1006763Y469510D01*
X1006693Y469554D01*
X1006561Y469609D01*
X1006432Y469672D01*
X1006353Y469694D01*
X1006277Y469725D01*
X1006137Y469755D01*
X1005999Y469795D01*
X1005917Y469803D01*
X1005836Y469820D01*
X1005591Y469835D01*
X1005551Y469839D01*
X1005540Y469838D01*
X1005525Y469839D01*
X890864Y469839D01*
X890709Y469825D01*
X890553Y469820D01*
X890485Y469806D01*
X890415Y469799D01*
X890265Y469758D01*
X890112Y469725D01*
X890048Y469699D01*
X889981Y469681D01*
X889840Y469614D01*
X889696Y469555D01*
X889637Y469517D01*
X889574Y469487D01*
X889448Y469397D01*
X889316Y469313D01*
X889265Y469266D01*
X889208Y469225D01*
X889100Y469114D01*
X888985Y469008D01*
X888943Y468952D01*
X888894Y468903D01*
X888807Y468773D01*
X888713Y468649D01*
X888681Y468587D01*
X888642Y468530D01*
X888579Y468387D01*
X888508Y468248D01*
X888488Y468181D01*
X888460Y468118D01*
X888423Y467966D01*
X888378Y467817D01*
X888370Y467748D01*
X888353Y467680D01*
X888344Y467525D01*
X888326Y467370D01*
X888330Y467300D01*
X888326Y467231D01*
X888344Y467076D01*
X888353Y466920D01*
X888370Y466853D01*
X888378Y466784D01*
X888423Y466634D01*
X888460Y466483D01*
X888488Y466419D01*
X888508Y466353D01*
X888579Y466214D01*
X888642Y466071D01*
X888690Y465996D01*
X888712Y465951D01*
X888747Y465905D01*
X888810Y465807D01*
X889015Y465524D01*
X889768Y464046D01*
X890258Y462539D01*
X880000Y462539D01*
X879966Y462536D01*
X879931Y462538D01*
X879742Y462516D01*
X879552Y462499D01*
X879518Y462490D01*
X879484Y462486D01*
X879301Y462431D01*
X879117Y462381D01*
X879086Y462366D01*
X879053Y462356D01*
X878882Y462269D01*
X878711Y462188D01*
X878683Y462167D01*
X878652Y462152D01*
X878500Y462036D01*
X878345Y461925D01*
X878344Y461925D01*
X878320Y461900D01*
X878293Y461880D01*
X878293Y461879D01*
X878292Y461879D01*
X878163Y461739D01*
X878030Y461602D01*
X878011Y461574D01*
X877987Y461548D01*
X877885Y461387D01*
X877778Y461229D01*
X877764Y461198D01*
X877745Y461168D01*
X877673Y460992D01*
X877596Y460817D01*
X877588Y460784D01*
X877575Y460752D01*
X877534Y460565D01*
X877489Y460380D01*
X877487Y460346D01*
X877480Y460312D01*
X877461Y460000D01*
X877461Y449742D01*
X875954Y450232D01*
X874475Y450985D01*
X873133Y451960D01*
X872155Y452938D01*
X872128Y452961D01*
X872105Y452987D01*
X871955Y453105D01*
X871809Y453227D01*
X871779Y453244D01*
X871752Y453266D01*
X871584Y453356D01*
X871418Y453451D01*
X871386Y453462D01*
X871355Y453479D01*
X871174Y453538D01*
X870994Y453601D01*
X870960Y453607D01*
X870927Y453618D01*
X870738Y453644D01*
X870550Y453675D01*
X870515Y453675D01*
X870481Y453679D01*
X870290Y453671D01*
X870100Y453669D01*
X870066Y453662D01*
X870031Y453661D01*
X869845Y453620D01*
X869658Y453583D01*
X869625Y453571D01*
X869591Y453563D01*
X869416Y453490D01*
X869238Y453421D01*
X869208Y453403D01*
X869176Y453390D01*
X869016Y453286D01*
X868853Y453187D01*
X868827Y453164D01*
X868798Y453145D01*
X868564Y452938D01*
X866259Y450633D01*
X862198Y448951D01*
X857802Y448951D01*
X853741Y450633D01*
X850633Y453741D01*
X848951Y457802D01*
X848951Y462198D01*
X850662Y466328D01*
X850682Y466390D01*
X850689Y466408D01*
X850692Y466419D01*
X850720Y466482D01*
X850754Y466621D01*
X850797Y466758D01*
X850807Y466840D01*
X850827Y466920D01*
X850836Y467062D01*
X850854Y467205D01*
X850850Y467287D01*
X850855Y467369D01*
X850838Y467511D01*
X850831Y467654D01*
X850812Y467734D01*
X850802Y467816D01*
X850761Y467954D01*
X850729Y468093D01*
X850696Y468168D01*
X850672Y468247D01*
X850607Y468375D01*
X850551Y468506D01*
X850505Y468575D01*
X850468Y468649D01*
X850381Y468763D01*
X850302Y468882D01*
X850246Y468942D01*
X850196Y469007D01*
X850090Y469104D01*
X849992Y469208D01*
X849925Y469257D01*
X849865Y469313D01*
X849744Y469390D01*
X849628Y469474D01*
X849554Y469510D01*
X849485Y469554D01*
X849353Y469609D01*
X849224Y469672D01*
X849145Y469694D01*
X849068Y469725D01*
X848928Y469755D01*
X848791Y469795D01*
X848709Y469803D01*
X848628Y469820D01*
X848382Y469835D01*
X848343Y469839D01*
X848332Y469838D01*
X848316Y469839D01*
X811684Y469839D01*
X811602Y469832D01*
X811519Y469834D01*
X811378Y469812D01*
X811235Y469799D01*
X811156Y469778D01*
X811074Y469765D01*
X810939Y469719D01*
X810801Y469681D01*
X810727Y469645D01*
X810649Y469619D01*
X810523Y469549D01*
X810394Y469487D01*
X810327Y469440D01*
X810255Y469399D01*
X810145Y469309D01*
X810028Y469225D01*
X809971Y469166D01*
X809907Y469114D01*
X809814Y469005D01*
X809714Y468903D01*
X809668Y468834D01*
X809614Y468772D01*
X809542Y468648D01*
X809462Y468530D01*
X809429Y468454D01*
X809387Y468383D01*
X809338Y468249D01*
X809280Y468118D01*
X809260Y468038D01*
X809232Y467960D01*
X809207Y467819D01*
X809173Y467680D01*
X809168Y467598D01*
X809154Y467517D01*
X809154Y467374D01*
X809145Y467231D01*
X809155Y467149D01*
X809155Y467067D01*
X809181Y466926D01*
X809198Y466784D01*
X809221Y466705D01*
X809236Y466624D01*
X809316Y466390D01*
X809328Y466353D01*
X809333Y466343D01*
X809338Y466328D01*
X811049Y462198D01*
X811049Y457802D01*
X809367Y453741D01*
X806259Y450633D01*
X802198Y448951D01*
X797802Y448951D01*
X793741Y450633D01*
X791796Y452579D01*
X791769Y452602D01*
X791746Y452627D01*
X791597Y452746D01*
X791450Y452868D01*
X791420Y452885D01*
X791393Y452907D01*
X791225Y452997D01*
X791059Y453091D01*
X791027Y453103D01*
X790996Y453119D01*
X790815Y453178D01*
X790635Y453242D01*
X790601Y453248D01*
X790568Y453259D01*
X790379Y453285D01*
X790191Y453316D01*
X790156Y453315D01*
X790122Y453320D01*
X789931Y453312D01*
X789740Y453310D01*
X789706Y453303D01*
X789672Y453302D01*
X789486Y453260D01*
X789298Y453224D01*
X789266Y453212D01*
X789232Y453204D01*
X789057Y453131D01*
X788878Y453062D01*
X788849Y453044D01*
X788817Y453030D01*
X788657Y452927D01*
X788494Y452828D01*
X788468Y452805D01*
X788439Y452786D01*
X788204Y452579D01*
X786259Y450633D01*
X782198Y448951D01*
X777802Y448951D01*
X773741Y450633D01*
X770633Y453741D01*
X768951Y457802D01*
X768951Y462198D01*
X770662Y466328D01*
X770682Y466390D01*
X770689Y466408D01*
X770692Y466419D01*
X770720Y466482D01*
X770754Y466621D01*
X770797Y466758D01*
X770807Y466840D01*
X770827Y466920D01*
X770836Y467062D01*
X770854Y467205D01*
X770850Y467287D01*
X770855Y467369D01*
X770838Y467511D01*
X770831Y467654D01*
X770812Y467734D01*
X770802Y467816D01*
X770761Y467954D01*
X770729Y468093D01*
X770696Y468168D01*
X770672Y468247D01*
X770607Y468375D01*
X770551Y468506D01*
X770505Y468575D01*
X770468Y468649D01*
X770381Y468763D01*
X770302Y468882D01*
X770246Y468942D01*
X770196Y469007D01*
X770090Y469104D01*
X769992Y469208D01*
X769925Y469257D01*
X769865Y469313D01*
X769744Y469390D01*
X769628Y469474D01*
X769554Y469510D01*
X769485Y469554D01*
X769353Y469609D01*
X769224Y469672D01*
X769145Y469694D01*
X769068Y469725D01*
X768928Y469755D01*
X768791Y469795D01*
X768709Y469803D01*
X768628Y469820D01*
X768382Y469835D01*
X768343Y469839D01*
X768332Y469838D01*
X768316Y469839D01*
X542479Y469839D01*
X542467Y469838D01*
X542456Y469839D01*
X542243Y469818D01*
X542030Y469799D01*
X542019Y469796D01*
X542007Y469795D01*
X541802Y469737D01*
X541596Y469681D01*
X541585Y469676D01*
X541574Y469673D01*
X541381Y469579D01*
X541189Y469487D01*
X541180Y469481D01*
X541169Y469476D01*
X540997Y469350D01*
X540823Y469225D01*
X540815Y469217D01*
X540806Y469210D01*
X540658Y469056D01*
X540509Y468903D01*
X540503Y468893D01*
X540495Y468885D01*
X540376Y468707D01*
X540257Y468530D01*
X540252Y468519D01*
X540246Y468509D01*
X540161Y468314D01*
X540075Y468118D01*
X540072Y468107D01*
X540067Y468096D01*
X540019Y467888D01*
X539968Y467680D01*
X539967Y467669D01*
X539965Y467658D01*
X539953Y467444D01*
X539940Y467231D01*
X539942Y467220D01*
X539941Y467208D01*
X539968Y466997D01*
X539992Y466784D01*
X539996Y466772D01*
X539997Y466761D01*
X540060Y466560D01*
X540123Y466353D01*
X540128Y466342D01*
X540131Y466331D01*
X540230Y466142D01*
X540327Y465951D01*
X540334Y465942D01*
X540339Y465932D01*
X540471Y465762D01*
X540599Y465593D01*
X540607Y465585D01*
X540615Y465576D01*
X540774Y465431D01*
X540930Y465288D01*
X540940Y465281D01*
X540948Y465274D01*
X541209Y465101D01*
X545658Y462532D01*
X550482Y457708D01*
X553893Y451800D01*
X555659Y445211D01*
X555659Y438389D01*
X553893Y431800D01*
X550482Y425892D01*
X545658Y421068D01*
X539750Y417657D01*
X533161Y415891D01*
X526339Y415891D01*
X519750Y417657D01*
X513842Y421068D01*
X509018Y425892D01*
X505607Y431800D01*
X503841Y438389D01*
X503841Y445211D01*
X505607Y451800D01*
X509018Y457708D01*
X513842Y462532D01*
X518291Y465101D01*
X518301Y465108D01*
X518311Y465113D01*
X518483Y465236D01*
X518659Y465360D01*
X518668Y465368D01*
X518677Y465375D01*
X518827Y465529D01*
X518976Y465680D01*
X518983Y465689D01*
X518991Y465697D01*
X519111Y465876D01*
X519232Y466050D01*
X519237Y466061D01*
X519243Y466070D01*
X519330Y466267D01*
X519418Y466460D01*
X519421Y466472D01*
X519425Y466482D01*
X519475Y466687D01*
X519528Y466897D01*
X519529Y466909D01*
X519532Y466920D01*
X519545Y467131D01*
X519560Y467346D01*
X519559Y467358D01*
X519560Y467369D01*
X519535Y467582D01*
X519512Y467794D01*
X519509Y467805D01*
X519508Y467816D01*
X519445Y468023D01*
X519386Y468226D01*
X519381Y468236D01*
X519377Y468247D01*
X519280Y468438D01*
X519185Y468629D01*
X519178Y468638D01*
X519173Y468649D01*
X519045Y468818D01*
X518916Y468990D01*
X518908Y468998D01*
X518901Y469007D01*
X518744Y469152D01*
X518588Y469298D01*
X518578Y469305D01*
X518570Y469313D01*
X518389Y469428D01*
X518210Y469544D01*
X518200Y469548D01*
X518190Y469554D01*
X517992Y469636D01*
X517795Y469718D01*
X517784Y469721D01*
X517773Y469725D01*
X517564Y469770D01*
X517356Y469817D01*
X517345Y469818D01*
X517333Y469820D01*
X517021Y469839D01*
X326579Y469839D01*
X326567Y469838D01*
X326556Y469839D01*
X326343Y469818D01*
X326130Y469799D01*
X326119Y469796D01*
X326107Y469795D01*
X325902Y469737D01*
X325696Y469681D01*
X325685Y469676D01*
X325674Y469673D01*
X325481Y469579D01*
X325289Y469487D01*
X325280Y469481D01*
X325269Y469476D01*
X325097Y469350D01*
X324923Y469225D01*
X324915Y469217D01*
X324906Y469210D01*
X324758Y469056D01*
X324609Y468903D01*
X324603Y468893D01*
X324595Y468885D01*
X324476Y468707D01*
X324357Y468530D01*
X324352Y468519D01*
X324346Y468509D01*
X324261Y468314D01*
X324175Y468118D01*
X324172Y468107D01*
X324167Y468096D01*
X324119Y467888D01*
X324068Y467680D01*
X324067Y467669D01*
X324065Y467658D01*
X324053Y467444D01*
X324040Y467231D01*
X324042Y467220D01*
X324041Y467208D01*
X324068Y466997D01*
X324092Y466784D01*
X324096Y466772D01*
X324097Y466761D01*
X324160Y466560D01*
X324223Y466353D01*
X324228Y466342D01*
X324231Y466331D01*
X324330Y466142D01*
X324427Y465951D01*
X324434Y465942D01*
X324439Y465932D01*
X324571Y465762D01*
X324699Y465593D01*
X324707Y465585D01*
X324715Y465576D01*
X324874Y465431D01*
X325030Y465288D01*
X325040Y465281D01*
X325048Y465274D01*
X325309Y465101D01*
X329758Y462532D01*
X334582Y457708D01*
X337993Y451800D01*
X339759Y445211D01*
X339759Y438389D01*
X337993Y431800D01*
X334582Y425892D01*
X329758Y421068D01*
X323850Y417657D01*
X317261Y415891D01*
X310439Y415891D01*
X303850Y417657D01*
X297942Y421068D01*
X293118Y425892D01*
X289707Y431800D01*
X287941Y438389D01*
X287941Y445211D01*
X289707Y451800D01*
X293118Y457708D01*
X297942Y462532D01*
X302391Y465101D01*
X302401Y465108D01*
X302411Y465113D01*
X302583Y465236D01*
X302759Y465360D01*
X302768Y465368D01*
X302777Y465375D01*
X302927Y465529D01*
X303076Y465680D01*
X303083Y465689D01*
X303091Y465697D01*
X303211Y465876D01*
X303332Y466050D01*
X303337Y466061D01*
X303343Y466070D01*
X303430Y466267D01*
X303518Y466460D01*
X303521Y466472D01*
X303525Y466482D01*
X303575Y466687D01*
X303628Y466897D01*
X303629Y466909D01*
X303632Y466920D01*
X303645Y467131D01*
X303660Y467346D01*
X303659Y467358D01*
X303660Y467369D01*
X303635Y467582D01*
X303612Y467794D01*
X303609Y467805D01*
X303608Y467816D01*
X303545Y468023D01*
X303486Y468226D01*
X303481Y468236D01*
X303477Y468247D01*
X303380Y468438D01*
X303285Y468629D01*
X303278Y468638D01*
X303273Y468649D01*
X303145Y468818D01*
X303016Y468990D01*
X303008Y468998D01*
X303001Y469007D01*
X302844Y469152D01*
X302688Y469298D01*
X302678Y469305D01*
X302670Y469313D01*
X302489Y469428D01*
X302310Y469544D01*
X302300Y469548D01*
X302290Y469554D01*
X302092Y469636D01*
X301895Y469718D01*
X301884Y469721D01*
X301873Y469725D01*
X301664Y469770D01*
X301456Y469817D01*
X301445Y469818D01*
X301433Y469820D01*
X301121Y469839D01*
X250643Y469839D01*
X250514Y469828D01*
X250384Y469826D01*
X250290Y469808D01*
X250195Y469799D01*
X250069Y469765D01*
X249942Y469740D01*
X249853Y469706D01*
X249760Y469681D01*
X249643Y469625D01*
X249522Y469578D01*
X249440Y469528D01*
X249354Y469487D01*
X249248Y469412D01*
X249137Y469344D01*
X249065Y469281D01*
X248988Y469225D01*
X248897Y469132D01*
X248800Y469046D01*
X248740Y468971D01*
X248674Y468903D01*
X248601Y468795D01*
X248520Y468693D01*
X248475Y468609D01*
X248422Y468530D01*
X248369Y468411D01*
X248308Y468296D01*
X248278Y468205D01*
X248239Y468118D01*
X248209Y467991D01*
X248168Y467868D01*
X248155Y467773D01*
X248133Y467680D01*
X248125Y467551D01*
X248107Y467422D01*
X248111Y467326D01*
X248105Y467231D01*
X248120Y467102D01*
X248125Y466972D01*
X248146Y466879D01*
X248157Y466784D01*
X248195Y466659D01*
X248223Y466532D01*
X248260Y466444D01*
X248287Y466353D01*
X248346Y466237D01*
X248397Y466117D01*
X248448Y466037D01*
X248492Y465951D01*
X248570Y465848D01*
X248641Y465739D01*
X248727Y465641D01*
X248764Y465593D01*
X248797Y465562D01*
X248848Y465504D01*
X252734Y461618D01*
X256099Y453496D01*
X256099Y444704D01*
X252734Y436582D01*
X246518Y430366D01*
X238396Y427001D01*
X229604Y427001D01*
X221482Y430366D01*
X215266Y436582D01*
X211901Y444704D01*
X211901Y453496D01*
X215266Y461618D01*
X219152Y465504D01*
X219235Y465604D01*
X219326Y465697D01*
X219380Y465777D01*
X219441Y465850D01*
X219506Y465963D01*
X219578Y466070D01*
X219617Y466158D01*
X219664Y466241D01*
X219708Y466363D01*
X219761Y466482D01*
X219783Y466575D01*
X219815Y466665D01*
X219836Y466793D01*
X219867Y466920D01*
X219873Y467015D01*
X219889Y467109D01*
X219887Y467239D01*
X219895Y467369D01*
X219884Y467464D01*
X219883Y467560D01*
X219858Y467687D01*
X219843Y467816D01*
X219815Y467908D01*
X219797Y468002D01*
X219750Y468123D01*
X219713Y468247D01*
X219669Y468333D01*
X219635Y468422D01*
X219567Y468533D01*
X219508Y468649D01*
X219451Y468725D01*
X219401Y468806D01*
X219315Y468904D01*
X219236Y469007D01*
X219166Y469072D01*
X219103Y469144D01*
X219001Y469224D01*
X218905Y469313D01*
X218825Y469364D01*
X218750Y469423D01*
X218635Y469484D01*
X218525Y469554D01*
X218437Y469591D01*
X218353Y469636D01*
X218229Y469676D01*
X218109Y469725D01*
X218015Y469745D01*
X217925Y469775D01*
X217796Y469793D01*
X217669Y469820D01*
X217539Y469828D01*
X217478Y469836D01*
X217434Y469835D01*
X217357Y469839D01*
X110943Y469839D01*
X110814Y469828D01*
X110684Y469826D01*
X110590Y469808D01*
X110495Y469799D01*
X110369Y469765D01*
X110242Y469740D01*
X110153Y469706D01*
X110060Y469681D01*
X109943Y469625D01*
X109822Y469578D01*
X109740Y469528D01*
X109654Y469487D01*
X109548Y469412D01*
X109437Y469344D01*
X109365Y469281D01*
X109288Y469225D01*
X109197Y469132D01*
X109100Y469046D01*
X109040Y468971D01*
X108974Y468903D01*
X108901Y468795D01*
X108820Y468693D01*
X108775Y468609D01*
X108722Y468530D01*
X108669Y468411D01*
X108608Y468296D01*
X108578Y468205D01*
X108539Y468118D01*
X108509Y467991D01*
X108468Y467868D01*
X108455Y467773D01*
X108433Y467680D01*
X108425Y467551D01*
X108407Y467422D01*
X108411Y467326D01*
X108405Y467231D01*
X108420Y467102D01*
X108425Y466972D01*
X108446Y466879D01*
X108457Y466784D01*
X108495Y466659D01*
X108523Y466532D01*
X108560Y466444D01*
X108587Y466353D01*
X108646Y466237D01*
X108697Y466117D01*
X108748Y466037D01*
X108792Y465951D01*
X108870Y465848D01*
X108941Y465739D01*
X109027Y465641D01*
X109064Y465593D01*
X109097Y465562D01*
X109148Y465504D01*
X113034Y461618D01*
X116399Y453496D01*
X116399Y444704D01*
X113034Y436582D01*
X106818Y430366D01*
X98696Y427001D01*
X89904Y427001D01*
X81782Y430366D01*
X75566Y436582D01*
X72201Y444704D01*
X72201Y453496D01*
X75566Y461618D01*
X79452Y465504D01*
X79535Y465604D01*
X79626Y465697D01*
X79680Y465777D01*
X79741Y465850D01*
X79806Y465963D01*
X79878Y466070D01*
X79917Y466158D01*
X79964Y466241D01*
X80008Y466363D01*
X80061Y466482D01*
X80083Y466575D01*
X80115Y466665D01*
X80136Y466793D01*
X80167Y466920D01*
X80173Y467015D01*
X80189Y467109D01*
X80187Y467239D01*
X80195Y467369D01*
X80184Y467464D01*
X80183Y467560D01*
X80158Y467687D01*
X80143Y467816D01*
X80115Y467908D01*
X80097Y468002D01*
X80050Y468123D01*
X80013Y468247D01*
X79969Y468333D01*
X79935Y468422D01*
X79867Y468533D01*
X79808Y468649D01*
X79751Y468725D01*
X79701Y468806D01*
X79615Y468904D01*
X79536Y469007D01*
X79466Y469072D01*
X79403Y469144D01*
X79301Y469224D01*
X79205Y469313D01*
X79125Y469364D01*
X79050Y469423D01*
X78935Y469484D01*
X78825Y469554D01*
X78737Y469591D01*
X78653Y469636D01*
X78529Y469676D01*
X78409Y469725D01*
X78315Y469745D01*
X78225Y469775D01*
X78096Y469793D01*
X77969Y469820D01*
X77839Y469828D01*
X77778Y469836D01*
X77734Y469835D01*
X77657Y469839D01*
X44668Y469839D01*
X44586Y469832D01*
X44504Y469834D01*
X44363Y469812D01*
X44220Y469799D01*
X44140Y469778D01*
X44059Y469765D01*
X43924Y469719D01*
X43785Y469681D01*
X43711Y469645D01*
X43633Y469619D01*
X43508Y469549D01*
X43379Y469487D01*
X43312Y469440D01*
X43240Y469399D01*
X43129Y469309D01*
X43013Y469225D01*
X42955Y469166D01*
X42892Y469114D01*
X42799Y469005D01*
X42699Y468903D01*
X42653Y468834D01*
X42599Y468772D01*
X42527Y468648D01*
X42447Y468530D01*
X42413Y468454D01*
X42372Y468383D01*
X42322Y468249D01*
X42264Y468118D01*
X42245Y468038D01*
X42216Y467960D01*
X42192Y467819D01*
X42158Y467680D01*
X42153Y467598D01*
X42138Y467517D01*
X42139Y467374D01*
X42130Y467231D01*
X42140Y467149D01*
X42140Y467067D01*
X42166Y466926D01*
X42182Y466784D01*
X42206Y466705D01*
X42221Y466624D01*
X42301Y466390D01*
X42312Y466353D01*
X42317Y466343D01*
X42322Y466328D01*
X45561Y458510D01*
X45561Y450490D01*
X42491Y443080D01*
X36820Y437409D01*
X29410Y434339D01*
X21390Y434339D01*
X13672Y437536D01*
X13593Y437561D01*
X13518Y437594D01*
X13379Y437628D01*
X13242Y437671D01*
X13160Y437681D01*
X13080Y437701D01*
X12938Y437710D01*
X12795Y437728D01*
X12713Y437724D01*
X12631Y437729D01*
X12489Y437712D01*
X12346Y437705D01*
X12266Y437686D01*
X12184Y437676D01*
X12046Y437635D01*
X11907Y437603D01*
X11832Y437570D01*
X11753Y437546D01*
X11625Y437481D01*
X11494Y437425D01*
X11425Y437379D01*
X11351Y437342D01*
X11237Y437255D01*
X11118Y437176D01*
X11058Y437120D01*
X10993Y437070D01*
X10896Y436964D01*
X10792Y436866D01*
X10743Y436799D01*
X10687Y436739D01*
X10610Y436618D01*
X10526Y436502D01*
X10490Y436428D01*
X10446Y436359D01*
X10391Y436226D01*
X10328Y436098D01*
X10306Y436019D01*
X10275Y435942D01*
X10245Y435802D01*
X10205Y435665D01*
X10197Y435583D01*
X10180Y435502D01*
X10165Y435256D01*
X10161Y435217D01*
X10162Y435206D01*
X10161Y435190D01*
X10161Y44710D01*
X10168Y44628D01*
X10166Y44545D01*
X10188Y44404D01*
X10201Y44261D01*
X10222Y44182D01*
X10235Y44100D01*
X10281Y43965D01*
X10319Y43827D01*
X10355Y43753D01*
X10381Y43675D01*
X10451Y43549D01*
X10513Y43420D01*
X10560Y43353D01*
X10601Y43281D01*
X10691Y43171D01*
X10775Y43054D01*
X10834Y42997D01*
X10886Y42933D01*
X10995Y42840D01*
X11097Y42740D01*
X11166Y42694D01*
X11228Y42640D01*
X11352Y42568D01*
X11470Y42488D01*
X11546Y42455D01*
X11617Y42413D01*
X11751Y42364D01*
X11882Y42306D01*
X11962Y42286D01*
X12040Y42258D01*
X12181Y42233D01*
X12320Y42199D01*
X12402Y42194D01*
X12483Y42180D01*
X12626Y42180D01*
X12769Y42171D01*
X12851Y42181D01*
X12933Y42181D01*
X13074Y42207D01*
X13216Y42224D01*
X13295Y42247D01*
X13376Y42262D01*
X13610Y42342D01*
X13647Y42354D01*
X13657Y42359D01*
X13672Y42364D01*
X21390Y45561D01*
X29410Y45561D01*
X36820Y42491D01*
X42491Y36820D01*
X45561Y29410D01*
X45561Y21390D01*
X42364Y13672D01*
X42339Y13593D01*
X42306Y13518D01*
X42272Y13379D01*
X42229Y13242D01*
X42219Y13160D01*
X42199Y13080D01*
X42190Y12938D01*
X42172Y12795D01*
X42176Y12713D01*
X42171Y12631D01*
X42188Y12489D01*
X42195Y12346D01*
X42214Y12266D01*
X42224Y12184D01*
X42265Y12046D01*
X42297Y11907D01*
X42330Y11832D01*
X42354Y11753D01*
X42419Y11625D01*
X42475Y11494D01*
X42521Y11425D01*
X42558Y11351D01*
X42645Y11237D01*
X42724Y11118D01*
X42780Y11058D01*
X42830Y10993D01*
X42936Y10896D01*
X43034Y10792D01*
X43101Y10743D01*
X43161Y10687D01*
X43282Y10610D01*
X43398Y10526D01*
X43472Y10490D01*
X43541Y10446D01*
X43674Y10391D01*
X43802Y10328D01*
X43881Y10306D01*
X43958Y10275D01*
X44098Y10245D01*
X44235Y10205D01*
X44317Y10197D01*
X44398Y10180D01*
X44644Y10165D01*
X44683Y10161D01*
X44694Y10162D01*
X44710Y10161D01*
X1005525Y10161D01*
X1005607Y10168D01*
G37*
%LPC*%
G36*
X213893Y15311D02*
X213893Y15311D01*
X210185Y16847D01*
X207347Y19685D01*
X205811Y23393D01*
X205811Y27748D01*
X205797Y27912D01*
X205790Y28076D01*
X205777Y28135D01*
X205771Y28196D01*
X205728Y28355D01*
X205692Y28515D01*
X205669Y28572D01*
X205653Y28631D01*
X205582Y28779D01*
X205519Y28931D01*
X205486Y28982D01*
X205459Y29037D01*
X205364Y29171D01*
X205275Y29309D01*
X205223Y29367D01*
X205197Y29403D01*
X205154Y29446D01*
X205068Y29543D01*
X203896Y30715D01*
X203836Y30765D01*
X203782Y30822D01*
X203663Y30910D01*
X203550Y31004D01*
X203482Y31043D01*
X203420Y31089D01*
X203287Y31154D01*
X203159Y31227D01*
X203086Y31254D01*
X203016Y31288D01*
X202874Y31329D01*
X202735Y31378D01*
X202658Y31391D01*
X202583Y31413D01*
X202436Y31428D01*
X202291Y31452D01*
X202213Y31451D01*
X202135Y31459D01*
X201988Y31448D01*
X201841Y31446D01*
X201764Y31431D01*
X201686Y31425D01*
X201543Y31388D01*
X201399Y31360D01*
X201326Y31332D01*
X201250Y31312D01*
X201116Y31251D01*
X200979Y31198D01*
X200912Y31157D01*
X200841Y31125D01*
X200720Y31040D01*
X200594Y30964D01*
X200535Y30912D01*
X200471Y30868D01*
X200367Y30763D01*
X200256Y30666D01*
X200208Y30604D01*
X200153Y30549D01*
X200069Y30428D01*
X199977Y30313D01*
X199940Y30244D01*
X199895Y30180D01*
X199834Y30045D01*
X199764Y29916D01*
X199740Y29842D01*
X199708Y29770D01*
X199671Y29627D01*
X199625Y29488D01*
X199615Y29410D01*
X199595Y29334D01*
X199584Y29187D01*
X199564Y29041D01*
X199567Y28964D01*
X199561Y28886D01*
X199576Y28739D01*
X199582Y28592D01*
X199599Y28515D01*
X199607Y28438D01*
X199673Y28182D01*
X199680Y28152D01*
X199682Y28145D01*
X199685Y28135D01*
X199749Y27939D01*
X193039Y27939D01*
X193039Y34649D01*
X193639Y34454D01*
X193669Y34447D01*
X193697Y34436D01*
X193888Y34397D01*
X194078Y34353D01*
X194108Y34352D01*
X194138Y34346D01*
X194333Y34341D01*
X194528Y34332D01*
X194558Y34336D01*
X194588Y34335D01*
X194780Y34365D01*
X194974Y34390D01*
X195003Y34399D01*
X195033Y34404D01*
X195217Y34467D01*
X195403Y34526D01*
X195430Y34540D01*
X195459Y34550D01*
X195629Y34645D01*
X195802Y34736D01*
X195826Y34755D01*
X195852Y34769D01*
X196003Y34893D01*
X196157Y35013D01*
X196177Y35035D01*
X196201Y35055D01*
X196327Y35203D01*
X196457Y35348D01*
X196473Y35374D01*
X196493Y35397D01*
X196592Y35565D01*
X196694Y35731D01*
X196705Y35759D01*
X196721Y35786D01*
X196788Y35969D01*
X196859Y36150D01*
X196865Y36180D01*
X196876Y36208D01*
X196910Y36401D01*
X196948Y36592D01*
X196949Y36622D01*
X196954Y36652D01*
X196953Y36847D01*
X196957Y37042D01*
X196952Y37072D01*
X196952Y37102D01*
X196917Y37294D01*
X196887Y37486D01*
X196877Y37515D01*
X196871Y37545D01*
X196770Y37841D01*
X196189Y39242D01*
X196189Y291240D01*
X196175Y291404D01*
X196168Y291568D01*
X196155Y291627D01*
X196149Y291688D01*
X196106Y291847D01*
X196070Y292007D01*
X196047Y292064D01*
X196031Y292123D01*
X195960Y292271D01*
X195897Y292423D01*
X195864Y292474D01*
X195837Y292529D01*
X195742Y292663D01*
X195653Y292801D01*
X195601Y292859D01*
X195575Y292895D01*
X195532Y292938D01*
X195446Y293035D01*
X194661Y293820D01*
X194527Y293932D01*
X194421Y294030D01*
X194385Y294053D01*
X194337Y294094D01*
X194325Y294101D01*
X194315Y294109D01*
X194132Y294214D01*
X194041Y294272D01*
X194014Y294283D01*
X193948Y294321D01*
X193936Y294326D01*
X193924Y294333D01*
X193723Y294404D01*
X193683Y294419D01*
X193624Y294443D01*
X193608Y294446D01*
X193525Y294477D01*
X193512Y294479D01*
X193500Y294483D01*
X193291Y294518D01*
X193205Y294533D01*
X193184Y294538D01*
X193177Y294538D01*
X193082Y294555D01*
X193069Y294555D01*
X193056Y294557D01*
X192904Y294555D01*
X192872Y294557D01*
X192848Y294557D01*
X192815Y294554D01*
X192632Y294553D01*
X192619Y294551D01*
X192606Y294551D01*
X192457Y294522D01*
X192399Y294517D01*
X192331Y294498D01*
X192189Y294472D01*
X192174Y294467D01*
X192164Y294465D01*
X192127Y294451D01*
X192008Y294410D01*
X191965Y294398D01*
X191941Y294387D01*
X191893Y294371D01*
X191557Y294231D01*
X187543Y294231D01*
X183835Y295767D01*
X180997Y298605D01*
X179461Y302313D01*
X179461Y306327D01*
X180997Y310035D01*
X183835Y312873D01*
X187543Y314409D01*
X191557Y314409D01*
X195265Y312873D01*
X198103Y310035D01*
X199639Y306327D01*
X199639Y302313D01*
X199499Y301977D01*
X199436Y301774D01*
X199370Y301573D01*
X199369Y301560D01*
X199365Y301547D01*
X199338Y301337D01*
X199309Y301127D01*
X199309Y301114D01*
X199308Y301100D01*
X199319Y300889D01*
X199327Y300677D01*
X199330Y300664D01*
X199331Y300651D01*
X199379Y300444D01*
X199425Y300237D01*
X199430Y300225D01*
X199433Y300212D01*
X199517Y300018D01*
X199598Y299822D01*
X199606Y299811D01*
X199611Y299799D01*
X199727Y299622D01*
X199843Y299444D01*
X199853Y299432D01*
X199859Y299423D01*
X199886Y299394D01*
X200050Y299209D01*
X201432Y297828D01*
X201568Y297714D01*
X201573Y297709D01*
X201667Y297623D01*
X201673Y297618D01*
X201700Y297595D01*
X201740Y297569D01*
X201777Y297539D01*
X201931Y297451D01*
X202082Y297357D01*
X202126Y297339D01*
X202168Y297315D01*
X202335Y297256D01*
X202500Y297190D01*
X202547Y297181D01*
X202592Y297165D01*
X202768Y297136D01*
X202941Y297100D01*
X202989Y297099D01*
X203036Y297091D01*
X203215Y297093D01*
X203391Y297089D01*
X203439Y297097D01*
X203487Y297097D01*
X203662Y297131D01*
X203836Y297158D01*
X203882Y297174D01*
X203929Y297183D01*
X204095Y297247D01*
X204262Y297304D01*
X204304Y297328D01*
X204349Y297345D01*
X204501Y297437D01*
X204656Y297524D01*
X204693Y297554D01*
X204733Y297579D01*
X204866Y297696D01*
X205004Y297809D01*
X205035Y297846D01*
X205071Y297877D01*
X205181Y298016D01*
X205296Y298151D01*
X205321Y298193D01*
X205350Y298230D01*
X205434Y298387D01*
X205524Y298540D01*
X205540Y298585D01*
X205563Y298627D01*
X205618Y298796D01*
X205624Y298812D01*
X205626Y298817D01*
X205627Y298821D01*
X205679Y298963D01*
X205687Y299010D01*
X205702Y299055D01*
X205725Y299225D01*
X205733Y299255D01*
X205734Y299274D01*
X205757Y299406D01*
X205757Y299454D01*
X205763Y299501D01*
X205757Y299653D01*
X205760Y299704D01*
X205756Y299742D01*
X205756Y299856D01*
X205747Y299903D01*
X205745Y299951D01*
X205717Y300079D01*
X205708Y300152D01*
X205692Y300207D01*
X205675Y300299D01*
X205655Y300356D01*
X205647Y300391D01*
X205623Y300449D01*
X205583Y300566D01*
X205578Y300583D01*
X205576Y300587D01*
X205573Y300595D01*
X204861Y302313D01*
X204861Y306327D01*
X206397Y310035D01*
X209235Y312873D01*
X212943Y314409D01*
X216957Y314409D01*
X220665Y312873D01*
X223503Y310035D01*
X225039Y306327D01*
X225039Y302313D01*
X224899Y301977D01*
X224836Y301774D01*
X224770Y301573D01*
X224769Y301560D01*
X224765Y301547D01*
X224738Y301337D01*
X224709Y301127D01*
X224709Y301114D01*
X224708Y301100D01*
X224719Y300889D01*
X224727Y300677D01*
X224730Y300664D01*
X224731Y300651D01*
X224779Y300444D01*
X224825Y300237D01*
X224830Y300225D01*
X224833Y300212D01*
X224917Y300018D01*
X224998Y299822D01*
X225006Y299811D01*
X225011Y299799D01*
X225127Y299622D01*
X225243Y299444D01*
X225253Y299432D01*
X225259Y299423D01*
X225286Y299394D01*
X225450Y299209D01*
X226832Y297828D01*
X226968Y297714D01*
X226973Y297709D01*
X227067Y297623D01*
X227073Y297618D01*
X227100Y297595D01*
X227140Y297569D01*
X227177Y297539D01*
X227331Y297451D01*
X227482Y297357D01*
X227526Y297339D01*
X227568Y297315D01*
X227735Y297256D01*
X227900Y297190D01*
X227947Y297181D01*
X227992Y297165D01*
X228168Y297136D01*
X228341Y297100D01*
X228389Y297099D01*
X228436Y297091D01*
X228615Y297093D01*
X228791Y297089D01*
X228839Y297097D01*
X228887Y297097D01*
X229062Y297131D01*
X229236Y297158D01*
X229282Y297174D01*
X229329Y297183D01*
X229495Y297247D01*
X229662Y297304D01*
X229704Y297328D01*
X229749Y297345D01*
X229901Y297437D01*
X230056Y297524D01*
X230093Y297554D01*
X230133Y297579D01*
X230266Y297696D01*
X230404Y297809D01*
X230435Y297846D01*
X230471Y297877D01*
X230581Y298016D01*
X230696Y298151D01*
X230721Y298193D01*
X230750Y298230D01*
X230834Y298387D01*
X230924Y298540D01*
X230940Y298585D01*
X230963Y298627D01*
X231018Y298796D01*
X231024Y298812D01*
X231026Y298817D01*
X231027Y298821D01*
X231079Y298963D01*
X231087Y299010D01*
X231102Y299055D01*
X231125Y299225D01*
X231133Y299255D01*
X231134Y299274D01*
X231157Y299406D01*
X231157Y299454D01*
X231163Y299501D01*
X231157Y299653D01*
X231160Y299704D01*
X231156Y299742D01*
X231156Y299856D01*
X231147Y299903D01*
X231145Y299951D01*
X231117Y300079D01*
X231108Y300152D01*
X231092Y300207D01*
X231075Y300299D01*
X231055Y300356D01*
X231047Y300391D01*
X231023Y300449D01*
X230983Y300566D01*
X230978Y300583D01*
X230976Y300587D01*
X230973Y300595D01*
X230261Y302313D01*
X230261Y306327D01*
X231797Y310035D01*
X234635Y312873D01*
X238343Y314409D01*
X242357Y314409D01*
X246065Y312873D01*
X248903Y310035D01*
X250439Y306327D01*
X250439Y302313D01*
X250299Y301977D01*
X250236Y301774D01*
X250170Y301573D01*
X250169Y301560D01*
X250165Y301547D01*
X250138Y301337D01*
X250109Y301127D01*
X250109Y301114D01*
X250108Y301100D01*
X250119Y300889D01*
X250127Y300677D01*
X250130Y300664D01*
X250131Y300651D01*
X250179Y300444D01*
X250225Y300237D01*
X250230Y300225D01*
X250233Y300212D01*
X250318Y300016D01*
X250399Y299822D01*
X250406Y299811D01*
X250411Y299799D01*
X250528Y299621D01*
X250643Y299444D01*
X250653Y299432D01*
X250659Y299423D01*
X250686Y299394D01*
X250850Y299209D01*
X257231Y292829D01*
X257811Y291428D01*
X257811Y239638D01*
X257818Y239556D01*
X257816Y239474D01*
X257838Y239333D01*
X257851Y239190D01*
X257872Y239110D01*
X257885Y239029D01*
X257931Y238893D01*
X257969Y238755D01*
X258005Y238681D01*
X258031Y238603D01*
X258101Y238478D01*
X258163Y238349D01*
X258210Y238282D01*
X258251Y238210D01*
X258341Y238099D01*
X258425Y237983D01*
X258484Y237925D01*
X258536Y237861D01*
X258645Y237768D01*
X258747Y237669D01*
X258816Y237622D01*
X258878Y237569D01*
X259002Y237496D01*
X259120Y237416D01*
X259196Y237383D01*
X259267Y237341D01*
X259401Y237292D01*
X259532Y237234D01*
X259612Y237215D01*
X259690Y237186D01*
X259831Y237161D01*
X259970Y237128D01*
X260052Y237122D01*
X260133Y237108D01*
X260276Y237109D01*
X260419Y237100D01*
X260501Y237109D01*
X260583Y237110D01*
X260724Y237135D01*
X260866Y237152D01*
X260945Y237176D01*
X261026Y237191D01*
X261260Y237271D01*
X261297Y237282D01*
X261307Y237287D01*
X261322Y237292D01*
X264693Y238689D01*
X268707Y238689D01*
X272415Y237153D01*
X275253Y234315D01*
X276789Y230607D01*
X276789Y226593D01*
X275253Y222885D01*
X272415Y220047D01*
X268707Y218511D01*
X264693Y218511D01*
X261322Y219908D01*
X261243Y219933D01*
X261168Y219966D01*
X261029Y220000D01*
X260892Y220043D01*
X260810Y220053D01*
X260730Y220072D01*
X260588Y220081D01*
X260445Y220099D01*
X260363Y220095D01*
X260281Y220100D01*
X260139Y220084D01*
X259996Y220076D01*
X259916Y220058D01*
X259834Y220048D01*
X259696Y220007D01*
X259557Y219974D01*
X259482Y219942D01*
X259403Y219918D01*
X259275Y219853D01*
X259144Y219796D01*
X259075Y219751D01*
X259001Y219713D01*
X258887Y219627D01*
X258768Y219548D01*
X258708Y219491D01*
X258643Y219441D01*
X258546Y219336D01*
X258442Y219237D01*
X258393Y219171D01*
X258337Y219110D01*
X258260Y218989D01*
X258176Y218874D01*
X258140Y218800D01*
X258096Y218731D01*
X258041Y218598D01*
X257978Y218469D01*
X257956Y218390D01*
X257925Y218314D01*
X257895Y218174D01*
X257855Y218036D01*
X257847Y217954D01*
X257830Y217874D01*
X257815Y217628D01*
X257811Y217588D01*
X257812Y217578D01*
X257811Y217562D01*
X257811Y40730D01*
X257825Y40567D01*
X257832Y40402D01*
X257845Y40343D01*
X257851Y40282D01*
X257894Y40123D01*
X257930Y39963D01*
X257953Y39906D01*
X257969Y39847D01*
X258040Y39699D01*
X258103Y39547D01*
X258136Y39496D01*
X258163Y39441D01*
X258258Y39307D01*
X258348Y39169D01*
X258399Y39111D01*
X258425Y39075D01*
X258468Y39032D01*
X258554Y38935D01*
X261589Y35900D01*
X261752Y35764D01*
X261913Y35626D01*
X261925Y35619D01*
X261935Y35611D01*
X262118Y35506D01*
X262302Y35399D01*
X262314Y35394D01*
X262326Y35387D01*
X262527Y35316D01*
X262725Y35243D01*
X262738Y35241D01*
X262750Y35237D01*
X262959Y35202D01*
X263168Y35165D01*
X263181Y35165D01*
X263194Y35163D01*
X263406Y35166D01*
X263618Y35167D01*
X263631Y35169D01*
X263644Y35169D01*
X263854Y35210D01*
X264061Y35248D01*
X264076Y35253D01*
X264087Y35255D01*
X264123Y35269D01*
X264357Y35349D01*
X264693Y35489D01*
X268707Y35489D01*
X272415Y33953D01*
X275253Y31115D01*
X276789Y27407D01*
X276789Y23393D01*
X275253Y19685D01*
X272415Y16847D01*
X268707Y15311D01*
X264693Y15311D01*
X260985Y16847D01*
X258147Y19685D01*
X256611Y23393D01*
X256611Y27407D01*
X256751Y27743D01*
X256814Y27946D01*
X256880Y28147D01*
X256881Y28160D01*
X256885Y28173D01*
X256912Y28383D01*
X256941Y28593D01*
X256941Y28606D01*
X256942Y28620D01*
X256931Y28831D01*
X256923Y29043D01*
X256920Y29056D01*
X256919Y29069D01*
X256871Y29276D01*
X256825Y29483D01*
X256820Y29495D01*
X256817Y29508D01*
X256733Y29702D01*
X256652Y29898D01*
X256644Y29909D01*
X256639Y29921D01*
X256523Y30098D01*
X256407Y30276D01*
X256397Y30288D01*
X256391Y30297D01*
X256364Y30326D01*
X256200Y30511D01*
X254818Y31892D01*
X254682Y32006D01*
X254550Y32125D01*
X254510Y32151D01*
X254473Y32181D01*
X254319Y32269D01*
X254168Y32363D01*
X254124Y32381D01*
X254082Y32405D01*
X253915Y32464D01*
X253750Y32530D01*
X253703Y32539D01*
X253658Y32555D01*
X253482Y32584D01*
X253309Y32620D01*
X253261Y32621D01*
X253214Y32629D01*
X253035Y32627D01*
X252859Y32631D01*
X252811Y32623D01*
X252763Y32623D01*
X252588Y32589D01*
X252414Y32562D01*
X252368Y32546D01*
X252321Y32537D01*
X252155Y32473D01*
X251988Y32416D01*
X251946Y32392D01*
X251901Y32375D01*
X251749Y32283D01*
X251594Y32196D01*
X251557Y32166D01*
X251517Y32141D01*
X251384Y32024D01*
X251246Y31911D01*
X251215Y31874D01*
X251179Y31843D01*
X251069Y31704D01*
X250954Y31569D01*
X250929Y31527D01*
X250900Y31490D01*
X250816Y31333D01*
X250726Y31180D01*
X250710Y31135D01*
X250687Y31093D01*
X250632Y30924D01*
X250571Y30757D01*
X250563Y30710D01*
X250548Y30665D01*
X250524Y30489D01*
X250493Y30314D01*
X250493Y30266D01*
X250487Y30219D01*
X250494Y30041D01*
X250494Y29864D01*
X250503Y29817D01*
X250505Y29769D01*
X250543Y29595D01*
X250575Y29421D01*
X250595Y29364D01*
X250603Y29329D01*
X250627Y29271D01*
X250677Y29125D01*
X251389Y27407D01*
X251389Y23393D01*
X249853Y19685D01*
X247015Y16847D01*
X243307Y15311D01*
X239293Y15311D01*
X235585Y16847D01*
X232747Y19685D01*
X231211Y23393D01*
X231211Y27407D01*
X231351Y27743D01*
X231414Y27946D01*
X231480Y28147D01*
X231481Y28160D01*
X231485Y28173D01*
X231512Y28383D01*
X231541Y28593D01*
X231541Y28606D01*
X231542Y28620D01*
X231531Y28831D01*
X231523Y29043D01*
X231520Y29056D01*
X231519Y29069D01*
X231471Y29276D01*
X231425Y29483D01*
X231420Y29495D01*
X231417Y29508D01*
X231333Y29702D01*
X231252Y29898D01*
X231244Y29909D01*
X231239Y29921D01*
X231123Y30098D01*
X231007Y30276D01*
X230997Y30288D01*
X230991Y30297D01*
X230964Y30326D01*
X230800Y30511D01*
X229418Y31892D01*
X229282Y32006D01*
X229150Y32125D01*
X229110Y32151D01*
X229073Y32181D01*
X228919Y32269D01*
X228768Y32363D01*
X228724Y32381D01*
X228682Y32405D01*
X228515Y32464D01*
X228350Y32530D01*
X228303Y32539D01*
X228258Y32555D01*
X228082Y32584D01*
X227909Y32620D01*
X227861Y32621D01*
X227814Y32629D01*
X227635Y32627D01*
X227459Y32631D01*
X227411Y32623D01*
X227363Y32623D01*
X227188Y32589D01*
X227014Y32562D01*
X226968Y32546D01*
X226921Y32537D01*
X226755Y32473D01*
X226588Y32416D01*
X226546Y32392D01*
X226501Y32375D01*
X226349Y32283D01*
X226194Y32196D01*
X226157Y32166D01*
X226117Y32141D01*
X225984Y32024D01*
X225846Y31911D01*
X225815Y31874D01*
X225779Y31843D01*
X225669Y31704D01*
X225554Y31569D01*
X225529Y31527D01*
X225500Y31490D01*
X225416Y31333D01*
X225326Y31180D01*
X225310Y31135D01*
X225287Y31093D01*
X225232Y30924D01*
X225171Y30757D01*
X225163Y30710D01*
X225148Y30665D01*
X225124Y30489D01*
X225093Y30314D01*
X225093Y30266D01*
X225087Y30219D01*
X225094Y30041D01*
X225094Y29864D01*
X225103Y29817D01*
X225105Y29769D01*
X225143Y29595D01*
X225175Y29421D01*
X225195Y29364D01*
X225203Y29329D01*
X225227Y29271D01*
X225277Y29125D01*
X225989Y27407D01*
X225989Y23393D01*
X224453Y19685D01*
X221615Y16847D01*
X217907Y15311D01*
X213893Y15311D01*
G37*
%LPD*%
%LPC*%
G36*
X806489Y155069D02*
X806489Y155069D01*
X799706Y156887D01*
X793624Y160398D01*
X788658Y165364D01*
X785147Y171446D01*
X783329Y178229D01*
X783329Y185251D01*
X785147Y192034D01*
X788658Y198116D01*
X793624Y203082D01*
X799706Y206593D01*
X806489Y208411D01*
X813511Y208411D01*
X820294Y206593D01*
X826376Y203082D01*
X831342Y198116D01*
X834853Y192034D01*
X836671Y185251D01*
X836671Y178229D01*
X834853Y171446D01*
X831342Y165364D01*
X826376Y160398D01*
X820294Y156887D01*
X813511Y155069D01*
X806489Y155069D01*
G37*
%LPD*%
%LPC*%
G36*
X310439Y263491D02*
X310439Y263491D01*
X303850Y265257D01*
X297942Y268668D01*
X293118Y273492D01*
X289707Y279400D01*
X287941Y285989D01*
X287941Y292811D01*
X289707Y299400D01*
X293118Y305308D01*
X297942Y310132D01*
X303850Y313543D01*
X310439Y315309D01*
X317261Y315309D01*
X323850Y313543D01*
X329758Y310132D01*
X334582Y305308D01*
X337993Y299400D01*
X339759Y292811D01*
X339759Y285989D01*
X337993Y279400D01*
X334582Y273492D01*
X329758Y268668D01*
X323850Y265257D01*
X317261Y263491D01*
X310439Y263491D01*
G37*
%LPD*%
%LPC*%
G36*
X528853Y15239D02*
X528853Y15239D01*
X520450Y18720D01*
X514020Y25150D01*
X510539Y33553D01*
X510539Y42647D01*
X514020Y51050D01*
X520450Y57480D01*
X528853Y60961D01*
X537947Y60961D01*
X546350Y57480D01*
X552780Y51050D01*
X556261Y42647D01*
X556261Y33553D01*
X552780Y25150D01*
X546350Y18720D01*
X537947Y15239D01*
X528853Y15239D01*
G37*
%LPD*%
%LPC*%
G36*
X89904Y325401D02*
X89904Y325401D01*
X81782Y328766D01*
X75566Y334982D01*
X72201Y343104D01*
X72201Y351896D01*
X75566Y360018D01*
X81782Y366234D01*
X89904Y369599D01*
X98696Y369599D01*
X106818Y366234D01*
X113034Y360018D01*
X116399Y351896D01*
X116399Y343104D01*
X113034Y334982D01*
X106818Y328766D01*
X98696Y325401D01*
X89904Y325401D01*
G37*
%LPD*%
%LPC*%
G36*
X229604Y325401D02*
X229604Y325401D01*
X221482Y328766D01*
X215266Y334982D01*
X211901Y343104D01*
X211901Y351896D01*
X215266Y360018D01*
X221482Y366234D01*
X229604Y369599D01*
X238396Y369599D01*
X246518Y366234D01*
X252734Y360018D01*
X256099Y351896D01*
X256099Y343104D01*
X252734Y334982D01*
X246518Y328766D01*
X238396Y325401D01*
X229604Y325401D01*
G37*
%LPD*%
%LPC*%
G36*
X72057Y195071D02*
X72057Y195071D01*
X64401Y198242D01*
X58542Y204101D01*
X55371Y211757D01*
X55371Y220043D01*
X58542Y227699D01*
X64401Y233558D01*
X72057Y236729D01*
X80343Y236729D01*
X87999Y233558D01*
X93858Y227699D01*
X97029Y220043D01*
X97029Y211757D01*
X93858Y204101D01*
X87999Y198242D01*
X80343Y195071D01*
X72057Y195071D01*
G37*
%LPD*%
%LPC*%
G36*
X897237Y230471D02*
X897237Y230471D01*
X889581Y233642D01*
X883722Y239501D01*
X880551Y247157D01*
X880551Y255443D01*
X883722Y263099D01*
X889581Y268958D01*
X897237Y272129D01*
X905523Y272129D01*
X913179Y268958D01*
X919038Y263099D01*
X922209Y255443D01*
X922209Y247157D01*
X919038Y239501D01*
X913179Y233642D01*
X905523Y230471D01*
X897237Y230471D01*
G37*
%LPD*%
%LPC*%
G36*
X894697Y29811D02*
X894697Y29811D01*
X887041Y32982D01*
X881182Y38841D01*
X878011Y46497D01*
X878011Y54783D01*
X881182Y62439D01*
X887041Y68298D01*
X894697Y71469D01*
X902983Y71469D01*
X910639Y68298D01*
X916498Y62439D01*
X919669Y54783D01*
X919669Y46497D01*
X916498Y38841D01*
X910639Y32982D01*
X902983Y29811D01*
X894697Y29811D01*
G37*
%LPD*%
%LPC*%
G36*
X72057Y17271D02*
X72057Y17271D01*
X64401Y20442D01*
X58542Y26301D01*
X55371Y33957D01*
X55371Y42243D01*
X58542Y49899D01*
X64401Y55758D01*
X72057Y58929D01*
X80343Y58929D01*
X87999Y55758D01*
X93858Y49899D01*
X97029Y42243D01*
X97029Y33957D01*
X93858Y26301D01*
X87999Y20442D01*
X80343Y17271D01*
X72057Y17271D01*
G37*
%LPD*%
%LPC*%
G36*
X833126Y311787D02*
X833126Y311787D01*
X828925Y313528D01*
X825709Y316743D01*
X824791Y318961D01*
X824777Y318988D01*
X824767Y319017D01*
X824673Y319187D01*
X824582Y319360D01*
X824563Y319385D01*
X824549Y319411D01*
X824426Y319562D01*
X824306Y319716D01*
X824284Y319737D01*
X824265Y319760D01*
X824117Y319888D01*
X823972Y320018D01*
X823946Y320034D01*
X823923Y320054D01*
X823755Y320153D01*
X823590Y320256D01*
X823562Y320267D01*
X823535Y320283D01*
X823353Y320350D01*
X823172Y320423D01*
X823142Y320429D01*
X823113Y320439D01*
X822922Y320474D01*
X822730Y320513D01*
X822700Y320513D01*
X822670Y320519D01*
X822476Y320519D01*
X822280Y320524D01*
X822250Y320519D01*
X822220Y320519D01*
X822028Y320485D01*
X821835Y320455D01*
X821807Y320445D01*
X821777Y320439D01*
X821594Y320372D01*
X821410Y320308D01*
X821383Y320293D01*
X821354Y320283D01*
X821186Y320184D01*
X821016Y320089D01*
X820993Y320070D01*
X820967Y320054D01*
X820819Y319927D01*
X820668Y319804D01*
X820648Y319781D01*
X820625Y319761D01*
X820502Y319609D01*
X820375Y319461D01*
X820360Y319435D01*
X820341Y319412D01*
X820182Y319142D01*
X819342Y317493D01*
X818331Y316102D01*
X817116Y314887D01*
X815725Y313876D01*
X814193Y313096D01*
X812793Y312641D01*
X812793Y331346D01*
X812790Y331380D01*
X812792Y331415D01*
X812775Y331562D01*
X812793Y331854D01*
X812793Y350559D01*
X814193Y350104D01*
X815725Y349324D01*
X817116Y348313D01*
X818331Y347098D01*
X819342Y345707D01*
X820182Y344058D01*
X820198Y344032D01*
X820210Y344004D01*
X820318Y343842D01*
X820421Y343676D01*
X820442Y343654D01*
X820459Y343628D01*
X820593Y343487D01*
X820724Y343343D01*
X820748Y343324D01*
X820769Y343302D01*
X820927Y343187D01*
X821081Y343068D01*
X821108Y343054D01*
X821133Y343036D01*
X821308Y342951D01*
X821481Y342861D01*
X821510Y342852D01*
X821537Y342839D01*
X821725Y342786D01*
X821911Y342728D01*
X821941Y342724D01*
X821970Y342716D01*
X822165Y342697D01*
X822358Y342673D01*
X822388Y342674D01*
X822418Y342671D01*
X822613Y342687D01*
X822807Y342697D01*
X822837Y342704D01*
X822867Y342707D01*
X823055Y342756D01*
X823246Y342801D01*
X823273Y342813D01*
X823303Y342821D01*
X823480Y342902D01*
X823659Y342980D01*
X823684Y342997D01*
X823711Y343010D01*
X823871Y343122D01*
X824033Y343230D01*
X824055Y343251D01*
X824080Y343268D01*
X824218Y343407D01*
X824358Y343541D01*
X824376Y343566D01*
X824398Y343587D01*
X824509Y343748D01*
X824623Y343906D01*
X824636Y343933D01*
X824654Y343958D01*
X824791Y344239D01*
X825709Y346457D01*
X828925Y349672D01*
X833126Y351413D01*
X837674Y351413D01*
X841875Y349672D01*
X845090Y346457D01*
X846831Y342256D01*
X846831Y320944D01*
X845090Y316743D01*
X841875Y313528D01*
X837674Y311787D01*
X833126Y311787D01*
G37*
%LPD*%
%LPC*%
G36*
X782326Y311787D02*
X782326Y311787D01*
X778125Y313528D01*
X774910Y316743D01*
X773169Y320944D01*
X773169Y342256D01*
X774910Y346457D01*
X778125Y349672D01*
X782326Y351413D01*
X786874Y351413D01*
X791075Y349672D01*
X794291Y346457D01*
X795209Y344239D01*
X795223Y344212D01*
X795233Y344183D01*
X795328Y344012D01*
X795418Y343840D01*
X795436Y343816D01*
X795451Y343789D01*
X795574Y343638D01*
X795694Y343484D01*
X795716Y343463D01*
X795735Y343440D01*
X795883Y343313D01*
X796028Y343182D01*
X796054Y343166D01*
X796077Y343146D01*
X796245Y343047D01*
X796410Y342944D01*
X796438Y342933D01*
X796465Y342917D01*
X796647Y342850D01*
X796828Y342777D01*
X796858Y342771D01*
X796887Y342761D01*
X797078Y342726D01*
X797270Y342687D01*
X797300Y342687D01*
X797330Y342681D01*
X797525Y342681D01*
X797720Y342677D01*
X797750Y342681D01*
X797780Y342681D01*
X797973Y342716D01*
X798165Y342745D01*
X798193Y342755D01*
X798223Y342761D01*
X798406Y342829D01*
X798590Y342892D01*
X798617Y342907D01*
X798645Y342917D01*
X798813Y343016D01*
X798984Y343111D01*
X799007Y343130D01*
X799033Y343146D01*
X799181Y343273D01*
X799332Y343396D01*
X799352Y343419D01*
X799375Y343439D01*
X799498Y343591D01*
X799625Y343739D01*
X799640Y343765D01*
X799659Y343789D01*
X799818Y344058D01*
X800658Y345707D01*
X801669Y347098D01*
X802884Y348313D01*
X804275Y349324D01*
X805807Y350104D01*
X807207Y350559D01*
X807207Y331854D01*
X807210Y331820D01*
X807208Y331785D01*
X807225Y331638D01*
X807207Y331346D01*
X807207Y312641D01*
X805807Y313096D01*
X804275Y313876D01*
X802884Y314887D01*
X801669Y316102D01*
X800658Y317493D01*
X799818Y319142D01*
X799802Y319168D01*
X799790Y319196D01*
X799682Y319358D01*
X799579Y319524D01*
X799558Y319546D01*
X799541Y319572D01*
X799407Y319713D01*
X799276Y319857D01*
X799252Y319876D01*
X799231Y319898D01*
X799073Y320013D01*
X798919Y320132D01*
X798892Y320146D01*
X798867Y320164D01*
X798692Y320249D01*
X798519Y320339D01*
X798490Y320348D01*
X798463Y320361D01*
X798275Y320414D01*
X798089Y320472D01*
X798059Y320476D01*
X798030Y320484D01*
X797835Y320503D01*
X797642Y320527D01*
X797612Y320526D01*
X797582Y320529D01*
X797387Y320513D01*
X797193Y320503D01*
X797163Y320496D01*
X797133Y320493D01*
X796945Y320444D01*
X796754Y320399D01*
X796727Y320387D01*
X796697Y320379D01*
X796520Y320298D01*
X796341Y320220D01*
X796316Y320203D01*
X796289Y320190D01*
X796129Y320078D01*
X795967Y319970D01*
X795945Y319949D01*
X795920Y319932D01*
X795782Y319793D01*
X795642Y319659D01*
X795624Y319634D01*
X795602Y319613D01*
X795491Y319452D01*
X795377Y319294D01*
X795364Y319267D01*
X795346Y319242D01*
X795209Y318961D01*
X794291Y316743D01*
X791075Y313528D01*
X786874Y311787D01*
X782326Y311787D01*
G37*
%LPD*%
%LPC*%
G36*
X739962Y423511D02*
X739962Y423511D01*
X733240Y426296D01*
X728096Y431440D01*
X725311Y438162D01*
X725311Y445438D01*
X728096Y452160D01*
X733240Y457304D01*
X739962Y460089D01*
X747238Y460089D01*
X753960Y457304D01*
X759104Y452160D01*
X761889Y445438D01*
X761889Y438162D01*
X759104Y431440D01*
X753960Y426296D01*
X747238Y423511D01*
X739962Y423511D01*
G37*
%LPD*%
%LPC*%
G36*
X739962Y296511D02*
X739962Y296511D01*
X733240Y299296D01*
X728096Y304440D01*
X725311Y311162D01*
X725311Y318438D01*
X728096Y325160D01*
X733240Y330304D01*
X739962Y333089D01*
X747238Y333089D01*
X753960Y330304D01*
X759104Y325160D01*
X761889Y318438D01*
X761889Y311162D01*
X759104Y304440D01*
X753960Y299296D01*
X747238Y296511D01*
X739962Y296511D01*
G37*
%LPD*%
%LPC*%
G36*
X862723Y318950D02*
X862723Y318950D01*
X856250Y325423D01*
X856250Y334577D01*
X862723Y341050D01*
X871877Y341050D01*
X878564Y334363D01*
X878590Y334341D01*
X878613Y334315D01*
X878762Y334197D01*
X878909Y334074D01*
X878939Y334057D01*
X878966Y334035D01*
X879134Y333946D01*
X879300Y333851D01*
X879333Y333839D01*
X879363Y333823D01*
X879544Y333764D01*
X879724Y333700D01*
X879759Y333694D01*
X879791Y333684D01*
X879980Y333658D01*
X880168Y333626D01*
X880203Y333627D01*
X880237Y333622D01*
X880428Y333630D01*
X880619Y333633D01*
X880653Y333639D01*
X880687Y333641D01*
X880873Y333682D01*
X881061Y333718D01*
X881093Y333731D01*
X881127Y333738D01*
X881303Y333812D01*
X881481Y333880D01*
X881510Y333898D01*
X881542Y333912D01*
X881702Y334015D01*
X881866Y334114D01*
X881892Y334137D01*
X881921Y334156D01*
X882155Y334363D01*
X888333Y340542D01*
X890161Y340542D01*
X890161Y330000D01*
X890161Y319458D01*
X888333Y319458D01*
X882155Y325637D01*
X882128Y325659D01*
X882105Y325685D01*
X881956Y325803D01*
X881809Y325926D01*
X881779Y325943D01*
X881752Y325965D01*
X881584Y326055D01*
X881418Y326149D01*
X881386Y326161D01*
X881355Y326177D01*
X881174Y326236D01*
X880994Y326300D01*
X880960Y326306D01*
X880927Y326316D01*
X880738Y326342D01*
X880550Y326374D01*
X880515Y326373D01*
X880481Y326378D01*
X880290Y326370D01*
X880100Y326367D01*
X880066Y326361D01*
X880031Y326359D01*
X879845Y326318D01*
X879658Y326282D01*
X879625Y326269D01*
X879591Y326262D01*
X879416Y326188D01*
X879238Y326120D01*
X879208Y326102D01*
X879176Y326088D01*
X879016Y325985D01*
X878853Y325886D01*
X878827Y325863D01*
X878798Y325844D01*
X878564Y325637D01*
X871877Y318950D01*
X862723Y318950D01*
G37*
%LPD*%
%LPC*%
G36*
X432493Y444411D02*
X432493Y444411D01*
X428785Y445947D01*
X425947Y448785D01*
X424411Y452493D01*
X424411Y456507D01*
X425947Y460215D01*
X428785Y463053D01*
X432493Y464589D01*
X436507Y464589D01*
X440215Y463053D01*
X443053Y460215D01*
X444589Y456507D01*
X444589Y452493D01*
X443053Y448785D01*
X440215Y445947D01*
X436507Y444411D01*
X432493Y444411D01*
G37*
%LPD*%
%LPC*%
G36*
X457893Y444411D02*
X457893Y444411D01*
X454185Y445947D01*
X451347Y448785D01*
X449811Y452493D01*
X449811Y456507D01*
X451347Y460215D01*
X454185Y463053D01*
X457893Y464589D01*
X461907Y464589D01*
X465615Y463053D01*
X468453Y460215D01*
X469989Y456507D01*
X469989Y452493D01*
X468453Y448785D01*
X465615Y445947D01*
X461907Y444411D01*
X457893Y444411D01*
G37*
%LPD*%
%LPC*%
G36*
X407093Y444411D02*
X407093Y444411D01*
X403385Y445947D01*
X400547Y448785D01*
X399011Y452493D01*
X399011Y456507D01*
X400547Y460215D01*
X403385Y463053D01*
X407093Y464589D01*
X411107Y464589D01*
X414815Y463053D01*
X417653Y460215D01*
X419189Y456507D01*
X419189Y452493D01*
X417653Y448785D01*
X414815Y445947D01*
X411107Y444411D01*
X407093Y444411D01*
G37*
%LPD*%
%LPC*%
G36*
X381693Y444411D02*
X381693Y444411D01*
X377985Y445947D01*
X375147Y448785D01*
X373611Y452493D01*
X373611Y456507D01*
X375147Y460215D01*
X377985Y463053D01*
X381693Y464589D01*
X385707Y464589D01*
X389415Y463053D01*
X392253Y460215D01*
X393789Y456507D01*
X393789Y452493D01*
X392253Y448785D01*
X389415Y445947D01*
X385707Y444411D01*
X381693Y444411D01*
G37*
%LPD*%
%LPC*%
G36*
X601893Y444411D02*
X601893Y444411D01*
X598185Y445947D01*
X595347Y448785D01*
X593811Y452493D01*
X593811Y456507D01*
X595347Y460215D01*
X598185Y463053D01*
X601893Y464589D01*
X605907Y464589D01*
X609615Y463053D01*
X612453Y460215D01*
X613989Y456507D01*
X613989Y452493D01*
X612453Y448785D01*
X609615Y445947D01*
X605907Y444411D01*
X601893Y444411D01*
G37*
%LPD*%
%LPC*%
G36*
X112293Y15311D02*
X112293Y15311D01*
X108585Y16847D01*
X105747Y19685D01*
X104211Y23393D01*
X104211Y27407D01*
X105747Y31115D01*
X108585Y33953D01*
X112293Y35489D01*
X116307Y35489D01*
X120015Y33953D01*
X122853Y31115D01*
X124389Y27407D01*
X124389Y23393D01*
X122853Y19685D01*
X120015Y16847D01*
X116307Y15311D01*
X112293Y15311D01*
G37*
%LPD*%
%LPC*%
G36*
X601893Y419011D02*
X601893Y419011D01*
X598185Y420547D01*
X595347Y423385D01*
X593811Y427093D01*
X593811Y431107D01*
X595347Y434815D01*
X598185Y437653D01*
X601893Y439189D01*
X605907Y439189D01*
X609615Y437653D01*
X612453Y434815D01*
X613989Y431107D01*
X613989Y427093D01*
X612453Y423385D01*
X609615Y420547D01*
X605907Y419011D01*
X601893Y419011D01*
G37*
%LPD*%
%LPC*%
G36*
X163093Y15311D02*
X163093Y15311D01*
X159385Y16847D01*
X156547Y19685D01*
X155011Y23393D01*
X155011Y27407D01*
X156547Y31115D01*
X159385Y33953D01*
X163093Y35489D01*
X167107Y35489D01*
X170815Y33953D01*
X173653Y31115D01*
X175189Y27407D01*
X175189Y23393D01*
X173653Y19685D01*
X170815Y16847D01*
X167107Y15311D01*
X163093Y15311D01*
G37*
%LPD*%
%LPC*%
G36*
X601893Y317411D02*
X601893Y317411D01*
X598185Y318947D01*
X595347Y321785D01*
X593811Y325493D01*
X593811Y329507D01*
X595347Y333215D01*
X598185Y336053D01*
X601893Y337589D01*
X605907Y337589D01*
X609615Y336053D01*
X612453Y333215D01*
X613989Y329507D01*
X613989Y325493D01*
X612453Y321785D01*
X609615Y318947D01*
X605907Y317411D01*
X601893Y317411D01*
G37*
%LPD*%
%LPC*%
G36*
X493293Y15311D02*
X493293Y15311D01*
X489585Y16847D01*
X486747Y19685D01*
X485211Y23393D01*
X485211Y27407D01*
X486747Y31115D01*
X489585Y33953D01*
X493293Y35489D01*
X497307Y35489D01*
X501015Y33953D01*
X503853Y31115D01*
X505389Y27407D01*
X505389Y23393D01*
X503853Y19685D01*
X501015Y16847D01*
X497307Y15311D01*
X493293Y15311D01*
G37*
%LPD*%
%LPC*%
G36*
X467893Y15311D02*
X467893Y15311D01*
X464185Y16847D01*
X461347Y19685D01*
X459811Y23393D01*
X459811Y27407D01*
X461347Y31115D01*
X464185Y33953D01*
X467893Y35489D01*
X471907Y35489D01*
X475615Y33953D01*
X478453Y31115D01*
X479989Y27407D01*
X479989Y23393D01*
X478453Y19685D01*
X475615Y16847D01*
X471907Y15311D01*
X467893Y15311D01*
G37*
%LPD*%
%LPC*%
G36*
X442493Y15311D02*
X442493Y15311D01*
X438785Y16847D01*
X435947Y19685D01*
X434411Y23393D01*
X434411Y27407D01*
X435947Y31115D01*
X438785Y33953D01*
X442493Y35489D01*
X446507Y35489D01*
X450215Y33953D01*
X453053Y31115D01*
X454589Y27407D01*
X454589Y23393D01*
X453053Y19685D01*
X450215Y16847D01*
X446507Y15311D01*
X442493Y15311D01*
G37*
%LPD*%
%LPC*%
G36*
X417093Y15311D02*
X417093Y15311D01*
X413385Y16847D01*
X410547Y19685D01*
X409011Y23393D01*
X409011Y27407D01*
X410547Y31115D01*
X413385Y33953D01*
X417093Y35489D01*
X421107Y35489D01*
X424815Y33953D01*
X427653Y31115D01*
X429189Y27407D01*
X429189Y23393D01*
X427653Y19685D01*
X424815Y16847D01*
X421107Y15311D01*
X417093Y15311D01*
G37*
%LPD*%
%LPC*%
G36*
X391693Y15311D02*
X391693Y15311D01*
X387985Y16847D01*
X385147Y19685D01*
X383611Y23393D01*
X383611Y27407D01*
X385147Y31115D01*
X387985Y33953D01*
X391693Y35489D01*
X395707Y35489D01*
X399415Y33953D01*
X402253Y31115D01*
X403789Y27407D01*
X403789Y23393D01*
X402253Y19685D01*
X399415Y16847D01*
X395707Y15311D01*
X391693Y15311D01*
G37*
%LPD*%
%LPC*%
G36*
X366293Y15311D02*
X366293Y15311D01*
X362585Y16847D01*
X359747Y19685D01*
X358211Y23393D01*
X358211Y27407D01*
X359747Y31115D01*
X362585Y33953D01*
X366293Y35489D01*
X370307Y35489D01*
X374015Y33953D01*
X376853Y31115D01*
X378389Y27407D01*
X378389Y23393D01*
X376853Y19685D01*
X374015Y16847D01*
X370307Y15311D01*
X366293Y15311D01*
G37*
%LPD*%
%LPC*%
G36*
X85943Y294231D02*
X85943Y294231D01*
X82235Y295767D01*
X79397Y298605D01*
X77861Y302313D01*
X77861Y306327D01*
X79397Y310035D01*
X82235Y312873D01*
X85943Y314409D01*
X89957Y314409D01*
X93665Y312873D01*
X96503Y310035D01*
X98039Y306327D01*
X98039Y302313D01*
X96503Y298605D01*
X93665Y295767D01*
X89957Y294231D01*
X85943Y294231D01*
G37*
%LPD*%
%LPC*%
G36*
X111343Y294231D02*
X111343Y294231D01*
X107635Y295767D01*
X104797Y298605D01*
X103261Y302313D01*
X103261Y306327D01*
X104797Y310035D01*
X107635Y312873D01*
X111343Y314409D01*
X115357Y314409D01*
X119065Y312873D01*
X121903Y310035D01*
X123439Y306327D01*
X123439Y302313D01*
X121903Y298605D01*
X119065Y295767D01*
X115357Y294231D01*
X111343Y294231D01*
G37*
%LPD*%
%LPC*%
G36*
X162143Y294231D02*
X162143Y294231D01*
X158435Y295767D01*
X155597Y298605D01*
X154061Y302313D01*
X154061Y306327D01*
X155597Y310035D01*
X158435Y312873D01*
X162143Y314409D01*
X166157Y314409D01*
X169865Y312873D01*
X172703Y310035D01*
X174239Y306327D01*
X174239Y302313D01*
X172703Y298605D01*
X169865Y295767D01*
X166157Y294231D01*
X162143Y294231D01*
G37*
%LPD*%
%LPC*%
G36*
X340893Y15311D02*
X340893Y15311D01*
X337185Y16847D01*
X334347Y19685D01*
X332811Y23393D01*
X332811Y27407D01*
X334347Y31115D01*
X337185Y33953D01*
X340893Y35489D01*
X344907Y35489D01*
X348615Y33953D01*
X351453Y31115D01*
X352989Y27407D01*
X352989Y23393D01*
X351453Y19685D01*
X348615Y16847D01*
X344907Y15311D01*
X340893Y15311D01*
G37*
%LPD*%
%LPC*%
G36*
X315493Y15311D02*
X315493Y15311D01*
X311785Y16847D01*
X308947Y19685D01*
X307411Y23393D01*
X307411Y27407D01*
X308947Y31115D01*
X311785Y33953D01*
X315493Y35489D01*
X319507Y35489D01*
X323215Y33953D01*
X326053Y31115D01*
X327589Y27407D01*
X327589Y23393D01*
X326053Y19685D01*
X323215Y16847D01*
X319507Y15311D01*
X315493Y15311D01*
G37*
%LPD*%
%LPC*%
G36*
X601893Y292011D02*
X601893Y292011D01*
X598185Y293547D01*
X595347Y296385D01*
X593811Y300093D01*
X593811Y304107D01*
X595347Y307815D01*
X598185Y310653D01*
X601893Y312189D01*
X605907Y312189D01*
X609615Y310653D01*
X612453Y307815D01*
X613989Y304107D01*
X613989Y300093D01*
X612453Y296385D01*
X609615Y293547D01*
X605907Y292011D01*
X601893Y292011D01*
G37*
%LPD*%
%LPC*%
G36*
X290093Y15311D02*
X290093Y15311D01*
X286385Y16847D01*
X283547Y19685D01*
X282011Y23393D01*
X282011Y27407D01*
X283547Y31115D01*
X286385Y33953D01*
X290093Y35489D01*
X294107Y35489D01*
X297815Y33953D01*
X300653Y31115D01*
X302189Y27407D01*
X302189Y23393D01*
X300653Y19685D01*
X297815Y16847D01*
X294107Y15311D01*
X290093Y15311D01*
G37*
%LPD*%
%LPC*%
G36*
X604733Y241211D02*
X604733Y241211D01*
X601025Y242747D01*
X598187Y245585D01*
X596651Y249293D01*
X596651Y253307D01*
X598187Y257015D01*
X601025Y259853D01*
X604733Y261389D01*
X608747Y261389D01*
X612455Y259853D01*
X615293Y257015D01*
X616829Y253307D01*
X616829Y249293D01*
X615293Y245585D01*
X612455Y242747D01*
X608747Y241211D01*
X604733Y241211D01*
G37*
%LPD*%
%LPC*%
G36*
X356293Y266611D02*
X356293Y266611D01*
X352585Y268147D01*
X349747Y270985D01*
X348211Y274693D01*
X348211Y278707D01*
X349747Y282415D01*
X352585Y285253D01*
X356293Y286789D01*
X360307Y286789D01*
X364015Y285253D01*
X366853Y282415D01*
X368389Y278707D01*
X368389Y274693D01*
X366853Y270985D01*
X364015Y268147D01*
X360307Y266611D01*
X356293Y266611D01*
G37*
%LPD*%
%LPC*%
G36*
X483293Y266611D02*
X483293Y266611D01*
X479585Y268147D01*
X476747Y270985D01*
X475211Y274693D01*
X475211Y278707D01*
X476747Y282415D01*
X479585Y285253D01*
X483293Y286789D01*
X487307Y286789D01*
X491015Y285253D01*
X493853Y282415D01*
X495389Y278707D01*
X495389Y274693D01*
X493853Y270985D01*
X491015Y268147D01*
X487307Y266611D01*
X483293Y266611D01*
G37*
%LPD*%
%LPC*%
G36*
X381693Y266611D02*
X381693Y266611D01*
X377985Y268147D01*
X375147Y270985D01*
X373611Y274693D01*
X373611Y278707D01*
X375147Y282415D01*
X377985Y285253D01*
X381693Y286789D01*
X385707Y286789D01*
X389415Y285253D01*
X392253Y282415D01*
X393789Y278707D01*
X393789Y274693D01*
X392253Y270985D01*
X389415Y268147D01*
X385707Y266611D01*
X381693Y266611D01*
G37*
%LPD*%
%LPC*%
G36*
X604733Y190411D02*
X604733Y190411D01*
X601025Y191947D01*
X598187Y194785D01*
X596651Y198493D01*
X596651Y202507D01*
X598187Y206215D01*
X601025Y209053D01*
X604733Y210589D01*
X608747Y210589D01*
X612455Y209053D01*
X615293Y206215D01*
X616829Y202507D01*
X616829Y198493D01*
X615293Y194785D01*
X612455Y191947D01*
X608747Y190411D01*
X604733Y190411D01*
G37*
%LPD*%
%LPC*%
G36*
X315493Y218511D02*
X315493Y218511D01*
X311785Y220047D01*
X308947Y222885D01*
X307411Y226593D01*
X307411Y230607D01*
X308947Y234315D01*
X311785Y237153D01*
X315493Y238689D01*
X319507Y238689D01*
X323215Y237153D01*
X326053Y234315D01*
X327589Y230607D01*
X327589Y226593D01*
X326053Y222885D01*
X323215Y220047D01*
X319507Y218511D01*
X315493Y218511D01*
G37*
%LPD*%
%LPC*%
G36*
X290093Y218511D02*
X290093Y218511D01*
X286385Y220047D01*
X283547Y222885D01*
X282011Y226593D01*
X282011Y230607D01*
X283547Y234315D01*
X286385Y237153D01*
X290093Y238689D01*
X294107Y238689D01*
X297815Y237153D01*
X300653Y234315D01*
X302189Y230607D01*
X302189Y226593D01*
X300653Y222885D01*
X297815Y220047D01*
X294107Y218511D01*
X290093Y218511D01*
G37*
%LPD*%
%LPC*%
G36*
X340893Y218511D02*
X340893Y218511D01*
X337185Y220047D01*
X334347Y222885D01*
X332811Y226593D01*
X332811Y230607D01*
X334347Y234315D01*
X337185Y237153D01*
X340893Y238689D01*
X344907Y238689D01*
X348615Y237153D01*
X351453Y234315D01*
X352989Y230607D01*
X352989Y226593D01*
X351453Y222885D01*
X348615Y220047D01*
X344907Y218511D01*
X340893Y218511D01*
G37*
%LPD*%
%LPC*%
G36*
X366293Y218511D02*
X366293Y218511D01*
X362585Y220047D01*
X359747Y222885D01*
X358211Y226593D01*
X358211Y230607D01*
X359747Y234315D01*
X362585Y237153D01*
X366293Y238689D01*
X370307Y238689D01*
X374015Y237153D01*
X376853Y234315D01*
X378389Y230607D01*
X378389Y226593D01*
X376853Y222885D01*
X374015Y220047D01*
X370307Y218511D01*
X366293Y218511D01*
G37*
%LPD*%
%LPC*%
G36*
X391693Y218511D02*
X391693Y218511D01*
X387985Y220047D01*
X385147Y222885D01*
X383611Y226593D01*
X383611Y230607D01*
X385147Y234315D01*
X387985Y237153D01*
X391693Y238689D01*
X395707Y238689D01*
X399415Y237153D01*
X402253Y234315D01*
X403789Y230607D01*
X403789Y226593D01*
X402253Y222885D01*
X399415Y220047D01*
X395707Y218511D01*
X391693Y218511D01*
G37*
%LPD*%
%LPC*%
G36*
X417093Y218511D02*
X417093Y218511D01*
X413385Y220047D01*
X410547Y222885D01*
X409011Y226593D01*
X409011Y230607D01*
X410547Y234315D01*
X413385Y237153D01*
X417093Y238689D01*
X421107Y238689D01*
X424815Y237153D01*
X427653Y234315D01*
X429189Y230607D01*
X429189Y226593D01*
X427653Y222885D01*
X424815Y220047D01*
X421107Y218511D01*
X417093Y218511D01*
G37*
%LPD*%
%LPC*%
G36*
X604733Y215811D02*
X604733Y215811D01*
X601025Y217347D01*
X598187Y220185D01*
X596651Y223893D01*
X596651Y227907D01*
X598187Y231615D01*
X601025Y234453D01*
X604733Y235989D01*
X608747Y235989D01*
X612455Y234453D01*
X615293Y231615D01*
X616829Y227907D01*
X616829Y223893D01*
X615293Y220185D01*
X612455Y217347D01*
X608747Y215811D01*
X604733Y215811D01*
G37*
%LPD*%
%LPC*%
G36*
X604733Y165011D02*
X604733Y165011D01*
X601025Y166547D01*
X598187Y169385D01*
X596651Y173093D01*
X596651Y177107D01*
X598187Y180815D01*
X601025Y183653D01*
X604733Y185189D01*
X608747Y185189D01*
X612455Y183653D01*
X615293Y180815D01*
X616829Y177107D01*
X616829Y173093D01*
X615293Y169385D01*
X612455Y166547D01*
X608747Y165011D01*
X604733Y165011D01*
G37*
%LPD*%
%LPC*%
G36*
X604733Y139611D02*
X604733Y139611D01*
X601025Y141147D01*
X598187Y143985D01*
X596651Y147693D01*
X596651Y151707D01*
X598187Y155415D01*
X601025Y158253D01*
X604733Y159789D01*
X608747Y159789D01*
X612455Y158253D01*
X615293Y155415D01*
X616829Y151707D01*
X616829Y147693D01*
X615293Y143985D01*
X612455Y141147D01*
X608747Y139611D01*
X604733Y139611D01*
G37*
%LPD*%
%LPC*%
G36*
X604733Y114211D02*
X604733Y114211D01*
X601025Y115747D01*
X598187Y118585D01*
X596651Y122293D01*
X596651Y126307D01*
X598187Y130015D01*
X601025Y132853D01*
X604733Y134389D01*
X608747Y134389D01*
X612455Y132853D01*
X615293Y130015D01*
X616829Y126307D01*
X616829Y122293D01*
X615293Y118585D01*
X612455Y115747D01*
X608747Y114211D01*
X604733Y114211D01*
G37*
%LPD*%
%LPC*%
G36*
X604733Y63411D02*
X604733Y63411D01*
X601025Y64947D01*
X598187Y67785D01*
X596651Y71493D01*
X596651Y75507D01*
X598187Y79215D01*
X601025Y82053D01*
X604733Y83589D01*
X608747Y83589D01*
X612455Y82053D01*
X615293Y79215D01*
X616829Y75507D01*
X616829Y71493D01*
X615293Y67785D01*
X612455Y64947D01*
X608747Y63411D01*
X604733Y63411D01*
G37*
%LPD*%
%LPC*%
G36*
X604733Y38011D02*
X604733Y38011D01*
X601025Y39547D01*
X598187Y42385D01*
X596651Y46093D01*
X596651Y50107D01*
X598187Y53815D01*
X601025Y56653D01*
X604733Y58189D01*
X608747Y58189D01*
X612455Y56653D01*
X615293Y53815D01*
X616829Y50107D01*
X616829Y46093D01*
X615293Y42385D01*
X612455Y39547D01*
X608747Y38011D01*
X604733Y38011D01*
G37*
%LPD*%
%LPC*%
G36*
X137693Y15311D02*
X137693Y15311D01*
X133985Y16847D01*
X131147Y19685D01*
X129611Y23393D01*
X129611Y27407D01*
X131147Y31115D01*
X133985Y33953D01*
X137693Y35489D01*
X141707Y35489D01*
X145415Y33953D01*
X148253Y31115D01*
X149789Y27407D01*
X149789Y23393D01*
X148253Y19685D01*
X145415Y16847D01*
X141707Y15311D01*
X137693Y15311D01*
G37*
%LPD*%
%LPC*%
G36*
X786802Y40347D02*
X786802Y40347D01*
X781147Y46002D01*
X781147Y53998D01*
X786802Y59653D01*
X794798Y59653D01*
X800453Y53998D01*
X800453Y46002D01*
X794798Y40347D01*
X786802Y40347D01*
G37*
%LPD*%
%LPC*%
G36*
X685202Y90347D02*
X685202Y90347D01*
X679547Y96002D01*
X679547Y103998D01*
X685202Y109653D01*
X693198Y109653D01*
X698853Y103998D01*
X698853Y96002D01*
X693198Y90347D01*
X685202Y90347D01*
G37*
%LPD*%
%LPC*%
G36*
X786802Y90347D02*
X786802Y90347D01*
X781147Y96002D01*
X781147Y103998D01*
X786802Y109653D01*
X794798Y109653D01*
X800453Y103998D01*
X800453Y96002D01*
X794798Y90347D01*
X786802Y90347D01*
G37*
%LPD*%
%LPC*%
G36*
X685202Y40347D02*
X685202Y40347D01*
X679547Y46002D01*
X679547Y53998D01*
X685202Y59653D01*
X693198Y59653D01*
X698853Y53998D01*
X698853Y46002D01*
X693198Y40347D01*
X685202Y40347D01*
G37*
%LPD*%
%LPC*%
G36*
X885239Y382539D02*
X885239Y382539D01*
X885239Y390542D01*
X887067Y390542D01*
X893242Y384367D01*
X893242Y382539D01*
X885239Y382539D01*
G37*
%LPD*%
%LPC*%
G36*
X895239Y332539D02*
X895239Y332539D01*
X895239Y340542D01*
X897067Y340542D01*
X903242Y334367D01*
X903242Y332539D01*
X895239Y332539D01*
G37*
%LPD*%
%LPC*%
G36*
X895239Y319458D02*
X895239Y319458D01*
X895239Y327461D01*
X903242Y327461D01*
X903242Y325633D01*
X897067Y319458D01*
X895239Y319458D01*
G37*
%LPD*%
%LPC*%
G36*
X882539Y457461D02*
X882539Y457461D01*
X890258Y457461D01*
X889768Y455954D01*
X889015Y454475D01*
X888040Y453133D01*
X886867Y451960D01*
X885525Y450985D01*
X884046Y450232D01*
X882539Y449742D01*
X882539Y457461D01*
G37*
%LPD*%
%LPC*%
G36*
X1019742Y302539D02*
X1019742Y302539D01*
X1020232Y304046D01*
X1020985Y305525D01*
X1021960Y306867D01*
X1023133Y308040D01*
X1024475Y309015D01*
X1025954Y309768D01*
X1027461Y310258D01*
X1027461Y302539D01*
X1019742Y302539D01*
G37*
%LPD*%
%LPC*%
G36*
X1019742Y222539D02*
X1019742Y222539D01*
X1020232Y224046D01*
X1020985Y225525D01*
X1021960Y226867D01*
X1023133Y228040D01*
X1024475Y229015D01*
X1025954Y229768D01*
X1027461Y230258D01*
X1027461Y222539D01*
X1019742Y222539D01*
G37*
%LPD*%
%LPC*%
G36*
X141289Y306859D02*
X141289Y306859D01*
X141289Y313569D01*
X142428Y313199D01*
X143771Y312514D01*
X144991Y311628D01*
X146058Y310561D01*
X146944Y309341D01*
X147629Y307998D01*
X147999Y306859D01*
X141289Y306859D01*
G37*
%LPD*%
%LPC*%
G36*
X606439Y406239D02*
X606439Y406239D01*
X606439Y412949D01*
X607578Y412579D01*
X608921Y411894D01*
X610141Y411008D01*
X611208Y409941D01*
X612094Y408721D01*
X612779Y407378D01*
X613149Y406239D01*
X606439Y406239D01*
G37*
%LPD*%
%LPC*%
G36*
X609279Y101439D02*
X609279Y101439D01*
X609279Y108149D01*
X610418Y107779D01*
X611761Y107094D01*
X612981Y106208D01*
X614048Y105141D01*
X614934Y103921D01*
X615619Y102578D01*
X615989Y101439D01*
X609279Y101439D01*
G37*
%LPD*%
%LPC*%
G36*
X411639Y279239D02*
X411639Y279239D01*
X411639Y285949D01*
X412778Y285579D01*
X414121Y284894D01*
X415341Y284008D01*
X416408Y282941D01*
X417294Y281721D01*
X417979Y280378D01*
X418349Y279239D01*
X411639Y279239D01*
G37*
%LPD*%
%LPC*%
G36*
X129501Y306859D02*
X129501Y306859D01*
X129871Y307998D01*
X130556Y309341D01*
X131442Y310561D01*
X132509Y311628D01*
X133729Y312514D01*
X135072Y313199D01*
X136211Y313569D01*
X136211Y306859D01*
X129501Y306859D01*
G37*
%LPD*%
%LPC*%
G36*
X594651Y406239D02*
X594651Y406239D01*
X595021Y407378D01*
X595706Y408721D01*
X596592Y409941D01*
X597659Y411008D01*
X598879Y411894D01*
X600222Y412579D01*
X601361Y412949D01*
X601361Y406239D01*
X594651Y406239D01*
G37*
%LPD*%
%LPC*%
G36*
X606439Y401161D02*
X606439Y401161D01*
X613149Y401161D01*
X612779Y400022D01*
X612094Y398679D01*
X611208Y397459D01*
X610141Y396392D01*
X608921Y395506D01*
X607578Y394821D01*
X606439Y394451D01*
X606439Y401161D01*
G37*
%LPD*%
%LPC*%
G36*
X141289Y301781D02*
X141289Y301781D01*
X147999Y301781D01*
X147629Y300642D01*
X146944Y299299D01*
X146058Y298079D01*
X144991Y297012D01*
X143771Y296126D01*
X142428Y295441D01*
X141289Y295071D01*
X141289Y301781D01*
G37*
%LPD*%
%LPC*%
G36*
X411639Y274161D02*
X411639Y274161D01*
X418349Y274161D01*
X417979Y273022D01*
X417294Y271679D01*
X416408Y270459D01*
X415341Y269392D01*
X414121Y268506D01*
X412778Y267821D01*
X411639Y267451D01*
X411639Y274161D01*
G37*
%LPD*%
%LPC*%
G36*
X597491Y101439D02*
X597491Y101439D01*
X597861Y102578D01*
X598546Y103921D01*
X599432Y105141D01*
X600499Y106208D01*
X601719Y107094D01*
X603062Y107779D01*
X604201Y108149D01*
X604201Y101439D01*
X597491Y101439D01*
G37*
%LPD*%
%LPC*%
G36*
X609279Y96361D02*
X609279Y96361D01*
X615989Y96361D01*
X615619Y95222D01*
X614934Y93879D01*
X614048Y92659D01*
X612981Y91592D01*
X611761Y90706D01*
X610418Y90021D01*
X609279Y89651D01*
X609279Y96361D01*
G37*
%LPD*%
%LPC*%
G36*
X399851Y279239D02*
X399851Y279239D01*
X400221Y280378D01*
X400906Y281721D01*
X401792Y282941D01*
X402859Y284008D01*
X404079Y284894D01*
X405422Y285579D01*
X406561Y285949D01*
X406561Y279239D01*
X399851Y279239D01*
G37*
%LPD*%
%LPC*%
G36*
X181251Y27939D02*
X181251Y27939D01*
X181621Y29078D01*
X182306Y30421D01*
X183192Y31641D01*
X184259Y32708D01*
X185479Y33594D01*
X186822Y34279D01*
X187961Y34649D01*
X187961Y27939D01*
X181251Y27939D01*
G37*
%LPD*%
%LPC*%
G36*
X193039Y22861D02*
X193039Y22861D01*
X199749Y22861D01*
X199379Y21722D01*
X198694Y20379D01*
X197808Y19159D01*
X196741Y18092D01*
X195521Y17206D01*
X194178Y16521D01*
X193039Y16151D01*
X193039Y22861D01*
G37*
%LPD*%
%LPC*%
G36*
X600222Y394821D02*
X600222Y394821D01*
X598879Y395506D01*
X597659Y396392D01*
X596592Y397459D01*
X595706Y398679D01*
X595021Y400022D01*
X594651Y401161D01*
X601361Y401161D01*
X601361Y394451D01*
X600222Y394821D01*
G37*
%LPD*%
%LPC*%
G36*
X135072Y295441D02*
X135072Y295441D01*
X133729Y296126D01*
X132509Y297012D01*
X131442Y298079D01*
X130556Y299299D01*
X129871Y300642D01*
X129501Y301781D01*
X136211Y301781D01*
X136211Y295071D01*
X135072Y295441D01*
G37*
%LPD*%
%LPC*%
G36*
X603062Y90021D02*
X603062Y90021D01*
X601719Y90706D01*
X600499Y91592D01*
X599432Y92659D01*
X598546Y93879D01*
X597861Y95222D01*
X597491Y96361D01*
X604201Y96361D01*
X604201Y89651D01*
X603062Y90021D01*
G37*
%LPD*%
%LPC*%
G36*
X405422Y267821D02*
X405422Y267821D01*
X404079Y268506D01*
X402859Y269392D01*
X401792Y270459D01*
X400906Y271679D01*
X400221Y273022D01*
X399851Y274161D01*
X406561Y274161D01*
X406561Y267451D01*
X405422Y267821D01*
G37*
%LPD*%
%LPC*%
G36*
X186822Y16521D02*
X186822Y16521D01*
X185479Y17206D01*
X184259Y18092D01*
X183192Y19159D01*
X182306Y20379D01*
X181621Y21722D01*
X181251Y22861D01*
X187961Y22861D01*
X187961Y16151D01*
X186822Y16521D01*
G37*
%LPD*%
D10*
X241300Y228600D03*
X266700Y228600D03*
X292100Y228600D03*
X317500Y228600D03*
X342900Y228600D03*
X368300Y228600D03*
X393700Y228600D03*
X419100Y228600D03*
X444500Y228600D03*
X469900Y228600D03*
X495300Y228600D03*
X215900Y228600D03*
X495300Y25400D03*
X469900Y25400D03*
X444500Y25400D03*
X419100Y25400D03*
X393700Y25400D03*
X368300Y25400D03*
X342900Y25400D03*
X317500Y25400D03*
X292100Y25400D03*
X266700Y25400D03*
X241300Y25400D03*
X215900Y25400D03*
X190500Y25400D03*
X165100Y25400D03*
X139700Y25400D03*
X114300Y25400D03*
D11*
X76200Y215900D03*
X76200Y38100D03*
D10*
X603900Y454500D03*
X603900Y429100D03*
X603900Y403700D03*
X603900Y378300D03*
X603900Y352900D03*
X603900Y327500D03*
X603900Y302100D03*
D12*
X743600Y441800D03*
X743600Y314800D03*
D13*
X94300Y449100D03*
X234000Y449100D03*
X94300Y347500D03*
X234000Y347500D03*
D10*
X87950Y304320D03*
X113350Y304320D03*
X138750Y304320D03*
X164150Y304320D03*
X189550Y304320D03*
X214950Y304320D03*
X240350Y304320D03*
X606740Y251300D03*
X606740Y225900D03*
X606740Y200500D03*
X606740Y175100D03*
X606740Y149700D03*
X606740Y124300D03*
X606740Y98900D03*
X606740Y73500D03*
X606740Y48100D03*
D11*
X901380Y251300D03*
X898840Y50640D03*
D10*
X409100Y276700D03*
X383700Y276700D03*
X358300Y276700D03*
X434500Y276700D03*
X459900Y276700D03*
X485300Y276700D03*
X409100Y454500D03*
X383700Y454500D03*
X434500Y454500D03*
X459900Y454500D03*
D14*
X313850Y441800D03*
X313850Y289400D03*
X529750Y441800D03*
X529750Y289400D03*
D15*
X784600Y323218D02*
X784600Y339982D01*
X810000Y339982D02*
X810000Y323218D01*
X835400Y323218D02*
X835400Y339982D01*
D16*
X1030000Y360000D03*
X1030000Y380000D03*
X1030000Y400000D03*
X860000Y460000D03*
X880000Y460000D03*
X780000Y460000D03*
X800000Y460000D03*
X1030000Y200000D03*
X1030000Y220000D03*
X1030000Y280000D03*
X1030000Y300000D03*
D17*
X689200Y50000D03*
X790800Y50000D03*
X689200Y100000D03*
X790800Y100000D03*
D18*
X857300Y380000D03*
X882700Y380000D03*
X867300Y330000D03*
X892700Y330000D03*
D19*
X495300Y228600D02*
X471250Y252650D01*
X458550Y252650D01*
X434500Y276700D01*
X254000Y38100D02*
X266700Y25400D01*
X254000Y38100D02*
X254000Y290670D01*
X240350Y304320D01*
X228600Y38100D02*
X241300Y25400D01*
X228600Y38100D02*
X228600Y290670D01*
X214950Y304320D01*
X200000Y293870D02*
X189550Y304320D01*
X200000Y293870D02*
X200000Y40000D01*
X214600Y25400D01*
X215900Y25400D01*
X444500Y228600D02*
X453826Y219274D01*
X499163Y219274D01*
X573600Y293711D01*
X573600Y335789D01*
X600037Y362226D01*
X1027774Y362226D01*
X1030000Y360000D01*
M02*
