G04 EAGLE Gerber RS-274X export*
G75*
%MOMM*%
%FSLAX34Y34*%
%LPD*%
%INSilkscreen Bottom*%
%IPPOS*%
%AMOC8*
5,1,8,0,0,1.08239X$1,22.5*%
G01*
%ADD10C,0.076200*%
%ADD11C,0.152400*%
%ADD12C,0.050800*%
%ADD13R,0.762000X0.635000*%
%ADD14R,1.270000X2.794000*%
%ADD15C,0.177800*%
%ADD16C,0.203200*%
%ADD17C,0.127000*%


D10*
X886345Y432786D02*
X886345Y434013D01*
X882253Y434013D01*
X882253Y431558D01*
X882255Y431480D01*
X882260Y431402D01*
X882270Y431325D01*
X882283Y431248D01*
X882299Y431172D01*
X882319Y431097D01*
X882343Y431023D01*
X882370Y430950D01*
X882401Y430878D01*
X882435Y430808D01*
X882472Y430740D01*
X882513Y430673D01*
X882557Y430608D01*
X882603Y430546D01*
X882653Y430486D01*
X882705Y430428D01*
X882760Y430373D01*
X882818Y430321D01*
X882878Y430271D01*
X882940Y430225D01*
X883005Y430181D01*
X883072Y430140D01*
X883140Y430103D01*
X883210Y430069D01*
X883282Y430038D01*
X883355Y430011D01*
X883429Y429987D01*
X883504Y429967D01*
X883580Y429951D01*
X883657Y429938D01*
X883734Y429928D01*
X883812Y429923D01*
X883890Y429921D01*
X887982Y429921D01*
X888060Y429923D01*
X888138Y429928D01*
X888215Y429938D01*
X888292Y429951D01*
X888368Y429967D01*
X888443Y429987D01*
X888517Y430011D01*
X888590Y430038D01*
X888662Y430069D01*
X888732Y430103D01*
X888801Y430140D01*
X888867Y430181D01*
X888932Y430225D01*
X888994Y430271D01*
X889054Y430321D01*
X889112Y430373D01*
X889167Y430428D01*
X889219Y430486D01*
X889269Y430546D01*
X889315Y430608D01*
X889359Y430673D01*
X889400Y430740D01*
X889437Y430808D01*
X889471Y430878D01*
X889502Y430950D01*
X889529Y431023D01*
X889553Y431097D01*
X889573Y431172D01*
X889589Y431248D01*
X889602Y431325D01*
X889612Y431402D01*
X889617Y431480D01*
X889619Y431558D01*
X889619Y434013D01*
X889619Y437724D02*
X882253Y437724D01*
X882253Y441816D02*
X889619Y437724D01*
X889619Y441816D02*
X882253Y441816D01*
X882253Y445527D02*
X889619Y445527D01*
X889619Y447573D01*
X889617Y447662D01*
X889611Y447751D01*
X889601Y447840D01*
X889588Y447928D01*
X889571Y448016D01*
X889549Y448103D01*
X889524Y448188D01*
X889496Y448273D01*
X889463Y448356D01*
X889427Y448438D01*
X889388Y448518D01*
X889345Y448596D01*
X889299Y448672D01*
X889249Y448747D01*
X889196Y448819D01*
X889140Y448888D01*
X889081Y448955D01*
X889020Y449020D01*
X888955Y449081D01*
X888888Y449140D01*
X888819Y449196D01*
X888747Y449249D01*
X888672Y449299D01*
X888596Y449345D01*
X888518Y449388D01*
X888438Y449427D01*
X888356Y449463D01*
X888273Y449496D01*
X888188Y449524D01*
X888103Y449549D01*
X888016Y449571D01*
X887928Y449588D01*
X887840Y449601D01*
X887751Y449611D01*
X887662Y449617D01*
X887573Y449619D01*
X884299Y449619D01*
X884210Y449617D01*
X884121Y449611D01*
X884032Y449601D01*
X883944Y449588D01*
X883856Y449571D01*
X883769Y449549D01*
X883684Y449524D01*
X883599Y449496D01*
X883516Y449463D01*
X883434Y449427D01*
X883354Y449388D01*
X883276Y449345D01*
X883200Y449299D01*
X883125Y449249D01*
X883053Y449196D01*
X882984Y449140D01*
X882917Y449081D01*
X882852Y449020D01*
X882791Y448955D01*
X882732Y448888D01*
X882676Y448819D01*
X882623Y448747D01*
X882573Y448672D01*
X882527Y448596D01*
X882484Y448518D01*
X882445Y448438D01*
X882409Y448356D01*
X882376Y448273D01*
X882348Y448188D01*
X882323Y448103D01*
X882301Y448016D01*
X882284Y447928D01*
X882271Y447840D01*
X882261Y447751D01*
X882255Y447662D01*
X882253Y447573D01*
X882253Y445527D01*
X806345Y434013D02*
X806345Y432786D01*
X806345Y434013D02*
X802253Y434013D01*
X802253Y431558D01*
X802255Y431480D01*
X802260Y431402D01*
X802270Y431325D01*
X802283Y431248D01*
X802299Y431172D01*
X802319Y431097D01*
X802343Y431023D01*
X802370Y430950D01*
X802401Y430878D01*
X802435Y430808D01*
X802472Y430740D01*
X802513Y430673D01*
X802557Y430608D01*
X802603Y430546D01*
X802653Y430486D01*
X802705Y430428D01*
X802760Y430373D01*
X802818Y430321D01*
X802878Y430271D01*
X802940Y430225D01*
X803005Y430181D01*
X803072Y430140D01*
X803140Y430103D01*
X803210Y430069D01*
X803282Y430038D01*
X803355Y430011D01*
X803429Y429987D01*
X803504Y429967D01*
X803580Y429951D01*
X803657Y429938D01*
X803734Y429928D01*
X803812Y429923D01*
X803890Y429921D01*
X807982Y429921D01*
X808060Y429923D01*
X808138Y429928D01*
X808215Y429938D01*
X808292Y429951D01*
X808368Y429967D01*
X808443Y429987D01*
X808517Y430011D01*
X808590Y430038D01*
X808662Y430069D01*
X808732Y430103D01*
X808801Y430140D01*
X808867Y430181D01*
X808932Y430225D01*
X808994Y430271D01*
X809054Y430321D01*
X809112Y430373D01*
X809167Y430428D01*
X809219Y430486D01*
X809269Y430546D01*
X809315Y430608D01*
X809359Y430673D01*
X809400Y430740D01*
X809437Y430808D01*
X809471Y430878D01*
X809502Y430950D01*
X809529Y431023D01*
X809553Y431097D01*
X809573Y431172D01*
X809589Y431248D01*
X809602Y431325D01*
X809612Y431402D01*
X809617Y431480D01*
X809619Y431558D01*
X809619Y434013D01*
X809619Y437724D02*
X802253Y437724D01*
X802253Y441816D02*
X809619Y437724D01*
X809619Y441816D02*
X802253Y441816D01*
X802253Y445527D02*
X809619Y445527D01*
X809619Y447573D01*
X809617Y447662D01*
X809611Y447751D01*
X809601Y447840D01*
X809588Y447928D01*
X809571Y448016D01*
X809549Y448103D01*
X809524Y448188D01*
X809496Y448273D01*
X809463Y448356D01*
X809427Y448438D01*
X809388Y448518D01*
X809345Y448596D01*
X809299Y448672D01*
X809249Y448747D01*
X809196Y448819D01*
X809140Y448888D01*
X809081Y448955D01*
X809020Y449020D01*
X808955Y449081D01*
X808888Y449140D01*
X808819Y449196D01*
X808747Y449249D01*
X808672Y449299D01*
X808596Y449345D01*
X808518Y449388D01*
X808438Y449427D01*
X808356Y449463D01*
X808273Y449496D01*
X808188Y449524D01*
X808103Y449549D01*
X808016Y449571D01*
X807928Y449588D01*
X807840Y449601D01*
X807751Y449611D01*
X807662Y449617D01*
X807573Y449619D01*
X804299Y449619D01*
X804210Y449617D01*
X804121Y449611D01*
X804032Y449601D01*
X803944Y449588D01*
X803856Y449571D01*
X803769Y449549D01*
X803684Y449524D01*
X803599Y449496D01*
X803516Y449463D01*
X803434Y449427D01*
X803354Y449388D01*
X803276Y449345D01*
X803200Y449299D01*
X803125Y449249D01*
X803053Y449196D01*
X802984Y449140D01*
X802917Y449081D01*
X802852Y449020D01*
X802791Y448955D01*
X802732Y448888D01*
X802676Y448819D01*
X802623Y448747D01*
X802573Y448672D01*
X802527Y448596D01*
X802484Y448518D01*
X802445Y448438D01*
X802409Y448356D01*
X802376Y448273D01*
X802348Y448188D01*
X802323Y448103D01*
X802301Y448016D01*
X802284Y447928D01*
X802271Y447840D01*
X802261Y447751D01*
X802255Y447662D01*
X802253Y447573D01*
X802253Y445527D01*
X865118Y424260D02*
X865118Y419349D01*
X867573Y421804D02*
X862662Y421804D01*
X862253Y427561D02*
X862253Y429607D01*
X862255Y429696D01*
X862261Y429785D01*
X862271Y429874D01*
X862284Y429962D01*
X862301Y430050D01*
X862323Y430137D01*
X862348Y430222D01*
X862376Y430307D01*
X862409Y430390D01*
X862445Y430472D01*
X862484Y430552D01*
X862527Y430630D01*
X862573Y430706D01*
X862623Y430781D01*
X862676Y430853D01*
X862732Y430922D01*
X862791Y430989D01*
X862852Y431054D01*
X862917Y431115D01*
X862984Y431174D01*
X863053Y431230D01*
X863125Y431283D01*
X863200Y431333D01*
X863276Y431379D01*
X863354Y431422D01*
X863434Y431461D01*
X863516Y431497D01*
X863599Y431530D01*
X863684Y431558D01*
X863769Y431583D01*
X863856Y431605D01*
X863944Y431622D01*
X864032Y431635D01*
X864121Y431645D01*
X864210Y431651D01*
X864299Y431653D01*
X864388Y431651D01*
X864477Y431645D01*
X864566Y431635D01*
X864654Y431622D01*
X864742Y431605D01*
X864829Y431583D01*
X864914Y431558D01*
X864999Y431530D01*
X865082Y431497D01*
X865164Y431461D01*
X865244Y431422D01*
X865322Y431379D01*
X865398Y431333D01*
X865473Y431283D01*
X865545Y431230D01*
X865614Y431174D01*
X865681Y431115D01*
X865746Y431054D01*
X865807Y430989D01*
X865866Y430922D01*
X865922Y430853D01*
X865975Y430781D01*
X866025Y430706D01*
X866071Y430630D01*
X866114Y430552D01*
X866153Y430472D01*
X866189Y430390D01*
X866222Y430307D01*
X866250Y430222D01*
X866275Y430137D01*
X866297Y430050D01*
X866314Y429962D01*
X866327Y429874D01*
X866337Y429785D01*
X866343Y429696D01*
X866345Y429607D01*
X869619Y430016D02*
X869619Y427561D01*
X869619Y430016D02*
X869617Y430095D01*
X869611Y430174D01*
X869602Y430253D01*
X869589Y430331D01*
X869571Y430408D01*
X869551Y430484D01*
X869526Y430559D01*
X869498Y430633D01*
X869467Y430706D01*
X869431Y430777D01*
X869393Y430846D01*
X869351Y430913D01*
X869306Y430978D01*
X869258Y431041D01*
X869207Y431102D01*
X869153Y431159D01*
X869097Y431215D01*
X869038Y431267D01*
X868976Y431317D01*
X868912Y431363D01*
X868846Y431407D01*
X868778Y431447D01*
X868708Y431483D01*
X868636Y431517D01*
X868562Y431547D01*
X868488Y431573D01*
X868412Y431596D01*
X868335Y431614D01*
X868258Y431630D01*
X868179Y431641D01*
X868101Y431649D01*
X868022Y431653D01*
X867942Y431653D01*
X867863Y431649D01*
X867785Y431641D01*
X867706Y431630D01*
X867629Y431614D01*
X867552Y431596D01*
X867476Y431573D01*
X867402Y431547D01*
X867328Y431517D01*
X867256Y431483D01*
X867186Y431447D01*
X867118Y431407D01*
X867052Y431363D01*
X866988Y431317D01*
X866926Y431267D01*
X866867Y431215D01*
X866811Y431159D01*
X866757Y431102D01*
X866706Y431041D01*
X866658Y430978D01*
X866613Y430913D01*
X866571Y430846D01*
X866533Y430777D01*
X866497Y430706D01*
X866466Y430633D01*
X866438Y430559D01*
X866413Y430484D01*
X866393Y430408D01*
X866375Y430331D01*
X866362Y430253D01*
X866353Y430174D01*
X866347Y430095D01*
X866345Y430016D01*
X866345Y428380D01*
X862662Y434523D02*
X862253Y434523D01*
X862662Y434523D02*
X862662Y434932D01*
X862253Y434932D01*
X862253Y434523D01*
X868801Y437802D02*
X869619Y437802D01*
X869619Y441895D01*
X862253Y439848D01*
X862253Y447164D02*
X869619Y444708D01*
X869619Y449619D02*
X862253Y447164D01*
X785118Y424260D02*
X785118Y419349D01*
X787573Y421804D02*
X782662Y421804D01*
X782253Y427561D02*
X782253Y429607D01*
X782255Y429696D01*
X782261Y429785D01*
X782271Y429874D01*
X782284Y429962D01*
X782301Y430050D01*
X782323Y430137D01*
X782348Y430222D01*
X782376Y430307D01*
X782409Y430390D01*
X782445Y430472D01*
X782484Y430552D01*
X782527Y430630D01*
X782573Y430706D01*
X782623Y430781D01*
X782676Y430853D01*
X782732Y430922D01*
X782791Y430989D01*
X782852Y431054D01*
X782917Y431115D01*
X782984Y431174D01*
X783053Y431230D01*
X783125Y431283D01*
X783200Y431333D01*
X783276Y431379D01*
X783354Y431422D01*
X783434Y431461D01*
X783516Y431497D01*
X783599Y431530D01*
X783684Y431558D01*
X783769Y431583D01*
X783856Y431605D01*
X783944Y431622D01*
X784032Y431635D01*
X784121Y431645D01*
X784210Y431651D01*
X784299Y431653D01*
X784388Y431651D01*
X784477Y431645D01*
X784566Y431635D01*
X784654Y431622D01*
X784742Y431605D01*
X784829Y431583D01*
X784914Y431558D01*
X784999Y431530D01*
X785082Y431497D01*
X785164Y431461D01*
X785244Y431422D01*
X785322Y431379D01*
X785398Y431333D01*
X785473Y431283D01*
X785545Y431230D01*
X785614Y431174D01*
X785681Y431115D01*
X785746Y431054D01*
X785807Y430989D01*
X785866Y430922D01*
X785922Y430853D01*
X785975Y430781D01*
X786025Y430706D01*
X786071Y430630D01*
X786114Y430552D01*
X786153Y430472D01*
X786189Y430390D01*
X786222Y430307D01*
X786250Y430222D01*
X786275Y430137D01*
X786297Y430050D01*
X786314Y429962D01*
X786327Y429874D01*
X786337Y429785D01*
X786343Y429696D01*
X786345Y429607D01*
X789619Y430016D02*
X789619Y427561D01*
X789619Y430016D02*
X789617Y430095D01*
X789611Y430174D01*
X789602Y430253D01*
X789589Y430331D01*
X789571Y430408D01*
X789551Y430484D01*
X789526Y430559D01*
X789498Y430633D01*
X789467Y430706D01*
X789431Y430777D01*
X789393Y430846D01*
X789351Y430913D01*
X789306Y430978D01*
X789258Y431041D01*
X789207Y431102D01*
X789153Y431159D01*
X789097Y431215D01*
X789038Y431267D01*
X788976Y431317D01*
X788912Y431363D01*
X788846Y431407D01*
X788778Y431447D01*
X788708Y431483D01*
X788636Y431517D01*
X788562Y431547D01*
X788488Y431573D01*
X788412Y431596D01*
X788335Y431614D01*
X788258Y431630D01*
X788179Y431641D01*
X788101Y431649D01*
X788022Y431653D01*
X787942Y431653D01*
X787863Y431649D01*
X787785Y431641D01*
X787706Y431630D01*
X787629Y431614D01*
X787552Y431596D01*
X787476Y431573D01*
X787402Y431547D01*
X787328Y431517D01*
X787256Y431483D01*
X787186Y431447D01*
X787118Y431407D01*
X787052Y431363D01*
X786988Y431317D01*
X786926Y431267D01*
X786867Y431215D01*
X786811Y431159D01*
X786757Y431102D01*
X786706Y431041D01*
X786658Y430978D01*
X786613Y430913D01*
X786571Y430846D01*
X786533Y430777D01*
X786497Y430706D01*
X786466Y430633D01*
X786438Y430559D01*
X786413Y430484D01*
X786393Y430408D01*
X786375Y430331D01*
X786362Y430253D01*
X786353Y430174D01*
X786347Y430095D01*
X786345Y430016D01*
X786345Y428380D01*
X782662Y434523D02*
X782253Y434523D01*
X782662Y434523D02*
X782662Y434932D01*
X782253Y434932D01*
X782253Y434523D01*
X788801Y437802D02*
X789619Y437802D01*
X789619Y441895D01*
X782253Y439848D01*
X782253Y447164D02*
X789619Y444708D01*
X789619Y449619D02*
X782253Y447164D01*
D11*
X757930Y306200D02*
X862070Y306200D01*
X862070Y147450D02*
X757930Y147450D01*
X862070Y181740D02*
X862070Y306200D01*
X862070Y181740D02*
X853180Y181740D01*
X853180Y166500D01*
X862070Y166500D01*
X862070Y147450D01*
X757930Y181740D02*
X757930Y306200D01*
X757930Y181740D02*
X766820Y181740D01*
X766820Y166500D01*
X757930Y166500D01*
X757930Y147450D01*
D12*
X764280Y299850D02*
X855720Y299850D01*
X855720Y217300D01*
X764280Y217300D01*
X764280Y299850D01*
D11*
X791966Y181740D02*
X791971Y182183D01*
X791988Y182625D01*
X792015Y183067D01*
X792053Y183508D01*
X792102Y183948D01*
X792161Y184386D01*
X792232Y184823D01*
X792313Y185258D01*
X792404Y185691D01*
X792506Y186122D01*
X792619Y186550D01*
X792743Y186975D01*
X792876Y187397D01*
X793020Y187815D01*
X793174Y188230D01*
X793339Y188641D01*
X793513Y189048D01*
X793697Y189451D01*
X793892Y189848D01*
X794095Y190241D01*
X794309Y190629D01*
X794532Y191011D01*
X794764Y191388D01*
X795005Y191759D01*
X795256Y192124D01*
X795515Y192483D01*
X795783Y192835D01*
X796060Y193181D01*
X796344Y193519D01*
X796638Y193851D01*
X796939Y194175D01*
X797248Y194492D01*
X797565Y194801D01*
X797889Y195102D01*
X798221Y195396D01*
X798559Y195680D01*
X798905Y195957D01*
X799257Y196225D01*
X799616Y196484D01*
X799981Y196735D01*
X800352Y196976D01*
X800729Y197208D01*
X801111Y197431D01*
X801499Y197645D01*
X801892Y197848D01*
X802289Y198043D01*
X802692Y198227D01*
X803099Y198401D01*
X803510Y198566D01*
X803925Y198720D01*
X804343Y198864D01*
X804765Y198997D01*
X805190Y199121D01*
X805618Y199234D01*
X806049Y199336D01*
X806482Y199427D01*
X806917Y199508D01*
X807354Y199579D01*
X807792Y199638D01*
X808232Y199687D01*
X808673Y199725D01*
X809115Y199752D01*
X809557Y199769D01*
X810000Y199774D01*
X810443Y199769D01*
X810885Y199752D01*
X811327Y199725D01*
X811768Y199687D01*
X812208Y199638D01*
X812646Y199579D01*
X813083Y199508D01*
X813518Y199427D01*
X813951Y199336D01*
X814382Y199234D01*
X814810Y199121D01*
X815235Y198997D01*
X815657Y198864D01*
X816075Y198720D01*
X816490Y198566D01*
X816901Y198401D01*
X817308Y198227D01*
X817711Y198043D01*
X818108Y197848D01*
X818501Y197645D01*
X818889Y197431D01*
X819271Y197208D01*
X819648Y196976D01*
X820019Y196735D01*
X820384Y196484D01*
X820743Y196225D01*
X821095Y195957D01*
X821441Y195680D01*
X821779Y195396D01*
X822111Y195102D01*
X822435Y194801D01*
X822752Y194492D01*
X823061Y194175D01*
X823362Y193851D01*
X823656Y193519D01*
X823940Y193181D01*
X824217Y192835D01*
X824485Y192483D01*
X824744Y192124D01*
X824995Y191759D01*
X825236Y191388D01*
X825468Y191011D01*
X825691Y190629D01*
X825905Y190241D01*
X826108Y189848D01*
X826303Y189451D01*
X826487Y189048D01*
X826661Y188641D01*
X826826Y188230D01*
X826980Y187815D01*
X827124Y187397D01*
X827257Y186975D01*
X827381Y186550D01*
X827494Y186122D01*
X827596Y185691D01*
X827687Y185258D01*
X827768Y184823D01*
X827839Y184386D01*
X827898Y183948D01*
X827947Y183508D01*
X827985Y183067D01*
X828012Y182625D01*
X828029Y182183D01*
X828034Y181740D01*
X828029Y181297D01*
X828012Y180855D01*
X827985Y180413D01*
X827947Y179972D01*
X827898Y179532D01*
X827839Y179094D01*
X827768Y178657D01*
X827687Y178222D01*
X827596Y177789D01*
X827494Y177358D01*
X827381Y176930D01*
X827257Y176505D01*
X827124Y176083D01*
X826980Y175665D01*
X826826Y175250D01*
X826661Y174839D01*
X826487Y174432D01*
X826303Y174029D01*
X826108Y173632D01*
X825905Y173239D01*
X825691Y172851D01*
X825468Y172469D01*
X825236Y172092D01*
X824995Y171721D01*
X824744Y171356D01*
X824485Y170997D01*
X824217Y170645D01*
X823940Y170299D01*
X823656Y169961D01*
X823362Y169629D01*
X823061Y169305D01*
X822752Y168988D01*
X822435Y168679D01*
X822111Y168378D01*
X821779Y168084D01*
X821441Y167800D01*
X821095Y167523D01*
X820743Y167255D01*
X820384Y166996D01*
X820019Y166745D01*
X819648Y166504D01*
X819271Y166272D01*
X818889Y166049D01*
X818501Y165835D01*
X818108Y165632D01*
X817711Y165437D01*
X817308Y165253D01*
X816901Y165079D01*
X816490Y164914D01*
X816075Y164760D01*
X815657Y164616D01*
X815235Y164483D01*
X814810Y164359D01*
X814382Y164246D01*
X813951Y164144D01*
X813518Y164053D01*
X813083Y163972D01*
X812646Y163901D01*
X812208Y163842D01*
X811768Y163793D01*
X811327Y163755D01*
X810885Y163728D01*
X810443Y163711D01*
X810000Y163706D01*
X809557Y163711D01*
X809115Y163728D01*
X808673Y163755D01*
X808232Y163793D01*
X807792Y163842D01*
X807354Y163901D01*
X806917Y163972D01*
X806482Y164053D01*
X806049Y164144D01*
X805618Y164246D01*
X805190Y164359D01*
X804765Y164483D01*
X804343Y164616D01*
X803925Y164760D01*
X803510Y164914D01*
X803099Y165079D01*
X802692Y165253D01*
X802289Y165437D01*
X801892Y165632D01*
X801499Y165835D01*
X801111Y166049D01*
X800729Y166272D01*
X800352Y166504D01*
X799981Y166745D01*
X799616Y166996D01*
X799257Y167255D01*
X798905Y167523D01*
X798559Y167800D01*
X798221Y168084D01*
X797889Y168378D01*
X797565Y168679D01*
X797248Y168988D01*
X796939Y169305D01*
X796638Y169629D01*
X796344Y169961D01*
X796060Y170299D01*
X795783Y170645D01*
X795515Y170997D01*
X795256Y171356D01*
X795005Y171721D01*
X794764Y172092D01*
X794532Y172469D01*
X794309Y172851D01*
X794095Y173239D01*
X793892Y173632D01*
X793697Y174029D01*
X793513Y174432D01*
X793339Y174839D01*
X793174Y175250D01*
X793020Y175665D01*
X792876Y176083D01*
X792743Y176505D01*
X792619Y176930D01*
X792506Y177358D01*
X792404Y177789D01*
X792313Y178222D01*
X792232Y178657D01*
X792161Y179094D01*
X792102Y179532D01*
X792053Y179972D01*
X792015Y180413D01*
X791988Y180855D01*
X791971Y181297D01*
X791966Y181740D01*
D13*
X835400Y337315D03*
X810000Y337315D03*
X784600Y337315D03*
D14*
X784600Y320170D03*
X810000Y320170D03*
X835400Y320170D03*
D15*
X850993Y209228D02*
X852771Y209228D01*
X852771Y218118D01*
X836769Y213673D01*
X841214Y224859D02*
X841346Y224861D01*
X841477Y224867D01*
X841609Y224877D01*
X841740Y224890D01*
X841870Y224908D01*
X842000Y224929D01*
X842130Y224954D01*
X842258Y224983D01*
X842386Y225016D01*
X842512Y225053D01*
X842638Y225093D01*
X842762Y225137D01*
X842885Y225185D01*
X843006Y225236D01*
X843126Y225291D01*
X843244Y225349D01*
X843360Y225411D01*
X843474Y225477D01*
X843587Y225545D01*
X843697Y225617D01*
X843805Y225692D01*
X843911Y225771D01*
X844015Y225852D01*
X844116Y225937D01*
X844214Y226024D01*
X844310Y226115D01*
X844403Y226208D01*
X844494Y226304D01*
X844581Y226402D01*
X844666Y226503D01*
X844747Y226607D01*
X844826Y226713D01*
X844901Y226821D01*
X844973Y226931D01*
X845041Y227044D01*
X845107Y227158D01*
X845169Y227274D01*
X845227Y227392D01*
X845282Y227512D01*
X845333Y227633D01*
X845381Y227756D01*
X845425Y227880D01*
X845465Y228006D01*
X845502Y228132D01*
X845535Y228260D01*
X845564Y228388D01*
X845589Y228518D01*
X845610Y228648D01*
X845628Y228778D01*
X845641Y228909D01*
X845651Y229041D01*
X845657Y229172D01*
X845659Y229304D01*
X845657Y229436D01*
X845651Y229567D01*
X845641Y229699D01*
X845628Y229830D01*
X845610Y229960D01*
X845589Y230090D01*
X845564Y230220D01*
X845535Y230348D01*
X845502Y230476D01*
X845465Y230602D01*
X845425Y230728D01*
X845381Y230852D01*
X845333Y230975D01*
X845282Y231096D01*
X845227Y231216D01*
X845169Y231334D01*
X845107Y231450D01*
X845041Y231564D01*
X844973Y231677D01*
X844901Y231787D01*
X844826Y231895D01*
X844747Y232001D01*
X844666Y232105D01*
X844581Y232206D01*
X844494Y232304D01*
X844403Y232400D01*
X844310Y232493D01*
X844214Y232584D01*
X844116Y232671D01*
X844015Y232756D01*
X843911Y232837D01*
X843805Y232916D01*
X843697Y232991D01*
X843587Y233063D01*
X843474Y233131D01*
X843360Y233197D01*
X843244Y233259D01*
X843126Y233317D01*
X843006Y233372D01*
X842885Y233423D01*
X842762Y233471D01*
X842638Y233515D01*
X842512Y233555D01*
X842386Y233592D01*
X842258Y233625D01*
X842130Y233654D01*
X842000Y233679D01*
X841870Y233700D01*
X841740Y233718D01*
X841609Y233731D01*
X841477Y233741D01*
X841346Y233747D01*
X841214Y233749D01*
X841082Y233747D01*
X840951Y233741D01*
X840819Y233731D01*
X840688Y233718D01*
X840558Y233700D01*
X840428Y233679D01*
X840298Y233654D01*
X840170Y233625D01*
X840042Y233592D01*
X839916Y233555D01*
X839790Y233515D01*
X839666Y233471D01*
X839543Y233423D01*
X839422Y233372D01*
X839302Y233317D01*
X839184Y233259D01*
X839068Y233197D01*
X838954Y233131D01*
X838841Y233063D01*
X838731Y232991D01*
X838623Y232916D01*
X838517Y232837D01*
X838413Y232756D01*
X838312Y232671D01*
X838214Y232584D01*
X838118Y232493D01*
X838025Y232400D01*
X837934Y232304D01*
X837847Y232206D01*
X837762Y232105D01*
X837681Y232001D01*
X837602Y231895D01*
X837527Y231787D01*
X837455Y231677D01*
X837387Y231564D01*
X837321Y231450D01*
X837259Y231334D01*
X837201Y231216D01*
X837146Y231096D01*
X837095Y230975D01*
X837047Y230852D01*
X837003Y230728D01*
X836963Y230602D01*
X836926Y230476D01*
X836893Y230348D01*
X836864Y230220D01*
X836839Y230090D01*
X836818Y229960D01*
X836800Y229830D01*
X836787Y229699D01*
X836777Y229567D01*
X836771Y229436D01*
X836769Y229304D01*
X836771Y229172D01*
X836777Y229041D01*
X836787Y228909D01*
X836800Y228778D01*
X836818Y228648D01*
X836839Y228518D01*
X836864Y228388D01*
X836893Y228260D01*
X836926Y228132D01*
X836963Y228006D01*
X837003Y227880D01*
X837047Y227756D01*
X837095Y227633D01*
X837146Y227512D01*
X837201Y227392D01*
X837259Y227274D01*
X837321Y227158D01*
X837387Y227044D01*
X837455Y226931D01*
X837527Y226821D01*
X837602Y226713D01*
X837681Y226607D01*
X837762Y226503D01*
X837847Y226402D01*
X837934Y226304D01*
X838025Y226208D01*
X838118Y226115D01*
X838214Y226024D01*
X838312Y225937D01*
X838413Y225852D01*
X838517Y225771D01*
X838623Y225692D01*
X838731Y225617D01*
X838841Y225545D01*
X838954Y225477D01*
X839068Y225411D01*
X839184Y225349D01*
X839302Y225291D01*
X839422Y225236D01*
X839543Y225185D01*
X839666Y225137D01*
X839790Y225093D01*
X839916Y225053D01*
X840042Y225016D01*
X840170Y224983D01*
X840298Y224954D01*
X840428Y224929D01*
X840558Y224908D01*
X840688Y224890D01*
X840819Y224877D01*
X840951Y224867D01*
X841082Y224861D01*
X841214Y224859D01*
X849215Y225748D02*
X849333Y225750D01*
X849450Y225756D01*
X849567Y225765D01*
X849684Y225779D01*
X849800Y225796D01*
X849916Y225818D01*
X850031Y225843D01*
X850145Y225872D01*
X850258Y225904D01*
X850370Y225941D01*
X850480Y225981D01*
X850589Y226024D01*
X850697Y226072D01*
X850803Y226122D01*
X850907Y226177D01*
X851010Y226234D01*
X851110Y226295D01*
X851209Y226360D01*
X851305Y226427D01*
X851399Y226498D01*
X851491Y226572D01*
X851580Y226648D01*
X851666Y226728D01*
X851750Y226810D01*
X851831Y226896D01*
X851909Y226983D01*
X851985Y227074D01*
X852057Y227167D01*
X852126Y227262D01*
X852192Y227359D01*
X852255Y227459D01*
X852314Y227560D01*
X852370Y227663D01*
X852422Y227769D01*
X852471Y227876D01*
X852517Y227984D01*
X852559Y228094D01*
X852597Y228205D01*
X852631Y228318D01*
X852662Y228431D01*
X852689Y228546D01*
X852712Y228661D01*
X852732Y228777D01*
X852747Y228893D01*
X852759Y229010D01*
X852767Y229128D01*
X852771Y229245D01*
X852771Y229363D01*
X852767Y229480D01*
X852759Y229598D01*
X852747Y229715D01*
X852732Y229831D01*
X852712Y229947D01*
X852689Y230062D01*
X852662Y230177D01*
X852631Y230290D01*
X852597Y230403D01*
X852559Y230514D01*
X852517Y230624D01*
X852471Y230732D01*
X852422Y230839D01*
X852370Y230945D01*
X852314Y231048D01*
X852255Y231149D01*
X852192Y231249D01*
X852126Y231346D01*
X852057Y231441D01*
X851985Y231534D01*
X851909Y231625D01*
X851831Y231712D01*
X851750Y231798D01*
X851666Y231880D01*
X851580Y231960D01*
X851491Y232036D01*
X851399Y232110D01*
X851305Y232181D01*
X851209Y232248D01*
X851110Y232313D01*
X851010Y232374D01*
X850907Y232431D01*
X850803Y232486D01*
X850697Y232536D01*
X850589Y232584D01*
X850480Y232627D01*
X850370Y232667D01*
X850258Y232704D01*
X850145Y232736D01*
X850031Y232765D01*
X849916Y232790D01*
X849800Y232812D01*
X849684Y232829D01*
X849567Y232843D01*
X849450Y232852D01*
X849333Y232858D01*
X849215Y232860D01*
X849097Y232858D01*
X848980Y232852D01*
X848863Y232843D01*
X848746Y232829D01*
X848630Y232812D01*
X848514Y232790D01*
X848399Y232765D01*
X848285Y232736D01*
X848172Y232704D01*
X848060Y232667D01*
X847950Y232627D01*
X847841Y232584D01*
X847733Y232536D01*
X847627Y232486D01*
X847523Y232431D01*
X847420Y232374D01*
X847320Y232313D01*
X847221Y232248D01*
X847125Y232181D01*
X847031Y232110D01*
X846939Y232036D01*
X846850Y231960D01*
X846764Y231880D01*
X846680Y231798D01*
X846599Y231712D01*
X846521Y231625D01*
X846445Y231534D01*
X846373Y231441D01*
X846304Y231346D01*
X846238Y231249D01*
X846175Y231149D01*
X846116Y231048D01*
X846060Y230945D01*
X846008Y230839D01*
X845959Y230732D01*
X845913Y230624D01*
X845871Y230514D01*
X845833Y230403D01*
X845799Y230290D01*
X845768Y230177D01*
X845741Y230062D01*
X845718Y229947D01*
X845698Y229831D01*
X845683Y229715D01*
X845671Y229598D01*
X845663Y229480D01*
X845659Y229363D01*
X845659Y229245D01*
X845663Y229128D01*
X845671Y229010D01*
X845683Y228893D01*
X845698Y228777D01*
X845718Y228661D01*
X845741Y228546D01*
X845768Y228431D01*
X845799Y228318D01*
X845833Y228205D01*
X845871Y228094D01*
X845913Y227984D01*
X845959Y227876D01*
X846008Y227769D01*
X846060Y227663D01*
X846116Y227560D01*
X846175Y227459D01*
X846238Y227359D01*
X846304Y227262D01*
X846373Y227167D01*
X846445Y227074D01*
X846521Y226983D01*
X846599Y226896D01*
X846680Y226810D01*
X846764Y226728D01*
X846850Y226648D01*
X846939Y226572D01*
X847031Y226498D01*
X847125Y226427D01*
X847221Y226360D01*
X847320Y226295D01*
X847420Y226234D01*
X847523Y226177D01*
X847627Y226122D01*
X847733Y226072D01*
X847841Y226024D01*
X847950Y225981D01*
X848060Y225941D01*
X848172Y225904D01*
X848285Y225872D01*
X848399Y225843D01*
X848514Y225818D01*
X848630Y225796D01*
X848746Y225779D01*
X848863Y225765D01*
X848980Y225756D01*
X849097Y225750D01*
X849215Y225748D01*
X844770Y240490D02*
X845085Y240494D01*
X845399Y240505D01*
X845714Y240524D01*
X846027Y240550D01*
X846340Y240584D01*
X846652Y240625D01*
X846963Y240674D01*
X847273Y240730D01*
X847582Y240793D01*
X847888Y240864D01*
X848193Y240942D01*
X848496Y241027D01*
X848797Y241120D01*
X849096Y241220D01*
X849392Y241327D01*
X849686Y241440D01*
X849976Y241561D01*
X850264Y241689D01*
X850549Y241824D01*
X850549Y241825D02*
X850655Y241863D01*
X850760Y241906D01*
X850864Y241951D01*
X850966Y242001D01*
X851066Y242054D01*
X851165Y242110D01*
X851261Y242170D01*
X851355Y242233D01*
X851447Y242299D01*
X851537Y242368D01*
X851624Y242440D01*
X851709Y242516D01*
X851791Y242594D01*
X851870Y242675D01*
X851947Y242758D01*
X852020Y242845D01*
X852091Y242933D01*
X852158Y243024D01*
X852223Y243118D01*
X852284Y243213D01*
X852341Y243311D01*
X852396Y243410D01*
X852446Y243511D01*
X852494Y243614D01*
X852538Y243719D01*
X852578Y243825D01*
X852614Y243932D01*
X852647Y244041D01*
X852676Y244150D01*
X852701Y244261D01*
X852722Y244372D01*
X852740Y244484D01*
X852753Y244597D01*
X852763Y244710D01*
X852769Y244823D01*
X852771Y244936D01*
X852769Y245049D01*
X852763Y245162D01*
X852753Y245275D01*
X852740Y245388D01*
X852722Y245500D01*
X852701Y245611D01*
X852676Y245722D01*
X852647Y245831D01*
X852614Y245940D01*
X852578Y246047D01*
X852538Y246153D01*
X852494Y246258D01*
X852446Y246361D01*
X852396Y246462D01*
X852341Y246561D01*
X852284Y246659D01*
X852223Y246754D01*
X852158Y246848D01*
X852091Y246939D01*
X852020Y247027D01*
X851947Y247114D01*
X851870Y247197D01*
X851791Y247278D01*
X851709Y247356D01*
X851624Y247432D01*
X851537Y247504D01*
X851447Y247573D01*
X851355Y247639D01*
X851261Y247702D01*
X851165Y247762D01*
X851066Y247818D01*
X850966Y247871D01*
X850864Y247921D01*
X850760Y247966D01*
X850655Y248009D01*
X850549Y248047D01*
X850264Y248182D01*
X849976Y248310D01*
X849686Y248431D01*
X849392Y248544D01*
X849096Y248651D01*
X848797Y248751D01*
X848496Y248844D01*
X848193Y248929D01*
X847888Y249007D01*
X847582Y249078D01*
X847273Y249141D01*
X846963Y249197D01*
X846652Y249246D01*
X846340Y249287D01*
X846027Y249321D01*
X845714Y249347D01*
X845399Y249366D01*
X845085Y249377D01*
X844770Y249381D01*
X844770Y240490D02*
X844455Y240494D01*
X844141Y240505D01*
X843826Y240524D01*
X843513Y240550D01*
X843200Y240584D01*
X842888Y240625D01*
X842577Y240674D01*
X842267Y240730D01*
X841958Y240793D01*
X841652Y240864D01*
X841347Y240942D01*
X841044Y241027D01*
X840743Y241120D01*
X840444Y241220D01*
X840148Y241327D01*
X839854Y241440D01*
X839564Y241561D01*
X839276Y241689D01*
X838991Y241824D01*
X838991Y241825D02*
X838885Y241863D01*
X838780Y241906D01*
X838676Y241951D01*
X838574Y242001D01*
X838474Y242054D01*
X838375Y242110D01*
X838279Y242170D01*
X838185Y242233D01*
X838093Y242299D01*
X838003Y242368D01*
X837916Y242440D01*
X837831Y242516D01*
X837749Y242594D01*
X837670Y242675D01*
X837593Y242758D01*
X837520Y242845D01*
X837449Y242933D01*
X837382Y243024D01*
X837317Y243118D01*
X837256Y243213D01*
X837199Y243311D01*
X837144Y243410D01*
X837094Y243511D01*
X837046Y243614D01*
X837002Y243719D01*
X836962Y243825D01*
X836926Y243932D01*
X836893Y244041D01*
X836864Y244150D01*
X836839Y244261D01*
X836818Y244372D01*
X836800Y244484D01*
X836787Y244597D01*
X836777Y244710D01*
X836771Y244823D01*
X836769Y244936D01*
X838991Y248047D02*
X839276Y248182D01*
X839564Y248310D01*
X839854Y248431D01*
X840148Y248544D01*
X840444Y248651D01*
X840743Y248751D01*
X841044Y248844D01*
X841347Y248929D01*
X841652Y249007D01*
X841958Y249078D01*
X842267Y249141D01*
X842577Y249197D01*
X842888Y249246D01*
X843200Y249287D01*
X843513Y249321D01*
X843826Y249347D01*
X844141Y249366D01*
X844455Y249377D01*
X844770Y249381D01*
X838991Y248047D02*
X838885Y248009D01*
X838780Y247966D01*
X838676Y247921D01*
X838574Y247871D01*
X838474Y247818D01*
X838375Y247762D01*
X838279Y247702D01*
X838185Y247639D01*
X838093Y247573D01*
X838003Y247504D01*
X837916Y247432D01*
X837831Y247356D01*
X837749Y247278D01*
X837670Y247197D01*
X837593Y247114D01*
X837520Y247027D01*
X837449Y246939D01*
X837382Y246848D01*
X837317Y246754D01*
X837256Y246659D01*
X837199Y246561D01*
X837144Y246462D01*
X837094Y246361D01*
X837046Y246258D01*
X837002Y246153D01*
X836962Y246047D01*
X836926Y245940D01*
X836893Y245831D01*
X836864Y245722D01*
X836839Y245611D01*
X836818Y245500D01*
X836800Y245388D01*
X836787Y245275D01*
X836777Y245162D01*
X836771Y245049D01*
X836769Y244936D01*
X840325Y241380D02*
X849215Y248492D01*
X836769Y256122D02*
X836769Y261456D01*
X836771Y261572D01*
X836777Y261689D01*
X836786Y261805D01*
X836799Y261920D01*
X836816Y262035D01*
X836837Y262150D01*
X836862Y262263D01*
X836890Y262376D01*
X836922Y262488D01*
X836958Y262599D01*
X836997Y262709D01*
X837040Y262817D01*
X837086Y262924D01*
X837136Y263029D01*
X837189Y263132D01*
X837245Y263234D01*
X837305Y263334D01*
X837368Y263432D01*
X837435Y263527D01*
X837504Y263621D01*
X837576Y263712D01*
X837651Y263801D01*
X837730Y263887D01*
X837811Y263970D01*
X837894Y264051D01*
X837980Y264130D01*
X838069Y264205D01*
X838160Y264277D01*
X838254Y264346D01*
X838349Y264413D01*
X838447Y264476D01*
X838547Y264536D01*
X838649Y264592D01*
X838752Y264645D01*
X838857Y264695D01*
X838964Y264741D01*
X839072Y264784D01*
X839182Y264823D01*
X839293Y264859D01*
X839405Y264891D01*
X839518Y264919D01*
X839631Y264944D01*
X839746Y264965D01*
X839861Y264982D01*
X839976Y264995D01*
X840092Y265004D01*
X840209Y265010D01*
X840325Y265012D01*
X842103Y265012D01*
X842219Y265010D01*
X842336Y265004D01*
X842452Y264995D01*
X842567Y264982D01*
X842682Y264965D01*
X842797Y264944D01*
X842910Y264919D01*
X843023Y264891D01*
X843135Y264859D01*
X843246Y264823D01*
X843356Y264784D01*
X843464Y264741D01*
X843571Y264695D01*
X843676Y264645D01*
X843779Y264592D01*
X843881Y264536D01*
X843981Y264476D01*
X844079Y264413D01*
X844174Y264346D01*
X844268Y264277D01*
X844359Y264205D01*
X844448Y264130D01*
X844534Y264051D01*
X844617Y263970D01*
X844698Y263887D01*
X844777Y263801D01*
X844852Y263712D01*
X844924Y263621D01*
X844993Y263527D01*
X845060Y263432D01*
X845123Y263334D01*
X845183Y263234D01*
X845239Y263132D01*
X845292Y263029D01*
X845342Y262924D01*
X845388Y262817D01*
X845431Y262709D01*
X845470Y262599D01*
X845506Y262488D01*
X845538Y262376D01*
X845566Y262263D01*
X845591Y262150D01*
X845612Y262035D01*
X845629Y261920D01*
X845642Y261805D01*
X845651Y261689D01*
X845657Y261572D01*
X845659Y261456D01*
X845659Y256122D01*
X852771Y256122D01*
X852771Y265012D01*
X852771Y275156D02*
X836769Y275156D01*
X852771Y270711D02*
X852771Y279601D01*
D16*
X840500Y400000D02*
X840500Y476000D01*
X840500Y400000D02*
X899500Y400000D01*
X899500Y476000D01*
X847000Y476000D02*
X840500Y476000D01*
X893000Y476000D02*
X899500Y476000D01*
X847000Y476000D02*
X847000Y460000D01*
X893000Y460000D02*
X893000Y476000D01*
D17*
X906016Y449276D02*
X906016Y447935D01*
X906017Y449276D02*
X906015Y449347D01*
X906009Y449419D01*
X906000Y449489D01*
X905987Y449559D01*
X905970Y449629D01*
X905949Y449697D01*
X905925Y449764D01*
X905897Y449830D01*
X905866Y449894D01*
X905831Y449957D01*
X905793Y450017D01*
X905752Y450076D01*
X905708Y450132D01*
X905661Y450186D01*
X905612Y450237D01*
X905559Y450285D01*
X905504Y450331D01*
X905447Y450373D01*
X905387Y450413D01*
X905326Y450449D01*
X905262Y450482D01*
X905197Y450511D01*
X905131Y450537D01*
X905063Y450560D01*
X904994Y450579D01*
X904924Y450594D01*
X904854Y450605D01*
X904783Y450613D01*
X904712Y450617D01*
X904640Y450617D01*
X904569Y450613D01*
X904498Y450605D01*
X904428Y450594D01*
X904358Y450579D01*
X904289Y450560D01*
X904221Y450537D01*
X904155Y450511D01*
X904090Y450482D01*
X904026Y450449D01*
X903965Y450413D01*
X903905Y450373D01*
X903848Y450331D01*
X903793Y450285D01*
X903740Y450237D01*
X903691Y450186D01*
X903644Y450132D01*
X903600Y450076D01*
X903559Y450017D01*
X903521Y449957D01*
X903486Y449894D01*
X903455Y449830D01*
X903427Y449764D01*
X903403Y449697D01*
X903382Y449629D01*
X903365Y449559D01*
X903352Y449489D01*
X903343Y449419D01*
X903337Y449347D01*
X903335Y449276D01*
X903335Y447935D01*
X908161Y447935D01*
X908161Y449276D01*
X908159Y449341D01*
X908153Y449405D01*
X908143Y449469D01*
X908130Y449533D01*
X908112Y449595D01*
X908091Y449656D01*
X908067Y449716D01*
X908038Y449774D01*
X908006Y449831D01*
X907971Y449885D01*
X907933Y449937D01*
X907891Y449987D01*
X907847Y450034D01*
X907800Y450078D01*
X907750Y450120D01*
X907698Y450158D01*
X907644Y450193D01*
X907587Y450225D01*
X907529Y450254D01*
X907469Y450278D01*
X907408Y450299D01*
X907346Y450317D01*
X907282Y450330D01*
X907218Y450340D01*
X907154Y450346D01*
X907089Y450348D01*
X907024Y450346D01*
X906960Y450340D01*
X906896Y450330D01*
X906832Y450317D01*
X906770Y450299D01*
X906709Y450278D01*
X906649Y450254D01*
X906591Y450225D01*
X906534Y450193D01*
X906480Y450158D01*
X906428Y450120D01*
X906378Y450078D01*
X906331Y450034D01*
X906287Y449987D01*
X906245Y449937D01*
X906207Y449885D01*
X906172Y449831D01*
X906140Y449774D01*
X906111Y449716D01*
X906087Y449656D01*
X906066Y449595D01*
X906048Y449533D01*
X906035Y449469D01*
X906025Y449405D01*
X906019Y449341D01*
X906017Y449276D01*
X903335Y452824D02*
X908161Y454433D01*
X903335Y456041D01*
X904542Y455639D02*
X904542Y453226D01*
X903335Y459553D02*
X908161Y459553D01*
X908161Y458213D02*
X908161Y460894D01*
X902799Y463053D02*
X902799Y465198D01*
X907089Y467722D02*
X908161Y469063D01*
X903335Y469063D01*
X903335Y470403D02*
X903335Y467722D01*
D16*
X760500Y476000D02*
X760500Y400000D01*
X819500Y400000D01*
X819500Y476000D01*
X767000Y476000D02*
X760500Y476000D01*
X813000Y476000D02*
X819500Y476000D01*
X767000Y476000D02*
X767000Y460000D01*
X813000Y460000D02*
X813000Y476000D01*
D17*
X826016Y449276D02*
X826016Y447935D01*
X826017Y449276D02*
X826015Y449347D01*
X826009Y449419D01*
X826000Y449489D01*
X825987Y449559D01*
X825970Y449629D01*
X825949Y449697D01*
X825925Y449764D01*
X825897Y449830D01*
X825866Y449894D01*
X825831Y449957D01*
X825793Y450017D01*
X825752Y450076D01*
X825708Y450132D01*
X825661Y450186D01*
X825612Y450237D01*
X825559Y450285D01*
X825504Y450331D01*
X825447Y450373D01*
X825387Y450413D01*
X825326Y450449D01*
X825262Y450482D01*
X825197Y450511D01*
X825131Y450537D01*
X825063Y450560D01*
X824994Y450579D01*
X824924Y450594D01*
X824854Y450605D01*
X824783Y450613D01*
X824712Y450617D01*
X824640Y450617D01*
X824569Y450613D01*
X824498Y450605D01*
X824428Y450594D01*
X824358Y450579D01*
X824289Y450560D01*
X824221Y450537D01*
X824155Y450511D01*
X824090Y450482D01*
X824026Y450449D01*
X823965Y450413D01*
X823905Y450373D01*
X823848Y450331D01*
X823793Y450285D01*
X823740Y450237D01*
X823691Y450186D01*
X823644Y450132D01*
X823600Y450076D01*
X823559Y450017D01*
X823521Y449957D01*
X823486Y449894D01*
X823455Y449830D01*
X823427Y449764D01*
X823403Y449697D01*
X823382Y449629D01*
X823365Y449559D01*
X823352Y449489D01*
X823343Y449419D01*
X823337Y449347D01*
X823335Y449276D01*
X823335Y447935D01*
X828161Y447935D01*
X828161Y449276D01*
X828159Y449341D01*
X828153Y449405D01*
X828143Y449469D01*
X828130Y449533D01*
X828112Y449595D01*
X828091Y449656D01*
X828067Y449716D01*
X828038Y449774D01*
X828006Y449831D01*
X827971Y449885D01*
X827933Y449937D01*
X827891Y449987D01*
X827847Y450034D01*
X827800Y450078D01*
X827750Y450120D01*
X827698Y450158D01*
X827644Y450193D01*
X827587Y450225D01*
X827529Y450254D01*
X827469Y450278D01*
X827408Y450299D01*
X827346Y450317D01*
X827282Y450330D01*
X827218Y450340D01*
X827154Y450346D01*
X827089Y450348D01*
X827024Y450346D01*
X826960Y450340D01*
X826896Y450330D01*
X826832Y450317D01*
X826770Y450299D01*
X826709Y450278D01*
X826649Y450254D01*
X826591Y450225D01*
X826534Y450193D01*
X826480Y450158D01*
X826428Y450120D01*
X826378Y450078D01*
X826331Y450034D01*
X826287Y449987D01*
X826245Y449937D01*
X826207Y449885D01*
X826172Y449831D01*
X826140Y449774D01*
X826111Y449716D01*
X826087Y449656D01*
X826066Y449595D01*
X826048Y449533D01*
X826035Y449469D01*
X826025Y449405D01*
X826019Y449341D01*
X826017Y449276D01*
X823335Y452824D02*
X828161Y454433D01*
X823335Y456041D01*
X824542Y455639D02*
X824542Y453226D01*
X823335Y459553D02*
X828161Y459553D01*
X828161Y458213D02*
X828161Y460894D01*
X822799Y463053D02*
X822799Y465198D01*
X825748Y467722D02*
X825868Y467724D01*
X825988Y467729D01*
X826108Y467738D01*
X826228Y467751D01*
X826347Y467767D01*
X826466Y467787D01*
X826584Y467811D01*
X826701Y467838D01*
X826817Y467868D01*
X826932Y467902D01*
X827047Y467940D01*
X827160Y467981D01*
X827271Y468025D01*
X827382Y468073D01*
X827491Y468124D01*
X827491Y468125D02*
X827548Y468146D01*
X827604Y468172D01*
X827659Y468200D01*
X827711Y468232D01*
X827762Y468268D01*
X827810Y468306D01*
X827856Y468347D01*
X827899Y468391D01*
X827939Y468437D01*
X827976Y468486D01*
X828010Y468538D01*
X828041Y468591D01*
X828069Y468646D01*
X828093Y468702D01*
X828114Y468760D01*
X828131Y468819D01*
X828144Y468879D01*
X828153Y468940D01*
X828159Y469002D01*
X828161Y469063D01*
X828159Y469124D01*
X828153Y469186D01*
X828144Y469247D01*
X828131Y469307D01*
X828114Y469366D01*
X828093Y469424D01*
X828069Y469480D01*
X828041Y469535D01*
X828010Y469588D01*
X827976Y469640D01*
X827939Y469689D01*
X827899Y469735D01*
X827856Y469779D01*
X827810Y469820D01*
X827762Y469858D01*
X827711Y469894D01*
X827659Y469926D01*
X827604Y469954D01*
X827548Y469980D01*
X827491Y470001D01*
X827382Y470052D01*
X827271Y470100D01*
X827160Y470144D01*
X827047Y470185D01*
X826932Y470223D01*
X826817Y470257D01*
X826701Y470287D01*
X826584Y470314D01*
X826466Y470338D01*
X826347Y470358D01*
X826228Y470374D01*
X826108Y470387D01*
X825988Y470396D01*
X825868Y470401D01*
X825748Y470403D01*
X825748Y467722D02*
X825628Y467724D01*
X825508Y467729D01*
X825388Y467738D01*
X825268Y467751D01*
X825149Y467767D01*
X825030Y467787D01*
X824912Y467811D01*
X824795Y467838D01*
X824679Y467868D01*
X824564Y467902D01*
X824449Y467940D01*
X824336Y467981D01*
X824225Y468025D01*
X824114Y468073D01*
X824005Y468124D01*
X824005Y468125D02*
X823948Y468146D01*
X823892Y468172D01*
X823837Y468200D01*
X823785Y468232D01*
X823734Y468268D01*
X823686Y468306D01*
X823640Y468347D01*
X823597Y468391D01*
X823557Y468437D01*
X823520Y468486D01*
X823486Y468538D01*
X823455Y468591D01*
X823427Y468646D01*
X823403Y468702D01*
X823382Y468760D01*
X823365Y468819D01*
X823352Y468879D01*
X823343Y468940D01*
X823337Y469002D01*
X823335Y469063D01*
X824005Y470001D02*
X824114Y470052D01*
X824225Y470100D01*
X824336Y470144D01*
X824449Y470185D01*
X824564Y470223D01*
X824679Y470257D01*
X824795Y470287D01*
X824912Y470314D01*
X825030Y470338D01*
X825149Y470358D01*
X825268Y470374D01*
X825388Y470387D01*
X825508Y470396D01*
X825628Y470401D01*
X825748Y470403D01*
X824005Y470001D02*
X823948Y469980D01*
X823892Y469954D01*
X823837Y469926D01*
X823785Y469894D01*
X823734Y469858D01*
X823686Y469820D01*
X823640Y469779D01*
X823597Y469735D01*
X823557Y469688D01*
X823520Y469640D01*
X823486Y469588D01*
X823455Y469535D01*
X823427Y469480D01*
X823403Y469424D01*
X823382Y469366D01*
X823365Y469307D01*
X823352Y469247D01*
X823343Y469186D01*
X823337Y469124D01*
X823335Y469063D01*
X824407Y467990D02*
X827089Y470135D01*
M02*
