G04 EAGLE Gerber RS-274X export*
G75*
%MOMM*%
%FSLAX34Y34*%
%LPD*%
%INBottom Copper*%
%IPPOS*%
%AMOC8*
5,1,8,0,0,1.08239X$1,22.5*%
G01*
%ADD10C,0.152400*%
%ADD11C,1.308000*%
%ADD12C,3.556000*%
%ADD13C,3.048000*%


D10*
X450116Y530493D02*
X447407Y530493D01*
X447407Y521462D01*
X452826Y521462D01*
X452944Y521464D01*
X453062Y521470D01*
X453180Y521479D01*
X453297Y521493D01*
X453414Y521510D01*
X453531Y521531D01*
X453646Y521556D01*
X453761Y521585D01*
X453875Y521618D01*
X453987Y521654D01*
X454098Y521694D01*
X454208Y521737D01*
X454317Y521784D01*
X454424Y521834D01*
X454529Y521889D01*
X454632Y521946D01*
X454733Y522007D01*
X454833Y522071D01*
X454930Y522138D01*
X455025Y522208D01*
X455117Y522282D01*
X455208Y522358D01*
X455295Y522438D01*
X455380Y522520D01*
X455462Y522605D01*
X455542Y522692D01*
X455618Y522783D01*
X455692Y522875D01*
X455762Y522970D01*
X455829Y523067D01*
X455893Y523167D01*
X455954Y523268D01*
X456011Y523371D01*
X456066Y523476D01*
X456116Y523583D01*
X456163Y523692D01*
X456206Y523802D01*
X456246Y523913D01*
X456282Y524025D01*
X456315Y524139D01*
X456344Y524254D01*
X456369Y524369D01*
X456390Y524486D01*
X456407Y524603D01*
X456421Y524720D01*
X456430Y524838D01*
X456436Y524956D01*
X456438Y525074D01*
X456438Y534106D01*
X456436Y534224D01*
X456430Y534342D01*
X456421Y534460D01*
X456407Y534577D01*
X456390Y534694D01*
X456369Y534811D01*
X456344Y534926D01*
X456315Y535041D01*
X456282Y535155D01*
X456246Y535267D01*
X456206Y535378D01*
X456163Y535488D01*
X456116Y535597D01*
X456066Y535704D01*
X456011Y535809D01*
X455954Y535912D01*
X455893Y536013D01*
X455829Y536113D01*
X455762Y536210D01*
X455692Y536305D01*
X455618Y536397D01*
X455542Y536488D01*
X455462Y536575D01*
X455380Y536660D01*
X455295Y536742D01*
X455208Y536822D01*
X455117Y536898D01*
X455025Y536972D01*
X454930Y537042D01*
X454833Y537109D01*
X454733Y537173D01*
X454632Y537234D01*
X454529Y537291D01*
X454424Y537346D01*
X454317Y537396D01*
X454208Y537443D01*
X454098Y537486D01*
X453987Y537526D01*
X453875Y537562D01*
X453761Y537595D01*
X453646Y537624D01*
X453531Y537649D01*
X453414Y537670D01*
X453297Y537687D01*
X453180Y537701D01*
X453062Y537710D01*
X452944Y537716D01*
X452826Y537718D01*
X447407Y537718D01*
X440286Y533202D02*
X440286Y525978D01*
X440286Y533202D02*
X440284Y533335D01*
X440278Y533467D01*
X440268Y533599D01*
X440255Y533731D01*
X440237Y533863D01*
X440216Y533993D01*
X440191Y534124D01*
X440162Y534253D01*
X440129Y534381D01*
X440093Y534509D01*
X440053Y534635D01*
X440009Y534760D01*
X439961Y534884D01*
X439910Y535006D01*
X439855Y535127D01*
X439797Y535246D01*
X439735Y535364D01*
X439670Y535479D01*
X439601Y535593D01*
X439530Y535704D01*
X439454Y535813D01*
X439376Y535920D01*
X439295Y536025D01*
X439210Y536127D01*
X439123Y536227D01*
X439033Y536324D01*
X438940Y536419D01*
X438844Y536510D01*
X438746Y536599D01*
X438645Y536685D01*
X438541Y536768D01*
X438435Y536848D01*
X438327Y536924D01*
X438217Y536998D01*
X438104Y537068D01*
X437990Y537135D01*
X437873Y537198D01*
X437755Y537258D01*
X437635Y537315D01*
X437513Y537368D01*
X437390Y537417D01*
X437266Y537463D01*
X437140Y537505D01*
X437013Y537543D01*
X436885Y537578D01*
X436756Y537609D01*
X436627Y537636D01*
X436496Y537659D01*
X436365Y537679D01*
X436233Y537694D01*
X436101Y537706D01*
X435969Y537714D01*
X435836Y537718D01*
X435704Y537718D01*
X435571Y537714D01*
X435439Y537706D01*
X435307Y537694D01*
X435175Y537679D01*
X435044Y537659D01*
X434913Y537636D01*
X434784Y537609D01*
X434655Y537578D01*
X434527Y537543D01*
X434400Y537505D01*
X434274Y537463D01*
X434150Y537417D01*
X434027Y537368D01*
X433905Y537315D01*
X433785Y537258D01*
X433667Y537198D01*
X433550Y537135D01*
X433436Y537068D01*
X433323Y536998D01*
X433213Y536924D01*
X433105Y536848D01*
X432999Y536768D01*
X432895Y536685D01*
X432794Y536599D01*
X432696Y536510D01*
X432600Y536419D01*
X432507Y536324D01*
X432417Y536227D01*
X432330Y536127D01*
X432245Y536025D01*
X432164Y535920D01*
X432086Y535813D01*
X432010Y535704D01*
X431939Y535593D01*
X431870Y535479D01*
X431805Y535364D01*
X431743Y535246D01*
X431685Y535127D01*
X431630Y535006D01*
X431579Y534884D01*
X431531Y534760D01*
X431487Y534635D01*
X431447Y534509D01*
X431411Y534381D01*
X431378Y534253D01*
X431349Y534124D01*
X431324Y533993D01*
X431303Y533863D01*
X431285Y533731D01*
X431272Y533599D01*
X431262Y533467D01*
X431256Y533335D01*
X431254Y533202D01*
X431255Y533202D02*
X431255Y525978D01*
X431254Y525978D02*
X431256Y525845D01*
X431262Y525713D01*
X431272Y525581D01*
X431285Y525449D01*
X431303Y525317D01*
X431324Y525187D01*
X431349Y525056D01*
X431378Y524927D01*
X431411Y524799D01*
X431447Y524671D01*
X431487Y524545D01*
X431531Y524420D01*
X431579Y524296D01*
X431630Y524174D01*
X431685Y524053D01*
X431743Y523934D01*
X431805Y523816D01*
X431870Y523701D01*
X431939Y523587D01*
X432010Y523476D01*
X432086Y523367D01*
X432164Y523260D01*
X432245Y523155D01*
X432330Y523053D01*
X432417Y522953D01*
X432507Y522856D01*
X432600Y522761D01*
X432696Y522670D01*
X432794Y522581D01*
X432895Y522495D01*
X432999Y522412D01*
X433105Y522332D01*
X433213Y522256D01*
X433323Y522182D01*
X433436Y522112D01*
X433550Y522045D01*
X433667Y521982D01*
X433785Y521922D01*
X433905Y521865D01*
X434027Y521812D01*
X434150Y521763D01*
X434274Y521717D01*
X434400Y521675D01*
X434527Y521637D01*
X434655Y521602D01*
X434784Y521571D01*
X434913Y521544D01*
X435044Y521521D01*
X435175Y521501D01*
X435307Y521486D01*
X435439Y521474D01*
X435571Y521466D01*
X435704Y521462D01*
X435836Y521462D01*
X435969Y521466D01*
X436101Y521474D01*
X436233Y521486D01*
X436365Y521501D01*
X436496Y521521D01*
X436627Y521544D01*
X436756Y521571D01*
X436885Y521602D01*
X437013Y521637D01*
X437140Y521675D01*
X437266Y521717D01*
X437390Y521763D01*
X437513Y521812D01*
X437635Y521865D01*
X437755Y521922D01*
X437873Y521982D01*
X437990Y522045D01*
X438104Y522112D01*
X438217Y522182D01*
X438327Y522256D01*
X438435Y522332D01*
X438541Y522412D01*
X438645Y522495D01*
X438746Y522581D01*
X438844Y522670D01*
X438940Y522761D01*
X439033Y522856D01*
X439123Y522953D01*
X439210Y523053D01*
X439295Y523155D01*
X439376Y523260D01*
X439454Y523367D01*
X439530Y523476D01*
X439601Y523587D01*
X439670Y523701D01*
X439735Y523816D01*
X439797Y523934D01*
X439855Y524053D01*
X439910Y524174D01*
X439961Y524296D01*
X440009Y524420D01*
X440053Y524545D01*
X440093Y524671D01*
X440129Y524799D01*
X440162Y524927D01*
X440191Y525056D01*
X440216Y525187D01*
X440237Y525317D01*
X440255Y525449D01*
X440268Y525581D01*
X440278Y525713D01*
X440284Y525845D01*
X440286Y525978D01*
X412745Y521462D02*
X409133Y521462D01*
X412745Y521462D02*
X412863Y521464D01*
X412981Y521470D01*
X413099Y521479D01*
X413216Y521493D01*
X413333Y521510D01*
X413450Y521531D01*
X413565Y521556D01*
X413680Y521585D01*
X413794Y521618D01*
X413906Y521654D01*
X414017Y521694D01*
X414127Y521737D01*
X414236Y521784D01*
X414343Y521834D01*
X414448Y521889D01*
X414551Y521946D01*
X414652Y522007D01*
X414752Y522071D01*
X414849Y522138D01*
X414944Y522208D01*
X415036Y522282D01*
X415127Y522358D01*
X415214Y522438D01*
X415299Y522520D01*
X415381Y522605D01*
X415461Y522692D01*
X415537Y522783D01*
X415611Y522875D01*
X415681Y522970D01*
X415748Y523067D01*
X415812Y523167D01*
X415873Y523268D01*
X415930Y523371D01*
X415985Y523476D01*
X416035Y523583D01*
X416082Y523692D01*
X416125Y523802D01*
X416165Y523913D01*
X416201Y524025D01*
X416234Y524139D01*
X416263Y524254D01*
X416288Y524369D01*
X416309Y524486D01*
X416326Y524603D01*
X416340Y524720D01*
X416349Y524838D01*
X416355Y524956D01*
X416357Y525074D01*
X416357Y534106D01*
X416355Y534224D01*
X416349Y534342D01*
X416340Y534460D01*
X416326Y534577D01*
X416309Y534694D01*
X416288Y534811D01*
X416263Y534926D01*
X416234Y535041D01*
X416201Y535155D01*
X416165Y535267D01*
X416125Y535378D01*
X416082Y535488D01*
X416035Y535597D01*
X415985Y535704D01*
X415930Y535809D01*
X415873Y535912D01*
X415812Y536013D01*
X415748Y536113D01*
X415681Y536210D01*
X415611Y536305D01*
X415537Y536397D01*
X415461Y536488D01*
X415381Y536575D01*
X415299Y536660D01*
X415214Y536742D01*
X415127Y536822D01*
X415036Y536898D01*
X414944Y536972D01*
X414849Y537042D01*
X414752Y537109D01*
X414652Y537173D01*
X414551Y537234D01*
X414448Y537291D01*
X414343Y537346D01*
X414236Y537396D01*
X414127Y537443D01*
X414017Y537486D01*
X413906Y537526D01*
X413794Y537562D01*
X413680Y537595D01*
X413565Y537624D01*
X413450Y537649D01*
X413333Y537670D01*
X413216Y537687D01*
X413099Y537701D01*
X412981Y537710D01*
X412863Y537716D01*
X412745Y537718D01*
X409133Y537718D01*
X398776Y537718D02*
X404195Y521462D01*
X393358Y521462D02*
X398776Y537718D01*
X394712Y525526D02*
X402840Y525526D01*
X384187Y521462D02*
X384187Y537718D01*
X379672Y537718D02*
X388703Y537718D01*
X369216Y521462D02*
X369098Y521464D01*
X368980Y521470D01*
X368862Y521479D01*
X368745Y521493D01*
X368628Y521510D01*
X368511Y521531D01*
X368396Y521556D01*
X368281Y521585D01*
X368167Y521618D01*
X368055Y521654D01*
X367944Y521694D01*
X367834Y521737D01*
X367725Y521784D01*
X367618Y521834D01*
X367513Y521889D01*
X367410Y521946D01*
X367309Y522007D01*
X367209Y522071D01*
X367112Y522138D01*
X367017Y522208D01*
X366925Y522282D01*
X366834Y522358D01*
X366747Y522438D01*
X366662Y522520D01*
X366580Y522605D01*
X366500Y522692D01*
X366424Y522783D01*
X366350Y522875D01*
X366280Y522970D01*
X366213Y523067D01*
X366149Y523167D01*
X366088Y523268D01*
X366031Y523371D01*
X365976Y523476D01*
X365926Y523583D01*
X365879Y523692D01*
X365836Y523802D01*
X365796Y523913D01*
X365760Y524025D01*
X365727Y524139D01*
X365698Y524254D01*
X365673Y524369D01*
X365652Y524486D01*
X365635Y524603D01*
X365621Y524720D01*
X365612Y524838D01*
X365606Y524956D01*
X365604Y525074D01*
X369216Y521462D02*
X369399Y521464D01*
X369581Y521471D01*
X369763Y521482D01*
X369945Y521497D01*
X370127Y521517D01*
X370308Y521541D01*
X370488Y521569D01*
X370668Y521601D01*
X370847Y521638D01*
X371024Y521679D01*
X371201Y521725D01*
X371377Y521774D01*
X371552Y521828D01*
X371725Y521886D01*
X371896Y521948D01*
X372067Y522014D01*
X372235Y522085D01*
X372402Y522159D01*
X372567Y522237D01*
X372730Y522319D01*
X372891Y522405D01*
X373050Y522495D01*
X373207Y522589D01*
X373361Y522686D01*
X373513Y522787D01*
X373663Y522892D01*
X373810Y523000D01*
X373954Y523111D01*
X374096Y523226D01*
X374235Y523345D01*
X374371Y523467D01*
X374504Y523592D01*
X374634Y523720D01*
X374183Y534106D02*
X374181Y534224D01*
X374175Y534342D01*
X374166Y534460D01*
X374152Y534577D01*
X374135Y534694D01*
X374114Y534811D01*
X374089Y534926D01*
X374060Y535041D01*
X374027Y535155D01*
X373991Y535267D01*
X373951Y535378D01*
X373908Y535488D01*
X373861Y535597D01*
X373811Y535704D01*
X373756Y535809D01*
X373699Y535912D01*
X373638Y536013D01*
X373574Y536113D01*
X373507Y536210D01*
X373437Y536305D01*
X373363Y536397D01*
X373287Y536488D01*
X373207Y536575D01*
X373125Y536660D01*
X373040Y536742D01*
X372953Y536822D01*
X372862Y536898D01*
X372770Y536972D01*
X372675Y537042D01*
X372578Y537109D01*
X372478Y537173D01*
X372377Y537234D01*
X372274Y537291D01*
X372169Y537346D01*
X372062Y537396D01*
X371953Y537443D01*
X371843Y537486D01*
X371732Y537526D01*
X371620Y537562D01*
X371506Y537595D01*
X371391Y537624D01*
X371276Y537649D01*
X371159Y537670D01*
X371042Y537687D01*
X370925Y537701D01*
X370807Y537710D01*
X370689Y537716D01*
X370571Y537718D01*
X370410Y537716D01*
X370248Y537710D01*
X370087Y537701D01*
X369926Y537687D01*
X369766Y537670D01*
X369606Y537649D01*
X369446Y537624D01*
X369287Y537595D01*
X369129Y537563D01*
X368972Y537527D01*
X368816Y537487D01*
X368660Y537443D01*
X368506Y537395D01*
X368353Y537344D01*
X368201Y537290D01*
X368050Y537231D01*
X367901Y537170D01*
X367754Y537104D01*
X367608Y537035D01*
X367463Y536963D01*
X367321Y536887D01*
X367180Y536808D01*
X367041Y536726D01*
X366905Y536640D01*
X366770Y536551D01*
X366637Y536459D01*
X366507Y536363D01*
X372377Y530945D02*
X372478Y531007D01*
X372578Y531072D01*
X372675Y531141D01*
X372770Y531213D01*
X372863Y531287D01*
X372953Y531365D01*
X373041Y531446D01*
X373126Y531529D01*
X373208Y531615D01*
X373287Y531704D01*
X373364Y531795D01*
X373437Y531889D01*
X373508Y531985D01*
X373575Y532083D01*
X373639Y532183D01*
X373700Y532286D01*
X373757Y532390D01*
X373811Y532496D01*
X373861Y532604D01*
X373908Y532713D01*
X373952Y532824D01*
X373992Y532936D01*
X374028Y533050D01*
X374060Y533164D01*
X374089Y533280D01*
X374114Y533396D01*
X374135Y533513D01*
X374152Y533631D01*
X374166Y533749D01*
X374175Y533868D01*
X374181Y533987D01*
X374183Y534106D01*
X367409Y528235D02*
X367308Y528173D01*
X367208Y528108D01*
X367111Y528039D01*
X367016Y527967D01*
X366923Y527893D01*
X366833Y527815D01*
X366745Y527734D01*
X366660Y527651D01*
X366578Y527565D01*
X366499Y527476D01*
X366422Y527385D01*
X366349Y527291D01*
X366278Y527195D01*
X366211Y527097D01*
X366147Y526997D01*
X366086Y526894D01*
X366029Y526790D01*
X365975Y526684D01*
X365925Y526576D01*
X365878Y526467D01*
X365834Y526356D01*
X365794Y526244D01*
X365758Y526130D01*
X365726Y526016D01*
X365697Y525900D01*
X365672Y525784D01*
X365651Y525667D01*
X365634Y525549D01*
X365620Y525431D01*
X365611Y525312D01*
X365605Y525193D01*
X365603Y525074D01*
X367410Y528235D02*
X372377Y530945D01*
D11*
X215900Y254000D03*
X241300Y254000D03*
X266700Y254000D03*
X292100Y254000D03*
X317500Y254000D03*
X342900Y254000D03*
X368300Y254000D03*
X393700Y254000D03*
X419100Y254000D03*
X444500Y254000D03*
X469900Y254000D03*
X190500Y254000D03*
X469900Y50800D03*
X444500Y50800D03*
X419100Y50800D03*
X393700Y50800D03*
X368300Y50800D03*
X342900Y50800D03*
X317500Y50800D03*
X292100Y50800D03*
X266700Y50800D03*
X241300Y50800D03*
X215900Y50800D03*
X190500Y50800D03*
X165100Y50800D03*
X139700Y50800D03*
X114300Y50800D03*
X88900Y50800D03*
D12*
X50800Y241300D03*
X50800Y63500D03*
D11*
X76200Y444500D03*
X101600Y444500D03*
X127000Y444500D03*
X152400Y444500D03*
X177800Y444500D03*
X203200Y444500D03*
X228600Y444500D03*
D13*
X88900Y584200D03*
X215900Y584200D03*
D10*
X431292Y254508D02*
X443484Y254508D01*
X431292Y254508D02*
X251460Y434340D01*
X161544Y434340D01*
X152400Y443484D01*
X443484Y254508D02*
X444500Y254000D01*
X152400Y443484D02*
X152400Y444500D01*
M02*
