G04 EAGLE Gerber RS-274X export*
G75*
%MOMM*%
%FSLAX34Y34*%
%LPD*%
%INTop Copper*%
%IPPOS*%
%AMOC8*
5,1,8,0,0,1.08239X$1,22.5*%
G01*
%ADD10C,0.152400*%
%ADD11C,1.308000*%
%ADD12C,3.556000*%
%ADD13C,3.048000*%


D10*
X335478Y521462D02*
X335478Y537718D01*
X339993Y537718D02*
X330962Y537718D01*
X346102Y521462D02*
X353327Y521462D01*
X346102Y521462D02*
X346102Y537718D01*
X353327Y537718D01*
X351521Y530493D02*
X346102Y530493D01*
X363996Y521462D02*
X364114Y521464D01*
X364232Y521470D01*
X364350Y521479D01*
X364467Y521493D01*
X364584Y521510D01*
X364701Y521531D01*
X364816Y521556D01*
X364931Y521585D01*
X365045Y521618D01*
X365157Y521654D01*
X365268Y521694D01*
X365378Y521737D01*
X365487Y521784D01*
X365594Y521834D01*
X365699Y521889D01*
X365802Y521946D01*
X365903Y522007D01*
X366003Y522071D01*
X366100Y522138D01*
X366195Y522208D01*
X366287Y522282D01*
X366378Y522358D01*
X366465Y522438D01*
X366550Y522520D01*
X366632Y522605D01*
X366712Y522692D01*
X366788Y522783D01*
X366862Y522875D01*
X366932Y522970D01*
X366999Y523067D01*
X367063Y523167D01*
X367124Y523268D01*
X367181Y523371D01*
X367236Y523476D01*
X367286Y523583D01*
X367333Y523692D01*
X367376Y523802D01*
X367416Y523913D01*
X367452Y524025D01*
X367485Y524139D01*
X367514Y524254D01*
X367539Y524369D01*
X367560Y524486D01*
X367577Y524603D01*
X367591Y524720D01*
X367600Y524838D01*
X367606Y524956D01*
X367608Y525074D01*
X363996Y521462D02*
X363813Y521464D01*
X363631Y521471D01*
X363449Y521482D01*
X363267Y521497D01*
X363085Y521517D01*
X362904Y521540D01*
X362724Y521569D01*
X362544Y521601D01*
X362365Y521638D01*
X362188Y521679D01*
X362011Y521725D01*
X361835Y521774D01*
X361661Y521828D01*
X361487Y521886D01*
X361316Y521948D01*
X361146Y522014D01*
X360977Y522085D01*
X360810Y522159D01*
X360645Y522237D01*
X360482Y522319D01*
X360321Y522405D01*
X360162Y522495D01*
X360005Y522589D01*
X359851Y522686D01*
X359699Y522787D01*
X359549Y522892D01*
X359402Y523000D01*
X359258Y523111D01*
X359116Y523226D01*
X358977Y523345D01*
X358841Y523467D01*
X358708Y523592D01*
X358578Y523720D01*
X359029Y534106D02*
X359031Y534224D01*
X359037Y534342D01*
X359046Y534460D01*
X359060Y534577D01*
X359077Y534694D01*
X359098Y534811D01*
X359123Y534926D01*
X359152Y535041D01*
X359185Y535155D01*
X359221Y535267D01*
X359261Y535378D01*
X359304Y535488D01*
X359351Y535597D01*
X359401Y535704D01*
X359456Y535809D01*
X359513Y535912D01*
X359574Y536013D01*
X359638Y536113D01*
X359705Y536210D01*
X359775Y536305D01*
X359849Y536397D01*
X359925Y536488D01*
X360005Y536575D01*
X360087Y536660D01*
X360172Y536742D01*
X360259Y536822D01*
X360350Y536898D01*
X360442Y536972D01*
X360537Y537042D01*
X360634Y537109D01*
X360734Y537173D01*
X360835Y537234D01*
X360938Y537292D01*
X361043Y537346D01*
X361150Y537396D01*
X361259Y537443D01*
X361369Y537487D01*
X361480Y537526D01*
X361593Y537562D01*
X361706Y537595D01*
X361821Y537624D01*
X361936Y537649D01*
X362053Y537670D01*
X362170Y537687D01*
X362287Y537701D01*
X362405Y537710D01*
X362523Y537716D01*
X362641Y537718D01*
X362802Y537716D01*
X362964Y537710D01*
X363125Y537701D01*
X363286Y537687D01*
X363446Y537670D01*
X363606Y537649D01*
X363766Y537624D01*
X363925Y537595D01*
X364083Y537563D01*
X364240Y537527D01*
X364396Y537487D01*
X364552Y537443D01*
X364706Y537395D01*
X364859Y537344D01*
X365011Y537290D01*
X365162Y537231D01*
X365311Y537170D01*
X365458Y537104D01*
X365604Y537035D01*
X365749Y536963D01*
X365891Y536887D01*
X366032Y536808D01*
X366171Y536726D01*
X366307Y536640D01*
X366442Y536551D01*
X366575Y536459D01*
X366705Y536363D01*
X360835Y530945D02*
X360734Y531007D01*
X360634Y531072D01*
X360537Y531141D01*
X360442Y531213D01*
X360349Y531287D01*
X360259Y531365D01*
X360171Y531446D01*
X360086Y531529D01*
X360004Y531615D01*
X359925Y531704D01*
X359848Y531795D01*
X359775Y531889D01*
X359704Y531985D01*
X359637Y532083D01*
X359573Y532183D01*
X359512Y532286D01*
X359455Y532390D01*
X359401Y532496D01*
X359351Y532604D01*
X359304Y532713D01*
X359260Y532824D01*
X359220Y532936D01*
X359184Y533050D01*
X359152Y533164D01*
X359123Y533280D01*
X359098Y533396D01*
X359077Y533513D01*
X359060Y533631D01*
X359046Y533749D01*
X359037Y533868D01*
X359031Y533987D01*
X359029Y534106D01*
X365802Y528235D02*
X365903Y528173D01*
X366003Y528108D01*
X366100Y528039D01*
X366195Y527967D01*
X366288Y527893D01*
X366378Y527815D01*
X366466Y527734D01*
X366551Y527651D01*
X366633Y527565D01*
X366712Y527476D01*
X366789Y527385D01*
X366862Y527291D01*
X366933Y527195D01*
X367000Y527097D01*
X367064Y526997D01*
X367125Y526894D01*
X367182Y526790D01*
X367236Y526684D01*
X367286Y526576D01*
X367333Y526467D01*
X367377Y526356D01*
X367417Y526244D01*
X367453Y526130D01*
X367485Y526016D01*
X367514Y525900D01*
X367539Y525784D01*
X367560Y525667D01*
X367577Y525549D01*
X367591Y525431D01*
X367600Y525312D01*
X367606Y525193D01*
X367608Y525074D01*
X365802Y528235D02*
X360835Y530945D01*
X377161Y537718D02*
X377161Y521462D01*
X372645Y537718D02*
X381676Y537718D01*
X388624Y537718D02*
X388624Y521462D01*
X386818Y521462D02*
X390430Y521462D01*
X390430Y537718D02*
X386818Y537718D01*
X397134Y537718D02*
X397134Y521462D01*
X406165Y521462D02*
X397134Y537718D01*
X406165Y537718D02*
X406165Y521462D01*
X420129Y530493D02*
X422839Y530493D01*
X422839Y521462D01*
X417420Y521462D01*
X417302Y521464D01*
X417184Y521470D01*
X417066Y521479D01*
X416949Y521493D01*
X416832Y521510D01*
X416715Y521531D01*
X416600Y521556D01*
X416485Y521585D01*
X416371Y521618D01*
X416259Y521654D01*
X416148Y521694D01*
X416038Y521737D01*
X415929Y521784D01*
X415822Y521834D01*
X415717Y521889D01*
X415614Y521946D01*
X415513Y522007D01*
X415413Y522071D01*
X415316Y522138D01*
X415221Y522208D01*
X415129Y522282D01*
X415038Y522358D01*
X414951Y522438D01*
X414866Y522520D01*
X414784Y522605D01*
X414704Y522692D01*
X414628Y522783D01*
X414554Y522875D01*
X414484Y522970D01*
X414417Y523067D01*
X414353Y523167D01*
X414292Y523268D01*
X414235Y523371D01*
X414180Y523476D01*
X414130Y523583D01*
X414083Y523692D01*
X414040Y523802D01*
X414000Y523913D01*
X413964Y524025D01*
X413931Y524139D01*
X413902Y524254D01*
X413877Y524369D01*
X413856Y524486D01*
X413839Y524603D01*
X413825Y524720D01*
X413816Y524838D01*
X413810Y524956D01*
X413808Y525074D01*
X413808Y534106D01*
X413810Y534224D01*
X413816Y534342D01*
X413825Y534460D01*
X413839Y534577D01*
X413856Y534694D01*
X413877Y534811D01*
X413902Y534926D01*
X413931Y535041D01*
X413964Y535155D01*
X414000Y535267D01*
X414040Y535378D01*
X414083Y535488D01*
X414130Y535597D01*
X414180Y535704D01*
X414234Y535809D01*
X414292Y535912D01*
X414353Y536013D01*
X414417Y536113D01*
X414484Y536210D01*
X414554Y536305D01*
X414628Y536397D01*
X414704Y536488D01*
X414784Y536575D01*
X414866Y536660D01*
X414951Y536742D01*
X415038Y536822D01*
X415129Y536898D01*
X415221Y536972D01*
X415316Y537042D01*
X415413Y537109D01*
X415513Y537173D01*
X415614Y537234D01*
X415717Y537291D01*
X415822Y537345D01*
X415929Y537396D01*
X416038Y537443D01*
X416148Y537486D01*
X416259Y537526D01*
X416371Y537562D01*
X416485Y537595D01*
X416600Y537624D01*
X416715Y537649D01*
X416832Y537670D01*
X416949Y537687D01*
X417066Y537701D01*
X417184Y537710D01*
X417302Y537716D01*
X417420Y537718D01*
X422839Y537718D01*
X438296Y534106D02*
X442812Y537718D01*
X442812Y521462D01*
X438296Y521462D02*
X447328Y521462D01*
X462959Y533654D02*
X462957Y533779D01*
X462951Y533904D01*
X462942Y534029D01*
X462928Y534153D01*
X462911Y534277D01*
X462890Y534401D01*
X462865Y534523D01*
X462836Y534645D01*
X462804Y534766D01*
X462768Y534886D01*
X462728Y535005D01*
X462685Y535122D01*
X462638Y535238D01*
X462587Y535353D01*
X462533Y535465D01*
X462475Y535577D01*
X462415Y535686D01*
X462350Y535793D01*
X462283Y535899D01*
X462212Y536002D01*
X462138Y536103D01*
X462061Y536202D01*
X461981Y536298D01*
X461898Y536392D01*
X461813Y536483D01*
X461724Y536572D01*
X461633Y536657D01*
X461539Y536740D01*
X461443Y536820D01*
X461344Y536897D01*
X461243Y536971D01*
X461140Y537042D01*
X461034Y537109D01*
X460927Y537174D01*
X460818Y537234D01*
X460706Y537292D01*
X460594Y537346D01*
X460479Y537397D01*
X460363Y537444D01*
X460246Y537487D01*
X460127Y537527D01*
X460007Y537563D01*
X459886Y537595D01*
X459764Y537624D01*
X459642Y537649D01*
X459518Y537670D01*
X459394Y537687D01*
X459270Y537701D01*
X459145Y537710D01*
X459020Y537716D01*
X458895Y537718D01*
X458752Y537716D01*
X458610Y537710D01*
X458467Y537700D01*
X458325Y537687D01*
X458184Y537669D01*
X458042Y537648D01*
X457902Y537623D01*
X457762Y537594D01*
X457623Y537561D01*
X457485Y537524D01*
X457348Y537484D01*
X457213Y537440D01*
X457078Y537392D01*
X456945Y537340D01*
X456813Y537285D01*
X456683Y537226D01*
X456555Y537164D01*
X456428Y537098D01*
X456303Y537029D01*
X456180Y536957D01*
X456060Y536881D01*
X455941Y536802D01*
X455824Y536719D01*
X455710Y536634D01*
X455598Y536545D01*
X455489Y536454D01*
X455382Y536359D01*
X455277Y536262D01*
X455176Y536161D01*
X455077Y536058D01*
X454981Y535953D01*
X454888Y535844D01*
X454798Y535733D01*
X454711Y535620D01*
X454627Y535505D01*
X454547Y535387D01*
X454469Y535267D01*
X454395Y535145D01*
X454325Y535021D01*
X454257Y534895D01*
X454194Y534767D01*
X454133Y534638D01*
X454076Y534507D01*
X454023Y534375D01*
X453974Y534241D01*
X453928Y534106D01*
X461604Y530493D02*
X461698Y530585D01*
X461788Y530679D01*
X461876Y530776D01*
X461961Y530876D01*
X462043Y530978D01*
X462122Y531083D01*
X462197Y531190D01*
X462269Y531299D01*
X462338Y531410D01*
X462404Y531524D01*
X462466Y531639D01*
X462525Y531756D01*
X462580Y531875D01*
X462631Y531995D01*
X462679Y532117D01*
X462724Y532240D01*
X462764Y532364D01*
X462801Y532490D01*
X462834Y532617D01*
X462863Y532744D01*
X462889Y532873D01*
X462910Y533002D01*
X462928Y533132D01*
X462941Y533262D01*
X462951Y533392D01*
X462957Y533523D01*
X462959Y533654D01*
X461604Y530493D02*
X453928Y521462D01*
X462959Y521462D01*
X469559Y521462D02*
X474074Y521462D01*
X474207Y521464D01*
X474339Y521470D01*
X474471Y521480D01*
X474603Y521493D01*
X474735Y521511D01*
X474865Y521532D01*
X474996Y521557D01*
X475125Y521586D01*
X475253Y521619D01*
X475381Y521655D01*
X475507Y521695D01*
X475632Y521739D01*
X475756Y521787D01*
X475878Y521838D01*
X475999Y521893D01*
X476118Y521951D01*
X476236Y522013D01*
X476351Y522078D01*
X476465Y522147D01*
X476576Y522218D01*
X476685Y522294D01*
X476792Y522372D01*
X476897Y522453D01*
X476999Y522538D01*
X477099Y522625D01*
X477196Y522715D01*
X477291Y522808D01*
X477382Y522904D01*
X477471Y523002D01*
X477557Y523103D01*
X477640Y523207D01*
X477720Y523313D01*
X477796Y523421D01*
X477870Y523531D01*
X477940Y523644D01*
X478007Y523758D01*
X478070Y523875D01*
X478130Y523993D01*
X478187Y524113D01*
X478240Y524235D01*
X478289Y524358D01*
X478335Y524482D01*
X478377Y524608D01*
X478415Y524735D01*
X478450Y524863D01*
X478481Y524992D01*
X478508Y525121D01*
X478531Y525252D01*
X478551Y525383D01*
X478566Y525515D01*
X478578Y525647D01*
X478586Y525779D01*
X478590Y525912D01*
X478590Y526044D01*
X478586Y526177D01*
X478578Y526309D01*
X478566Y526441D01*
X478551Y526573D01*
X478531Y526704D01*
X478508Y526835D01*
X478481Y526964D01*
X478450Y527093D01*
X478415Y527221D01*
X478377Y527348D01*
X478335Y527474D01*
X478289Y527598D01*
X478240Y527721D01*
X478187Y527843D01*
X478130Y527963D01*
X478070Y528081D01*
X478007Y528198D01*
X477940Y528312D01*
X477870Y528425D01*
X477796Y528535D01*
X477720Y528643D01*
X477640Y528749D01*
X477557Y528853D01*
X477471Y528954D01*
X477382Y529052D01*
X477291Y529148D01*
X477196Y529241D01*
X477099Y529331D01*
X476999Y529418D01*
X476897Y529503D01*
X476792Y529584D01*
X476685Y529662D01*
X476576Y529738D01*
X476465Y529809D01*
X476351Y529878D01*
X476236Y529943D01*
X476118Y530005D01*
X475999Y530063D01*
X475878Y530118D01*
X475756Y530169D01*
X475632Y530217D01*
X475507Y530261D01*
X475381Y530301D01*
X475253Y530337D01*
X475125Y530370D01*
X474996Y530399D01*
X474865Y530424D01*
X474735Y530445D01*
X474603Y530463D01*
X474471Y530476D01*
X474339Y530486D01*
X474207Y530492D01*
X474074Y530494D01*
X474978Y537718D02*
X469559Y537718D01*
X474978Y537718D02*
X475097Y537716D01*
X475217Y537710D01*
X475336Y537700D01*
X475454Y537686D01*
X475573Y537669D01*
X475690Y537647D01*
X475807Y537622D01*
X475922Y537592D01*
X476037Y537559D01*
X476151Y537522D01*
X476263Y537482D01*
X476374Y537437D01*
X476483Y537389D01*
X476591Y537338D01*
X476697Y537283D01*
X476801Y537224D01*
X476903Y537162D01*
X477003Y537097D01*
X477101Y537028D01*
X477197Y536956D01*
X477290Y536881D01*
X477380Y536804D01*
X477468Y536723D01*
X477553Y536639D01*
X477635Y536552D01*
X477715Y536463D01*
X477791Y536371D01*
X477865Y536277D01*
X477935Y536180D01*
X478002Y536082D01*
X478066Y535981D01*
X478126Y535877D01*
X478183Y535772D01*
X478236Y535665D01*
X478286Y535557D01*
X478332Y535447D01*
X478374Y535335D01*
X478413Y535222D01*
X478448Y535108D01*
X478479Y534993D01*
X478507Y534876D01*
X478530Y534759D01*
X478550Y534642D01*
X478566Y534523D01*
X478578Y534404D01*
X478586Y534285D01*
X478590Y534166D01*
X478590Y534046D01*
X478586Y533927D01*
X478578Y533808D01*
X478566Y533689D01*
X478550Y533570D01*
X478530Y533453D01*
X478507Y533336D01*
X478479Y533219D01*
X478448Y533104D01*
X478413Y532990D01*
X478374Y532877D01*
X478332Y532765D01*
X478286Y532655D01*
X478236Y532547D01*
X478183Y532440D01*
X478126Y532335D01*
X478066Y532231D01*
X478002Y532130D01*
X477935Y532032D01*
X477865Y531935D01*
X477791Y531841D01*
X477715Y531749D01*
X477635Y531660D01*
X477553Y531573D01*
X477468Y531489D01*
X477380Y531408D01*
X477290Y531331D01*
X477197Y531256D01*
X477101Y531184D01*
X477003Y531115D01*
X476903Y531050D01*
X476801Y530988D01*
X476697Y530929D01*
X476591Y530874D01*
X476483Y530823D01*
X476374Y530775D01*
X476263Y530730D01*
X476151Y530690D01*
X476037Y530653D01*
X475922Y530620D01*
X475807Y530590D01*
X475690Y530565D01*
X475573Y530543D01*
X475454Y530526D01*
X475336Y530512D01*
X475217Y530502D01*
X475097Y530496D01*
X474978Y530494D01*
X474978Y530493D02*
X471365Y530493D01*
D11*
X215900Y254000D03*
X241300Y254000D03*
X266700Y254000D03*
X292100Y254000D03*
X317500Y254000D03*
X342900Y254000D03*
X368300Y254000D03*
X393700Y254000D03*
X419100Y254000D03*
X444500Y254000D03*
X469900Y254000D03*
X190500Y254000D03*
X469900Y50800D03*
X444500Y50800D03*
X419100Y50800D03*
X393700Y50800D03*
X368300Y50800D03*
X342900Y50800D03*
X317500Y50800D03*
X292100Y50800D03*
X266700Y50800D03*
X241300Y50800D03*
X215900Y50800D03*
X190500Y50800D03*
X165100Y50800D03*
X139700Y50800D03*
X114300Y50800D03*
X88900Y50800D03*
D12*
X50800Y241300D03*
X50800Y63500D03*
D11*
X76200Y444500D03*
X101600Y444500D03*
X127000Y444500D03*
X152400Y444500D03*
X177800Y444500D03*
X203200Y444500D03*
X228600Y444500D03*
D13*
X88900Y584200D03*
X215900Y584200D03*
D10*
X76200Y444500D02*
X76200Y89916D01*
X114300Y51816D01*
X114300Y50800D01*
X128016Y88392D02*
X128016Y443484D01*
X128016Y88392D02*
X164592Y51816D01*
X128016Y443484D02*
X127000Y444500D01*
X164592Y51816D02*
X165100Y50800D01*
X457200Y254508D02*
X469392Y254508D01*
X457200Y254508D02*
X277368Y434340D01*
X187452Y434340D01*
X178308Y443484D01*
X469392Y254508D02*
X469900Y254000D01*
X178308Y443484D02*
X177800Y444500D01*
M02*
