G04 EAGLE Gerber RS-274X export*
G75*
%MOMM*%
%FSLAX34Y34*%
%LPD*%
%IN*%
%IPPOS*%
%AMOC8*
5,1,8,0,0,1.08239X$1,22.5*%
G01*
%ADD10C,0.254000*%


D10*
X0Y0D02*
X558600Y0D01*
X558600Y657100D01*
X0Y657100D01*
X0Y0D01*
X520700Y240801D02*
X520622Y239806D01*
X520466Y238820D01*
X520233Y237850D01*
X519924Y236901D01*
X519542Y235979D01*
X519089Y235090D01*
X518568Y234239D01*
X517981Y233431D01*
X517333Y232673D01*
X516627Y231967D01*
X515869Y231319D01*
X515061Y230732D01*
X514210Y230211D01*
X513321Y229758D01*
X512399Y229376D01*
X511450Y229067D01*
X510480Y228834D01*
X509494Y228678D01*
X508499Y228600D01*
X507501Y228600D01*
X506506Y228678D01*
X505520Y228834D01*
X504550Y229067D01*
X503601Y229376D01*
X502679Y229758D01*
X501790Y230211D01*
X500939Y230732D01*
X500131Y231319D01*
X499373Y231967D01*
X498667Y232673D01*
X498019Y233431D01*
X497432Y234239D01*
X496911Y235090D01*
X496458Y235979D01*
X496076Y236901D01*
X495767Y237850D01*
X495534Y238820D01*
X495378Y239806D01*
X495300Y240801D01*
X495300Y241799D01*
X495378Y242794D01*
X495534Y243780D01*
X495767Y244750D01*
X496076Y245699D01*
X496458Y246621D01*
X496911Y247510D01*
X497432Y248361D01*
X498019Y249169D01*
X498667Y249927D01*
X499373Y250633D01*
X500131Y251281D01*
X500939Y251868D01*
X501790Y252389D01*
X502679Y252842D01*
X503601Y253224D01*
X504550Y253533D01*
X505520Y253766D01*
X506506Y253922D01*
X507501Y254000D01*
X508499Y254000D01*
X509494Y253922D01*
X510480Y253766D01*
X511450Y253533D01*
X512399Y253224D01*
X513321Y252842D01*
X514210Y252389D01*
X515061Y251868D01*
X515869Y251281D01*
X516627Y250633D01*
X517333Y249927D01*
X517981Y249169D01*
X518568Y248361D01*
X519089Y247510D01*
X519542Y246621D01*
X519924Y245699D01*
X520233Y244750D01*
X520466Y243780D01*
X520622Y242794D01*
X520700Y241799D01*
X520700Y240801D01*
X520700Y63001D02*
X520622Y62006D01*
X520466Y61020D01*
X520233Y60050D01*
X519924Y59101D01*
X519542Y58179D01*
X519089Y57290D01*
X518568Y56439D01*
X517981Y55631D01*
X517333Y54873D01*
X516627Y54167D01*
X515869Y53519D01*
X515061Y52932D01*
X514210Y52411D01*
X513321Y51958D01*
X512399Y51576D01*
X511450Y51267D01*
X510480Y51034D01*
X509494Y50878D01*
X508499Y50800D01*
X507501Y50800D01*
X506506Y50878D01*
X505520Y51034D01*
X504550Y51267D01*
X503601Y51576D01*
X502679Y51958D01*
X501790Y52411D01*
X500939Y52932D01*
X500131Y53519D01*
X499373Y54167D01*
X498667Y54873D01*
X498019Y55631D01*
X497432Y56439D01*
X496911Y57290D01*
X496458Y58179D01*
X496076Y59101D01*
X495767Y60050D01*
X495534Y61020D01*
X495378Y62006D01*
X495300Y63001D01*
X495300Y63999D01*
X495378Y64994D01*
X495534Y65980D01*
X495767Y66950D01*
X496076Y67899D01*
X496458Y68821D01*
X496911Y69710D01*
X497432Y70561D01*
X498019Y71369D01*
X498667Y72127D01*
X499373Y72833D01*
X500131Y73481D01*
X500939Y74068D01*
X501790Y74589D01*
X502679Y75042D01*
X503601Y75424D01*
X504550Y75733D01*
X505520Y75966D01*
X506506Y76122D01*
X507501Y76200D01*
X508499Y76200D01*
X509494Y76122D01*
X510480Y75966D01*
X511450Y75733D01*
X512399Y75424D01*
X513321Y75042D01*
X514210Y74589D01*
X515061Y74068D01*
X515869Y73481D01*
X516627Y72833D01*
X517333Y72127D01*
X517981Y71369D01*
X518568Y70561D01*
X519089Y69710D01*
X519542Y68821D01*
X519924Y67899D01*
X520233Y66950D01*
X520466Y65980D01*
X520622Y64994D01*
X520700Y63999D01*
X520700Y63001D01*
M02*
