G04 EAGLE Gerber RS-274X export*
G75*
%MOMM*%
%FSLAX34Y34*%
%LPD*%
%INSilkscreen Top*%
%IPPOS*%
%AMOC8*
5,1,8,0,0,1.08239X$1,22.5*%
G01*
%ADD10C,0.127000*%
%ADD11C,0.130000*%
%ADD12C,0.101600*%
%ADD13C,0.406400*%


D10*
X50800Y266700D02*
X508000Y266700D01*
X508614Y266693D01*
X509227Y266670D01*
X509840Y266633D01*
X510451Y266581D01*
X511062Y266515D01*
X511670Y266433D01*
X512276Y266337D01*
X512880Y266227D01*
X513481Y266102D01*
X514079Y265962D01*
X514673Y265808D01*
X515263Y265639D01*
X515849Y265457D01*
X516430Y265260D01*
X517007Y265049D01*
X517578Y264825D01*
X518144Y264587D01*
X518704Y264335D01*
X519257Y264069D01*
X519804Y263791D01*
X520344Y263499D01*
X520877Y263194D01*
X521402Y262876D01*
X521920Y262546D01*
X522429Y262204D01*
X522930Y261849D01*
X523422Y261482D01*
X523905Y261104D01*
X524379Y260714D01*
X524843Y260312D01*
X525298Y259900D01*
X525742Y259476D01*
X526176Y259042D01*
X526600Y258598D01*
X527012Y258143D01*
X527414Y257679D01*
X527804Y257205D01*
X528182Y256722D01*
X528549Y256230D01*
X528904Y255729D01*
X529246Y255220D01*
X529576Y254702D01*
X529894Y254177D01*
X530199Y253644D01*
X530491Y253104D01*
X530769Y252557D01*
X531035Y252004D01*
X531287Y251444D01*
X531525Y250878D01*
X531749Y250307D01*
X531960Y249730D01*
X532157Y249149D01*
X532339Y248563D01*
X532508Y247973D01*
X532662Y247379D01*
X532802Y246781D01*
X532927Y246180D01*
X533037Y245576D01*
X533133Y244970D01*
X533215Y244362D01*
X533281Y243751D01*
X533333Y243140D01*
X533370Y242527D01*
X533393Y241914D01*
X533400Y241300D01*
X533400Y63500D01*
X533393Y62886D01*
X533370Y62273D01*
X533333Y61660D01*
X533281Y61049D01*
X533215Y60438D01*
X533133Y59830D01*
X533037Y59224D01*
X532927Y58620D01*
X532802Y58019D01*
X532662Y57421D01*
X532508Y56827D01*
X532339Y56237D01*
X532157Y55651D01*
X531960Y55070D01*
X531749Y54493D01*
X531525Y53922D01*
X531287Y53356D01*
X531035Y52796D01*
X530769Y52243D01*
X530491Y51696D01*
X530199Y51156D01*
X529894Y50623D01*
X529576Y50098D01*
X529246Y49580D01*
X528904Y49071D01*
X528549Y48570D01*
X528182Y48078D01*
X527804Y47595D01*
X527414Y47121D01*
X527012Y46657D01*
X526600Y46202D01*
X526176Y45758D01*
X525742Y45324D01*
X525298Y44900D01*
X524843Y44488D01*
X524379Y44086D01*
X523905Y43696D01*
X523422Y43318D01*
X522930Y42951D01*
X522429Y42596D01*
X521920Y42254D01*
X521402Y41924D01*
X520877Y41606D01*
X520344Y41301D01*
X519804Y41009D01*
X519257Y40731D01*
X518704Y40465D01*
X518144Y40213D01*
X517578Y39975D01*
X517007Y39751D01*
X516430Y39540D01*
X515849Y39343D01*
X515263Y39161D01*
X514673Y38992D01*
X514079Y38838D01*
X513481Y38698D01*
X512880Y38573D01*
X512276Y38463D01*
X511670Y38367D01*
X511062Y38285D01*
X510451Y38219D01*
X509840Y38167D01*
X509227Y38130D01*
X508614Y38107D01*
X508000Y38100D01*
X50800Y38100D01*
X50186Y38107D01*
X49573Y38130D01*
X48960Y38167D01*
X48349Y38219D01*
X47738Y38285D01*
X47130Y38367D01*
X46524Y38463D01*
X45920Y38573D01*
X45319Y38698D01*
X44721Y38838D01*
X44127Y38992D01*
X43537Y39161D01*
X42951Y39343D01*
X42370Y39540D01*
X41793Y39751D01*
X41222Y39975D01*
X40656Y40213D01*
X40096Y40465D01*
X39543Y40731D01*
X38996Y41009D01*
X38456Y41301D01*
X37923Y41606D01*
X37398Y41924D01*
X36880Y42254D01*
X36371Y42596D01*
X35870Y42951D01*
X35378Y43318D01*
X34895Y43696D01*
X34421Y44086D01*
X33957Y44488D01*
X33502Y44900D01*
X33058Y45324D01*
X32624Y45758D01*
X32200Y46202D01*
X31788Y46657D01*
X31386Y47121D01*
X30996Y47595D01*
X30618Y48078D01*
X30251Y48570D01*
X29896Y49071D01*
X29554Y49580D01*
X29224Y50098D01*
X28906Y50623D01*
X28601Y51156D01*
X28309Y51696D01*
X28031Y52243D01*
X27765Y52796D01*
X27513Y53356D01*
X27275Y53922D01*
X27051Y54493D01*
X26840Y55070D01*
X26643Y55651D01*
X26461Y56237D01*
X26292Y56827D01*
X26138Y57421D01*
X25998Y58019D01*
X25873Y58620D01*
X25763Y59224D01*
X25667Y59830D01*
X25585Y60438D01*
X25519Y61049D01*
X25467Y61660D01*
X25430Y62273D01*
X25407Y62886D01*
X25400Y63500D01*
X25400Y241300D01*
X25407Y241914D01*
X25430Y242527D01*
X25467Y243140D01*
X25519Y243751D01*
X25585Y244362D01*
X25667Y244970D01*
X25763Y245576D01*
X25873Y246180D01*
X25998Y246781D01*
X26138Y247379D01*
X26292Y247973D01*
X26461Y248563D01*
X26643Y249149D01*
X26840Y249730D01*
X27051Y250307D01*
X27275Y250878D01*
X27513Y251444D01*
X27765Y252004D01*
X28031Y252557D01*
X28309Y253104D01*
X28601Y253644D01*
X28906Y254177D01*
X29224Y254702D01*
X29554Y255220D01*
X29896Y255729D01*
X30251Y256230D01*
X30618Y256722D01*
X30996Y257205D01*
X31386Y257679D01*
X31788Y258143D01*
X32200Y258598D01*
X32624Y259042D01*
X33058Y259476D01*
X33502Y259900D01*
X33957Y260312D01*
X34421Y260714D01*
X34895Y261104D01*
X35378Y261482D01*
X35870Y261849D01*
X36371Y262204D01*
X36880Y262546D01*
X37398Y262876D01*
X37923Y263194D01*
X38456Y263499D01*
X38996Y263791D01*
X39543Y264069D01*
X40096Y264335D01*
X40656Y264587D01*
X41222Y264825D01*
X41793Y265049D01*
X42370Y265260D01*
X42951Y265457D01*
X43537Y265639D01*
X44127Y265808D01*
X44721Y265962D01*
X45319Y266102D01*
X45920Y266227D01*
X46524Y266337D01*
X47130Y266433D01*
X47738Y266515D01*
X48349Y266581D01*
X48960Y266633D01*
X49573Y266670D01*
X50186Y266693D01*
X50800Y266700D01*
D11*
X-95700Y266700D01*
X-95700Y38100D02*
X50800Y38100D01*
X-76200Y38750D02*
X-76200Y266050D01*
X-79392Y240700D01*
X-73008Y240700D01*
X-76200Y266050D01*
X-77500Y240700D01*
X-74900Y240700D02*
X-76200Y266050D01*
X-78800Y240700D01*
X-73600Y240700D02*
X-76200Y266050D01*
X-79392Y64100D02*
X-76200Y38750D01*
X-79392Y64100D02*
X-73008Y64100D01*
X-76200Y38750D01*
X-77500Y64100D01*
X-74900Y64100D02*
X-76200Y38750D01*
X-78800Y64100D01*
X-73600Y64100D02*
X-76200Y38750D01*
D12*
X-87025Y135191D02*
X-87255Y135194D01*
X-87485Y135202D01*
X-87714Y135216D01*
X-87943Y135235D01*
X-88172Y135260D01*
X-88399Y135290D01*
X-88627Y135325D01*
X-88853Y135366D01*
X-89078Y135412D01*
X-89302Y135464D01*
X-89524Y135521D01*
X-89746Y135583D01*
X-89965Y135651D01*
X-90183Y135724D01*
X-90400Y135802D01*
X-90614Y135885D01*
X-90826Y135973D01*
X-91036Y136066D01*
X-91244Y136165D01*
X-91244Y136164D02*
X-91334Y136197D01*
X-91423Y136233D01*
X-91511Y136273D01*
X-91596Y136317D01*
X-91680Y136364D01*
X-91762Y136414D01*
X-91842Y136468D01*
X-91919Y136524D01*
X-91995Y136584D01*
X-92068Y136647D01*
X-92138Y136712D01*
X-92206Y136781D01*
X-92270Y136852D01*
X-92332Y136925D01*
X-92391Y137001D01*
X-92447Y137079D01*
X-92500Y137160D01*
X-92549Y137242D01*
X-92595Y137326D01*
X-92638Y137413D01*
X-92677Y137500D01*
X-92713Y137590D01*
X-92745Y137680D01*
X-92773Y137772D01*
X-92798Y137865D01*
X-92819Y137959D01*
X-92836Y138053D01*
X-92850Y138148D01*
X-92859Y138244D01*
X-92865Y138340D01*
X-92867Y138436D01*
X-92865Y138532D01*
X-92859Y138628D01*
X-92850Y138724D01*
X-92836Y138819D01*
X-92819Y138913D01*
X-92798Y139007D01*
X-92773Y139100D01*
X-92745Y139192D01*
X-92713Y139282D01*
X-92677Y139372D01*
X-92638Y139459D01*
X-92595Y139546D01*
X-92549Y139630D01*
X-92500Y139712D01*
X-92447Y139793D01*
X-92391Y139871D01*
X-92332Y139947D01*
X-92270Y140020D01*
X-92206Y140091D01*
X-92138Y140160D01*
X-92068Y140225D01*
X-91995Y140288D01*
X-91919Y140348D01*
X-91842Y140404D01*
X-91762Y140458D01*
X-91680Y140508D01*
X-91596Y140555D01*
X-91511Y140599D01*
X-91423Y140639D01*
X-91334Y140675D01*
X-91244Y140708D01*
X-91037Y140807D01*
X-90827Y140900D01*
X-90614Y140988D01*
X-90400Y141071D01*
X-90184Y141149D01*
X-89966Y141222D01*
X-89746Y141290D01*
X-89525Y141352D01*
X-89302Y141409D01*
X-89078Y141461D01*
X-88853Y141507D01*
X-88627Y141548D01*
X-88400Y141583D01*
X-88172Y141613D01*
X-87943Y141638D01*
X-87714Y141657D01*
X-87485Y141671D01*
X-87255Y141679D01*
X-87025Y141682D01*
X-87025Y135190D02*
X-86795Y135193D01*
X-86565Y135201D01*
X-86336Y135215D01*
X-86107Y135234D01*
X-85878Y135259D01*
X-85650Y135289D01*
X-85423Y135324D01*
X-85197Y135365D01*
X-84972Y135411D01*
X-84748Y135463D01*
X-84525Y135520D01*
X-84304Y135582D01*
X-84084Y135650D01*
X-83866Y135723D01*
X-83650Y135801D01*
X-83436Y135884D01*
X-83224Y135972D01*
X-83013Y136065D01*
X-82806Y136164D01*
X-82716Y136197D01*
X-82627Y136233D01*
X-82539Y136274D01*
X-82454Y136317D01*
X-82370Y136364D01*
X-82288Y136414D01*
X-82208Y136468D01*
X-82131Y136524D01*
X-82055Y136584D01*
X-81982Y136647D01*
X-81912Y136712D01*
X-81844Y136781D01*
X-81780Y136852D01*
X-81718Y136925D01*
X-81659Y137001D01*
X-81603Y137079D01*
X-81550Y137160D01*
X-81501Y137242D01*
X-81455Y137326D01*
X-81412Y137413D01*
X-81373Y137500D01*
X-81337Y137590D01*
X-81305Y137680D01*
X-81277Y137772D01*
X-81252Y137865D01*
X-81231Y137959D01*
X-81214Y138053D01*
X-81200Y138148D01*
X-81191Y138244D01*
X-81185Y138340D01*
X-81183Y138436D01*
X-82806Y140708D02*
X-83013Y140807D01*
X-83224Y140900D01*
X-83436Y140988D01*
X-83650Y141071D01*
X-83866Y141149D01*
X-84084Y141222D01*
X-84304Y141290D01*
X-84525Y141352D01*
X-84748Y141409D01*
X-84972Y141461D01*
X-85197Y141507D01*
X-85423Y141548D01*
X-85650Y141583D01*
X-85878Y141613D01*
X-86107Y141638D01*
X-86336Y141657D01*
X-86565Y141671D01*
X-86795Y141679D01*
X-87025Y141682D01*
X-82806Y140708D02*
X-82716Y140675D01*
X-82627Y140639D01*
X-82539Y140599D01*
X-82454Y140555D01*
X-82370Y140508D01*
X-82288Y140458D01*
X-82208Y140404D01*
X-82131Y140348D01*
X-82055Y140288D01*
X-81982Y140225D01*
X-81912Y140160D01*
X-81844Y140091D01*
X-81780Y140020D01*
X-81718Y139947D01*
X-81659Y139871D01*
X-81603Y139793D01*
X-81550Y139712D01*
X-81501Y139630D01*
X-81455Y139546D01*
X-81412Y139459D01*
X-81373Y139372D01*
X-81337Y139282D01*
X-81305Y139192D01*
X-81277Y139100D01*
X-81252Y139007D01*
X-81231Y138913D01*
X-81214Y138819D01*
X-81200Y138724D01*
X-81191Y138628D01*
X-81185Y138532D01*
X-81183Y138436D01*
X-83779Y135839D02*
X-90271Y141032D01*
X-81832Y146112D02*
X-81183Y146112D01*
X-81832Y146112D02*
X-81832Y146761D01*
X-81183Y146761D01*
X-81183Y146112D01*
X-86376Y153789D02*
X-86376Y157683D01*
X-86376Y153789D02*
X-86378Y153690D01*
X-86384Y153590D01*
X-86393Y153491D01*
X-86406Y153393D01*
X-86423Y153295D01*
X-86444Y153197D01*
X-86469Y153101D01*
X-86497Y153006D01*
X-86529Y152912D01*
X-86564Y152819D01*
X-86603Y152727D01*
X-86646Y152637D01*
X-86691Y152549D01*
X-86741Y152462D01*
X-86793Y152378D01*
X-86849Y152295D01*
X-86907Y152215D01*
X-86969Y152137D01*
X-87034Y152062D01*
X-87102Y151989D01*
X-87172Y151919D01*
X-87245Y151851D01*
X-87320Y151786D01*
X-87398Y151724D01*
X-87478Y151666D01*
X-87561Y151610D01*
X-87645Y151558D01*
X-87732Y151508D01*
X-87820Y151463D01*
X-87910Y151420D01*
X-88002Y151381D01*
X-88095Y151346D01*
X-88189Y151314D01*
X-88284Y151286D01*
X-88380Y151261D01*
X-88478Y151240D01*
X-88576Y151223D01*
X-88674Y151210D01*
X-88773Y151201D01*
X-88873Y151195D01*
X-88972Y151193D01*
X-88972Y151192D02*
X-89621Y151192D01*
X-89734Y151194D01*
X-89847Y151200D01*
X-89960Y151210D01*
X-90073Y151224D01*
X-90185Y151241D01*
X-90296Y151263D01*
X-90406Y151288D01*
X-90516Y151318D01*
X-90624Y151351D01*
X-90731Y151388D01*
X-90837Y151428D01*
X-90941Y151473D01*
X-91044Y151521D01*
X-91145Y151572D01*
X-91244Y151627D01*
X-91341Y151685D01*
X-91436Y151747D01*
X-91529Y151812D01*
X-91619Y151880D01*
X-91707Y151951D01*
X-91793Y152026D01*
X-91876Y152103D01*
X-91956Y152183D01*
X-92033Y152266D01*
X-92108Y152352D01*
X-92179Y152440D01*
X-92247Y152530D01*
X-92312Y152623D01*
X-92374Y152718D01*
X-92432Y152815D01*
X-92487Y152914D01*
X-92538Y153015D01*
X-92586Y153118D01*
X-92631Y153222D01*
X-92671Y153328D01*
X-92708Y153435D01*
X-92741Y153543D01*
X-92771Y153653D01*
X-92796Y153763D01*
X-92818Y153874D01*
X-92835Y153986D01*
X-92849Y154099D01*
X-92859Y154212D01*
X-92865Y154325D01*
X-92867Y154438D01*
X-92865Y154551D01*
X-92859Y154664D01*
X-92849Y154777D01*
X-92835Y154890D01*
X-92818Y155002D01*
X-92796Y155113D01*
X-92771Y155223D01*
X-92741Y155333D01*
X-92708Y155441D01*
X-92671Y155548D01*
X-92631Y155654D01*
X-92586Y155758D01*
X-92538Y155861D01*
X-92487Y155962D01*
X-92432Y156061D01*
X-92374Y156158D01*
X-92312Y156253D01*
X-92247Y156346D01*
X-92179Y156436D01*
X-92108Y156524D01*
X-92033Y156610D01*
X-91956Y156693D01*
X-91876Y156773D01*
X-91793Y156850D01*
X-91707Y156925D01*
X-91619Y156996D01*
X-91529Y157064D01*
X-91436Y157129D01*
X-91341Y157191D01*
X-91244Y157249D01*
X-91145Y157304D01*
X-91044Y157355D01*
X-90941Y157403D01*
X-90837Y157448D01*
X-90731Y157488D01*
X-90624Y157525D01*
X-90516Y157558D01*
X-90406Y157588D01*
X-90296Y157613D01*
X-90185Y157635D01*
X-90073Y157652D01*
X-89960Y157666D01*
X-89847Y157676D01*
X-89734Y157682D01*
X-89621Y157684D01*
X-89621Y157683D02*
X-86376Y157683D01*
X-86233Y157681D01*
X-86090Y157675D01*
X-85947Y157665D01*
X-85805Y157651D01*
X-85663Y157634D01*
X-85521Y157612D01*
X-85380Y157587D01*
X-85240Y157557D01*
X-85101Y157524D01*
X-84963Y157487D01*
X-84826Y157446D01*
X-84690Y157402D01*
X-84555Y157353D01*
X-84422Y157301D01*
X-84290Y157246D01*
X-84160Y157186D01*
X-84031Y157123D01*
X-83904Y157057D01*
X-83780Y156987D01*
X-83657Y156914D01*
X-83536Y156837D01*
X-83417Y156757D01*
X-83301Y156674D01*
X-83186Y156588D01*
X-83075Y156499D01*
X-82965Y156406D01*
X-82859Y156311D01*
X-82755Y156212D01*
X-82654Y156111D01*
X-82555Y156007D01*
X-82460Y155901D01*
X-82367Y155791D01*
X-82278Y155680D01*
X-82192Y155565D01*
X-82109Y155449D01*
X-82029Y155330D01*
X-81952Y155209D01*
X-81879Y155087D01*
X-81809Y154962D01*
X-81743Y154835D01*
X-81680Y154706D01*
X-81620Y154576D01*
X-81565Y154444D01*
X-81513Y154311D01*
X-81464Y154176D01*
X-81420Y154040D01*
X-81379Y153903D01*
X-81342Y153765D01*
X-81309Y153626D01*
X-81279Y153486D01*
X-81254Y153345D01*
X-81232Y153203D01*
X-81215Y153061D01*
X-81201Y152919D01*
X-81191Y152776D01*
X-81185Y152633D01*
X-81183Y152490D01*
X-87025Y162623D02*
X-87255Y162626D01*
X-87485Y162634D01*
X-87714Y162648D01*
X-87943Y162667D01*
X-88172Y162692D01*
X-88399Y162722D01*
X-88627Y162757D01*
X-88853Y162798D01*
X-89078Y162844D01*
X-89302Y162896D01*
X-89524Y162953D01*
X-89746Y163015D01*
X-89965Y163083D01*
X-90183Y163156D01*
X-90400Y163234D01*
X-90614Y163317D01*
X-90826Y163405D01*
X-91036Y163498D01*
X-91244Y163597D01*
X-91244Y163596D02*
X-91334Y163629D01*
X-91423Y163665D01*
X-91511Y163705D01*
X-91596Y163749D01*
X-91680Y163796D01*
X-91762Y163846D01*
X-91842Y163900D01*
X-91919Y163956D01*
X-91995Y164016D01*
X-92068Y164079D01*
X-92138Y164144D01*
X-92206Y164213D01*
X-92270Y164284D01*
X-92332Y164357D01*
X-92391Y164433D01*
X-92447Y164511D01*
X-92500Y164592D01*
X-92549Y164674D01*
X-92595Y164758D01*
X-92638Y164845D01*
X-92677Y164932D01*
X-92713Y165022D01*
X-92745Y165112D01*
X-92773Y165204D01*
X-92798Y165297D01*
X-92819Y165391D01*
X-92836Y165485D01*
X-92850Y165580D01*
X-92859Y165676D01*
X-92865Y165772D01*
X-92867Y165868D01*
X-92865Y165964D01*
X-92859Y166060D01*
X-92850Y166156D01*
X-92836Y166251D01*
X-92819Y166345D01*
X-92798Y166439D01*
X-92773Y166532D01*
X-92745Y166624D01*
X-92713Y166714D01*
X-92677Y166804D01*
X-92638Y166891D01*
X-92595Y166978D01*
X-92549Y167062D01*
X-92500Y167144D01*
X-92447Y167225D01*
X-92391Y167303D01*
X-92332Y167379D01*
X-92270Y167452D01*
X-92206Y167523D01*
X-92138Y167592D01*
X-92068Y167657D01*
X-91995Y167720D01*
X-91919Y167780D01*
X-91842Y167836D01*
X-91762Y167890D01*
X-91680Y167940D01*
X-91596Y167987D01*
X-91511Y168031D01*
X-91423Y168071D01*
X-91334Y168107D01*
X-91244Y168140D01*
X-91037Y168239D01*
X-90827Y168332D01*
X-90614Y168420D01*
X-90400Y168503D01*
X-90184Y168581D01*
X-89966Y168654D01*
X-89746Y168722D01*
X-89525Y168784D01*
X-89302Y168841D01*
X-89078Y168893D01*
X-88853Y168939D01*
X-88627Y168980D01*
X-88400Y169015D01*
X-88172Y169045D01*
X-87943Y169070D01*
X-87714Y169089D01*
X-87485Y169103D01*
X-87255Y169111D01*
X-87025Y169114D01*
X-87025Y162622D02*
X-86795Y162625D01*
X-86565Y162633D01*
X-86336Y162647D01*
X-86107Y162666D01*
X-85878Y162691D01*
X-85650Y162721D01*
X-85423Y162756D01*
X-85197Y162797D01*
X-84972Y162843D01*
X-84748Y162895D01*
X-84525Y162952D01*
X-84304Y163014D01*
X-84084Y163082D01*
X-83866Y163155D01*
X-83650Y163233D01*
X-83436Y163316D01*
X-83224Y163404D01*
X-83013Y163497D01*
X-82806Y163596D01*
X-82716Y163629D01*
X-82627Y163665D01*
X-82539Y163706D01*
X-82454Y163749D01*
X-82370Y163796D01*
X-82288Y163846D01*
X-82208Y163900D01*
X-82131Y163956D01*
X-82055Y164016D01*
X-81982Y164079D01*
X-81912Y164144D01*
X-81844Y164213D01*
X-81780Y164284D01*
X-81718Y164357D01*
X-81659Y164433D01*
X-81603Y164511D01*
X-81550Y164592D01*
X-81501Y164674D01*
X-81455Y164758D01*
X-81412Y164845D01*
X-81373Y164932D01*
X-81337Y165022D01*
X-81305Y165112D01*
X-81277Y165204D01*
X-81252Y165297D01*
X-81231Y165391D01*
X-81214Y165485D01*
X-81200Y165580D01*
X-81191Y165676D01*
X-81185Y165772D01*
X-81183Y165868D01*
X-82806Y168139D02*
X-83013Y168238D01*
X-83224Y168331D01*
X-83436Y168419D01*
X-83650Y168502D01*
X-83866Y168580D01*
X-84084Y168653D01*
X-84304Y168721D01*
X-84525Y168783D01*
X-84748Y168840D01*
X-84972Y168892D01*
X-85197Y168938D01*
X-85423Y168979D01*
X-85650Y169014D01*
X-85878Y169044D01*
X-86107Y169069D01*
X-86336Y169088D01*
X-86565Y169102D01*
X-86795Y169110D01*
X-87025Y169113D01*
X-82806Y168140D02*
X-82716Y168107D01*
X-82627Y168071D01*
X-82539Y168031D01*
X-82454Y167987D01*
X-82370Y167940D01*
X-82288Y167890D01*
X-82208Y167836D01*
X-82131Y167780D01*
X-82055Y167720D01*
X-81982Y167657D01*
X-81912Y167592D01*
X-81844Y167523D01*
X-81780Y167452D01*
X-81718Y167379D01*
X-81659Y167303D01*
X-81603Y167225D01*
X-81550Y167144D01*
X-81501Y167062D01*
X-81455Y166978D01*
X-81412Y166891D01*
X-81373Y166804D01*
X-81337Y166714D01*
X-81305Y166624D01*
X-81277Y166532D01*
X-81252Y166439D01*
X-81231Y166345D01*
X-81214Y166251D01*
X-81200Y166156D01*
X-81191Y166060D01*
X-81185Y165964D01*
X-81183Y165868D01*
X-83779Y163271D02*
X-90271Y168464D01*
D11*
X25400Y241300D02*
X25400Y337000D01*
X533400Y337000D02*
X533400Y241300D01*
X532750Y317500D02*
X26050Y317500D01*
X51400Y320692D01*
X51400Y314308D01*
X26050Y317500D01*
X51400Y318800D01*
X51400Y316200D02*
X26050Y317500D01*
X51400Y320100D01*
X51400Y314900D02*
X26050Y317500D01*
X507400Y320692D02*
X532750Y317500D01*
X507400Y320692D02*
X507400Y314308D01*
X532750Y317500D01*
X507400Y318800D01*
X507400Y316200D02*
X532750Y317500D01*
X507400Y320100D01*
X507400Y314900D02*
X532750Y317500D01*
D12*
X268681Y331246D02*
X268679Y331353D01*
X268673Y331459D01*
X268663Y331565D01*
X268650Y331671D01*
X268632Y331777D01*
X268611Y331881D01*
X268586Y331985D01*
X268557Y332088D01*
X268525Y332189D01*
X268488Y332289D01*
X268448Y332388D01*
X268405Y332486D01*
X268358Y332582D01*
X268307Y332676D01*
X268253Y332768D01*
X268196Y332858D01*
X268136Y332946D01*
X268072Y333031D01*
X268005Y333114D01*
X267935Y333195D01*
X267863Y333273D01*
X267787Y333349D01*
X267709Y333421D01*
X267628Y333491D01*
X267545Y333558D01*
X267460Y333622D01*
X267372Y333682D01*
X267282Y333739D01*
X267190Y333793D01*
X267096Y333844D01*
X267000Y333891D01*
X266902Y333934D01*
X266803Y333974D01*
X266703Y334011D01*
X266602Y334043D01*
X266499Y334072D01*
X266395Y334097D01*
X266291Y334118D01*
X266185Y334136D01*
X266079Y334149D01*
X265973Y334159D01*
X265867Y334165D01*
X265760Y334167D01*
X265639Y334165D01*
X265518Y334159D01*
X265398Y334149D01*
X265277Y334136D01*
X265158Y334118D01*
X265038Y334097D01*
X264920Y334072D01*
X264803Y334043D01*
X264686Y334010D01*
X264571Y333974D01*
X264457Y333933D01*
X264344Y333890D01*
X264232Y333842D01*
X264123Y333791D01*
X264015Y333736D01*
X263908Y333678D01*
X263804Y333617D01*
X263702Y333552D01*
X263602Y333484D01*
X263504Y333413D01*
X263408Y333339D01*
X263315Y333262D01*
X263225Y333181D01*
X263137Y333098D01*
X263052Y333012D01*
X262969Y332923D01*
X262890Y332832D01*
X262813Y332738D01*
X262740Y332642D01*
X262670Y332544D01*
X262603Y332443D01*
X262539Y332340D01*
X262479Y332235D01*
X262422Y332128D01*
X262368Y332020D01*
X262318Y331910D01*
X262272Y331798D01*
X262229Y331685D01*
X262190Y331570D01*
X267708Y328974D02*
X267787Y329051D01*
X267863Y329132D01*
X267936Y329215D01*
X268006Y329300D01*
X268073Y329388D01*
X268137Y329478D01*
X268197Y329570D01*
X268254Y329665D01*
X268308Y329761D01*
X268359Y329859D01*
X268406Y329959D01*
X268450Y330061D01*
X268490Y330164D01*
X268526Y330268D01*
X268558Y330374D01*
X268587Y330480D01*
X268612Y330588D01*
X268634Y330696D01*
X268651Y330806D01*
X268665Y330915D01*
X268674Y331025D01*
X268680Y331136D01*
X268682Y331246D01*
X267708Y328974D02*
X262190Y322483D01*
X268681Y322483D01*
X273112Y322483D02*
X273112Y323132D01*
X273761Y323132D01*
X273761Y322483D01*
X273112Y322483D01*
X278193Y328325D02*
X278196Y328555D01*
X278204Y328785D01*
X278218Y329014D01*
X278237Y329243D01*
X278262Y329472D01*
X278292Y329699D01*
X278327Y329927D01*
X278368Y330153D01*
X278414Y330378D01*
X278466Y330602D01*
X278523Y330824D01*
X278585Y331046D01*
X278653Y331265D01*
X278726Y331483D01*
X278804Y331700D01*
X278887Y331914D01*
X278975Y332126D01*
X279068Y332336D01*
X279167Y332544D01*
X279166Y332544D02*
X279199Y332634D01*
X279235Y332723D01*
X279275Y332811D01*
X279319Y332896D01*
X279366Y332980D01*
X279416Y333062D01*
X279470Y333142D01*
X279526Y333219D01*
X279586Y333295D01*
X279649Y333368D01*
X279714Y333438D01*
X279783Y333506D01*
X279854Y333570D01*
X279927Y333632D01*
X280003Y333691D01*
X280081Y333747D01*
X280162Y333800D01*
X280244Y333849D01*
X280328Y333895D01*
X280415Y333938D01*
X280502Y333977D01*
X280592Y334013D01*
X280682Y334045D01*
X280774Y334073D01*
X280867Y334098D01*
X280961Y334119D01*
X281055Y334136D01*
X281150Y334150D01*
X281246Y334159D01*
X281342Y334165D01*
X281438Y334167D01*
X281534Y334165D01*
X281630Y334159D01*
X281726Y334150D01*
X281821Y334136D01*
X281915Y334119D01*
X282009Y334098D01*
X282102Y334073D01*
X282194Y334045D01*
X282284Y334013D01*
X282374Y333977D01*
X282461Y333938D01*
X282548Y333895D01*
X282632Y333849D01*
X282714Y333800D01*
X282795Y333747D01*
X282873Y333691D01*
X282949Y333632D01*
X283022Y333570D01*
X283093Y333506D01*
X283162Y333438D01*
X283227Y333368D01*
X283290Y333295D01*
X283350Y333219D01*
X283406Y333142D01*
X283460Y333062D01*
X283510Y332980D01*
X283557Y332896D01*
X283601Y332811D01*
X283641Y332723D01*
X283677Y332634D01*
X283710Y332544D01*
X283809Y332337D01*
X283902Y332127D01*
X283990Y331914D01*
X284073Y331700D01*
X284151Y331484D01*
X284224Y331266D01*
X284292Y331046D01*
X284354Y330825D01*
X284411Y330602D01*
X284463Y330378D01*
X284509Y330153D01*
X284550Y329927D01*
X284585Y329700D01*
X284615Y329472D01*
X284640Y329243D01*
X284659Y329014D01*
X284673Y328785D01*
X284681Y328555D01*
X284684Y328325D01*
X278192Y328325D02*
X278195Y328095D01*
X278203Y327865D01*
X278217Y327636D01*
X278236Y327407D01*
X278261Y327178D01*
X278291Y326950D01*
X278326Y326723D01*
X278367Y326497D01*
X278413Y326272D01*
X278465Y326048D01*
X278522Y325825D01*
X278584Y325604D01*
X278652Y325384D01*
X278725Y325166D01*
X278803Y324950D01*
X278886Y324736D01*
X278974Y324524D01*
X279067Y324313D01*
X279166Y324106D01*
X279199Y324016D01*
X279235Y323927D01*
X279276Y323839D01*
X279319Y323754D01*
X279366Y323670D01*
X279416Y323588D01*
X279470Y323508D01*
X279526Y323431D01*
X279586Y323355D01*
X279649Y323282D01*
X279714Y323212D01*
X279783Y323144D01*
X279854Y323080D01*
X279927Y323018D01*
X280003Y322959D01*
X280081Y322903D01*
X280162Y322850D01*
X280244Y322801D01*
X280328Y322755D01*
X280415Y322712D01*
X280502Y322673D01*
X280592Y322637D01*
X280682Y322605D01*
X280774Y322577D01*
X280867Y322552D01*
X280961Y322531D01*
X281055Y322514D01*
X281150Y322500D01*
X281246Y322491D01*
X281342Y322485D01*
X281438Y322483D01*
X283709Y324106D02*
X283808Y324313D01*
X283901Y324524D01*
X283989Y324736D01*
X284072Y324950D01*
X284150Y325166D01*
X284223Y325384D01*
X284291Y325604D01*
X284353Y325825D01*
X284410Y326048D01*
X284462Y326272D01*
X284508Y326497D01*
X284549Y326723D01*
X284584Y326950D01*
X284614Y327178D01*
X284639Y327407D01*
X284658Y327636D01*
X284672Y327865D01*
X284680Y328095D01*
X284683Y328325D01*
X283710Y324106D02*
X283677Y324016D01*
X283641Y323927D01*
X283601Y323839D01*
X283557Y323754D01*
X283510Y323670D01*
X283460Y323588D01*
X283406Y323508D01*
X283350Y323431D01*
X283290Y323355D01*
X283227Y323282D01*
X283162Y323212D01*
X283093Y323144D01*
X283022Y323080D01*
X282949Y323018D01*
X282873Y322959D01*
X282795Y322903D01*
X282714Y322850D01*
X282632Y322801D01*
X282548Y322755D01*
X282461Y322712D01*
X282374Y322673D01*
X282284Y322637D01*
X282194Y322605D01*
X282102Y322577D01*
X282009Y322552D01*
X281915Y322531D01*
X281821Y322514D01*
X281726Y322500D01*
X281630Y322491D01*
X281534Y322485D01*
X281438Y322483D01*
X278841Y325079D02*
X284034Y331571D01*
X289623Y328325D02*
X289626Y328555D01*
X289634Y328785D01*
X289648Y329014D01*
X289667Y329243D01*
X289692Y329472D01*
X289722Y329699D01*
X289757Y329927D01*
X289798Y330153D01*
X289844Y330378D01*
X289896Y330602D01*
X289953Y330824D01*
X290015Y331046D01*
X290083Y331265D01*
X290156Y331483D01*
X290234Y331700D01*
X290317Y331914D01*
X290405Y332126D01*
X290498Y332336D01*
X290597Y332544D01*
X290596Y332544D02*
X290629Y332634D01*
X290665Y332723D01*
X290705Y332811D01*
X290749Y332896D01*
X290796Y332980D01*
X290846Y333062D01*
X290900Y333142D01*
X290956Y333219D01*
X291016Y333295D01*
X291079Y333368D01*
X291144Y333438D01*
X291213Y333506D01*
X291284Y333570D01*
X291357Y333632D01*
X291433Y333691D01*
X291511Y333747D01*
X291592Y333800D01*
X291674Y333849D01*
X291758Y333895D01*
X291845Y333938D01*
X291932Y333977D01*
X292022Y334013D01*
X292112Y334045D01*
X292204Y334073D01*
X292297Y334098D01*
X292391Y334119D01*
X292485Y334136D01*
X292580Y334150D01*
X292676Y334159D01*
X292772Y334165D01*
X292868Y334167D01*
X292964Y334165D01*
X293060Y334159D01*
X293156Y334150D01*
X293251Y334136D01*
X293345Y334119D01*
X293439Y334098D01*
X293532Y334073D01*
X293624Y334045D01*
X293714Y334013D01*
X293804Y333977D01*
X293891Y333938D01*
X293978Y333895D01*
X294062Y333849D01*
X294144Y333800D01*
X294225Y333747D01*
X294303Y333691D01*
X294379Y333632D01*
X294452Y333570D01*
X294523Y333506D01*
X294592Y333438D01*
X294657Y333368D01*
X294720Y333295D01*
X294780Y333219D01*
X294836Y333142D01*
X294890Y333062D01*
X294940Y332980D01*
X294987Y332896D01*
X295031Y332811D01*
X295071Y332723D01*
X295107Y332634D01*
X295140Y332544D01*
X295239Y332337D01*
X295332Y332127D01*
X295420Y331914D01*
X295503Y331700D01*
X295581Y331484D01*
X295654Y331266D01*
X295722Y331046D01*
X295784Y330825D01*
X295841Y330602D01*
X295893Y330378D01*
X295939Y330153D01*
X295980Y329927D01*
X296015Y329700D01*
X296045Y329472D01*
X296070Y329243D01*
X296089Y329014D01*
X296103Y328785D01*
X296111Y328555D01*
X296114Y328325D01*
X289622Y328325D02*
X289625Y328095D01*
X289633Y327865D01*
X289647Y327636D01*
X289666Y327407D01*
X289691Y327178D01*
X289721Y326950D01*
X289756Y326723D01*
X289797Y326497D01*
X289843Y326272D01*
X289895Y326048D01*
X289952Y325825D01*
X290014Y325604D01*
X290082Y325384D01*
X290155Y325166D01*
X290233Y324950D01*
X290316Y324736D01*
X290404Y324524D01*
X290497Y324313D01*
X290596Y324106D01*
X290629Y324016D01*
X290665Y323927D01*
X290706Y323839D01*
X290749Y323754D01*
X290796Y323670D01*
X290846Y323588D01*
X290900Y323508D01*
X290956Y323431D01*
X291016Y323355D01*
X291079Y323282D01*
X291144Y323212D01*
X291213Y323144D01*
X291284Y323080D01*
X291357Y323018D01*
X291433Y322959D01*
X291511Y322903D01*
X291592Y322850D01*
X291674Y322801D01*
X291758Y322755D01*
X291845Y322712D01*
X291932Y322673D01*
X292022Y322637D01*
X292112Y322605D01*
X292204Y322577D01*
X292297Y322552D01*
X292391Y322531D01*
X292485Y322514D01*
X292580Y322500D01*
X292676Y322491D01*
X292772Y322485D01*
X292868Y322483D01*
X295139Y324106D02*
X295238Y324313D01*
X295331Y324524D01*
X295419Y324736D01*
X295502Y324950D01*
X295580Y325166D01*
X295653Y325384D01*
X295721Y325604D01*
X295783Y325825D01*
X295840Y326048D01*
X295892Y326272D01*
X295938Y326497D01*
X295979Y326723D01*
X296014Y326950D01*
X296044Y327178D01*
X296069Y327407D01*
X296088Y327636D01*
X296102Y327865D01*
X296110Y328095D01*
X296113Y328325D01*
X295140Y324106D02*
X295107Y324016D01*
X295071Y323927D01*
X295031Y323839D01*
X294987Y323754D01*
X294940Y323670D01*
X294890Y323588D01*
X294836Y323508D01*
X294780Y323431D01*
X294720Y323355D01*
X294657Y323282D01*
X294592Y323212D01*
X294523Y323144D01*
X294452Y323080D01*
X294379Y323018D01*
X294303Y322959D01*
X294225Y322903D01*
X294144Y322850D01*
X294062Y322801D01*
X293978Y322755D01*
X293891Y322712D01*
X293804Y322673D01*
X293714Y322637D01*
X293624Y322605D01*
X293532Y322577D01*
X293439Y322552D01*
X293345Y322531D01*
X293251Y322514D01*
X293156Y322500D01*
X293060Y322491D01*
X292964Y322485D01*
X292868Y322483D01*
X290271Y325079D02*
X295464Y331571D01*
D13*
X103632Y188468D02*
X103632Y141732D01*
X103632Y188468D02*
X124404Y188468D01*
X124404Y167696D02*
X103632Y167696D01*
X143247Y141732D02*
X156229Y141732D01*
X143247Y141732D02*
X143059Y141734D01*
X142871Y141741D01*
X142683Y141752D01*
X142495Y141768D01*
X142308Y141789D01*
X142122Y141814D01*
X141936Y141843D01*
X141751Y141877D01*
X141566Y141916D01*
X141383Y141958D01*
X141201Y142006D01*
X141020Y142057D01*
X140840Y142113D01*
X140662Y142174D01*
X140485Y142238D01*
X140310Y142307D01*
X140136Y142380D01*
X139965Y142457D01*
X139795Y142539D01*
X139627Y142624D01*
X139462Y142714D01*
X139298Y142807D01*
X139137Y142904D01*
X138979Y143006D01*
X138822Y143111D01*
X138669Y143220D01*
X138518Y143332D01*
X138370Y143448D01*
X138224Y143568D01*
X138082Y143691D01*
X137943Y143817D01*
X137806Y143947D01*
X137673Y144080D01*
X137543Y144217D01*
X137417Y144356D01*
X137294Y144498D01*
X137174Y144644D01*
X137058Y144792D01*
X136946Y144943D01*
X136837Y145096D01*
X136732Y145253D01*
X136630Y145411D01*
X136533Y145572D01*
X136440Y145736D01*
X136350Y145901D01*
X136265Y146069D01*
X136183Y146239D01*
X136106Y146410D01*
X136033Y146584D01*
X135964Y146759D01*
X135900Y146936D01*
X135839Y147114D01*
X135783Y147294D01*
X135732Y147475D01*
X135684Y147657D01*
X135642Y147840D01*
X135603Y148025D01*
X135569Y148210D01*
X135540Y148396D01*
X135515Y148582D01*
X135494Y148769D01*
X135478Y148957D01*
X135467Y149145D01*
X135460Y149333D01*
X135458Y149521D01*
X135457Y149521D02*
X135457Y162504D01*
X135460Y162757D01*
X135469Y163010D01*
X135485Y163262D01*
X135506Y163514D01*
X135534Y163766D01*
X135568Y164016D01*
X135608Y164266D01*
X135653Y164515D01*
X135705Y164762D01*
X135763Y165008D01*
X135827Y165253D01*
X135897Y165496D01*
X135973Y165737D01*
X136055Y165977D01*
X136142Y166214D01*
X136236Y166449D01*
X136334Y166682D01*
X136439Y166912D01*
X136549Y167140D01*
X136665Y167365D01*
X136786Y167587D01*
X136912Y167806D01*
X137044Y168022D01*
X137181Y168235D01*
X137323Y168444D01*
X137470Y168650D01*
X137623Y168852D01*
X137780Y169050D01*
X137941Y169244D01*
X138108Y169435D01*
X138279Y169621D01*
X138454Y169803D01*
X138634Y169981D01*
X138819Y170154D01*
X139007Y170323D01*
X139199Y170487D01*
X139396Y170647D01*
X139596Y170801D01*
X139800Y170951D01*
X140007Y171095D01*
X140218Y171235D01*
X140433Y171369D01*
X140650Y171499D01*
X140871Y171622D01*
X141094Y171741D01*
X141320Y171854D01*
X141549Y171961D01*
X141781Y172063D01*
X142015Y172159D01*
X142251Y172249D01*
X142490Y172334D01*
X142730Y172412D01*
X142972Y172485D01*
X143216Y172552D01*
X143461Y172613D01*
X143708Y172668D01*
X143957Y172717D01*
X144206Y172760D01*
X144456Y172797D01*
X144707Y172828D01*
X144959Y172852D01*
X145211Y172871D01*
X145464Y172883D01*
X145717Y172889D01*
X145969Y172889D01*
X146222Y172883D01*
X146475Y172871D01*
X146727Y172852D01*
X146979Y172828D01*
X147230Y172797D01*
X147480Y172760D01*
X147729Y172717D01*
X147978Y172668D01*
X148225Y172613D01*
X148470Y172552D01*
X148714Y172485D01*
X148956Y172412D01*
X149196Y172334D01*
X149435Y172249D01*
X149671Y172159D01*
X149905Y172063D01*
X150137Y171961D01*
X150366Y171854D01*
X150592Y171741D01*
X150815Y171622D01*
X151036Y171499D01*
X151253Y171369D01*
X151468Y171235D01*
X151679Y171095D01*
X151886Y170951D01*
X152090Y170801D01*
X152290Y170647D01*
X152487Y170487D01*
X152679Y170323D01*
X152867Y170154D01*
X153052Y169981D01*
X153232Y169803D01*
X153407Y169621D01*
X153578Y169435D01*
X153745Y169244D01*
X153906Y169050D01*
X154063Y168852D01*
X154216Y168650D01*
X154363Y168444D01*
X154505Y168235D01*
X154642Y168022D01*
X154774Y167806D01*
X154900Y167587D01*
X155021Y167365D01*
X155137Y167140D01*
X155247Y166912D01*
X155352Y166682D01*
X155450Y166449D01*
X155544Y166214D01*
X155631Y165977D01*
X155713Y165737D01*
X155789Y165496D01*
X155859Y165253D01*
X155923Y165008D01*
X155981Y164762D01*
X156033Y164515D01*
X156078Y164266D01*
X156118Y164016D01*
X156152Y163766D01*
X156180Y163514D01*
X156201Y163262D01*
X156217Y163010D01*
X156226Y162757D01*
X156229Y162504D01*
X156229Y157311D01*
X135457Y157311D01*
X177597Y159907D02*
X189281Y159907D01*
X177597Y159908D02*
X177376Y159905D01*
X177155Y159897D01*
X176934Y159884D01*
X176713Y159865D01*
X176493Y159841D01*
X176274Y159811D01*
X176055Y159776D01*
X175838Y159736D01*
X175621Y159691D01*
X175406Y159640D01*
X175191Y159584D01*
X174979Y159523D01*
X174768Y159456D01*
X174558Y159385D01*
X174350Y159308D01*
X174145Y159227D01*
X173941Y159140D01*
X173740Y159049D01*
X173540Y158952D01*
X173343Y158851D01*
X173149Y158745D01*
X172958Y158635D01*
X172769Y158519D01*
X172583Y158399D01*
X172399Y158275D01*
X172219Y158146D01*
X172043Y158013D01*
X171869Y157876D01*
X171699Y157734D01*
X171532Y157588D01*
X171369Y157439D01*
X171210Y157285D01*
X171055Y157128D01*
X170903Y156967D01*
X170755Y156802D01*
X170612Y156633D01*
X170472Y156462D01*
X170337Y156286D01*
X170206Y156108D01*
X170079Y155926D01*
X169957Y155742D01*
X169840Y155554D01*
X169727Y155364D01*
X169618Y155171D01*
X169515Y154975D01*
X169416Y154777D01*
X169322Y154577D01*
X169233Y154374D01*
X169149Y154170D01*
X169070Y153963D01*
X168996Y153754D01*
X168927Y153544D01*
X168863Y153332D01*
X168805Y153119D01*
X168751Y152904D01*
X168703Y152688D01*
X168660Y152471D01*
X168623Y152253D01*
X168590Y152034D01*
X168564Y151814D01*
X168542Y151594D01*
X168526Y151373D01*
X168515Y151152D01*
X168510Y150931D01*
X168510Y150709D01*
X168515Y150488D01*
X168526Y150267D01*
X168542Y150046D01*
X168564Y149826D01*
X168590Y149606D01*
X168623Y149387D01*
X168660Y149169D01*
X168703Y148952D01*
X168751Y148736D01*
X168805Y148521D01*
X168863Y148308D01*
X168927Y148096D01*
X168996Y147886D01*
X169070Y147677D01*
X169149Y147470D01*
X169233Y147266D01*
X169322Y147063D01*
X169416Y146863D01*
X169515Y146665D01*
X169618Y146469D01*
X169727Y146276D01*
X169840Y146086D01*
X169957Y145898D01*
X170079Y145714D01*
X170206Y145532D01*
X170337Y145354D01*
X170472Y145178D01*
X170612Y145007D01*
X170755Y144838D01*
X170903Y144673D01*
X171055Y144512D01*
X171210Y144355D01*
X171369Y144201D01*
X171532Y144052D01*
X171699Y143906D01*
X171869Y143764D01*
X172043Y143627D01*
X172219Y143494D01*
X172399Y143365D01*
X172583Y143241D01*
X172769Y143121D01*
X172958Y143005D01*
X173149Y142895D01*
X173343Y142789D01*
X173540Y142688D01*
X173740Y142591D01*
X173941Y142500D01*
X174145Y142413D01*
X174350Y142332D01*
X174558Y142255D01*
X174768Y142184D01*
X174979Y142117D01*
X175191Y142056D01*
X175406Y142000D01*
X175621Y141949D01*
X175838Y141904D01*
X176055Y141864D01*
X176274Y141829D01*
X176493Y141799D01*
X176713Y141775D01*
X176934Y141756D01*
X177155Y141743D01*
X177376Y141735D01*
X177597Y141732D01*
X189281Y141732D01*
X189281Y165100D01*
X189279Y165288D01*
X189272Y165476D01*
X189261Y165664D01*
X189245Y165852D01*
X189224Y166039D01*
X189199Y166225D01*
X189170Y166411D01*
X189136Y166596D01*
X189097Y166781D01*
X189055Y166964D01*
X189007Y167146D01*
X188956Y167327D01*
X188900Y167507D01*
X188839Y167685D01*
X188775Y167862D01*
X188706Y168037D01*
X188633Y168211D01*
X188556Y168382D01*
X188474Y168552D01*
X188389Y168720D01*
X188299Y168885D01*
X188206Y169049D01*
X188109Y169210D01*
X188007Y169368D01*
X187902Y169525D01*
X187793Y169678D01*
X187681Y169829D01*
X187565Y169977D01*
X187445Y170123D01*
X187322Y170265D01*
X187196Y170404D01*
X187066Y170541D01*
X186933Y170674D01*
X186796Y170804D01*
X186657Y170930D01*
X186515Y171053D01*
X186369Y171173D01*
X186221Y171289D01*
X186070Y171401D01*
X185917Y171510D01*
X185760Y171615D01*
X185602Y171717D01*
X185441Y171814D01*
X185277Y171907D01*
X185112Y171997D01*
X184944Y172082D01*
X184774Y172164D01*
X184603Y172241D01*
X184429Y172314D01*
X184254Y172383D01*
X184077Y172447D01*
X183899Y172508D01*
X183719Y172564D01*
X183538Y172615D01*
X183356Y172663D01*
X183173Y172705D01*
X182988Y172744D01*
X182803Y172778D01*
X182617Y172807D01*
X182431Y172832D01*
X182244Y172853D01*
X182056Y172869D01*
X181868Y172880D01*
X181680Y172887D01*
X181492Y172889D01*
X171106Y172889D01*
X200340Y172889D02*
X215919Y172889D01*
X205533Y188468D02*
X205533Y149521D01*
X205535Y149333D01*
X205542Y149145D01*
X205553Y148957D01*
X205569Y148769D01*
X205590Y148582D01*
X205615Y148396D01*
X205644Y148210D01*
X205678Y148025D01*
X205717Y147840D01*
X205759Y147657D01*
X205807Y147475D01*
X205858Y147294D01*
X205914Y147114D01*
X205975Y146936D01*
X206039Y146759D01*
X206108Y146584D01*
X206181Y146410D01*
X206258Y146239D01*
X206340Y146069D01*
X206425Y145901D01*
X206515Y145736D01*
X206608Y145572D01*
X206706Y145411D01*
X206807Y145253D01*
X206912Y145096D01*
X207021Y144943D01*
X207133Y144792D01*
X207249Y144644D01*
X207369Y144498D01*
X207492Y144356D01*
X207618Y144217D01*
X207748Y144080D01*
X207881Y143947D01*
X208018Y143817D01*
X208157Y143691D01*
X208299Y143568D01*
X208445Y143448D01*
X208593Y143332D01*
X208744Y143220D01*
X208897Y143111D01*
X209054Y143006D01*
X209212Y142904D01*
X209373Y142807D01*
X209537Y142714D01*
X209702Y142624D01*
X209870Y142539D01*
X210040Y142457D01*
X210211Y142380D01*
X210385Y142307D01*
X210560Y142238D01*
X210737Y142174D01*
X210915Y142113D01*
X211095Y142057D01*
X211276Y142006D01*
X211458Y141958D01*
X211641Y141915D01*
X211826Y141877D01*
X212011Y141843D01*
X212197Y141814D01*
X212383Y141789D01*
X212570Y141768D01*
X212758Y141752D01*
X212946Y141741D01*
X213134Y141734D01*
X213322Y141732D01*
X215919Y141732D01*
X228167Y141732D02*
X228167Y188468D01*
X228167Y172889D02*
X241149Y172889D01*
X241337Y172887D01*
X241525Y172880D01*
X241713Y172869D01*
X241901Y172853D01*
X242088Y172832D01*
X242274Y172807D01*
X242460Y172778D01*
X242645Y172744D01*
X242830Y172705D01*
X243013Y172663D01*
X243195Y172615D01*
X243376Y172564D01*
X243556Y172508D01*
X243734Y172447D01*
X243911Y172383D01*
X244086Y172314D01*
X244260Y172241D01*
X244431Y172164D01*
X244601Y172082D01*
X244769Y171997D01*
X244934Y171907D01*
X245098Y171814D01*
X245259Y171717D01*
X245417Y171615D01*
X245574Y171510D01*
X245727Y171401D01*
X245878Y171289D01*
X246026Y171173D01*
X246172Y171053D01*
X246314Y170930D01*
X246453Y170804D01*
X246590Y170674D01*
X246723Y170541D01*
X246853Y170404D01*
X246979Y170265D01*
X247102Y170123D01*
X247222Y169977D01*
X247338Y169829D01*
X247450Y169678D01*
X247559Y169525D01*
X247664Y169368D01*
X247766Y169210D01*
X247863Y169049D01*
X247956Y168885D01*
X248046Y168720D01*
X248131Y168552D01*
X248213Y168382D01*
X248290Y168211D01*
X248363Y168037D01*
X248432Y167862D01*
X248496Y167685D01*
X248557Y167507D01*
X248613Y167327D01*
X248664Y167146D01*
X248712Y166964D01*
X248754Y166781D01*
X248793Y166596D01*
X248827Y166411D01*
X248856Y166225D01*
X248881Y166039D01*
X248902Y165852D01*
X248918Y165664D01*
X248929Y165476D01*
X248936Y165288D01*
X248938Y165100D01*
X248939Y165100D02*
X248939Y141732D01*
X270246Y141732D02*
X283229Y141732D01*
X270246Y141732D02*
X270058Y141734D01*
X269870Y141741D01*
X269682Y141752D01*
X269494Y141768D01*
X269307Y141789D01*
X269121Y141814D01*
X268935Y141843D01*
X268750Y141877D01*
X268565Y141916D01*
X268382Y141958D01*
X268200Y142006D01*
X268019Y142057D01*
X267839Y142113D01*
X267661Y142174D01*
X267484Y142238D01*
X267309Y142307D01*
X267135Y142380D01*
X266964Y142457D01*
X266794Y142539D01*
X266626Y142624D01*
X266461Y142714D01*
X266297Y142807D01*
X266136Y142904D01*
X265978Y143006D01*
X265821Y143111D01*
X265668Y143220D01*
X265517Y143332D01*
X265369Y143448D01*
X265223Y143568D01*
X265081Y143691D01*
X264942Y143817D01*
X264805Y143947D01*
X264672Y144080D01*
X264542Y144217D01*
X264416Y144356D01*
X264293Y144498D01*
X264173Y144644D01*
X264057Y144792D01*
X263945Y144943D01*
X263836Y145096D01*
X263731Y145253D01*
X263629Y145411D01*
X263532Y145572D01*
X263439Y145736D01*
X263349Y145901D01*
X263264Y146069D01*
X263182Y146239D01*
X263105Y146410D01*
X263032Y146584D01*
X262963Y146759D01*
X262899Y146936D01*
X262838Y147114D01*
X262782Y147294D01*
X262731Y147475D01*
X262683Y147657D01*
X262641Y147840D01*
X262602Y148025D01*
X262568Y148210D01*
X262539Y148396D01*
X262514Y148582D01*
X262493Y148769D01*
X262477Y148957D01*
X262466Y149145D01*
X262459Y149333D01*
X262457Y149521D01*
X262457Y162504D01*
X262460Y162757D01*
X262469Y163010D01*
X262485Y163262D01*
X262506Y163514D01*
X262534Y163766D01*
X262568Y164016D01*
X262608Y164266D01*
X262653Y164515D01*
X262705Y164762D01*
X262763Y165008D01*
X262827Y165253D01*
X262897Y165496D01*
X262973Y165737D01*
X263055Y165977D01*
X263142Y166214D01*
X263236Y166449D01*
X263334Y166682D01*
X263439Y166912D01*
X263549Y167140D01*
X263665Y167365D01*
X263786Y167587D01*
X263912Y167806D01*
X264044Y168022D01*
X264181Y168235D01*
X264323Y168444D01*
X264470Y168650D01*
X264623Y168852D01*
X264780Y169050D01*
X264941Y169244D01*
X265108Y169435D01*
X265279Y169621D01*
X265454Y169803D01*
X265634Y169981D01*
X265819Y170154D01*
X266007Y170323D01*
X266199Y170487D01*
X266396Y170647D01*
X266596Y170801D01*
X266800Y170951D01*
X267007Y171095D01*
X267218Y171235D01*
X267433Y171369D01*
X267650Y171499D01*
X267871Y171622D01*
X268094Y171741D01*
X268320Y171854D01*
X268549Y171961D01*
X268781Y172063D01*
X269015Y172159D01*
X269251Y172249D01*
X269490Y172334D01*
X269730Y172412D01*
X269972Y172485D01*
X270216Y172552D01*
X270461Y172613D01*
X270708Y172668D01*
X270957Y172717D01*
X271206Y172760D01*
X271456Y172797D01*
X271707Y172828D01*
X271959Y172852D01*
X272211Y172871D01*
X272464Y172883D01*
X272717Y172889D01*
X272969Y172889D01*
X273222Y172883D01*
X273475Y172871D01*
X273727Y172852D01*
X273979Y172828D01*
X274230Y172797D01*
X274480Y172760D01*
X274729Y172717D01*
X274978Y172668D01*
X275225Y172613D01*
X275470Y172552D01*
X275714Y172485D01*
X275956Y172412D01*
X276196Y172334D01*
X276435Y172249D01*
X276671Y172159D01*
X276905Y172063D01*
X277137Y171961D01*
X277366Y171854D01*
X277592Y171741D01*
X277815Y171622D01*
X278036Y171499D01*
X278253Y171369D01*
X278468Y171235D01*
X278679Y171095D01*
X278886Y170951D01*
X279090Y170801D01*
X279290Y170647D01*
X279487Y170487D01*
X279679Y170323D01*
X279867Y170154D01*
X280052Y169981D01*
X280232Y169803D01*
X280407Y169621D01*
X280578Y169435D01*
X280745Y169244D01*
X280906Y169050D01*
X281063Y168852D01*
X281216Y168650D01*
X281363Y168444D01*
X281505Y168235D01*
X281642Y168022D01*
X281774Y167806D01*
X281900Y167587D01*
X282021Y167365D01*
X282137Y167140D01*
X282247Y166912D01*
X282352Y166682D01*
X282450Y166449D01*
X282544Y166214D01*
X282631Y165977D01*
X282713Y165737D01*
X282789Y165496D01*
X282859Y165253D01*
X282923Y165008D01*
X282981Y164762D01*
X283033Y164515D01*
X283078Y164266D01*
X283118Y164016D01*
X283152Y163766D01*
X283180Y163514D01*
X283201Y163262D01*
X283217Y163010D01*
X283226Y162757D01*
X283229Y162504D01*
X283229Y157311D01*
X262457Y157311D01*
X296702Y172889D02*
X296702Y141732D01*
X296702Y172889D02*
X312281Y172889D01*
X312281Y167696D01*
X343624Y188468D02*
X343624Y141732D01*
X359203Y162504D02*
X343624Y188468D01*
X359203Y162504D02*
X374782Y188468D01*
X374782Y141732D01*
X388131Y165100D02*
X388142Y166019D01*
X388175Y166938D01*
X388230Y167856D01*
X388306Y168772D01*
X388405Y169686D01*
X388525Y170598D01*
X388668Y171506D01*
X388831Y172411D01*
X389017Y173312D01*
X389223Y174208D01*
X389451Y175098D01*
X389701Y175983D01*
X389971Y176862D01*
X390262Y177734D01*
X390574Y178599D01*
X390907Y179456D01*
X391260Y180305D01*
X391633Y181146D01*
X392026Y181977D01*
X392025Y181977D02*
X392104Y182197D01*
X392188Y182415D01*
X392277Y182631D01*
X392371Y182845D01*
X392470Y183056D01*
X392575Y183265D01*
X392685Y183472D01*
X392799Y183675D01*
X392919Y183876D01*
X393043Y184074D01*
X393172Y184268D01*
X393306Y184460D01*
X393445Y184648D01*
X393588Y184833D01*
X393735Y185014D01*
X393887Y185192D01*
X394043Y185366D01*
X394203Y185536D01*
X394368Y185702D01*
X394536Y185864D01*
X394708Y186022D01*
X394885Y186175D01*
X395064Y186325D01*
X395248Y186470D01*
X395434Y186610D01*
X395625Y186746D01*
X395818Y186877D01*
X396014Y187003D01*
X396214Y187125D01*
X396416Y187242D01*
X396622Y187353D01*
X396830Y187460D01*
X397040Y187562D01*
X397253Y187658D01*
X397468Y187750D01*
X397685Y187836D01*
X397904Y187916D01*
X398126Y187992D01*
X398349Y188062D01*
X398573Y188126D01*
X398799Y188185D01*
X399027Y188239D01*
X399255Y188287D01*
X399485Y188329D01*
X399716Y188366D01*
X399947Y188397D01*
X400180Y188423D01*
X400413Y188442D01*
X400646Y188457D01*
X400879Y188465D01*
X401113Y188468D01*
X401347Y188465D01*
X401580Y188457D01*
X401813Y188442D01*
X402046Y188423D01*
X402279Y188397D01*
X402510Y188366D01*
X402741Y188329D01*
X402971Y188287D01*
X403199Y188239D01*
X403427Y188185D01*
X403653Y188126D01*
X403877Y188062D01*
X404100Y187992D01*
X404322Y187916D01*
X404541Y187836D01*
X404758Y187750D01*
X404973Y187658D01*
X405186Y187562D01*
X405397Y187460D01*
X405604Y187353D01*
X405810Y187242D01*
X406012Y187125D01*
X406212Y187003D01*
X406408Y186877D01*
X406601Y186746D01*
X406792Y186610D01*
X406978Y186470D01*
X407162Y186325D01*
X407341Y186175D01*
X407518Y186022D01*
X407690Y185864D01*
X407858Y185702D01*
X408023Y185536D01*
X408183Y185366D01*
X408339Y185192D01*
X408491Y185014D01*
X408638Y184833D01*
X408781Y184648D01*
X408920Y184460D01*
X409054Y184268D01*
X409183Y184074D01*
X409307Y183876D01*
X409427Y183675D01*
X409541Y183472D01*
X409651Y183265D01*
X409756Y183056D01*
X409855Y182845D01*
X409949Y182631D01*
X410038Y182415D01*
X410122Y182197D01*
X410201Y181977D01*
X410200Y181977D02*
X410593Y181146D01*
X410966Y180305D01*
X411319Y179456D01*
X411652Y178599D01*
X411964Y177734D01*
X412255Y176862D01*
X412525Y175983D01*
X412775Y175098D01*
X413003Y174208D01*
X413209Y173312D01*
X413395Y172411D01*
X413558Y171506D01*
X413701Y170598D01*
X413821Y169686D01*
X413920Y168772D01*
X413996Y167856D01*
X414051Y166938D01*
X414084Y166019D01*
X414095Y165100D01*
X388131Y165100D02*
X388142Y164181D01*
X388175Y163262D01*
X388230Y162344D01*
X388306Y161428D01*
X388405Y160514D01*
X388525Y159602D01*
X388668Y158694D01*
X388831Y157789D01*
X389017Y156888D01*
X389223Y155992D01*
X389451Y155102D01*
X389701Y154217D01*
X389971Y153338D01*
X390262Y152466D01*
X390574Y151601D01*
X390907Y150744D01*
X391260Y149895D01*
X391633Y149054D01*
X392026Y148223D01*
X392025Y148223D02*
X392104Y148003D01*
X392188Y147785D01*
X392277Y147569D01*
X392371Y147355D01*
X392470Y147144D01*
X392575Y146935D01*
X392685Y146728D01*
X392799Y146525D01*
X392919Y146324D01*
X393043Y146126D01*
X393172Y145931D01*
X393306Y145740D01*
X393445Y145552D01*
X393588Y145367D01*
X393735Y145186D01*
X393887Y145008D01*
X394043Y144834D01*
X394203Y144664D01*
X394368Y144498D01*
X394536Y144336D01*
X394708Y144178D01*
X394885Y144025D01*
X395064Y143875D01*
X395248Y143730D01*
X395434Y143590D01*
X395625Y143454D01*
X395818Y143323D01*
X396014Y143197D01*
X396214Y143075D01*
X396416Y142958D01*
X396622Y142847D01*
X396830Y142740D01*
X397040Y142638D01*
X397253Y142542D01*
X397468Y142450D01*
X397685Y142364D01*
X397904Y142284D01*
X398126Y142208D01*
X398349Y142138D01*
X398573Y142074D01*
X398799Y142015D01*
X399027Y141961D01*
X399255Y141913D01*
X399485Y141871D01*
X399716Y141834D01*
X399947Y141803D01*
X400180Y141777D01*
X400413Y141758D01*
X400646Y141743D01*
X400879Y141735D01*
X401113Y141732D01*
X410200Y148223D02*
X410593Y149054D01*
X410966Y149895D01*
X411319Y150744D01*
X411652Y151601D01*
X411964Y152466D01*
X412255Y153338D01*
X412525Y154217D01*
X412775Y155102D01*
X413003Y155992D01*
X413209Y156888D01*
X413395Y157789D01*
X413558Y158694D01*
X413701Y159602D01*
X413821Y160514D01*
X413920Y161428D01*
X413996Y162344D01*
X414051Y163262D01*
X414084Y164181D01*
X414095Y165100D01*
X410201Y148223D02*
X410122Y148003D01*
X410038Y147785D01*
X409949Y147569D01*
X409855Y147355D01*
X409756Y147144D01*
X409651Y146935D01*
X409541Y146728D01*
X409427Y146525D01*
X409307Y146324D01*
X409183Y146126D01*
X409054Y145932D01*
X408920Y145740D01*
X408781Y145552D01*
X408638Y145367D01*
X408491Y145186D01*
X408339Y145008D01*
X408183Y144834D01*
X408023Y144664D01*
X407858Y144498D01*
X407690Y144336D01*
X407518Y144178D01*
X407341Y144025D01*
X407162Y143875D01*
X406978Y143730D01*
X406792Y143590D01*
X406601Y143454D01*
X406408Y143323D01*
X406212Y143197D01*
X406012Y143075D01*
X405810Y142958D01*
X405604Y142847D01*
X405396Y142740D01*
X405186Y142638D01*
X404973Y142542D01*
X404758Y142450D01*
X404541Y142364D01*
X404322Y142284D01*
X404100Y142208D01*
X403877Y142138D01*
X403653Y142074D01*
X403427Y142015D01*
X403199Y141961D01*
X402971Y141913D01*
X402741Y141871D01*
X402510Y141834D01*
X402279Y141803D01*
X402046Y141777D01*
X401813Y141758D01*
X401580Y141743D01*
X401347Y141735D01*
X401113Y141732D01*
X390727Y152118D02*
X411499Y178082D01*
D10*
X215900Y419100D02*
X88900Y419100D01*
X215900Y419100D02*
X216514Y419107D01*
X217127Y419130D01*
X217740Y419167D01*
X218351Y419219D01*
X218962Y419285D01*
X219570Y419367D01*
X220176Y419463D01*
X220780Y419573D01*
X221381Y419698D01*
X221979Y419838D01*
X222573Y419992D01*
X223163Y420161D01*
X223749Y420343D01*
X224330Y420540D01*
X224907Y420751D01*
X225478Y420975D01*
X226044Y421213D01*
X226604Y421465D01*
X227157Y421731D01*
X227704Y422009D01*
X228244Y422301D01*
X228777Y422606D01*
X229302Y422924D01*
X229820Y423254D01*
X230329Y423596D01*
X230830Y423951D01*
X231322Y424318D01*
X231805Y424696D01*
X232279Y425086D01*
X232743Y425488D01*
X233198Y425900D01*
X233642Y426324D01*
X234076Y426758D01*
X234500Y427202D01*
X234912Y427657D01*
X235314Y428121D01*
X235704Y428595D01*
X236082Y429078D01*
X236449Y429570D01*
X236804Y430071D01*
X237146Y430580D01*
X237476Y431098D01*
X237794Y431623D01*
X238099Y432156D01*
X238391Y432696D01*
X238669Y433243D01*
X238935Y433796D01*
X239187Y434356D01*
X239425Y434922D01*
X239649Y435493D01*
X239860Y436070D01*
X240057Y436651D01*
X240239Y437237D01*
X240408Y437827D01*
X240562Y438421D01*
X240702Y439019D01*
X240827Y439620D01*
X240937Y440224D01*
X241033Y440830D01*
X241115Y441438D01*
X241181Y442049D01*
X241233Y442660D01*
X241270Y443273D01*
X241293Y443886D01*
X241300Y444500D01*
X241300Y584200D01*
X241293Y584814D01*
X241270Y585427D01*
X241233Y586040D01*
X241181Y586651D01*
X241115Y587262D01*
X241033Y587870D01*
X240937Y588476D01*
X240827Y589080D01*
X240702Y589681D01*
X240562Y590279D01*
X240408Y590873D01*
X240239Y591463D01*
X240057Y592049D01*
X239860Y592630D01*
X239649Y593207D01*
X239425Y593778D01*
X239187Y594344D01*
X238935Y594904D01*
X238669Y595457D01*
X238391Y596004D01*
X238099Y596544D01*
X237794Y597077D01*
X237476Y597602D01*
X237146Y598120D01*
X236804Y598629D01*
X236449Y599130D01*
X236082Y599622D01*
X235704Y600105D01*
X235314Y600579D01*
X234912Y601043D01*
X234500Y601498D01*
X234076Y601942D01*
X233642Y602376D01*
X233198Y602800D01*
X232743Y603212D01*
X232279Y603614D01*
X231805Y604004D01*
X231322Y604382D01*
X230830Y604749D01*
X230329Y605104D01*
X229820Y605446D01*
X229302Y605776D01*
X228777Y606094D01*
X228244Y606399D01*
X227704Y606691D01*
X227157Y606969D01*
X226604Y607235D01*
X226044Y607487D01*
X225478Y607725D01*
X224907Y607949D01*
X224330Y608160D01*
X223749Y608357D01*
X223163Y608539D01*
X222573Y608708D01*
X221979Y608862D01*
X221381Y609002D01*
X220780Y609127D01*
X220176Y609237D01*
X219570Y609333D01*
X218962Y609415D01*
X218351Y609481D01*
X217740Y609533D01*
X217127Y609570D01*
X216514Y609593D01*
X215900Y609600D01*
X88900Y609600D01*
X88286Y609593D01*
X87673Y609570D01*
X87060Y609533D01*
X86449Y609481D01*
X85838Y609415D01*
X85230Y609333D01*
X84624Y609237D01*
X84020Y609127D01*
X83419Y609002D01*
X82821Y608862D01*
X82227Y608708D01*
X81637Y608539D01*
X81051Y608357D01*
X80470Y608160D01*
X79893Y607949D01*
X79322Y607725D01*
X78756Y607487D01*
X78196Y607235D01*
X77643Y606969D01*
X77096Y606691D01*
X76556Y606399D01*
X76023Y606094D01*
X75498Y605776D01*
X74980Y605446D01*
X74471Y605104D01*
X73970Y604749D01*
X73478Y604382D01*
X72995Y604004D01*
X72521Y603614D01*
X72057Y603212D01*
X71602Y602800D01*
X71158Y602376D01*
X70724Y601942D01*
X70300Y601498D01*
X69888Y601043D01*
X69486Y600579D01*
X69096Y600105D01*
X68718Y599622D01*
X68351Y599130D01*
X67996Y598629D01*
X67654Y598120D01*
X67324Y597602D01*
X67006Y597077D01*
X66701Y596544D01*
X66409Y596004D01*
X66131Y595457D01*
X65865Y594904D01*
X65613Y594344D01*
X65375Y593778D01*
X65151Y593207D01*
X64940Y592630D01*
X64743Y592049D01*
X64561Y591463D01*
X64392Y590873D01*
X64238Y590279D01*
X64098Y589681D01*
X63973Y589080D01*
X63863Y588476D01*
X63767Y587870D01*
X63685Y587262D01*
X63619Y586651D01*
X63567Y586040D01*
X63530Y585427D01*
X63507Y584814D01*
X63500Y584200D01*
X63500Y444500D01*
X63507Y443886D01*
X63530Y443273D01*
X63567Y442660D01*
X63619Y442049D01*
X63685Y441438D01*
X63767Y440830D01*
X63863Y440224D01*
X63973Y439620D01*
X64098Y439019D01*
X64238Y438421D01*
X64392Y437827D01*
X64561Y437237D01*
X64743Y436651D01*
X64940Y436070D01*
X65151Y435493D01*
X65375Y434922D01*
X65613Y434356D01*
X65865Y433796D01*
X66131Y433243D01*
X66409Y432696D01*
X66701Y432156D01*
X67006Y431623D01*
X67324Y431098D01*
X67654Y430580D01*
X67996Y430071D01*
X68351Y429570D01*
X68718Y429078D01*
X69096Y428595D01*
X69486Y428121D01*
X69888Y427657D01*
X70300Y427202D01*
X70724Y426758D01*
X71158Y426324D01*
X71602Y425900D01*
X72057Y425488D01*
X72521Y425086D01*
X72995Y424696D01*
X73478Y424318D01*
X73970Y423951D01*
X74471Y423596D01*
X74980Y423254D01*
X75498Y422924D01*
X76023Y422606D01*
X76556Y422301D01*
X77096Y422009D01*
X77643Y421731D01*
X78196Y421465D01*
X78756Y421213D01*
X79322Y420975D01*
X79893Y420751D01*
X80470Y420540D01*
X81051Y420343D01*
X81637Y420161D01*
X82227Y419992D01*
X82821Y419838D01*
X83419Y419698D01*
X84020Y419573D01*
X84624Y419463D01*
X85230Y419367D01*
X85838Y419285D01*
X86449Y419219D01*
X87060Y419167D01*
X87673Y419130D01*
X88286Y419107D01*
X88900Y419100D01*
D11*
X88900Y609600D02*
X18600Y609600D01*
X18600Y419100D02*
X88900Y419100D01*
X38100Y419750D02*
X38100Y608950D01*
X34908Y583600D01*
X41292Y583600D01*
X38100Y608950D01*
X36800Y583600D01*
X39400Y583600D02*
X38100Y608950D01*
X35500Y583600D01*
X40700Y583600D02*
X38100Y608950D01*
X34908Y445100D02*
X38100Y419750D01*
X34908Y445100D02*
X41292Y445100D01*
X38100Y419750D01*
X36800Y445100D01*
X39400Y445100D02*
X38100Y419750D01*
X35500Y445100D01*
X40700Y445100D02*
X38100Y419750D01*
D12*
X27275Y497140D02*
X27045Y497143D01*
X26815Y497151D01*
X26586Y497165D01*
X26357Y497184D01*
X26128Y497209D01*
X25900Y497239D01*
X25673Y497274D01*
X25447Y497315D01*
X25222Y497361D01*
X24998Y497413D01*
X24775Y497470D01*
X24554Y497532D01*
X24334Y497600D01*
X24116Y497673D01*
X23900Y497751D01*
X23686Y497834D01*
X23474Y497922D01*
X23263Y498015D01*
X23056Y498114D01*
X22966Y498147D01*
X22877Y498183D01*
X22789Y498223D01*
X22704Y498267D01*
X22620Y498314D01*
X22538Y498364D01*
X22458Y498418D01*
X22381Y498474D01*
X22305Y498534D01*
X22232Y498597D01*
X22162Y498662D01*
X22094Y498731D01*
X22030Y498802D01*
X21968Y498875D01*
X21909Y498951D01*
X21853Y499029D01*
X21800Y499110D01*
X21751Y499192D01*
X21705Y499276D01*
X21662Y499363D01*
X21623Y499450D01*
X21587Y499540D01*
X21555Y499630D01*
X21527Y499722D01*
X21502Y499815D01*
X21481Y499909D01*
X21464Y500003D01*
X21450Y500098D01*
X21441Y500194D01*
X21435Y500290D01*
X21433Y500386D01*
X21435Y500482D01*
X21441Y500578D01*
X21450Y500674D01*
X21464Y500769D01*
X21481Y500863D01*
X21502Y500957D01*
X21527Y501050D01*
X21555Y501142D01*
X21587Y501232D01*
X21623Y501322D01*
X21662Y501410D01*
X21705Y501496D01*
X21751Y501580D01*
X21800Y501662D01*
X21853Y501743D01*
X21909Y501821D01*
X21968Y501897D01*
X22030Y501970D01*
X22094Y502041D01*
X22162Y502110D01*
X22232Y502175D01*
X22305Y502238D01*
X22381Y502298D01*
X22458Y502354D01*
X22538Y502408D01*
X22620Y502458D01*
X22704Y502505D01*
X22789Y502549D01*
X22877Y502589D01*
X22966Y502625D01*
X23056Y502658D01*
X23263Y502757D01*
X23474Y502850D01*
X23686Y502938D01*
X23900Y503021D01*
X24116Y503099D01*
X24334Y503172D01*
X24554Y503240D01*
X24775Y503302D01*
X24998Y503359D01*
X25222Y503411D01*
X25447Y503457D01*
X25673Y503498D01*
X25900Y503533D01*
X26128Y503563D01*
X26357Y503588D01*
X26586Y503607D01*
X26815Y503621D01*
X27045Y503629D01*
X27275Y503632D01*
X27275Y497140D02*
X27505Y497143D01*
X27735Y497151D01*
X27964Y497165D01*
X28193Y497184D01*
X28422Y497209D01*
X28650Y497239D01*
X28877Y497274D01*
X29103Y497315D01*
X29328Y497361D01*
X29552Y497413D01*
X29775Y497470D01*
X29996Y497532D01*
X30216Y497600D01*
X30434Y497673D01*
X30650Y497751D01*
X30864Y497834D01*
X31076Y497922D01*
X31287Y498015D01*
X31494Y498114D01*
X31584Y498147D01*
X31673Y498183D01*
X31761Y498224D01*
X31846Y498267D01*
X31930Y498314D01*
X32012Y498364D01*
X32092Y498418D01*
X32169Y498474D01*
X32245Y498534D01*
X32318Y498597D01*
X32388Y498662D01*
X32456Y498731D01*
X32520Y498802D01*
X32582Y498875D01*
X32641Y498951D01*
X32697Y499029D01*
X32750Y499110D01*
X32799Y499192D01*
X32845Y499276D01*
X32888Y499363D01*
X32927Y499450D01*
X32963Y499540D01*
X32995Y499630D01*
X33023Y499722D01*
X33048Y499815D01*
X33069Y499909D01*
X33086Y500003D01*
X33100Y500098D01*
X33109Y500194D01*
X33115Y500290D01*
X33117Y500386D01*
X31494Y502658D02*
X31287Y502757D01*
X31076Y502850D01*
X30864Y502938D01*
X30650Y503021D01*
X30434Y503099D01*
X30216Y503172D01*
X29996Y503240D01*
X29775Y503302D01*
X29552Y503359D01*
X29328Y503411D01*
X29103Y503457D01*
X28877Y503498D01*
X28650Y503533D01*
X28422Y503563D01*
X28193Y503588D01*
X27964Y503607D01*
X27735Y503621D01*
X27505Y503629D01*
X27275Y503632D01*
X31494Y502658D02*
X31584Y502625D01*
X31673Y502589D01*
X31761Y502549D01*
X31846Y502505D01*
X31930Y502458D01*
X32012Y502408D01*
X32092Y502354D01*
X32169Y502298D01*
X32245Y502238D01*
X32318Y502175D01*
X32388Y502110D01*
X32456Y502041D01*
X32520Y501970D01*
X32582Y501897D01*
X32641Y501821D01*
X32697Y501743D01*
X32750Y501662D01*
X32799Y501580D01*
X32845Y501496D01*
X32888Y501409D01*
X32927Y501322D01*
X32963Y501232D01*
X32995Y501142D01*
X33023Y501050D01*
X33048Y500957D01*
X33069Y500863D01*
X33086Y500769D01*
X33100Y500674D01*
X33109Y500578D01*
X33115Y500482D01*
X33117Y500386D01*
X30521Y497789D02*
X24029Y502982D01*
X32468Y508062D02*
X33117Y508062D01*
X32468Y508062D02*
X32468Y508711D01*
X33117Y508711D01*
X33117Y508062D01*
X22731Y513142D02*
X21433Y513142D01*
X21433Y519633D01*
X33117Y516388D01*
X33117Y524572D02*
X33117Y528467D01*
X33115Y528566D01*
X33109Y528666D01*
X33100Y528765D01*
X33087Y528863D01*
X33070Y528961D01*
X33049Y529059D01*
X33024Y529155D01*
X32996Y529250D01*
X32964Y529344D01*
X32929Y529437D01*
X32890Y529529D01*
X32847Y529619D01*
X32802Y529707D01*
X32752Y529794D01*
X32700Y529878D01*
X32644Y529961D01*
X32586Y530041D01*
X32524Y530119D01*
X32459Y530194D01*
X32391Y530267D01*
X32321Y530337D01*
X32248Y530405D01*
X32173Y530470D01*
X32095Y530532D01*
X32015Y530590D01*
X31932Y530646D01*
X31848Y530698D01*
X31761Y530748D01*
X31673Y530793D01*
X31583Y530836D01*
X31491Y530875D01*
X31398Y530910D01*
X31304Y530942D01*
X31209Y530970D01*
X31113Y530995D01*
X31015Y531016D01*
X30917Y531033D01*
X30819Y531046D01*
X30720Y531055D01*
X30620Y531061D01*
X30521Y531063D01*
X29222Y531063D01*
X29123Y531061D01*
X29023Y531055D01*
X28924Y531046D01*
X28826Y531033D01*
X28728Y531016D01*
X28630Y530995D01*
X28534Y530970D01*
X28439Y530942D01*
X28345Y530910D01*
X28252Y530875D01*
X28160Y530836D01*
X28070Y530793D01*
X27982Y530748D01*
X27895Y530698D01*
X27811Y530646D01*
X27728Y530590D01*
X27648Y530532D01*
X27570Y530470D01*
X27495Y530405D01*
X27422Y530337D01*
X27352Y530267D01*
X27284Y530194D01*
X27219Y530119D01*
X27157Y530041D01*
X27099Y529961D01*
X27043Y529878D01*
X26991Y529794D01*
X26941Y529707D01*
X26896Y529619D01*
X26853Y529529D01*
X26814Y529437D01*
X26779Y529344D01*
X26747Y529250D01*
X26719Y529155D01*
X26694Y529059D01*
X26673Y528961D01*
X26656Y528863D01*
X26643Y528765D01*
X26634Y528666D01*
X26628Y528566D01*
X26626Y528467D01*
X26626Y524572D01*
X21433Y524572D01*
X21433Y531063D01*
D11*
X63500Y584200D02*
X63500Y654500D01*
X241300Y654500D02*
X241300Y584200D01*
X240650Y635000D02*
X64150Y635000D01*
X89500Y638192D01*
X89500Y631808D01*
X64150Y635000D01*
X89500Y636300D01*
X89500Y633700D02*
X64150Y635000D01*
X89500Y637600D01*
X89500Y632400D02*
X64150Y635000D01*
X215300Y638192D02*
X240650Y635000D01*
X215300Y638192D02*
X215300Y631808D01*
X240650Y635000D01*
X215300Y636300D01*
X215300Y633700D02*
X240650Y635000D01*
X215300Y637600D01*
X215300Y632400D02*
X240650Y635000D01*
D12*
X136165Y650044D02*
X136066Y649836D01*
X135973Y649626D01*
X135885Y649414D01*
X135802Y649200D01*
X135724Y648983D01*
X135651Y648765D01*
X135583Y648546D01*
X135521Y648324D01*
X135464Y648102D01*
X135412Y647878D01*
X135366Y647653D01*
X135325Y647427D01*
X135290Y647199D01*
X135260Y646972D01*
X135235Y646743D01*
X135216Y646514D01*
X135202Y646285D01*
X135194Y646055D01*
X135191Y645825D01*
X136164Y650044D02*
X136197Y650134D01*
X136233Y650223D01*
X136273Y650311D01*
X136317Y650396D01*
X136364Y650480D01*
X136414Y650562D01*
X136468Y650642D01*
X136524Y650719D01*
X136584Y650795D01*
X136647Y650868D01*
X136712Y650938D01*
X136781Y651006D01*
X136852Y651070D01*
X136925Y651132D01*
X137001Y651191D01*
X137079Y651247D01*
X137160Y651300D01*
X137242Y651349D01*
X137326Y651395D01*
X137413Y651438D01*
X137500Y651477D01*
X137590Y651513D01*
X137680Y651545D01*
X137772Y651573D01*
X137865Y651598D01*
X137959Y651619D01*
X138053Y651636D01*
X138148Y651650D01*
X138244Y651659D01*
X138340Y651665D01*
X138436Y651667D01*
X138532Y651665D01*
X138628Y651659D01*
X138724Y651650D01*
X138819Y651636D01*
X138913Y651619D01*
X139007Y651598D01*
X139100Y651573D01*
X139192Y651545D01*
X139282Y651513D01*
X139372Y651477D01*
X139459Y651438D01*
X139546Y651395D01*
X139630Y651349D01*
X139712Y651300D01*
X139793Y651247D01*
X139871Y651191D01*
X139947Y651132D01*
X140020Y651070D01*
X140091Y651006D01*
X140160Y650938D01*
X140225Y650868D01*
X140288Y650795D01*
X140348Y650719D01*
X140404Y650642D01*
X140458Y650562D01*
X140508Y650480D01*
X140555Y650396D01*
X140599Y650311D01*
X140639Y650223D01*
X140675Y650134D01*
X140708Y650044D01*
X140807Y649837D01*
X140900Y649627D01*
X140988Y649414D01*
X141071Y649200D01*
X141149Y648984D01*
X141222Y648766D01*
X141290Y648546D01*
X141352Y648325D01*
X141409Y648102D01*
X141461Y647878D01*
X141507Y647653D01*
X141548Y647427D01*
X141583Y647200D01*
X141613Y646972D01*
X141638Y646743D01*
X141657Y646514D01*
X141671Y646285D01*
X141679Y646055D01*
X141682Y645825D01*
X135190Y645825D02*
X135193Y645595D01*
X135201Y645365D01*
X135215Y645136D01*
X135234Y644907D01*
X135259Y644678D01*
X135289Y644450D01*
X135324Y644223D01*
X135365Y643997D01*
X135411Y643772D01*
X135463Y643548D01*
X135520Y643325D01*
X135582Y643104D01*
X135650Y642884D01*
X135723Y642666D01*
X135801Y642450D01*
X135884Y642236D01*
X135972Y642024D01*
X136065Y641813D01*
X136164Y641606D01*
X136197Y641516D01*
X136233Y641427D01*
X136274Y641339D01*
X136317Y641254D01*
X136364Y641170D01*
X136414Y641088D01*
X136468Y641008D01*
X136524Y640931D01*
X136584Y640855D01*
X136647Y640782D01*
X136712Y640712D01*
X136781Y640644D01*
X136852Y640580D01*
X136925Y640518D01*
X137001Y640459D01*
X137079Y640403D01*
X137160Y640350D01*
X137242Y640301D01*
X137326Y640255D01*
X137413Y640212D01*
X137500Y640173D01*
X137590Y640137D01*
X137680Y640105D01*
X137772Y640077D01*
X137865Y640052D01*
X137959Y640031D01*
X138053Y640014D01*
X138148Y640000D01*
X138244Y639991D01*
X138340Y639985D01*
X138436Y639983D01*
X140708Y641606D02*
X140807Y641813D01*
X140900Y642024D01*
X140988Y642236D01*
X141071Y642450D01*
X141149Y642666D01*
X141222Y642884D01*
X141290Y643104D01*
X141352Y643325D01*
X141409Y643548D01*
X141461Y643772D01*
X141507Y643997D01*
X141548Y644223D01*
X141583Y644450D01*
X141613Y644678D01*
X141638Y644907D01*
X141657Y645136D01*
X141671Y645365D01*
X141679Y645595D01*
X141682Y645825D01*
X140708Y641606D02*
X140675Y641516D01*
X140639Y641427D01*
X140599Y641339D01*
X140555Y641254D01*
X140508Y641170D01*
X140458Y641088D01*
X140404Y641008D01*
X140348Y640931D01*
X140288Y640855D01*
X140225Y640782D01*
X140160Y640712D01*
X140091Y640644D01*
X140020Y640580D01*
X139947Y640518D01*
X139871Y640459D01*
X139793Y640403D01*
X139712Y640350D01*
X139630Y640301D01*
X139546Y640255D01*
X139459Y640212D01*
X139372Y640173D01*
X139282Y640137D01*
X139192Y640105D01*
X139100Y640077D01*
X139007Y640052D01*
X138913Y640031D01*
X138819Y640014D01*
X138724Y640000D01*
X138628Y639991D01*
X138532Y639985D01*
X138436Y639983D01*
X135839Y642579D02*
X141032Y649071D01*
X146112Y640632D02*
X146112Y639983D01*
X146112Y640632D02*
X146761Y640632D01*
X146761Y639983D01*
X146112Y639983D01*
X151192Y650369D02*
X151192Y651667D01*
X157683Y651667D01*
X154438Y639983D01*
X162623Y645825D02*
X162626Y646055D01*
X162634Y646285D01*
X162648Y646514D01*
X162667Y646743D01*
X162692Y646972D01*
X162722Y647199D01*
X162757Y647427D01*
X162798Y647653D01*
X162844Y647878D01*
X162896Y648102D01*
X162953Y648324D01*
X163015Y648546D01*
X163083Y648765D01*
X163156Y648983D01*
X163234Y649200D01*
X163317Y649414D01*
X163405Y649626D01*
X163498Y649836D01*
X163597Y650044D01*
X163596Y650044D02*
X163629Y650134D01*
X163665Y650223D01*
X163705Y650311D01*
X163749Y650396D01*
X163796Y650480D01*
X163846Y650562D01*
X163900Y650642D01*
X163956Y650719D01*
X164016Y650795D01*
X164079Y650868D01*
X164144Y650938D01*
X164213Y651006D01*
X164284Y651070D01*
X164357Y651132D01*
X164433Y651191D01*
X164511Y651247D01*
X164592Y651300D01*
X164674Y651349D01*
X164758Y651395D01*
X164845Y651438D01*
X164932Y651477D01*
X165022Y651513D01*
X165112Y651545D01*
X165204Y651573D01*
X165297Y651598D01*
X165391Y651619D01*
X165485Y651636D01*
X165580Y651650D01*
X165676Y651659D01*
X165772Y651665D01*
X165868Y651667D01*
X165964Y651665D01*
X166060Y651659D01*
X166156Y651650D01*
X166251Y651636D01*
X166345Y651619D01*
X166439Y651598D01*
X166532Y651573D01*
X166624Y651545D01*
X166714Y651513D01*
X166804Y651477D01*
X166891Y651438D01*
X166978Y651395D01*
X167062Y651349D01*
X167144Y651300D01*
X167225Y651247D01*
X167303Y651191D01*
X167379Y651132D01*
X167452Y651070D01*
X167523Y651006D01*
X167592Y650938D01*
X167657Y650868D01*
X167720Y650795D01*
X167780Y650719D01*
X167836Y650642D01*
X167890Y650562D01*
X167940Y650480D01*
X167987Y650396D01*
X168031Y650311D01*
X168071Y650223D01*
X168107Y650134D01*
X168140Y650044D01*
X168239Y649837D01*
X168332Y649627D01*
X168420Y649414D01*
X168503Y649200D01*
X168581Y648984D01*
X168654Y648766D01*
X168722Y648546D01*
X168784Y648325D01*
X168841Y648102D01*
X168893Y647878D01*
X168939Y647653D01*
X168980Y647427D01*
X169015Y647200D01*
X169045Y646972D01*
X169070Y646743D01*
X169089Y646514D01*
X169103Y646285D01*
X169111Y646055D01*
X169114Y645825D01*
X162622Y645825D02*
X162625Y645595D01*
X162633Y645365D01*
X162647Y645136D01*
X162666Y644907D01*
X162691Y644678D01*
X162721Y644450D01*
X162756Y644223D01*
X162797Y643997D01*
X162843Y643772D01*
X162895Y643548D01*
X162952Y643325D01*
X163014Y643104D01*
X163082Y642884D01*
X163155Y642666D01*
X163233Y642450D01*
X163316Y642236D01*
X163404Y642024D01*
X163497Y641813D01*
X163596Y641606D01*
X163629Y641516D01*
X163665Y641427D01*
X163706Y641339D01*
X163749Y641254D01*
X163796Y641170D01*
X163846Y641088D01*
X163900Y641008D01*
X163956Y640931D01*
X164016Y640855D01*
X164079Y640782D01*
X164144Y640712D01*
X164213Y640644D01*
X164284Y640580D01*
X164357Y640518D01*
X164433Y640459D01*
X164511Y640403D01*
X164592Y640350D01*
X164674Y640301D01*
X164758Y640255D01*
X164845Y640212D01*
X164932Y640173D01*
X165022Y640137D01*
X165112Y640105D01*
X165204Y640077D01*
X165297Y640052D01*
X165391Y640031D01*
X165485Y640014D01*
X165580Y640000D01*
X165676Y639991D01*
X165772Y639985D01*
X165868Y639983D01*
X168139Y641606D02*
X168238Y641813D01*
X168331Y642024D01*
X168419Y642236D01*
X168502Y642450D01*
X168580Y642666D01*
X168653Y642884D01*
X168721Y643104D01*
X168783Y643325D01*
X168840Y643548D01*
X168892Y643772D01*
X168938Y643997D01*
X168979Y644223D01*
X169014Y644450D01*
X169044Y644678D01*
X169069Y644907D01*
X169088Y645136D01*
X169102Y645365D01*
X169110Y645595D01*
X169113Y645825D01*
X168140Y641606D02*
X168107Y641516D01*
X168071Y641427D01*
X168031Y641339D01*
X167987Y641254D01*
X167940Y641170D01*
X167890Y641088D01*
X167836Y641008D01*
X167780Y640931D01*
X167720Y640855D01*
X167657Y640782D01*
X167592Y640712D01*
X167523Y640644D01*
X167452Y640580D01*
X167379Y640518D01*
X167303Y640459D01*
X167225Y640403D01*
X167144Y640350D01*
X167062Y640301D01*
X166978Y640255D01*
X166891Y640212D01*
X166804Y640173D01*
X166714Y640137D01*
X166624Y640105D01*
X166532Y640077D01*
X166439Y640052D01*
X166345Y640031D01*
X166251Y640014D01*
X166156Y640000D01*
X166060Y639991D01*
X165964Y639985D01*
X165868Y639983D01*
X163271Y642579D02*
X168464Y649071D01*
X122957Y597549D02*
X119712Y597549D01*
X122957Y597550D02*
X123070Y597548D01*
X123183Y597542D01*
X123296Y597532D01*
X123409Y597518D01*
X123521Y597501D01*
X123632Y597479D01*
X123742Y597454D01*
X123852Y597424D01*
X123960Y597391D01*
X124067Y597354D01*
X124173Y597314D01*
X124277Y597269D01*
X124380Y597221D01*
X124481Y597170D01*
X124580Y597115D01*
X124677Y597057D01*
X124772Y596995D01*
X124865Y596930D01*
X124955Y596862D01*
X125043Y596791D01*
X125129Y596716D01*
X125212Y596639D01*
X125292Y596559D01*
X125369Y596476D01*
X125444Y596390D01*
X125515Y596302D01*
X125583Y596212D01*
X125648Y596119D01*
X125710Y596024D01*
X125768Y595927D01*
X125823Y595828D01*
X125874Y595727D01*
X125922Y595624D01*
X125967Y595520D01*
X126007Y595414D01*
X126044Y595307D01*
X126077Y595199D01*
X126107Y595089D01*
X126132Y594979D01*
X126154Y594868D01*
X126171Y594756D01*
X126185Y594643D01*
X126195Y594530D01*
X126201Y594417D01*
X126203Y594304D01*
X126201Y594191D01*
X126195Y594078D01*
X126185Y593965D01*
X126171Y593852D01*
X126154Y593740D01*
X126132Y593629D01*
X126107Y593519D01*
X126077Y593409D01*
X126044Y593301D01*
X126007Y593194D01*
X125967Y593088D01*
X125922Y592984D01*
X125874Y592881D01*
X125823Y592780D01*
X125768Y592681D01*
X125710Y592584D01*
X125648Y592489D01*
X125583Y592396D01*
X125515Y592306D01*
X125444Y592218D01*
X125369Y592132D01*
X125292Y592049D01*
X125212Y591969D01*
X125129Y591892D01*
X125043Y591817D01*
X124955Y591746D01*
X124865Y591678D01*
X124772Y591613D01*
X124677Y591551D01*
X124580Y591493D01*
X124481Y591438D01*
X124380Y591387D01*
X124277Y591339D01*
X124173Y591294D01*
X124067Y591254D01*
X123960Y591217D01*
X123852Y591184D01*
X123742Y591154D01*
X123632Y591129D01*
X123521Y591107D01*
X123409Y591090D01*
X123296Y591076D01*
X123183Y591066D01*
X123070Y591060D01*
X122957Y591058D01*
X119712Y591058D01*
X119712Y602742D01*
X122957Y602742D01*
X123058Y602740D01*
X123158Y602734D01*
X123258Y602724D01*
X123358Y602711D01*
X123457Y602693D01*
X123556Y602672D01*
X123653Y602647D01*
X123750Y602618D01*
X123845Y602585D01*
X123939Y602549D01*
X124031Y602509D01*
X124122Y602466D01*
X124211Y602419D01*
X124298Y602369D01*
X124384Y602315D01*
X124467Y602258D01*
X124547Y602198D01*
X124626Y602135D01*
X124702Y602068D01*
X124775Y601999D01*
X124845Y601927D01*
X124913Y601853D01*
X124978Y601776D01*
X125039Y601696D01*
X125098Y601614D01*
X125153Y601530D01*
X125205Y601444D01*
X125254Y601356D01*
X125299Y601266D01*
X125341Y601174D01*
X125379Y601081D01*
X125413Y600986D01*
X125444Y600891D01*
X125471Y600794D01*
X125494Y600696D01*
X125514Y600597D01*
X125529Y600497D01*
X125541Y600397D01*
X125549Y600297D01*
X125553Y600196D01*
X125553Y600096D01*
X125549Y599995D01*
X125541Y599895D01*
X125529Y599795D01*
X125514Y599695D01*
X125494Y599596D01*
X125471Y599498D01*
X125444Y599401D01*
X125413Y599306D01*
X125379Y599211D01*
X125341Y599118D01*
X125299Y599026D01*
X125254Y598936D01*
X125205Y598848D01*
X125153Y598762D01*
X125098Y598678D01*
X125039Y598596D01*
X124978Y598516D01*
X124913Y598439D01*
X124845Y598365D01*
X124775Y598293D01*
X124702Y598224D01*
X124626Y598157D01*
X124547Y598094D01*
X124467Y598034D01*
X124384Y597977D01*
X124298Y597923D01*
X124211Y597873D01*
X124122Y597826D01*
X124031Y597783D01*
X123939Y597743D01*
X123845Y597707D01*
X123750Y597674D01*
X123653Y597645D01*
X123556Y597620D01*
X123457Y597599D01*
X123358Y597581D01*
X123258Y597568D01*
X123158Y597558D01*
X123058Y597552D01*
X122957Y597550D01*
X131085Y602742D02*
X131085Y591058D01*
X134980Y596251D02*
X131085Y602742D01*
X134980Y596251D02*
X138875Y602742D01*
X138875Y591058D01*
X144858Y591058D02*
X144858Y602742D01*
X148103Y602742D01*
X148216Y602740D01*
X148329Y602734D01*
X148442Y602724D01*
X148555Y602710D01*
X148667Y602693D01*
X148778Y602671D01*
X148888Y602646D01*
X148998Y602616D01*
X149106Y602583D01*
X149213Y602546D01*
X149319Y602506D01*
X149423Y602461D01*
X149526Y602413D01*
X149627Y602362D01*
X149726Y602307D01*
X149823Y602249D01*
X149918Y602187D01*
X150011Y602122D01*
X150101Y602054D01*
X150189Y601983D01*
X150275Y601908D01*
X150358Y601831D01*
X150438Y601751D01*
X150515Y601668D01*
X150590Y601582D01*
X150661Y601494D01*
X150729Y601404D01*
X150794Y601311D01*
X150856Y601216D01*
X150914Y601119D01*
X150969Y601020D01*
X151020Y600919D01*
X151068Y600816D01*
X151113Y600712D01*
X151153Y600606D01*
X151190Y600499D01*
X151223Y600391D01*
X151253Y600281D01*
X151278Y600171D01*
X151300Y600060D01*
X151317Y599948D01*
X151331Y599835D01*
X151341Y599722D01*
X151347Y599609D01*
X151349Y599496D01*
X151347Y599383D01*
X151341Y599270D01*
X151331Y599157D01*
X151317Y599044D01*
X151300Y598932D01*
X151278Y598821D01*
X151253Y598711D01*
X151223Y598601D01*
X151190Y598493D01*
X151153Y598386D01*
X151113Y598280D01*
X151068Y598176D01*
X151020Y598073D01*
X150969Y597972D01*
X150914Y597873D01*
X150856Y597776D01*
X150794Y597681D01*
X150729Y597588D01*
X150661Y597498D01*
X150590Y597410D01*
X150515Y597324D01*
X150438Y597241D01*
X150358Y597161D01*
X150275Y597084D01*
X150189Y597009D01*
X150101Y596938D01*
X150011Y596870D01*
X149918Y596805D01*
X149823Y596743D01*
X149726Y596685D01*
X149627Y596630D01*
X149526Y596579D01*
X149423Y596531D01*
X149319Y596486D01*
X149213Y596446D01*
X149106Y596409D01*
X148998Y596376D01*
X148888Y596346D01*
X148778Y596321D01*
X148667Y596299D01*
X148555Y596282D01*
X148442Y596268D01*
X148329Y596258D01*
X148216Y596252D01*
X148103Y596250D01*
X148103Y596251D02*
X144858Y596251D01*
X159307Y602742D02*
X159414Y602740D01*
X159520Y602734D01*
X159626Y602724D01*
X159732Y602711D01*
X159838Y602693D01*
X159942Y602672D01*
X160046Y602647D01*
X160149Y602618D01*
X160250Y602586D01*
X160350Y602549D01*
X160449Y602509D01*
X160547Y602466D01*
X160643Y602419D01*
X160737Y602368D01*
X160829Y602314D01*
X160919Y602257D01*
X161007Y602197D01*
X161092Y602133D01*
X161175Y602066D01*
X161256Y601996D01*
X161334Y601924D01*
X161410Y601848D01*
X161482Y601770D01*
X161552Y601689D01*
X161619Y601606D01*
X161683Y601521D01*
X161743Y601433D01*
X161800Y601343D01*
X161854Y601251D01*
X161905Y601157D01*
X161952Y601061D01*
X161995Y600963D01*
X162035Y600864D01*
X162072Y600764D01*
X162104Y600663D01*
X162133Y600560D01*
X162158Y600456D01*
X162179Y600352D01*
X162197Y600246D01*
X162210Y600140D01*
X162220Y600034D01*
X162226Y599928D01*
X162228Y599821D01*
X159307Y602742D02*
X159186Y602740D01*
X159065Y602734D01*
X158945Y602724D01*
X158824Y602711D01*
X158705Y602693D01*
X158585Y602672D01*
X158467Y602647D01*
X158350Y602618D01*
X158233Y602585D01*
X158118Y602549D01*
X158004Y602508D01*
X157891Y602465D01*
X157779Y602417D01*
X157670Y602366D01*
X157562Y602311D01*
X157455Y602253D01*
X157351Y602192D01*
X157249Y602127D01*
X157149Y602059D01*
X157051Y601988D01*
X156955Y601914D01*
X156862Y601837D01*
X156772Y601756D01*
X156684Y601673D01*
X156599Y601587D01*
X156516Y601498D01*
X156437Y601407D01*
X156360Y601313D01*
X156287Y601217D01*
X156217Y601119D01*
X156150Y601018D01*
X156086Y600915D01*
X156026Y600810D01*
X155969Y600703D01*
X155915Y600595D01*
X155865Y600485D01*
X155819Y600373D01*
X155776Y600260D01*
X155737Y600145D01*
X161255Y597549D02*
X161334Y597626D01*
X161410Y597707D01*
X161483Y597790D01*
X161553Y597875D01*
X161620Y597963D01*
X161684Y598053D01*
X161744Y598145D01*
X161801Y598240D01*
X161855Y598336D01*
X161906Y598434D01*
X161953Y598534D01*
X161997Y598636D01*
X162037Y598739D01*
X162073Y598843D01*
X162105Y598949D01*
X162134Y599055D01*
X162159Y599163D01*
X162181Y599271D01*
X162198Y599381D01*
X162212Y599490D01*
X162221Y599600D01*
X162227Y599711D01*
X162229Y599821D01*
X161255Y597549D02*
X155737Y591058D01*
X162228Y591058D01*
X167167Y594304D02*
X167169Y594417D01*
X167175Y594530D01*
X167185Y594643D01*
X167199Y594756D01*
X167216Y594868D01*
X167238Y594979D01*
X167263Y595089D01*
X167293Y595199D01*
X167326Y595307D01*
X167363Y595414D01*
X167403Y595520D01*
X167448Y595624D01*
X167496Y595727D01*
X167547Y595828D01*
X167602Y595927D01*
X167660Y596024D01*
X167722Y596119D01*
X167787Y596212D01*
X167855Y596302D01*
X167926Y596390D01*
X168001Y596476D01*
X168078Y596559D01*
X168158Y596639D01*
X168241Y596716D01*
X168327Y596791D01*
X168415Y596862D01*
X168505Y596930D01*
X168598Y596995D01*
X168693Y597057D01*
X168790Y597115D01*
X168889Y597170D01*
X168990Y597221D01*
X169093Y597269D01*
X169197Y597314D01*
X169303Y597354D01*
X169410Y597391D01*
X169518Y597424D01*
X169628Y597454D01*
X169738Y597479D01*
X169849Y597501D01*
X169961Y597518D01*
X170074Y597532D01*
X170187Y597542D01*
X170300Y597548D01*
X170413Y597550D01*
X170526Y597548D01*
X170639Y597542D01*
X170752Y597532D01*
X170865Y597518D01*
X170977Y597501D01*
X171088Y597479D01*
X171198Y597454D01*
X171308Y597424D01*
X171416Y597391D01*
X171523Y597354D01*
X171629Y597314D01*
X171733Y597269D01*
X171836Y597221D01*
X171937Y597170D01*
X172036Y597115D01*
X172133Y597057D01*
X172228Y596995D01*
X172321Y596930D01*
X172411Y596862D01*
X172499Y596791D01*
X172585Y596716D01*
X172668Y596639D01*
X172748Y596559D01*
X172825Y596476D01*
X172900Y596390D01*
X172971Y596302D01*
X173039Y596212D01*
X173104Y596119D01*
X173166Y596024D01*
X173224Y595927D01*
X173279Y595828D01*
X173330Y595727D01*
X173378Y595624D01*
X173423Y595520D01*
X173463Y595414D01*
X173500Y595307D01*
X173533Y595199D01*
X173563Y595089D01*
X173588Y594979D01*
X173610Y594868D01*
X173627Y594756D01*
X173641Y594643D01*
X173651Y594530D01*
X173657Y594417D01*
X173659Y594304D01*
X173657Y594191D01*
X173651Y594078D01*
X173641Y593965D01*
X173627Y593852D01*
X173610Y593740D01*
X173588Y593629D01*
X173563Y593519D01*
X173533Y593409D01*
X173500Y593301D01*
X173463Y593194D01*
X173423Y593088D01*
X173378Y592984D01*
X173330Y592881D01*
X173279Y592780D01*
X173224Y592681D01*
X173166Y592584D01*
X173104Y592489D01*
X173039Y592396D01*
X172971Y592306D01*
X172900Y592218D01*
X172825Y592132D01*
X172748Y592049D01*
X172668Y591969D01*
X172585Y591892D01*
X172499Y591817D01*
X172411Y591746D01*
X172321Y591678D01*
X172228Y591613D01*
X172133Y591551D01*
X172036Y591493D01*
X171937Y591438D01*
X171836Y591387D01*
X171733Y591339D01*
X171629Y591294D01*
X171523Y591254D01*
X171416Y591217D01*
X171308Y591184D01*
X171198Y591154D01*
X171088Y591129D01*
X170977Y591107D01*
X170865Y591090D01*
X170752Y591076D01*
X170639Y591066D01*
X170526Y591060D01*
X170413Y591058D01*
X170300Y591060D01*
X170187Y591066D01*
X170074Y591076D01*
X169961Y591090D01*
X169849Y591107D01*
X169738Y591129D01*
X169628Y591154D01*
X169518Y591184D01*
X169410Y591217D01*
X169303Y591254D01*
X169197Y591294D01*
X169093Y591339D01*
X168990Y591387D01*
X168889Y591438D01*
X168790Y591493D01*
X168693Y591551D01*
X168598Y591613D01*
X168505Y591678D01*
X168415Y591746D01*
X168327Y591817D01*
X168241Y591892D01*
X168158Y591969D01*
X168078Y592049D01*
X168001Y592132D01*
X167926Y592218D01*
X167855Y592306D01*
X167787Y592396D01*
X167722Y592489D01*
X167660Y592584D01*
X167602Y592681D01*
X167547Y592780D01*
X167496Y592881D01*
X167448Y592984D01*
X167403Y593088D01*
X167363Y593194D01*
X167326Y593301D01*
X167293Y593409D01*
X167263Y593519D01*
X167238Y593629D01*
X167216Y593740D01*
X167199Y593852D01*
X167185Y593965D01*
X167175Y594078D01*
X167169Y594191D01*
X167167Y594304D01*
X167817Y600146D02*
X167819Y600247D01*
X167825Y600347D01*
X167835Y600447D01*
X167848Y600547D01*
X167866Y600646D01*
X167887Y600745D01*
X167912Y600842D01*
X167941Y600939D01*
X167974Y601034D01*
X168010Y601128D01*
X168050Y601220D01*
X168093Y601311D01*
X168140Y601400D01*
X168190Y601487D01*
X168244Y601573D01*
X168301Y601656D01*
X168361Y601736D01*
X168424Y601815D01*
X168491Y601891D01*
X168560Y601964D01*
X168632Y602034D01*
X168706Y602102D01*
X168783Y602167D01*
X168863Y602228D01*
X168945Y602287D01*
X169029Y602342D01*
X169115Y602394D01*
X169203Y602443D01*
X169293Y602488D01*
X169385Y602530D01*
X169478Y602568D01*
X169573Y602602D01*
X169668Y602633D01*
X169765Y602660D01*
X169863Y602683D01*
X169962Y602703D01*
X170062Y602718D01*
X170162Y602730D01*
X170262Y602738D01*
X170363Y602742D01*
X170463Y602742D01*
X170564Y602738D01*
X170664Y602730D01*
X170764Y602718D01*
X170864Y602703D01*
X170963Y602683D01*
X171061Y602660D01*
X171158Y602633D01*
X171253Y602602D01*
X171348Y602568D01*
X171441Y602530D01*
X171533Y602488D01*
X171623Y602443D01*
X171711Y602394D01*
X171797Y602342D01*
X171881Y602287D01*
X171963Y602228D01*
X172043Y602167D01*
X172120Y602102D01*
X172194Y602034D01*
X172266Y601964D01*
X172335Y601891D01*
X172402Y601815D01*
X172465Y601736D01*
X172525Y601656D01*
X172582Y601573D01*
X172636Y601487D01*
X172686Y601400D01*
X172733Y601311D01*
X172776Y601220D01*
X172816Y601128D01*
X172852Y601034D01*
X172885Y600939D01*
X172914Y600842D01*
X172939Y600745D01*
X172960Y600646D01*
X172978Y600547D01*
X172991Y600447D01*
X173001Y600347D01*
X173007Y600247D01*
X173009Y600146D01*
X173007Y600045D01*
X173001Y599945D01*
X172991Y599845D01*
X172978Y599745D01*
X172960Y599646D01*
X172939Y599547D01*
X172914Y599450D01*
X172885Y599353D01*
X172852Y599258D01*
X172816Y599164D01*
X172776Y599072D01*
X172733Y598981D01*
X172686Y598892D01*
X172636Y598805D01*
X172582Y598719D01*
X172525Y598636D01*
X172465Y598556D01*
X172402Y598477D01*
X172335Y598401D01*
X172266Y598328D01*
X172194Y598258D01*
X172120Y598190D01*
X172043Y598125D01*
X171963Y598064D01*
X171881Y598005D01*
X171797Y597950D01*
X171711Y597898D01*
X171623Y597849D01*
X171533Y597804D01*
X171441Y597762D01*
X171348Y597724D01*
X171253Y597690D01*
X171158Y597659D01*
X171061Y597632D01*
X170963Y597609D01*
X170864Y597589D01*
X170764Y597574D01*
X170664Y597562D01*
X170564Y597554D01*
X170463Y597550D01*
X170363Y597550D01*
X170262Y597554D01*
X170162Y597562D01*
X170062Y597574D01*
X169962Y597589D01*
X169863Y597609D01*
X169765Y597632D01*
X169668Y597659D01*
X169573Y597690D01*
X169478Y597724D01*
X169385Y597762D01*
X169293Y597804D01*
X169203Y597849D01*
X169115Y597898D01*
X169029Y597950D01*
X168945Y598005D01*
X168863Y598064D01*
X168783Y598125D01*
X168706Y598190D01*
X168632Y598258D01*
X168560Y598328D01*
X168491Y598401D01*
X168424Y598477D01*
X168361Y598556D01*
X168301Y598636D01*
X168244Y598719D01*
X168190Y598805D01*
X168140Y598892D01*
X168093Y598981D01*
X168050Y599072D01*
X168010Y599164D01*
X167974Y599258D01*
X167941Y599353D01*
X167912Y599450D01*
X167887Y599547D01*
X167866Y599646D01*
X167848Y599745D01*
X167835Y599845D01*
X167825Y599945D01*
X167819Y600045D01*
X167817Y600146D01*
X178598Y596900D02*
X178601Y597130D01*
X178609Y597360D01*
X178623Y597589D01*
X178642Y597818D01*
X178667Y598047D01*
X178697Y598274D01*
X178732Y598502D01*
X178773Y598728D01*
X178819Y598953D01*
X178871Y599177D01*
X178928Y599399D01*
X178990Y599621D01*
X179058Y599840D01*
X179131Y600058D01*
X179209Y600275D01*
X179292Y600489D01*
X179380Y600701D01*
X179473Y600911D01*
X179572Y601119D01*
X179571Y601119D02*
X179604Y601209D01*
X179640Y601298D01*
X179680Y601386D01*
X179724Y601471D01*
X179771Y601555D01*
X179821Y601637D01*
X179875Y601717D01*
X179931Y601794D01*
X179991Y601870D01*
X180054Y601943D01*
X180119Y602013D01*
X180188Y602081D01*
X180259Y602145D01*
X180332Y602207D01*
X180408Y602266D01*
X180486Y602322D01*
X180567Y602375D01*
X180649Y602424D01*
X180733Y602470D01*
X180820Y602513D01*
X180907Y602552D01*
X180997Y602588D01*
X181087Y602620D01*
X181179Y602648D01*
X181272Y602673D01*
X181366Y602694D01*
X181460Y602711D01*
X181555Y602725D01*
X181651Y602734D01*
X181747Y602740D01*
X181843Y602742D01*
X181939Y602740D01*
X182035Y602734D01*
X182131Y602725D01*
X182226Y602711D01*
X182320Y602694D01*
X182414Y602673D01*
X182507Y602648D01*
X182599Y602620D01*
X182689Y602588D01*
X182779Y602552D01*
X182866Y602513D01*
X182953Y602470D01*
X183037Y602424D01*
X183119Y602375D01*
X183200Y602322D01*
X183278Y602266D01*
X183354Y602207D01*
X183427Y602145D01*
X183498Y602081D01*
X183567Y602013D01*
X183632Y601943D01*
X183695Y601870D01*
X183755Y601794D01*
X183811Y601717D01*
X183865Y601637D01*
X183915Y601555D01*
X183962Y601471D01*
X184006Y601386D01*
X184046Y601298D01*
X184082Y601209D01*
X184115Y601119D01*
X184214Y600912D01*
X184307Y600702D01*
X184395Y600489D01*
X184478Y600275D01*
X184556Y600059D01*
X184629Y599841D01*
X184697Y599621D01*
X184759Y599400D01*
X184816Y599177D01*
X184868Y598953D01*
X184914Y598728D01*
X184955Y598502D01*
X184990Y598275D01*
X185020Y598047D01*
X185045Y597818D01*
X185064Y597589D01*
X185078Y597360D01*
X185086Y597130D01*
X185089Y596900D01*
X178597Y596900D02*
X178600Y596670D01*
X178608Y596440D01*
X178622Y596211D01*
X178641Y595982D01*
X178666Y595753D01*
X178696Y595525D01*
X178731Y595298D01*
X178772Y595072D01*
X178818Y594847D01*
X178870Y594623D01*
X178927Y594400D01*
X178989Y594179D01*
X179057Y593959D01*
X179130Y593741D01*
X179208Y593525D01*
X179291Y593311D01*
X179379Y593099D01*
X179472Y592888D01*
X179571Y592681D01*
X179604Y592591D01*
X179640Y592502D01*
X179681Y592414D01*
X179724Y592329D01*
X179771Y592245D01*
X179821Y592163D01*
X179875Y592083D01*
X179931Y592006D01*
X179991Y591930D01*
X180054Y591857D01*
X180119Y591787D01*
X180188Y591719D01*
X180259Y591655D01*
X180332Y591593D01*
X180408Y591534D01*
X180486Y591478D01*
X180567Y591425D01*
X180649Y591376D01*
X180733Y591330D01*
X180820Y591287D01*
X180907Y591248D01*
X180997Y591212D01*
X181087Y591180D01*
X181179Y591152D01*
X181272Y591127D01*
X181366Y591106D01*
X181460Y591089D01*
X181555Y591075D01*
X181651Y591066D01*
X181747Y591060D01*
X181843Y591058D01*
X184115Y592681D02*
X184214Y592888D01*
X184307Y593099D01*
X184395Y593311D01*
X184478Y593525D01*
X184556Y593741D01*
X184629Y593959D01*
X184697Y594179D01*
X184759Y594400D01*
X184816Y594623D01*
X184868Y594847D01*
X184914Y595072D01*
X184955Y595298D01*
X184990Y595525D01*
X185020Y595753D01*
X185045Y595982D01*
X185064Y596211D01*
X185078Y596440D01*
X185086Y596670D01*
X185089Y596900D01*
X184115Y592681D02*
X184082Y592591D01*
X184046Y592502D01*
X184006Y592414D01*
X183962Y592329D01*
X183915Y592245D01*
X183865Y592163D01*
X183811Y592083D01*
X183755Y592006D01*
X183695Y591930D01*
X183632Y591857D01*
X183567Y591787D01*
X183498Y591719D01*
X183427Y591655D01*
X183354Y591593D01*
X183278Y591534D01*
X183200Y591478D01*
X183119Y591425D01*
X183037Y591376D01*
X182953Y591330D01*
X182866Y591287D01*
X182779Y591248D01*
X182689Y591212D01*
X182599Y591180D01*
X182507Y591152D01*
X182414Y591127D01*
X182320Y591106D01*
X182226Y591089D01*
X182131Y591075D01*
X182035Y591066D01*
X181939Y591060D01*
X181843Y591058D01*
X179246Y593654D02*
X184439Y600146D01*
M02*
