M48
;GenerationSoftware,Autodesk,EAGLE,9.2.2*%
;CreationDate,2018-11-19T16:25:04Z*%
FMAT,2
ICI,OFF
METRIC,TZ,000.000
T4C0.800
T3C2.032
T2C2.540
%
G90
M71
T2
X50800Y6350
X50800Y24130
X5080Y6350
X5080Y24130
T3
X21590Y58420
X8890Y58420
T4
X7620Y44450
X21590Y5080
X19050Y5080
X16510Y5080
X13970Y5080
X11430Y5080
X8890Y5080
X29210Y25400
X26670Y25400
X24130Y5080
X10160Y44450
X12700Y44450
X15240Y44450
X17780Y44450
X20320Y44450
X22860Y44450
X24130Y25400
X21590Y25400
X44450Y5080
X34290Y25400
X36830Y25400
X39370Y25400
X41910Y25400
X44450Y25400
X46990Y25400
X19050Y25400
X46990Y5080
X31750Y25400
X41910Y5080
X39370Y5080
X36830Y5080
X34290Y5080
X31750Y5080
X29210Y5080
X26670Y5080
M30